<?xml version="1.0" encoding="utf-8"?>
<!-- Generator: Adobe Illustrator 18.0.0, SVG Export Plug-In . SVG Version: 6.00 Build 0)  -->
<!DOCTYPE svg PUBLIC "-//W3C//DTD SVG 1.1//EN" "http://www.w3.org/Graphics/SVG/1.1/DTD/svg11.dtd">
<svg version="1.1" id="Layer_1" xmlns="http://www.w3.org/2000/svg" xmlns:xlink="http://www.w3.org/1999/xlink" x="0px" y="0px"
	 viewBox="0 0 64 64" enable-background="new 0 0 64 64" xml:space="preserve">
<g>
	<circle fill="#AAAAAA" cx="32" cy="32" r="32"/>
</g>
<path fill="#FFFFFF" d="M22.2,11.7c2.4,0,4.7,4.9,5.8,6.7c0.4,0.7,1.6,1.6,1.1,2.9c-0.8,2.1-3.8,2-4.3,4.6c-0.3,1.9,2,5.1,2.8,6.2
	c1.8,2.5,4.3,4.3,7,5.9c0.8,0.5,2.3,1.5,3.8,1.1c2-0.6,2.7-5.1,5.4-4.3c2.1,1.4,4.3,2.8,6.4,4.2c0.6,0.4,1.6,0.7,1.9,1.5
	c0.8,2-1.8,6-2.8,6.8c-3,2.3-11.5-0.1-14-1.1c-8.2-3.4-14.6-9.9-17.9-18.3c-0.9-2.4-2.6-10.2-0.9-13C17.7,13,20,12.7,22.2,11.7z"/>
<path fill="#FFFFFF" d="M14.2,47c0-0.7,0.3-1.4,0.8-1.9L45.1,15c1.1-1.1,2.8-1.1,3.8,0c0.6,0.6,0.8,1.2,0.8,2s-0.3,1.4-0.8,1.9
	L18.9,49c-1.1,1.1-2.8,1.1-3.8,0C14.5,48.5,14.2,47.8,14.2,47z"/>
<g>
	<path fill="#AAAAAA" d="M49.4,17c0,0.6-0.2,1.2-0.7,1.6L18.6,48.7c-0.9,0.9-2.3,0.9-3.2,0l0,0c-0.4-0.4-0.7-1-0.7-1.6
		s0.2-1.2,0.7-1.6l30.1-30.1c0.9-0.9,2.3-0.9,3.2,0l0,0C49.1,15.8,49.4,16.4,49.4,17 M50.3,17c0-0.8-0.3-1.6-0.9-2.2l0,0
		c-1.2-1.2-3.2-1.2-4.5,0L14.7,44.8c-0.6,0.6-0.9,1.4-0.9,2.2s0.3,1.6,0.9,2.2l0,0c1.2,1.2,3.2,1.2,4.5,0l30.1-30.1
		C49.9,18.6,50.3,17.8,50.3,17L50.3,17z"/>
</g>
</svg>
