<?xml version="1.0" encoding="iso-8859-1"?>
<!-- Generator: Adobe Illustrator 18.0.0, SVG Export Plug-In . SVG Version: 6.00 Build 0)  -->
<!DOCTYPE svg PUBLIC "-//W3C//DTD SVG 1.1//EN" "http://www.w3.org/Graphics/SVG/1.1/DTD/svg11.dtd">
<svg version="1.1" id="Layer_1" xmlns="http://www.w3.org/2000/svg" xmlns:xlink="http://www.w3.org/1999/xlink" x="0px" y="0px"
	 viewBox="0 0 64 64" style="enable-background:new 0 0 64 64;" xml:space="preserve">
<g>
	<g>
		<circle style="fill-rule:evenodd;clip-rule:evenodd;fill:#2A9BDB;" cx="32" cy="32" r="32"/>
	</g>
	<path style="fill:#FFFFFF;stroke:#FFFFFF;stroke-width:0.1309;stroke-miterlimit:10;" d="M36.799,41.081H15.683
		c-1.068,0-1.934-0.866-1.934-1.934V24.83c0-1.068,0.866-1.934,1.934-1.934h21.115c1.068,0,1.934,0.866,1.934,1.934v14.317
		C38.733,40.215,37.867,41.081,36.799,41.081z M50.241,22.953c-1.789-0.158-3.633,0.448-5.002,1.817l-3.461,3.461
		c-2.101,2.101-2.101,5.506,0,7.607l3.424,3.424c1.381,1.381,3.246,1.986,5.049,1.813"/>
	<g>
		<path style="fill-rule:evenodd;clip-rule:evenodd;fill:#FFFFFF;" d="M45.159,49.805c-0.726,0-1.407-0.282-1.92-0.795
			L13.104,18.875c-1.058-1.059-1.058-2.781,0-3.84c0.558-0.558,1.24-0.84,1.965-0.84s1.407,0.282,1.92,0.795l30.135,30.135
			c1.058,1.059,1.058,2.78,0,3.84C46.565,49.522,45.884,49.805,45.159,49.805z"/>
		<g>
			<path style="fill:#2A9BDB;" d="M15.069,14.642c0.606,0,1.176,0.236,1.604,0.664l30.134,30.134c0.884,0.884,0.884,2.324,0,3.208
				l-0.045,0.045c-0.428,0.428-0.998,0.664-1.604,0.664c-0.606,0-1.176-0.236-1.604-0.664L13.42,18.559
				c-0.884-0.884-0.884-2.324,0-3.208l0.045-0.045C13.894,14.878,14.464,14.642,15.069,14.642 M15.069,13.749
				c-0.809,0-1.618,0.309-2.235,0.926l-0.045,0.045c-1.235,1.235-1.235,3.236,0,4.471l30.134,30.134
				c0.617,0.617,1.426,0.926,2.235,0.926c0.809,0,1.618-0.309,2.235-0.926l0.045-0.045c1.235-1.235,1.235-3.236,0-4.471
				L17.305,14.675C16.688,14.058,15.878,13.749,15.069,13.749L15.069,13.749z"/>
		</g>
	</g>
</g>
</svg>
