<?xml version="1.0" encoding="utf-8"?>
<!-- Generator: Adobe Illustrator 18.0.0, SVG Export Plug-In . SVG Version: 6.00 Build 0)  -->
<!DOCTYPE svg PUBLIC "-//W3C//DTD SVG 1.1//EN" "http://www.w3.org/Graphics/SVG/1.1/DTD/svg11.dtd">
<svg version="1.1" id="Layer_1" xmlns="http://www.w3.org/2000/svg" xmlns:xlink="http://www.w3.org/1999/xlink" x="0px" y="0px"
	 viewBox="0 0 64 64" enable-background="new 0 0 64 64" xml:space="preserve">
<g>
	<circle fill="#12B825" cx="32" cy="32" r="32"/>
</g>
<path fill="#FFFFFF" d="M20.2,13.7c2.4,0,4.7,4.9,5.8,6.7c0.4,0.7,1.6,1.6,1.1,2.9c-0.8,2.1-3.8,2-4.3,4.6c-0.3,1.9,2,5.1,2.8,6.2
	c1.8,2.5,4.3,4.3,7,5.9c0.8,0.5,2.3,1.5,3.8,1.1c2-0.6,2.7-5.1,5.4-4.3c2.1,1.4,4.3,2.8,6.4,4.2c0.6,0.4,1.6,0.7,1.9,1.5
	c0.8,2-1.8,6-2.8,6.8c-3,2.3-11.5-0.1-14-1.1c-8.2-3.4-14.6-9.9-17.9-18.3c-0.9-2.4-2.6-10.2-0.9-13C15.7,15,18,14.7,20.2,13.7z"/>
</svg>
