<?xml version="1.0" encoding="iso-8859-1"?>
<!-- Generator: Adobe Illustrator 18.0.0, SVG Export Plug-In . SVG Version: 6.00 Build 0)  -->
<!DOCTYPE svg PUBLIC "-//W3C//DTD SVG 1.1//EN" "http://www.w3.org/Graphics/SVG/1.1/DTD/svg11.dtd">
<svg version="1.1" id="Layer_1" xmlns="http://www.w3.org/2000/svg" xmlns:xlink="http://www.w3.org/1999/xlink" x="0px" y="0px"
	 viewBox="0 0 64 64" style="enable-background:new 0 0 64 64;" xml:space="preserve">
<g>
	<g>
		<circle style="fill-rule:evenodd;clip-rule:evenodd;fill:#2A9BDB;" cx="32" cy="32" r="32"/>
	</g>
	<path style="fill:#FFFFFF;stroke:#FFFFFF;stroke-width:0.0716;stroke-miterlimit:10;" d="M15.305,32.937
		c0,9.221,7.474,16.696,16.695,16.696s16.695-7.475,16.695-16.696v-0.03c0-0.003,0-0.006,0-0.009c-0.004-0.52-0.423-0.94-0.938-0.94
		h-2.702c-0.518,0-0.939,0.425-0.939,0.948v0.03c0,6.692-5.424,12.117-12.116,12.117s-12.116-5.425-12.116-12.117
		S25.309,20.82,32,20.82v4.233c0,0.203,0.041,0.397,0.115,0.573c0.075,0.179,0.185,0.34,0.32,0.475
		c0.268,0.268,0.639,0.434,1.048,0.434c0.276,0,0.533-0.075,0.754-0.206h0l0.005-0.003c0.004-0.002,0.008-0.005,0.012-0.007
		l5.099-3.013l4.161-2.46l1.597-0.944c0.218-0.129,0.4-0.312,0.528-0.531c0.128-0.219,0.201-0.473,0.201-0.745
		c0-0.544-0.293-1.019-0.729-1.277l-2.514-1.485l-8.344-4.931c-0.004-0.002-0.008-0.004-0.012-0.007l-0.005-0.003h0
		c-0.221-0.131-0.478-0.206-0.754-0.206C32.664,10.717,32,11.381,32,12.2v4.04C22.78,16.241,15.305,23.716,15.305,32.937z"/>
</g>
</svg>
