<?xml version="1.0" encoding="iso-8859-1"?>
<!-- Generator: Adobe Illustrator 18.0.0, SVG Export Plug-In . SVG Version: 6.00 Build 0)  -->
<!DOCTYPE svg PUBLIC "-//W3C//DTD SVG 1.1//EN" "http://www.w3.org/Graphics/SVG/1.1/DTD/svg11.dtd">
<svg version="1.1" id="Layer_1" xmlns="http://www.w3.org/2000/svg" xmlns:xlink="http://www.w3.org/1999/xlink" x="0px" y="0px"
	 viewBox="0 0 64 64" style="enable-background:new 0 0 64 64;" xml:space="preserve">
<g>
	<g>
		<circle style="fill-rule:evenodd;clip-rule:evenodd;fill:#2A9BDB;" cx="32" cy="32" r="32"/>
	</g>
	
		<path id="PAUSE_2_" style="fill-rule:evenodd;clip-rule:evenodd;fill:#FFFFFF;stroke:#FFFFFF;stroke-width:0.1309;stroke-miterlimit:10;" d="
		M40.423,50.251c-2.326,0-4.212-1.886-4.212-4.212V17.961c0-2.326,1.886-4.212,4.212-4.212c2.326,0,4.212,1.886,4.212,4.212v28.078
		C44.635,48.365,42.749,50.251,40.423,50.251z M23.577,50.251c-2.326,0-4.212-1.886-4.212-4.212V17.961
		c0-2.326,1.886-4.212,4.212-4.212c2.326,0,4.212,1.886,4.212,4.212v28.078C27.788,48.365,25.903,50.251,23.577,50.251z"/>
</g>
</svg>
