<?xml version="1.0" encoding="iso-8859-1"?>
<!-- Generator: Adobe Illustrator 18.0.0, SVG Export Plug-In . SVG Version: 6.00 Build 0)  -->
<!DOCTYPE svg PUBLIC "-//W3C//DTD SVG 1.1//EN" "http://www.w3.org/Graphics/SVG/1.1/DTD/svg11.dtd">
<svg version="1.1" id="Layer_1" xmlns="http://www.w3.org/2000/svg" xmlns:xlink="http://www.w3.org/1999/xlink" x="0px" y="0px"
	 viewBox="0 0 64 64" style="enable-background:new 0 0 64 64;" xml:space="preserve">
<g>
	<g>
		<circle style="fill-rule:evenodd;clip-rule:evenodd;fill:#2A9BDB;" cx="32" cy="32" r="32"/>
	</g>
	
		<path id="MICROPHONE_2_" style="fill-rule:evenodd;clip-rule:evenodd;fill:#FFFFFF;stroke:#FFFFFF;stroke-width:0.0555;stroke-miterlimit:10;" d="
		M44.548,30.302c0,6.345-4.719,11.576-10.836,12.406v4.121h5.703c0.945,0,1.711,0.766,1.711,1.711c0,0.945-0.766,1.711-1.711,1.711
		H32h-7.414c-0.945,0-1.711-0.766-1.711-1.711c0-0.945,0.766-1.711,1.711-1.711h5.703v-4.121
		c-6.117-0.831-10.837-6.061-10.837-12.406c0-0.003,0-0.006,0-0.009c0-0.001,0-0.003,0-0.004c0-0.945,0.766-1.711,1.711-1.711
		c0.945,0,1.711,0.766,1.711,1.711h0c0.002,5.039,4.086,9.123,9.125,9.125c5.039-0.002,9.123-4.086,9.125-9.125h0
		c0-0.945,0.766-1.711,1.711-1.711c0.945,0,1.711,0.766,1.711,1.711c0,0.002,0,0.003,0,0.004
		C44.547,30.296,44.548,30.299,44.548,30.302z M32,36.563L32,36.563c-3.78,0-6.844-3.064-6.844-6.844v-9.126
		c0-3.78,3.064-6.844,6.844-6.844l0,0c3.78,0,6.844,3.064,6.844,6.844v9.126C38.844,33.499,35.78,36.563,32,36.563z"/>
</g>
</svg>
