<?xml version="1.0" encoding="iso-8859-1"?>
<!-- Generator: Adobe Illustrator 18.0.0, SVG Export Plug-In . SVG Version: 6.00 Build 0)  -->
<!DOCTYPE svg PUBLIC "-//W3C//DTD SVG 1.1//EN" "http://www.w3.org/Graphics/SVG/1.1/DTD/svg11.dtd">
<svg version="1.1" id="Layer_1" xmlns="http://www.w3.org/2000/svg" xmlns:xlink="http://www.w3.org/1999/xlink" x="0px" y="0px"
	 viewBox="0 0 64 64" style="enable-background:new 0 0 64 64;" xml:space="preserve">
<g>
	<circle style="fill:#2A9BDB;" cx="32" cy="32" r="32"/>
</g>
<path style="fill:#FFFFFF;" d="M25.729,30.154l-5.493,4.944l-0.004-0.005c-0.334,0.3-0.785,0.472-1.282,0.417
	c-0.768-0.085-1.382-0.705-1.456-1.474c-0.054-0.553,0.169-1.049,0.541-1.384l-0.004-0.009l2.301-2.076h-6.866
	c-0.416,0-0.753-0.337-0.753-0.753v-1.77c0-0.416,0.337-0.753,0.753-0.753h6.866l-2.301-2.076l0.004-0.006
	c-0.375-0.337-0.598-0.84-0.54-1.395c0.08-0.767,0.695-1.384,1.462-1.466c0.494-0.053,0.943,0.119,1.275,0.418l0.004-0.005
	l5.493,4.944l-0.004,0.004c0.335,0.302,0.549,0.734,0.549,1.221c0,0.486-0.215,0.918-0.549,1.22L25.729,30.154z"/>
<path id="USER_6_" style="fill:#FFFFFF;" d="M52.213,48.316c0,0.001,0,0.002,0,0.004c0,0.894-0.725,1.619-1.619,1.619H19.285
	c-0.894,0-1.619-0.725-1.619-1.619c0-0.001,0-0.003,0-0.004h-0.001c0,0,0-5.901,4.312-8.047c2.728-1.357,1.678-0.255,5.028-1.645
	c3.35-1.387,4.143-1.871,4.143-1.871l0.032-3.198c0,0-1.255-0.96-1.644-3.968c-0.785,0.227-1.044-0.922-1.091-1.653
	c-0.042-0.706-0.454-2.913,0.503-2.713c-0.196-1.473-0.337-2.801-0.268-3.505c0.24-2.471,2.62-5.052,6.285-5.24
	c4.311,0.188,6.019,2.768,6.258,5.238c0.07,0.704-0.084,2.033-0.28,3.504c0.958-0.197,0.542,2.006,0.495,2.713
	c-0.042,0.731-0.308,1.876-1.09,1.649c-0.391,3.008-1.646,3.96-1.646,3.96l0.029,3.181c0,0,0.793,0.453,4.143,1.84
	c3.35,1.389,2.299,0.35,5.028,1.708C52.214,42.414,52.214,48.315,52.213,48.316L52.213,48.316L52.213,48.316z"/>
</svg>
