<?xml version="1.0" encoding="iso-8859-1"?>
<!-- Generator: Adobe Illustrator 18.0.0, SVG Export Plug-In . SVG Version: 6.00 Build 0)  -->
<!DOCTYPE svg PUBLIC "-//W3C//DTD SVG 1.1//EN" "http://www.w3.org/Graphics/SVG/1.1/DTD/svg11.dtd">
<svg version="1.1" id="Layer_1" xmlns="http://www.w3.org/2000/svg" xmlns:xlink="http://www.w3.org/1999/xlink" x="0px" y="0px"
	 viewBox="0 0 64 64" style="enable-background:new 0 0 64 64;" xml:space="preserve">
<g>
	<g>
		<circle style="fill-rule:evenodd;clip-rule:evenodd;fill:#2A9BDB;" cx="32" cy="32" r="32"/>
	</g>
	
		<path id="PLUS_1_" style="fill-rule:evenodd;clip-rule:evenodd;fill:#FFFFFF;stroke:#FFFFFF;stroke-width:3.2914;stroke-miterlimit:10;" d="
		M47.622,34.343H34.343v13.279c0,1.294-1.049,2.343-2.343,2.343c-1.294,0-2.343-1.049-2.343-2.343V34.343H16.378
		c-1.294,0-2.343-1.049-2.343-2.343c0-1.294,1.049-2.343,2.343-2.343h13.279V16.378c0-1.294,1.049-2.343,2.343-2.343
		c1.294,0,2.343,1.049,2.343,2.343v13.279h13.279c1.294,0,2.343,1.049,2.343,2.343C49.966,33.294,48.916,34.343,47.622,34.343z"/>
</g>
</svg>
