<?xml version="1.0" encoding="utf-8"?>
<!-- Generator: Adobe Illustrator 17.1.0, SVG Export Plug-In . SVG Version: 6.00 Build 0)  -->
<!DOCTYPE svg PUBLIC "-//W3C//DTD SVG 1.1//EN" "http://www.w3.org/Graphics/SVG/1.1/DTD/svg11.dtd">
<svg version="1.1" id="Layer_1" xmlns="http://www.w3.org/2000/svg" xmlns:xlink="http://www.w3.org/1999/xlink" x="0px" y="0px"
	 viewBox="0 0 128 88.4" enable-background="new 0 0 128 88.4" xml:space="preserve">
<path id="TICK_2_" fill-rule="evenodd" clip-rule="evenodd" fill="#FFFFFF" d="M125.3,15.6L125.3,15.6L55.2,85.7l0,0
	c-1.7,1.7-3.9,2.7-6.5,2.7c-2.5,0-4.8-1-6.5-2.7l0,0L2.7,46.1l0,0C1,44.4,0,42.1,0,39.6c0-5,4.1-9.1,9.1-9.1c2.5,0,4.8,1,6.5,2.7
	l0,0l33.2,33.2l63.6-63.6l0,0C114,1,116.3,0,118.9,0c5,0,9.1,4.1,9.1,9.1C128,11.7,127,14,125.3,15.6z"/>
</svg>
