<?xml version="1.0" encoding="iso-8859-1"?>
<!-- Generator: Adobe Illustrator 17.1.0, SVG Export Plug-In . SVG Version: 6.00 Build 0)  -->
<!DOCTYPE svg PUBLIC "-//W3C//DTD SVG 1.1//EN" "http://www.w3.org/Graphics/SVG/1.1/DTD/svg11.dtd">
<svg version="1.1" id="Layer_1" xmlns="http://www.w3.org/2000/svg" xmlns:xlink="http://www.w3.org/1999/xlink" x="0px" y="0px"
	 viewBox="0 0 1052 1052" style="enable-background:new 0 0 1052 1052;" xml:space="preserve">
<circle style="fill:#FFDA59;" cx="526.114" cy="526" r="526"/>
<path id="CLOSE_2_" style="fill:#FFFFFF;" d="M811.154,315.984L601.13,526.009L811.154,736.03l0,0
	c9.596,9.6,15.534,22.856,15.534,37.506c0,29.293-23.748,53.042-53.042,53.042c-14.648,0-27.908-5.939-37.506-15.536l0,0
	L526.116,601.021L316.093,811.042l0,0c-9.598,9.597-22.86,15.536-37.506,15.536c-29.294,0-53.042-23.749-53.042-53.042
	c0-14.65,5.937-27.905,15.535-37.506l0,0l210.023-210.022L241.08,315.984l0,0c-9.598-9.6-15.535-22.863-15.535-37.509
	c0-29.293,23.748-53.042,53.042-53.042c14.646,0,27.908,5.936,37.506,15.539l0,0l210.023,210.021l210.023-210.021l0,0
	c9.598-9.604,22.859-15.539,37.506-15.539c29.294,0,53.042,23.749,53.042,53.042C826.687,293.122,820.75,306.384,811.154,315.984
	L811.154,315.984z"/>
</svg>
