<?xml version="1.0" encoding="utf-8"?>
<!-- Generator: Adobe Illustrator 18.0.0, SVG Export Plug-In . SVG Version: 6.00 Build 0)  -->
<!DOCTYPE svg PUBLIC "-//W3C//DTD SVG 1.1//EN" "http://www.w3.org/Graphics/SVG/1.1/DTD/svg11.dtd">
<svg version="1.1" id="Layer_1" xmlns="http://www.w3.org/2000/svg" xmlns:xlink="http://www.w3.org/1999/xlink" x="0px" y="0px"
	 viewBox="0 0 64 58" enable-background="new 0 0 64 58" xml:space="preserve">
<path id="SPEECH_1_2_" fill-rule="evenodd" clip-rule="evenodd" fill="#2A9BDB" d="M61,49H21l0,0h-0.8l-8.1,8.1
	C11.6,57.7,10.8,58,10,58l0,0l0,0c0,0,0,0,0,0c-0.8,0-1.5-0.3-2.1-0.9c0,0,0,0,0,0c-0.1-0.1-0.2-0.3-0.3-0.4c0-0.1-0.1-0.1-0.1-0.2
	c-0.1-0.1-0.1-0.2-0.2-0.3c0-0.1,0-0.1-0.1-0.2c0-0.1-0.1-0.3-0.1-0.4C7,55.4,7,55.2,7,55l0,0v-6H3c-1.7,0-3-1.3-3-3V3
	c0-1.7,1.3-3,3-3h58c1.7,0,3,1.3,3,3v43C64,47.7,62.7,49,61,49z M58,6H6v37h4l0,0h3v4.8l4.8-4.8H26l0,0h32V6z"/>
</svg>
