<?xml version="1.0" encoding="iso-8859-1"?>
<!-- Generator: Adobe Illustrator 18.0.0, SVG Export Plug-In . SVG Version: 6.00 Build 0)  -->
<!DOCTYPE svg PUBLIC "-//W3C//DTD SVG 1.1//EN" "http://www.w3.org/Graphics/SVG/1.1/DTD/svg11.dtd">
<svg version="1.1" id="Layer_1" xmlns="http://www.w3.org/2000/svg" xmlns:xlink="http://www.w3.org/1999/xlink" x="0px" y="0px"
	 viewBox="0 0 64 64" style="enable-background:new 0 0 64 64;" xml:space="preserve">
<g>
	<g>
		<circle style="fill-rule:evenodd;clip-rule:evenodd;fill:#2A9BDB;" cx="32" cy="32" r="32"/>
	</g>
	<path style="fill:#FFFFFF;stroke:#FFFFFF;stroke-width:0.0716;stroke-miterlimit:10;" d="M47.751,44.243v2.555
		c0,0.874-0.777,1.543-1.642,1.417c-5.969-0.868-11.124-4.451-14.087-9.465c-2.966,5.021-8.105,8.607-14.133,9.469
		c-0.865,0.124-1.64-0.544-1.64-1.417v-2.555c0-0.701,0.508-1.298,1.2-1.412c6.504-1.077,11.447-6.495,11.866-13.153
		c0.108,2.378,0.644,4.645,1.527,6.729c-0.876-2.078-1.402-4.335-1.509-6.711c-0.014-0.301-0.012-0.606-0.012-0.892h-4.932
		c-0.239,0-0.468-0.066-0.675-0.153c-0.21-0.089-0.4-0.226-0.559-0.385c-0.315-0.316-0.5-0.756-0.5-1.239
		c0-0.324,0.11-0.631,0.253-0.891v-0.001l-0.006-0.006c0.003-0.005,0-0.009,0.003-0.014l3.543-6.001l2.893-4.897l1.11-1.88
		c0.152-0.256,0.367-0.471,0.624-0.621c0.258-0.15,0.557-0.236,0.877-0.236c0.016,0,0.031,0.001,0.047,0.001h0.016
		c0.001,0,0.001,0,0.001,0c0.004,0,0.006,0,0.009,0.001c0.005-0.001,0.009-0.001,0.015-0.001h0.001c0.006,0,0.011,0,0.017,0.001
		c0.006-0.001,0.011-0.001,0.017-0.001h0.005c0.016,0,0.033-0.001,0.05-0.001c0.32,0,0.619,0.087,0.877,0.237
		c0.258,0.15,0.474,0.365,0.625,0.621l1.111,1.88l2.895,4.897l3.545,6.001c0.003,0.004-0.01,0.009-0.007,0.014l-0.011,0.006v0.001
		c0.215,0.26,0.258,0.563,0.258,0.887c0,0.483-0.188,0.919-0.504,1.234c-0.158,0.159-0.344,0.305-0.555,0.394
		c-0.208,0.087-0.432,0.153-0.671,0.153h-4.933c0,0.286-0.007,0.591-0.021,0.892c-0.002,0.049-0.004,0.097-0.008,0.146
		c0.482,6.584,5.426,11.912,11.822,12.986C47.244,42.947,47.751,43.543,47.751,44.243z"/>
</g>
</svg>
