<?xml version="1.0" encoding="utf-8"?>
<!-- Generator: Adobe Illustrator 18.0.0, SVG Export Plug-In . SVG Version: 6.00 Build 0)  -->
<!DOCTYPE svg PUBLIC "-//W3C//DTD SVG 1.1//EN" "http://www.w3.org/Graphics/SVG/1.1/DTD/svg11.dtd">
<svg version="1.1" id="Layer_1" xmlns="http://www.w3.org/2000/svg" xmlns:xlink="http://www.w3.org/1999/xlink" x="0px" y="0px"
	 viewBox="0 0 64 64" enable-background="new 0 0 64 64" xml:space="preserve">
<path id="LIST_2_" fill-rule="evenodd" clip-rule="evenodd" fill="#1C6995" d="M61,35H3c-1.7,0-3-1.3-3-3c0-1.7,1.3-3,3-3h58
	c1.7,0,3,1.3,3,3C64,33.7,62.7,35,61,35z M61,19H3c-1.7,0-3-1.3-3-3c0-1.7,1.3-3,3-3h58c1.7,0,3,1.3,3,3C64,17.7,62.7,19,61,19z
	 M3,45h58c1.7,0,3,1.3,3,3c0,1.7-1.3,3-3,3H3c-1.7,0-3-1.3-3-3C0,46.3,1.3,45,3,45z"/>
</svg>
