<?xml version="1.0" encoding="iso-8859-1"?>
<!-- Generator: Adobe Illustrator 18.0.0, SVG Export Plug-In . SVG Version: 6.00 Build 0)  -->
<!DOCTYPE svg PUBLIC "-//W3C//DTD SVG 1.1//EN" "http://www.w3.org/Graphics/SVG/1.1/DTD/svg11.dtd">
<svg version="1.1" id="Layer_1" xmlns="http://www.w3.org/2000/svg" xmlns:xlink="http://www.w3.org/1999/xlink" x="0px" y="0px"
	 viewBox="0 0 64 64" style="enable-background:new 0 0 64 64;" xml:space="preserve">
<path style="fill-rule:evenodd;clip-rule:evenodd;fill:#2A9BDB;" d="M32,64C14.327,64,0,49.673,0,32C0,14.327,14.327,0,32,0
	s32,14.327,32,32C64,49.673,49.673,64,32,64z M47,34.222l0.007,0.008l-10,9L37,43.222C36.468,43.701,35.772,44,35,44
	c-1.657,0-3-1.343-3-3c0-0.885,0.391-1.673,1-2.222l-0.007-0.008L37.182,35H19c-1.657,0-3-1.343-3-3c0-1.657,1.343-3,3-3h18.182
	l-4.189-3.77l0.007-0.008c-0.61-0.549-1-1.336-1-2.222c0-1.657,1.343-3,3-3c0.772,0,1.468,0.299,2,0.778l0.007-0.008l10,9L47,29.778
	c0.61,0.549,1,1.337,1,2.222C48,32.886,47.609,33.673,47,34.222z"/>
</svg>
