<?xml version="1.0" encoding="utf-8"?>
<!-- Generator: Adobe Illustrator 17.1.0, SVG Export Plug-In . SVG Version: 6.00 Build 0)  -->
<!DOCTYPE svg PUBLIC "-//W3C//DTD SVG 1.1//EN" "http://www.w3.org/Graphics/SVG/1.1/DTD/svg11.dtd">
<svg version="1.1" id="Layer_1" xmlns="http://www.w3.org/2000/svg" xmlns:xlink="http://www.w3.org/1999/xlink" x="0px" y="0px"
	 viewBox="0 0 64 64" enable-background="new 0 0 64 64" xml:space="preserve">
<path id="CIRCLE__x2F__DELETE_2_" fill-rule="evenodd" clip-rule="evenodd" fill="#6E6E6E" d="M32,64C14.3,64,0,49.7,0,32
	C0,14.3,14.3,0,32,0s32,14.3,32,32C64,49.7,49.7,64,32,64z M32,6C17.6,6,6,17.6,6,32c0,14.4,11.6,26,26,26s26-11.6,26-26
	C58,17.6,46.4,6,32,6z M43,46c-0.8,0-1.6-0.3-2.1-0.9l0,0L32,36.2l-8.9,8.9l0,0C22.6,45.7,21.8,46,21,46c-1.7,0-3-1.3-3-3
	c0-0.8,0.3-1.6,0.9-2.1l0,0l8.9-8.9l-8.9-8.9l0,0C18.3,22.6,18,21.8,18,21c0-1.7,1.3-3,3-3c0.8,0,1.6,0.3,2.1,0.9l0,0l8.9,8.9
	l8.9-8.9l0,0c0.5-0.5,1.3-0.9,2.1-0.9c1.7,0,3,1.3,3,3c0,0.8-0.3,1.6-0.9,2.1l0,0L36.2,32l8.9,8.9l0,0c0.5,0.5,0.9,1.3,0.9,2.1
	C46,44.7,44.7,46,43,46z"/>
</svg>
