<?xml version="1.0" encoding="utf-8"?>
<!-- Generator: Adobe Illustrator 18.0.0, SVG Export Plug-In . SVG Version: 6.00 Build 0)  -->
<!DOCTYPE svg PUBLIC "-//W3C//DTD SVG 1.1//EN" "http://www.w3.org/Graphics/SVG/1.1/DTD/svg11.dtd">
<svg version="1.1" id="Layer_1" xmlns="http://www.w3.org/2000/svg" xmlns:xlink="http://www.w3.org/1999/xlink" x="0px" y="0px"
	 viewBox="0 0 56.4 64" enable-background="new 0 0 56.4 64" xml:space="preserve">
<g opacity="0.3">
	<path fill="#319AD6" d="M21.4,0h-3.9c-2.1,0-3.8,1.7-3.8,3.8v47.4c0,2.1,1.6,3.7,3.7,3.8c-0.6,3.3-3.5,5.8-7,5.8
		c-3.9,0-7.2-3.2-7.2-7.2V35.5c0-0.9-0.7-1.6-1.6-1.6c-0.9,0-1.6,0.7-1.6,1.6v18.1C0,59.3,4.7,64,10.4,64c5.3,0,9.6-3.9,10.3-9h0.8
		c2.1,0,3.8-1.7,3.8-3.8V3.8C25.2,1.7,23.5,0,21.4,0L21.4,0z M21.4,0"/>
	<path fill="#319AD6" d="M53.2,6H26.8v46.2h26.4c1.8,0,3.2-1.4,3.2-3.2V9.2C56.4,7.4,55,6,53.2,6L53.2,6z M36.8,47.5h-5.6v-5.6h5.6
		V47.5z M36.8,39.7h-5.6v-5.6h5.6V39.7z M36.9,31.9h-5.6v-5.6h5.6V31.9z M44.8,47.5h-5.6v-5.6h5.6V47.5z M44.8,39.7h-5.6v-5.6h5.6
		V39.7z M44.9,31.9h-5.6v-5.6h5.6V31.9z M52.8,47.5h-5.6v-5.6h5.6V47.5z M52.8,39.7h-5.6v-5.6h5.6V39.7z M52.9,31.9h-5.6v-5.6h5.6
		V31.9z M52.9,15.4H30.3V8.8h22.6V15.4z M52.9,15.4"/>
	<path fill="#319AD6" d="M10.1,52.2h2V6h-2C8.3,6,6.9,7.4,6.9,9.2V49C6.9,50.8,8.3,52.2,10.1,52.2L10.1,52.2z M10.1,52.2"/>
</g>
</svg>
