<?xml version="1.0" encoding="utf-8"?>
<!-- Generator: Adobe Illustrator 18.0.0, SVG Export Plug-In . SVG Version: 6.00 Build 0)  -->
<!DOCTYPE svg PUBLIC "-//W3C//DTD SVG 1.1//EN" "http://www.w3.org/Graphics/SVG/1.1/DTD/svg11.dtd">
<svg version="1.1" id="Layer_1" xmlns="http://www.w3.org/2000/svg" xmlns:xlink="http://www.w3.org/1999/xlink" x="0px" y="0px"
	 viewBox="0 0 100 100" enable-background="new 0 0 100 100" xml:space="preserve">
<path id="ALARM_2_" fill-rule="evenodd" clip-rule="evenodd" fill="#727CC1" d="M96.1,31.5C91.1,20,81.9,10.7,70.3,5.8
	c3.1-2.5,7.1-3.9,11.3-3.9c10.1,0,18.4,8.2,18.4,18.4C100,24.5,98.5,28.4,96.1,31.5z M95.3,51.8c0,12-4.7,22.9-12.4,31.1l6.3,6.3
	c0.8,0.8,1.4,2,1.4,3.3c0,2.6-2.1,4.6-4.6,4.6c-1.3,0-2.4-0.5-3.3-1.4L75.9,89c-7.3,5.1-16.3,8.2-25.9,8.2c-9.6,0-18.5-3-25.9-8.1
	l-6.8,6.8c-0.8,0.8-2,1.4-3.3,1.4c-2.6,0-4.7-2.1-4.7-4.7c0-1.3,0.5-2.5,1.4-3.3l6.3-6.3c-7.6-8.1-12.3-19-12.3-31
	C4.7,26.8,25,6.5,50,6.5S95.3,26.8,95.3,51.8z M50,15.9c-19.8,0-35.9,16.1-35.9,35.9S30.2,87.8,50,87.8c19.8,0,35.9-16.1,35.9-35.9
	S69.8,15.9,50,15.9z M68.8,56.5H50c-2.6,0-4.7-2.1-4.7-4.7v-25c0-2.6,2.1-4.7,4.7-4.7c2.6,0,4.7,2.1,4.7,4.7v20.3h14.1
	c2.6,0,4.7,2.1,4.7,4.7C73.4,54.4,71.3,56.5,68.8,56.5z M4,32.2C1.5,29,0,25,0,20.6C0,10.2,8.4,1.8,18.7,1.8c4.4,0,8.4,1.5,11.6,4
	C18.5,10.9,9.1,20.4,4,32.2z"/>
</svg>
