<?xml version="1.0" encoding="iso-8859-1"?>
<!-- Generator: Adobe Illustrator 17.1.0, SVG Export Plug-In . SVG Version: 6.00 Build 0)  -->
<!DOCTYPE svg PUBLIC "-//W3C//DTD SVG 1.1//EN" "http://www.w3.org/Graphics/SVG/1.1/DTD/svg11.dtd">
<svg version="1.1" id="Layer_1" xmlns="http://www.w3.org/2000/svg" xmlns:xlink="http://www.w3.org/1999/xlink" x="0px" y="0px"
	 viewBox="0 0 40 40" style="enable-background:new 0 0 40 40;" xml:space="preserve">
<g>
	<path style="fill:#FFFFFF;" d="M-434,39c-10.477,0-19-8.523-19-19s8.523-19,19-19s19,8.523,19,19S-423.523,39-434,39z"/>
	<path style="fill:#D53A3A;" d="M-434,2c9.925,0,18,8.075,18,18s-8.075,18-18,18s-18-8.075-18-18S-443.925,2-434,2 M-434,0
		c-11.046,0-20,8.954-20,20s8.954,20,20,20c11.046,0,20-8.954,20-20S-422.954,0-434,0L-434,0z"/>
</g>
<text transform="matrix(1 0 0 1 -438.8908 32.4288)" style="fill:#D53A3A; font-family:'OpenSans-Bold'; font-size:34.9664;">!</text>
<g>
	<path style="fill:#FFFFFF;" d="M-154,35.1c-9.429,0-17.1-7.671-17.1-17.1s7.671-17.1,17.1-17.1s17.1,7.671,17.1,17.1
		S-144.571,35.1-154,35.1z"/>
	<path style="fill:#FFFFFF;" d="M-154,1.8c8.933,0,16.2,7.267,16.2,16.2s-7.267,16.2-16.2,16.2s-16.2-7.267-16.2-16.2
		S-162.933,1.8-154,1.8 M-154,0c-9.941,0-18,8.059-18,18s8.059,18,18,18s18-8.059,18-18S-144.059,0-154,0L-154,0z"/>
</g>
<g>
	<path style="fill:#FFFFFF;" d="M-374,39c-10.477,0-19-8.523-19-19s8.523-19,19-19s19,8.523,19,19S-363.523,39-374,39z"/>
	<path style="fill:#2A9BDB;" d="M-374,2c9.925,0,18,8.075,18,18s-8.075,18-18,18s-18-8.075-18-18S-383.925,2-374,2 M-374,0
		c-11.046,0-20,8.954-20,20s8.954,20,20,20c11.046,0,20-8.954,20-20S-362.954,0-374,0L-374,0z"/>
</g>
<text transform="matrix(1 0 0 1 -381.3098 32.4288)" style="fill:#2A9BDB; font-family:'OpenSans-Bold'; font-size:34.9664;">?</text>
<g>
	<path style="fill:#2A9BDB;" d="M-314,39c-10.477,0-19-8.523-19-19s8.523-19,19-19s19,8.523,19,19S-303.523,39-314,39z"/>
	<path style="fill:#2A9BDB;" d="M-314,2c9.925,0,18,8.075,18,18s-8.075,18-18,18s-18-8.075-18-18S-323.925,2-314,2 M-314,0
		c-11.046,0-20,8.954-20,20s8.954,20,20,20c11.046,0,20-8.954,20-20S-302.954,0-314,0L-314,0z"/>
</g>
<text transform="matrix(1 0 0 1 -319.3545 33.291)" style="fill:#FFFFFF; font-family:'Garamond-Bold'; font-size:41.5087;">i</text>
<g>
	<path style="fill:#FFFFFF;" d="M-254,39c-10.477,0-19-8.523-19-19s8.523-19,19-19s19,8.523,19,19S-243.523,39-254,39z"/>
	<g>
		<path style="fill:#2A9BDB;" d="M-254,2c9.925,0,18,8.075,18,18s-8.075,18-18,18s-18-8.075-18-18S-263.925,2-254,2 M-254,0
			c-11.046,0-20,8.954-20,20s8.954,20,20,20c11.046,0,20-8.954,20-20S-242.954,0-254,0L-254,0z"/>
	</g>
</g>
<text transform="matrix(1 0 0 1 -259.3545 33.291)" style="fill:#2A9BDB; font-family:'Garamond-Bold'; font-size:41.5087;">i</text>
<circle style="fill:#2A9BDB;" cx="-203" cy="10.995" r="11"/>
<circle style="fill:#2A9BDB;" cx="-151" cy="188.995" r="11"/>
<path id="PEN_2_2_" style="fill-rule:evenodd;clip-rule:evenodd;fill:#2A9BDB;" d="M-145.313,26.284h-17.373
	c-0.496,0-0.899-0.402-0.899-0.899c0-0.496,0.402-0.899,0.899-0.899h17.373c0.496,0,0.899,0.402,0.899,0.899
	C-144.415,25.881-144.817,26.284-145.313,26.284z M-148.958,12.964l-2.53-2.525l1.897-1.894c0.349-0.349,0.916-0.349,1.265,0
	l1.265,1.262c0.349,0.349,0.349,0.914,0,1.262L-148.958,12.964z M-157.18,21.17l-2.53-2.525l7.59-7.575l2.53,2.525L-157.18,21.17z
	 M-161.19,22.641l0.842-3.366l2.53,2.525L-161.19,22.641z"/>
<g>
	<path style="fill:#FFFFFF;" d="M-98,35.1c-9.429,0-17.1-7.671-17.1-17.1S-107.429,0.9-98,0.9S-80.9,8.571-80.9,18
		S-88.571,35.1-98,35.1z"/>
	<path style="fill:#FFFFFF;" d="M-98,1.8c8.933,0,16.2,7.267,16.2,16.2S-89.067,34.2-98,34.2s-16.2-7.267-16.2-16.2
		S-106.933,1.8-98,1.8 M-98,0c-9.941,0-18,8.059-18,18s8.059,18,18,18s18-8.059,18-18S-88.059,0-98,0L-98,0z"/>
</g>
<path id="CAMERA_2_" style="fill-rule:evenodd;clip-rule:evenodd;fill:#939393;" d="M-89.844,25.284h-16.313
	c-0.466,0-0.844-0.378-0.844-0.844V13.19c0-0.466,0.378-0.844,0.844-0.844h3.604l1.351-1.351c0.154-0.203,0.396-0.336,0.67-0.336
	h5.062c0.237,0,0.45,0.098,0.604,0.256l0.001-0.001l1.433,1.433h3.588c0.466,0,0.844,0.378,0.844,0.844v11.25
	C-89,24.906-89.378,25.284-89.844,25.284z M-98,13.471c-2.796,0-5.062,2.267-5.062,5.062c0,2.796,2.267,5.062,5.062,5.062
	s5.062-2.266,5.062-5.062C-92.938,15.738-95.204,13.471-98,13.471z M-98,21.909c-1.864,0-3.375-1.511-3.375-3.375
	c0-1.864,1.511-3.375,3.375-3.375s3.375,1.511,3.375,3.375C-94.625,20.398-96.136,21.909-98,21.909z"/>
<path id="SQUARE__x2F__RIGHT_2_" style="fill-rule:evenodd;clip-rule:evenodd;fill:#FFFFFF;" d="M-270.847,105.971h-8.625
	c-1.191,0-2.156-0.965-2.156-2.156c0-1.191,0.965-2.156,2.156-2.156h6.469V95.19l0,0c0-1.191,0.965-2.156,2.156-2.156
	c1.191,0,2.156,0.965,2.156,2.156v8.625C-268.691,105.006-269.656,105.971-270.847,105.971z M-270.847,77.221
	c1.191,0,2.156,0.965,2.156,2.156v7.188c0,1.191-0.965,2.156-2.156,2.156s-2.156-0.966-2.156-2.156v-7.188
	C-273.003,78.187-272.038,77.221-270.847,77.221z M-270.847,72.909c-1.191,0-2.156-0.965-2.156-2.156l0,0v-6.468h-6.469v0
	c-1.191,0-2.156-0.965-2.156-2.156s0.965-2.156,2.156-2.156h0h8.625c1.191,0,2.156,0.965,2.156,2.156v8.625
	C-268.691,71.943-269.656,72.909-270.847,72.909z M-288.097,64.284h-7.187c-1.191,0-2.156-0.965-2.156-2.156
	s0.965-2.156,2.156-2.156h7.187c1.191,0,2.156,0.966,2.156,2.156S-286.906,64.284-288.097,64.284z M-290.977,78.105l0.005-0.006
	c-0.438-0.395-0.719-0.961-0.719-1.597c0-1.191,0.965-2.156,2.156-2.156c0.555,0,1.055,0.215,1.437,0.559l0.005-0.006l7.187,6.469
	l-0.005,0.006c0.438,0.395,0.719,0.961,0.719,1.597c0,0.636-0.281,1.202-0.719,1.597l0.005,0.006l-7.187,6.469l-0.005-0.006
	c-0.382,0.344-0.883,0.559-1.437,0.559c-1.191,0-2.156-0.965-2.156-2.156c0-0.636,0.281-1.202,0.719-1.597l-0.005-0.006l3.011-2.71
	h-13.068c-1.191,0-2.156-0.965-2.156-2.156c0-1.191,0.965-2.156,2.156-2.156h13.068L-290.977,78.105z M-303.91,64.284
	L-303.91,64.284l-6.469,0v6.469c0,1.191-0.965,2.156-2.156,2.156s-2.156-0.965-2.156-2.156l0,0v-8.625
	c0-1.191,0.965-2.156,2.156-2.156h8.625h0c1.191,0,2.156,0.965,2.156,2.156S-302.719,64.284-303.91,64.284z M-312.535,88.721
	c-1.191,0-2.156-0.966-2.156-2.156v-7.188c0-1.191,0.965-2.156,2.156-2.156s2.156,0.965,2.156,2.156v7.188
	C-310.378,87.756-311.344,88.721-312.535,88.721z M-312.535,93.034c1.191,0,2.156,0.965,2.156,2.156v6.469h6.469
	c1.191,0,2.156,0.965,2.156,2.156c0,1.191-0.965,2.156-2.156,2.156h-8.625c-1.191,0-2.156-0.965-2.156-2.156V95.19l0,0
	C-314.691,93.999-313.725,93.034-312.535,93.034z M-295.285,101.659h7.187c1.191,0,2.156,0.965,2.156,2.156
	s-0.965,2.156-2.156,2.156h-7.187c-1.191,0-2.156-0.965-2.156-2.156S-296.475,101.659-295.285,101.659z"/>
<g>
	<path style="fill:#D69D9D;stroke:#E02222;stroke-miterlimit:10;" d="M-445.33,63.225c-0.36,0.662-2.3,4.416-2.248,7.854
		c0,0-0.034,1.158,0.834,1.532c0.281,0.122,1.925,0.821,2.105,1.002c0,0,0.999,2.155,1.806,3.129
		c1.869,2.258,3.36,3.413,3.792,3.731c0.273,0.202,0.901,0.447,2.183,1.787c1.008,1.053,1.083,2.167,1.837,2.179
		c0.075,0.002,0.09-0.006,0.251-0.055c0.403-0.123,2.218-1.563,0.722-3.971c0,0-0.751-1.183-2.046-2.288c0,0-1.768-1.55,0.181-2.708
		c0,0,1.263-0.646,2.8-0.561c0.625,0.035,1.594,0.2,1.894,0.259c0.301,0.061,1.305,0.369,2.106-0.12
		c1.548-0.945,0.663-9.409-2.9-12.313c-1.343-1.096-5.945-1.467-8.473-0.745c0,0-1.435,0.502-2.167,0.422
		c-1.022-0.115-1.647,0.064-1.647,0.064S-444.969,62.563-445.33,63.225z"/>
	<path style="fill:#E02222;" d="M-451.034,72.661c1.226,0.191,2.353,0.381,2.592,0.407c0.208,0.023,0.227-0.253,0.054-0.334
		c-0.214-0.123-0.512-0.492-0.598-1.255c-0.006-0.554-0.448-4.111,2.502-9.001c0.682-1.128,1.203-1.09,2.075-1.168
		c-0.039-0.527-0.843-0.818-0.843-0.818s-2.565-0.833-4.123-0.331c0,0-2.297,0.487-3.718,4.757c-0.395,1.186-0.677,2.409-0.8,3.449
		c-0.06,0.499-0.094,0.952-0.105,1.332C-454.054,71.62-452.565,72.389-451.034,72.661z"/>
</g>
<path style="fill:#C5E4D1;stroke:#069342;stroke-miterlimit:10;" d="M-389.719,82.214c0.36-0.662,2.3-4.416,2.248-7.854
	c0,0,0.034-1.158-0.834-1.532c-0.281-0.122-1.925-0.821-2.105-1.002c0,0-0.999-2.155-1.806-3.129
	c-1.869-2.258-3.36-3.413-3.792-3.731c-0.273-0.202-0.901-0.447-2.183-1.787c-1.008-1.053-1.083-2.167-1.837-2.179
	c-0.075-0.002-0.09,0.006-0.251,0.055c-0.403,0.123-2.218,1.563-0.722,3.971c0,0,0.751,1.183,2.046,2.288
	c0,0,1.768,1.55-0.181,2.708c0,0-1.263,0.646-2.8,0.561c-0.625-0.035-1.594-0.2-1.894-0.259c-0.301-0.061-1.305-0.369-2.106,0.12
	c-1.548,0.945-0.663,9.409,2.9,12.313c1.343,1.096,5.945,1.467,8.473,0.745c0,0,1.435-0.502,2.167-0.422
	c1.022,0.115,1.647-0.064,1.647-0.064S-390.08,82.876-389.719,82.214z"/>
<path style="fill:#069342;" d="M-384.015,72.778c-1.226-0.191-2.353-0.381-2.592-0.407c-0.208-0.023-0.227,0.253-0.054,0.334
	c0.214,0.123,0.512,0.492,0.598,1.255c0.006,0.554,0.448,4.111-2.502,9.001c-0.682,1.128-1.203,1.09-2.075,1.168
	c0.039,0.527,0.843,0.818,0.843,0.818s2.565,0.833,4.123,0.331c0,0,2.297-0.487,3.718-4.757c0.395-1.186,0.677-2.409,0.8-3.449
	c0.06-0.499,0.094-0.952,0.105-1.332C-380.995,73.819-382.484,73.05-384.015,72.778z"/>
<path style="fill:#F2F2F2;stroke:#CFCFCF;stroke-miterlimit:10;" d="M-343.36,82.214c0.36-0.662,2.3-4.416,2.248-7.854
	c0,0,0.034-1.158-0.834-1.532c-0.281-0.122-1.925-0.821-2.105-1.002c0,0-0.999-2.155-1.806-3.129
	c-1.869-2.258-3.36-3.413-3.792-3.731c-0.273-0.202-0.901-0.447-2.183-1.787c-1.008-1.053-1.083-2.167-1.837-2.179
	c-0.075-0.002-0.09,0.006-0.251,0.055c-0.403,0.123-2.218,1.563-0.722,3.971c0,0,0.751,1.183,2.046,2.288
	c0,0,1.768,1.55-0.181,2.708c0,0-1.263,0.646-2.8,0.561c-0.625-0.035-1.594-0.2-1.894-0.259c-0.301-0.061-1.305-0.369-2.106,0.12
	c-1.548,0.945-0.663,9.409,2.9,12.313c1.343,1.096,5.945,1.467,8.473,0.745c0,0,1.435-0.502,2.167-0.422
	c1.022,0.115,1.647-0.064,1.647-0.064S-343.721,82.876-343.36,82.214z"/>
<path style="fill:#CFCFCF;" d="M-337.656,72.778c-1.226-0.191-2.353-0.381-2.592-0.407c-0.208-0.023-0.227,0.253-0.054,0.334
	c0.214,0.123,0.512,0.492,0.598,1.255c0.006,0.554,0.448,4.111-2.502,9.001c-0.682,1.128-1.203,1.09-2.075,1.168
	c0.039,0.527,0.843,0.818,0.843,0.818s2.565,0.833,4.123,0.331c0,0,2.297-0.487,3.718-4.757c0.395-1.186,0.677-2.409,0.8-3.449
	c0.06-0.499,0.094-0.952,0.105-1.332C-334.636,73.819-336.125,73.05-337.656,72.778z"/>
<path style="fill:#D53A3A;" d="M-216.691,87.827c0,2.305-1.868,4.173-4.173,4.173h-23.654c-2.305,0-4.173-1.868-4.173-4.173V64.173
	c0-2.305,1.868-4.173,4.173-4.173h23.654c2.305,0,4.173,1.868,4.173,4.173V87.827z"/>
<path id="CLOSE_1_" style="fill-rule:evenodd;clip-rule:evenodd;fill:#FFFFFF;" d="M-222.971,68.838L-230.133,76l7.162,7.162l0,0
	c0.327,0.327,0.53,0.779,0.53,1.279c0,0.999-0.81,1.809-1.809,1.809c-0.5,0-0.952-0.203-1.279-0.53l0,0l-7.162-7.162l-7.162,7.162
	l0,0c-0.327,0.327-0.78,0.53-1.279,0.53c-0.999,0-1.809-0.81-1.809-1.809c0-0.5,0.202-0.952,0.53-1.279l0,0l7.162-7.162
	l-7.162-7.162l0,0c-0.327-0.327-0.53-0.78-0.53-1.279c0-0.999,0.81-1.809,1.809-1.809c0.499,0,0.952,0.202,1.279,0.53l0,0
	l7.162,7.162l7.162-7.162l0,0c0.327-0.327,0.78-0.53,1.279-0.53c0.999,0,1.809,0.81,1.809,1.809
	C-222.441,68.058-222.643,68.511-222.971,68.838L-222.971,68.838z"/>
<path style="fill:#1C5996;" d="M-164.691,87.827c0,2.305-1.868,4.173-4.173,4.173h-23.654c-2.305,0-4.173-1.868-4.173-4.173V64.173
	c0-2.305,1.868-4.173,4.173-4.173h23.654c2.305,0,4.173,1.868,4.173,4.173V87.827z"/>
<path style="fill-rule:evenodd;clip-rule:evenodd;fill:#FFFFFF;" d="M-174.157,71.45L-174.157,71.45
	c0.722,0.722,0.721,1.892,0,2.613c-0.722,0.722-1.892,0.722-2.613,0l0,0l-2.072-2.072l0,12.961c0,0.473-0.18,0.946-0.541,1.307
	c-0.722,0.722-1.892,0.722-2.613,0c-0.361-0.361-0.541-0.834-0.541-1.307l0,0l0-12.961l-2.072,2.072l0,0
	c-0.722,0.722-1.892,0.722-2.613,0c-0.722-0.722-0.722-1.892,0-2.613l0,0l5.227-5.227l0,0c0.722-0.722,1.892-0.722,2.613,0l0,0
	L-174.157,71.45z"/>
<path style="fill:#1C5996;" d="M-144.691,64.173c0-2.305,1.868-4.173,4.173-4.173h23.654c2.305,0,4.173,1.868,4.173,4.173v23.654
	c0,2.305-1.868,4.173-4.173,4.173h-23.654c-2.305,0-4.173-1.868-4.173-4.173V64.173z"/>
<path style="fill-rule:evenodd;clip-rule:evenodd;fill:#FFFFFF;" d="M-135.224,80.55L-135.224,80.55
	c-0.722-0.722-0.721-1.892,0-2.613c0.722-0.722,1.892-0.722,2.613,0l0,0l2.072,2.072l0-12.961c0-0.473,0.18-0.946,0.541-1.307
	c0.722-0.722,1.892-0.722,2.613,0c0.361,0.361,0.541,0.834,0.541,1.307l0,0l0,12.961l2.072-2.072l0,0
	c0.722-0.722,1.892-0.722,2.613,0c0.722,0.722,0.722,1.892,0,2.613l0,0l-5.227,5.227l0,0c-0.722,0.722-1.892,0.722-2.613,0l0,0
	L-135.224,80.55z"/>
<g>
	<path style="fill:#FFFFFF;" d="M-449.827,157c-1.75,0-3.174-1.423-3.174-3.173v-23.654c0-1.75,1.424-3.173,3.174-3.173h23.653
		c1.75,0,3.173,1.423,3.173,3.173v23.654c0,1.75-1.423,3.173-3.173,3.173H-449.827z"/>
	<path style="fill:#1C5996;" d="M-426.173,128c1.198,0,2.173,0.975,2.173,2.173v23.654c0,1.198-0.975,2.173-2.173,2.173h-23.654
		c-1.198,0-2.173-0.975-2.173-2.173v-23.654c0-1.198,0.975-2.173,2.173-2.173H-426.173 M-426.173,126h-23.654
		c-2.305,0-4.173,1.868-4.173,4.173v23.654c0,2.305,1.868,4.173,4.173,4.173h23.654c2.305,0,4.173-1.868,4.173-4.173v-23.654
		C-422,127.868-423.868,126-426.173,126L-426.173,126z"/>
</g>
<path style="fill-rule:evenodd;clip-rule:evenodd;fill:#1C5996;" d="M-427.874,138.069l-11.355,11.355l0,0
	c-0.385,0.385-0.918,0.624-1.505,0.624c-0.588,0-1.12-0.238-1.505-0.624l0,0l-6.387-6.387l0,0c-0.385-0.385-0.624-0.918-0.624-1.506
	c0-1.176,0.953-2.129,2.129-2.129c0.588,0,1.12,0.238,1.505,0.624l0,0l4.882,4.882l9.849-9.849l0,0
	c0.385-0.385,0.918-0.624,1.505-0.624c1.176,0,2.129,0.953,2.129,2.129C-427.25,137.151-427.488,137.684-427.874,138.069
	L-427.874,138.069z"/>
<polygon style="fill-rule:evenodd;clip-rule:evenodd;" points="-443.5,149.241 -443.5,149.241 -443.5,149.241 "/>
<polygon style="fill-rule:evenodd;clip-rule:evenodd;" points="-432.5,149.241 -432.5,149.241 -432.5,149.241 "/>
<polygon style="fill-rule:evenodd;clip-rule:evenodd;" points="-431,147.741 -431,147.74 -431,147.741 "/>
<g>
	<path style="fill:#FFFFFF;" d="M-263.827,269.5c-2.025,0-3.673-1.647-3.673-3.673v-23.654c0-2.025,1.647-3.673,3.673-3.673h23.654
		c2.025,0,3.673,1.647,3.673,3.673v23.654c0,2.025-1.647,3.673-3.673,3.673H-263.827z"/>
	<path style="fill:#1C5996;" d="M-240.173,239c1.75,0,3.173,1.423,3.173,3.173v23.654c0,1.75-1.423,3.173-3.173,3.173h-23.654
		c-1.75,0-3.173-1.423-3.173-3.173v-23.654c0-1.75,1.423-3.173,3.173-3.173H-240.173 M-240.173,238h-23.654
		c-2.305,0-4.173,1.868-4.173,4.173v23.654c0,2.305,1.868,4.173,4.173,4.173h23.654c2.305,0,4.173-1.868,4.173-4.173v-23.654
		C-236,239.868-237.868,238-240.173,238L-240.173,238z"/>
</g>
<polygon style="fill-rule:evenodd;clip-rule:evenodd;" points="-257.5,261.241 -257.5,261.241 -257.5,261.241 "/>
<polygon style="fill-rule:evenodd;clip-rule:evenodd;" points="-246.5,261.241 -246.5,261.241 -246.5,261.241 "/>
<polygon style="fill-rule:evenodd;clip-rule:evenodd;" points="-245,259.741 -245,259.74 -245,259.741 "/>
<g>
	<path style="fill:#D69D9D;stroke:#E02222;stroke-miterlimit:10;" d="M-377.889,128.686l-0.006-0.007
		c-0.401-0.464-0.945-0.722-1.512-0.717c-2.738,0.024-11.142,0.096-15.517,0.114c-3.398,0.014-2.685,4.221-0.791,4.209
		c-3.112,0-3.639,4.697-0.264,4.697c-4.559-0.02-3.936,4.614-1.266,4.636c-3.672,0-3.428,4.422,0.363,4.422
		c0.251-0.029,5.394-0.32,7.176-0.554c0.302-0.04,0.54,0.289,0.454,0.626l-1.264,4.962c-0.062,0.245-0.068,0.505-0.016,0.753
		c0.162,0.77,0.696,2.506,2.411,4.49c1.293,1.496,2.161,1.192,2.675,0.629c0.399-0.437,0.497-1.128,0.251-1.697
		c-0.306-0.706-0.634-1.929-0.131-3.324c0.791-2.196,4.002-6.188,5.169-6.527c0.983-0.285,1.437-0.467,2.268-0.847"/>
	<path style="fill:#E02222;" d="M-379.034,126.889c0-0.491,0.204-0.889,0.455-0.889h5.991c0.251,0,0.455,0.398,0.455,0.889v19.782
		c0,0.491-0.204,0.889-0.455,0.889h-5.991c-0.251,0-0.455-0.398-0.455-0.889V126.889z"/>
</g>
<g>
	<path style="fill:#C5E4D1;stroke:#069342;stroke-miterlimit:10;" d="M-342.111,155.301l0.006,0.007
		c0.401,0.464,0.945,0.722,1.512,0.717c2.738-0.024,11.142-0.096,15.517-0.114c3.398-0.014,2.685-4.221,0.791-4.209
		c3.112,0,3.639-4.697,0.264-4.697c4.559,0.02,3.936-4.614,1.266-4.636c3.672,0,3.428-4.422-0.363-4.422
		c-0.251,0.029-5.394,0.32-7.176,0.554c-0.302,0.04-0.54-0.289-0.454-0.626l1.264-4.962c0.062-0.245,0.068-0.505,0.016-0.753
		c-0.162-0.77-0.696-2.506-2.411-4.49c-1.293-1.496-2.161-1.192-2.675-0.629c-0.399,0.437-0.497,1.128-0.251,1.697
		c0.306,0.706,0.634,1.929,0.131,3.324c-0.791,2.196-4.002,6.188-5.169,6.527c-0.983,0.285-1.437,0.467-2.268,0.847"/>
	<path style="fill:#069342;" d="M-340.966,157.097c0,0.491-0.204,0.889-0.455,0.889h-5.991c-0.251,0-0.455-0.398-0.455-0.889
		v-19.782c0-0.491,0.204-0.889,0.455-0.889h5.991c0.251,0,0.455,0.398,0.455,0.889V157.097z"/>
</g>
<g>
	<path style="fill:#F2F2F2;stroke:#CFCFCF;stroke-miterlimit:10;" d="M-291.111,155.301l0.006,0.007
		c0.401,0.464,0.945,0.722,1.512,0.717c2.738-0.024,11.142-0.096,15.517-0.114c3.398-0.014,2.685-4.221,0.791-4.209
		c3.112,0,3.639-4.697,0.264-4.697c4.559,0.02,3.936-4.614,1.266-4.636c3.672,0,3.428-4.422-0.363-4.422
		c-0.251,0.029-5.394,0.32-7.176,0.554c-0.302,0.04-0.54-0.29-0.454-0.626l1.264-4.962c0.062-0.245,0.068-0.505,0.016-0.753
		c-0.162-0.77-0.696-2.506-2.411-4.49c-1.293-1.496-2.161-1.192-2.675-0.629c-0.399,0.437-0.497,1.128-0.251,1.697
		c0.306,0.706,0.634,1.929,0.131,3.324c-0.791,2.196-4.002,6.188-5.169,6.527c-0.983,0.285-1.437,0.467-2.268,0.847"/>
	<path style="fill:#CFCFCF;" d="M-289.966,157.097c0,0.491-0.204,0.889-0.455,0.889h-5.991c-0.251,0-0.455-0.398-0.455-0.889
		v-19.782c0-0.491,0.204-0.889,0.455-0.889h5.991c0.251,0,0.455,0.398,0.455,0.889V157.097z"/>
</g>
<circle style="fill:#2A9BDB;" cx="-235" cy="136.995" r="11"/>
<circle style="fill:#D03135;" cx="-189.886" cy="140" r="14"/>
<path id="CLOSE_2_" style="fill-rule:evenodd;clip-rule:evenodd;fill:#FFFFFF;" d="M-182.3,134.41l-5.59,5.59l5.59,5.59l0,0
	c0.255,0.256,0.413,0.608,0.413,0.998c0,0.78-0.632,1.412-1.412,1.412c-0.39,0-0.743-0.158-0.998-0.414l0,0l-5.59-5.59l-5.59,5.59
	l0,0c-0.255,0.255-0.608,0.414-0.998,0.414c-0.78,0-1.412-0.632-1.412-1.412c0-0.39,0.158-0.743,0.413-0.998l0,0l5.59-5.59
	l-5.59-5.59l0,0c-0.255-0.256-0.413-0.609-0.413-0.998c0-0.78,0.632-1.412,1.412-1.412c0.39,0,0.743,0.158,0.998,0.414l0,0
	l5.59,5.59l5.59-5.59l0,0c0.255-0.256,0.608-0.414,0.998-0.414c0.78,0,1.412,0.632,1.412,1.412
	C-181.886,133.802-182.044,134.155-182.3,134.41L-182.3,134.41z"/>
<circle style="fill:#FFFFFF;" cx="-141.886" cy="140" r="14"/>
<path id="CLOSE_3_" style="fill-rule:evenodd;clip-rule:evenodd;fill:#4A7D12;" d="M-134.3,134.41l-5.59,5.59l5.59,5.59l0,0
	c0.255,0.256,0.413,0.608,0.413,0.998c0,0.78-0.632,1.412-1.412,1.412c-0.39,0-0.743-0.158-0.998-0.414l0,0l-5.59-5.59l-5.59,5.59
	l0,0c-0.255,0.255-0.608,0.414-0.998,0.414c-0.78,0-1.412-0.632-1.412-1.412c0-0.39,0.158-0.743,0.413-0.998l0,0l5.59-5.59
	l-5.59-5.59l0,0c-0.255-0.256-0.413-0.609-0.413-0.998c0-0.78,0.632-1.412,1.412-1.412c0.39,0,0.743,0.158,0.998,0.414l0,0
	l5.59,5.59l5.59-5.59l0,0c0.255-0.256,0.608-0.414,0.998-0.414c0.78,0,1.412,0.632,1.412,1.412
	C-133.886,133.802-134.044,134.155-134.3,134.41L-134.3,134.41z"/>
<path style="fill:#9661BE;" d="M-454,183.216c0-2.881,2.335-5.216,5.216-5.216h29.568c2.881,0,5.216,2.335,5.216,5.216v29.568
	c0,2.881-2.335,5.216-5.216,5.216h-29.568c-2.881,0-5.216-2.335-5.216-5.216V183.216z"/>
<path id="USER_6_" style="fill-rule:evenodd;clip-rule:evenodd;fill:#FFFFFF;" d="M-425.833,211.265c0,0.001,0,0.002,0,0.003
	c0,0.652-0.528,1.18-1.18,1.18h-22.809c-0.652,0-1.18-0.528-1.18-1.18c0-0.001,0-0.002,0-0.003h-0.001c0,0,0-4.299,3.141-5.862
	c1.988-0.989,1.223-0.186,3.663-1.198c2.44-1.01,3.018-1.363,3.018-1.363l0.023-2.329c0,0-0.914-0.699-1.198-2.891
	c-0.572,0.165-0.761-0.671-0.795-1.204c-0.031-0.515-0.331-2.122,0.367-1.977c-0.143-1.073-0.245-2.041-0.195-2.554
	c0.175-1.8,1.908-3.68,4.579-3.818c3.141,0.137,4.385,2.016,4.559,3.816c0.051,0.513-0.061,1.481-0.204,2.553
	c0.698-0.143,0.395,1.461,0.361,1.976c-0.031,0.533-0.224,1.367-0.794,1.202c-0.285,2.192-1.199,2.885-1.199,2.885l0.021,2.318
	c0,0,0.578,0.33,3.018,1.341c2.44,1.012,1.675,0.255,3.663,1.244C-425.832,206.966-425.832,211.265-425.833,211.265
	L-425.833,211.265z"/>
<path id="USER_1_" style="fill-rule:evenodd;clip-rule:evenodd;fill:#FFFFFF;" d="M-416.258,203.86c0,0.001,0,0.002,0,0.003
	c0,0.614-0.457,1.112-1.021,1.112h-19.736c-0.564,0-1.021-0.498-1.021-1.112c0-0.001,0-0.002,0-0.003h-0.001
	c0,0,0-4.051,2.718-5.525c1.72-0.932,1.058-0.175,3.169-1.129c2.111-0.952,2.612-1.285,2.612-1.285l0.02-2.195
	c0,0-0.791-0.659-1.037-2.724c-0.495,0.156-0.658-0.633-0.687-1.135c-0.026-0.485-0.286-2,0.317-1.863
	c-0.124-1.011-0.212-1.923-0.169-2.406c0.151-1.696,1.651-3.468,3.962-3.598c2.718,0.129,3.794,1.9,3.945,3.596
	c0.044,0.483-0.053,1.396-0.176,2.405c0.604-0.135,0.341,1.377,0.312,1.862c-0.027,0.502-0.194,1.288-0.687,1.132
	c-0.247,2.065-1.038,2.719-1.038,2.719l0.019,2.184c0,0,0.5,0.311,2.611,1.264c2.112,0.954,1.449,0.241,3.169,1.173
	C-416.257,199.809-416.257,203.86-416.258,203.86L-416.258,203.86z"/>
<path style="fill:#FFFFFF;" d="M-394,183.216c0-2.881,2.335-5.216,5.216-5.216h29.568c2.881,0,5.216,2.335,5.216,5.216v29.568
	c0,2.881-2.335,5.216-5.216,5.216h-29.568c-2.881,0-5.216-2.335-5.216-5.216V183.216z M-365.832,211.265c0,0,0-4.299-3.141-5.862
	c-1.988-0.989-1.222-0.232-3.663-1.244c-2.44-1.011-3.018-1.341-3.018-1.341l-0.021-2.318c0,0,0.914-0.694,1.199-2.885
	c0.57,0.165,0.764-0.669,0.794-1.202c0.034-0.515,0.337-2.119-0.361-1.976c0.143-1.071,0.255-2.04,0.204-2.553
	c-0.174-1.8-1.419-3.679-4.559-3.816c-2.67,0.137-4.404,2.018-4.579,3.818c-0.05,0.513,0.052,1.48,0.195,2.554
	c-0.698-0.145-0.397,1.462-0.367,1.977c0.034,0.533,0.223,1.369,0.795,1.204c0.284,2.192,1.198,2.891,1.198,2.891l-0.023,2.329
	c0,0-0.578,0.353-3.018,1.363c-2.44,1.012-1.675,0.21-3.663,1.198c-3.141,1.563-3.141,5.862-3.141,5.862H-391
	c0,0.001,0,0.002,0,0.003c0,0.652,0.528,1.18,1.18,1.18h22.809c0.652,0,1.18-0.528,1.18-1.18
	C-365.833,211.267-365.833,211.266-365.832,211.265L-365.832,211.265z M-356.257,203.86c0,0,0-4.051-2.718-5.524
	c-1.72-0.932-1.058-0.219-3.169-1.173c-2.111-0.953-2.611-1.264-2.611-1.264l-0.019-2.184c0,0,0.791-0.654,1.038-2.719
	c0.493,0.155,0.661-0.63,0.687-1.132c0.029-0.485,0.292-1.997-0.312-1.862c0.124-1.01,0.221-1.922,0.176-2.405
	c-0.151-1.696-1.228-3.467-3.945-3.596c-2.31,0.13-3.81,1.901-3.962,3.598c-0.044,0.483,0.045,1.395,0.169,2.406
	c-0.604-0.137-0.344,1.378-0.317,1.863c0.029,0.502,0.193,1.291,0.687,1.135c0.246,2.066,1.037,2.724,1.037,2.724l-0.02,2.195
	c0,0-0.5,0.332-2.612,1.285c-2.111,0.954-1.449,0.197-3.169,1.129c-2.718,1.473-2.718,5.525-2.718,5.525h0.001
	c0,0.001,0,0.002,0,0.003c0,0.614,0.457,1.112,1.021,1.112h19.736c0.564,0,1.021-0.498,1.021-1.112
	C-356.258,203.861-356.258,203.861-356.257,203.86L-356.257,203.86z"/>
<path id="USER_2_" style="fill-rule:evenodd;clip-rule:evenodd;fill:#49B173;" d="M-294.001,216.119c0,0.001,0,0.003,0,0.005
	c0,1.036-0.84,1.876-1.876,1.876h-36.27c-1.036,0-1.876-0.84-1.876-1.876c0-0.002,0-0.003,0-0.005h-0.001c0,0,0-6.836,4.995-9.322
	c3.161-1.572,1.944-0.296,5.824-1.906c3.88-1.607,4.8-2.168,4.8-2.168l0.037-3.704c0,0-1.453-1.112-1.905-4.597
	c-0.91,0.263-1.21-1.068-1.263-1.915c-0.049-0.818-0.526-3.374,0.583-3.143c-0.227-1.707-0.39-3.245-0.31-4.061
	c0.278-2.862,3.035-5.852,7.281-6.071c4.994,0.218,6.973,3.206,7.25,6.068c0.081,0.815-0.097,2.355-0.324,4.059
	c1.11-0.228,0.628,2.324,0.574,3.142c-0.049,0.847-0.356,2.173-1.263,1.911c-0.453,3.485-1.907,4.588-1.907,4.588l0.034,3.685
	c0,0,0.919,0.525,4.799,2.132c3.881,1.609,2.663,0.406,5.824,1.979c4.995,2.485,4.995,9.321,4.995,9.321H-294.001z"/>
<path id="USER_5_" style="fill-rule:evenodd;clip-rule:evenodd;fill:#FFFFFF;" d="M-234.001,216.119c0,0.001,0,0.003,0,0.005
	c0,1.036-0.84,1.876-1.876,1.876h-36.27c-1.036,0-1.876-0.84-1.876-1.876c0-0.002,0-0.003,0-0.005h-0.001c0,0,0-6.836,4.995-9.322
	c3.161-1.572,1.944-0.296,5.824-1.906c3.88-1.607,4.8-2.168,4.8-2.168l0.037-3.704c0,0-1.453-1.112-1.905-4.597
	c-0.91,0.263-1.21-1.068-1.263-1.915c-0.049-0.818-0.526-3.374,0.583-3.143c-0.227-1.707-0.39-3.245-0.31-4.061
	c0.278-2.862,3.035-5.852,7.281-6.071c4.994,0.218,6.973,3.206,7.25,6.068c0.081,0.815-0.097,2.355-0.324,4.059
	c1.11-0.228,0.627,2.324,0.574,3.142c-0.049,0.847-0.356,2.173-1.263,1.911c-0.453,3.485-1.907,4.588-1.907,4.588l0.034,3.685
	c0,0,0.919,0.525,4.799,2.132c3.881,1.609,2.663,0.406,5.824,1.979c4.995,2.485,4.995,9.321,4.995,9.321H-234.001z"/>
<path id="ARROWS_2_" style="fill-rule:evenodd;clip-rule:evenodd;fill:#FFFFFF;" d="M-182.047,193.977
	c0,0.442-0.191,0.839-0.496,1.113l0,0l-4.993,4.493l0,0c-0.265,0.239-0.617,0.385-1.002,0.385c-0.827,0-1.498-0.671-1.498-1.498
	c0-0.442,0.191-0.839,0.496-1.113l0,0l2.091-1.882h-9.078v9.078l1.882-2.091l0,0c0.274-0.304,0.671-0.496,1.113-0.496
	c0.827,0,1.498,0.671,1.498,1.498c0,0.385-0.146,0.737-0.385,1.002l0,0l-4.493,4.993l0,0c-0.274,0.304-0.671,0.496-1.113,0.496
	c-0.442,0-0.839-0.191-1.113-0.496l0,0l-4.493-4.993l0,0c-0.239-0.265-0.385-0.617-0.385-1.002c0-0.827,0.671-1.498,1.498-1.498
	c0.442,0,0.839,0.192,1.113,0.496l0,0l1.882,2.091v-9.078h-9.078l2.091,1.882l0,0c0.304,0.274,0.496,0.671,0.496,1.113
	c0,0.827-0.671,1.498-1.498,1.498c-0.385,0-0.736-0.146-1.002-0.385l0,0l-4.993-4.493l0,0c-0.304-0.274-0.496-0.671-0.496-1.113
	c0-0.442,0.192-0.839,0.496-1.113l0,0l4.993-4.493h0c0.265-0.239,0.617-0.385,1.002-0.385c0.827,0,1.498,0.671,1.498,1.498
	c0,0.442-0.192,0.839-0.496,1.113l0,0l-2.091,1.882h9.078v-9.078l-1.882,2.092l0,0c-0.274,0.304-0.671,0.496-1.113,0.496
	c-0.827,0-1.498-0.671-1.498-1.498c0-0.385,0.146-0.736,0.385-1.002l0,0l4.493-4.993l0,0c0.274-0.304,0.671-0.496,1.113-0.496
	c0.442,0,0.839,0.192,1.113,0.496l0,0l4.493,4.993l0,0c0.239,0.265,0.385,0.617,0.385,1.002c0,0.827-0.671,1.498-1.498,1.498
	c-0.442,0-0.839-0.192-1.113-0.496l0,0l-1.882-2.092v9.078h9.078l-2.091-1.882l0,0c-0.304-0.274-0.496-0.671-0.496-1.113
	c0-0.827,0.671-1.498,1.498-1.498c0.385,0,0.736,0.146,1.002,0.385h0l4.993,4.493l0,0
	C-182.238,193.138-182.047,193.535-182.047,193.977z"/>
<path style="fill-rule:evenodd;clip-rule:evenodd;fill:#FFFFFF;" d="M-147.18,189c-0.376,0-0.71-0.166-0.943-0.425l-0.003,0.003
	l-1.6-1.778v7.718c0,0.703-0.57,1.274-1.273,1.274c-0.703,0-1.273-0.57-1.273-1.274V186.8l-1.6,1.778l-0.004-0.003
	c-0.233,0.259-0.567,0.425-0.943,0.425c-0.703,0-1.273-0.57-1.273-1.273c0-0.328,0.127-0.623,0.33-0.849l-0.003-0.003l3.82-4.245
	l0.003,0.003c0.233-0.259,0.567-0.425,0.943-0.425c0.376,0,0.71,0.166,0.943,0.425l0.003-0.003l3.82,4.245l-0.003,0.003
	c0.203,0.226,0.33,0.521,0.33,0.849C-145.906,188.43-146.476,189-147.18,189z"/>
<circle style="fill:#FFFFFF;" cx="-443" cy="248.995" r="11"/>
<circle style="fill:#2A9BDB;" cx="-109" cy="188.995" r="11"/>
<path style="fill-rule:evenodd;clip-rule:evenodd;fill:#FFFFFF;" d="M-112.82,189c0.376,0,0.71,0.166,0.943,0.425l0.003-0.003
	l1.6,1.778v-7.718c0-0.703,0.57-1.274,1.273-1.274c0.703,0,1.273,0.57,1.273,1.274v7.718l1.6-1.778l0.004,0.003
	c0.233-0.259,0.567-0.425,0.943-0.425c0.703,0,1.273,0.57,1.273,1.273c0,0.328-0.127,0.623-0.33,0.849l0.003,0.003l-3.82,4.245
	l-0.003-0.003c-0.233,0.259-0.567,0.425-0.943,0.425s-0.71-0.166-0.943-0.425l-0.003,0.003l-3.82-4.245l0.003-0.003
	c-0.203-0.226-0.33-0.521-0.33-0.849C-114.094,189.57-113.524,189-112.82,189z"/>
<circle style="fill:#2A9BDB;" cx="-299" cy="248.995" r="11"/>
<path style="fill-rule:evenodd;clip-rule:evenodd;fill:#FFFFFF;" d="M-302.82,249c0.376,0,0.71,0.166,0.943,0.425l0.003-0.003
	l1.6,1.778v-7.718c0-0.703,0.57-1.274,1.273-1.274s1.273,0.57,1.273,1.274v7.718l1.6-1.778l0.004,0.003
	c0.233-0.259,0.567-0.425,0.943-0.425c0.703,0,1.273,0.57,1.273,1.273c0,0.328-0.127,0.623-0.33,0.849l0.003,0.003l-3.82,4.245
	l-0.003-0.003c-0.233,0.259-0.567,0.425-0.943,0.425c-0.376,0-0.71-0.166-0.943-0.425l-0.003,0.003l-3.82-4.245l0.003-0.003
	c-0.203-0.226-0.33-0.521-0.33-0.849C-304.094,249.57-303.524,249-302.82,249z"/>
<g>
	<path style="fill:#FFFFFF;" d="M-443,319.495c-5.79,0-10.5-4.71-10.5-10.5s4.71-10.5,10.5-10.5s10.5,4.71,10.5,10.5
		S-437.21,319.495-443,319.495z"/>
	<path style="fill:#2A9BDB;" d="M-443,298.995c5.514,0,10,4.486,10,10c0,5.514-4.486,10-10,10c-5.514,0-10-4.486-10-10
		C-453,303.481-448.514,298.995-443,298.995 M-443,297.995c-6.075,0-11,4.925-11,11s4.925,11,11,11s11-4.925,11-11
		S-436.925,297.995-443,297.995L-443,297.995z"/>
</g>
<path style="fill-rule:evenodd;clip-rule:evenodd;fill:#2A9BDB;" d="M-443,305.18c0,0.376-0.166,0.71-0.425,0.943l0.003,0.003
	l-1.778,1.6h7.718c0.703,0,1.273,0.57,1.273,1.273c0,0.703-0.57,1.273-1.273,1.273h-7.718l1.778,1.6l-0.003,0.004
	c0.259,0.233,0.425,0.567,0.425,0.943c0,0.703-0.57,1.273-1.273,1.273c-0.328,0-0.623-0.127-0.849-0.33l-0.003,0.003l-4.245-3.82
	l0.003-0.003c-0.259-0.233-0.425-0.567-0.425-0.943s0.166-0.71,0.425-0.943l-0.003-0.003l4.245-3.82l0.003,0.003
	c0.226-0.203,0.521-0.33,0.849-0.33C-443.57,303.906-443,304.476-443,305.18z"/>
<g>
	<path style="fill:#FFFFFF;" d="M-401,319.495c-5.79,0-10.5-4.71-10.5-10.5s4.71-10.5,10.5-10.5s10.5,4.71,10.5,10.5
		S-395.21,319.495-401,319.495z"/>
	<path style="fill:#2A9BDB;" d="M-401,298.995c5.514,0,10,4.486,10,10c0,5.514-4.486,10-10,10c-5.514,0-10-4.486-10-10
		C-411,303.481-406.514,298.995-401,298.995 M-401,297.995c-6.075,0-11,4.925-11,11s4.925,11,11,11s11-4.925,11-11
		S-394.925,297.995-401,297.995L-401,297.995z"/>
</g>
<path style="fill-rule:evenodd;clip-rule:evenodd;fill:#2A9BDB;" d="M-401,312.82c0-0.376,0.166-0.71,0.425-0.943l-0.003-0.003
	l1.778-1.6h-7.718c-0.703,0-1.274-0.57-1.274-1.273c0-0.703,0.57-1.273,1.274-1.273h7.718l-1.778-1.6l0.003-0.004
	c-0.259-0.233-0.425-0.567-0.425-0.943c0-0.703,0.57-1.273,1.273-1.273c0.328,0,0.623,0.127,0.849,0.33l0.003-0.003l4.245,3.82
	l-0.003,0.003c0.259,0.233,0.425,0.567,0.425,0.943s-0.166,0.71-0.425,0.943l0.003,0.003l-4.245,3.82l-0.003-0.003
	c-0.226,0.203-0.521,0.33-0.849,0.33C-400.43,314.094-401,313.524-401,312.82z"/>
<circle style="fill:#FFFFFF;" cx="-153" cy="248.995" r="11"/>
<path style="fill-rule:evenodd;clip-rule:evenodd;fill:#2A9BDB;" d="M-436.842,253.882l0,0.001c0,0.319-0.259,0.577-0.577,0.577
	h-0.353c0.099-0.17,0.16-0.366,0.16-0.577c0.288,0,0.549-0.11,0.751-0.284C-436.842,253.773-436.841,253.882-436.842,253.882
	L-436.842,253.882z"/>
<path style="fill-rule:evenodd;clip-rule:evenodd;fill:#2A9BDB;" d="M-439.921,251.574c-0.638,0-1.155,0.517-1.155,1.155
	c0,0.638,0.517,1.155,1.155,1.155c0,0.211,0.061,0.407,0.16,0.577h-8.821c-0.319,0-0.577-0.258-0.577-0.577l0-0.001h0
	c0,0,0-2.104,1.537-2.869c0.973-0.484,0.598-0.091,1.792-0.586c1.194-0.495,1.477-0.667,1.477-0.667l0.011-1.14
	c0,0-0.447-0.342-0.586-1.415c-0.28,0.081-0.372-0.329-0.389-0.589c-0.015-0.252-0.162-1.038,0.179-0.967
	c-0.07-0.525-0.12-0.999-0.095-1.25c0.086-0.881,0.934-1.801,2.241-1.868c1.537,0.067,2.146,0.987,2.231,1.868
	c0.025,0.251-0.03,0.725-0.1,1.249c0.342-0.07,0.193,0.715,0.176,0.967c-0.015,0.261-0.11,0.669-0.389,0.588
	c-0.14,1.073-0.587,1.412-0.587,1.412l0.01,1.134c0,0,0.283,0.161,1.477,0.656c0.345,0.143,0.557,0.213,0.71,0.253
	C-439.739,250.868-439.921,251.198-439.921,251.574z"/>
<circle style="fill:#FFFFFF;" cx="-438.766" cy="252.728" r="2.542"/>
<path style="fill-rule:evenodd;clip-rule:evenodd;fill:#2A9BDB;" d="M-437.266,253.478h-0.75v0.75c0,0.414-0.336,0.75-0.75,0.75
	c-0.414,0-0.75-0.336-0.75-0.75v-0.75h-0.75c-0.414,0-0.75-0.336-0.75-0.75c0-0.414,0.336-0.75,0.75-0.75h0.75v-0.75
	c0-0.414,0.336-0.75,0.75-0.75c0.414,0,0.75,0.336,0.75,0.75v0.75h0.75c0.414,0,0.75,0.336,0.75,0.75
	C-436.516,253.143-436.852,253.478-437.266,253.478z"/>
<path id="CIRCLE__x2F__DELETE_2_" style="fill-rule:evenodd;clip-rule:evenodd;fill:#FFFFFF;" d="M-391.997,278.006
	c-11.047,0-20.003-8.956-20.003-20.003c0-11.047,8.956-20.003,20.003-20.003c11.047,0,20.003,8.956,20.003,20.003
	C-371.994,269.051-380.949,278.006-391.997,278.006z M-391.997,241.751c-8.976,0-16.253,7.276-16.253,16.252
	c0,8.976,7.277,16.253,16.253,16.253s16.253-7.277,16.253-16.253C-375.744,249.027-383.021,241.751-391.997,241.751z
	 M-385.121,266.754c-0.518,0-0.987-0.21-1.326-0.549l0,0l-5.55-5.55l-5.55,5.55l0,0c-0.339,0.339-0.808,0.549-1.326,0.549
	c-1.036,0-1.875-0.839-1.875-1.875c0-0.518,0.21-0.987,0.549-1.326l0,0l5.55-5.55l-5.55-5.55l0,0
	c-0.339-0.339-0.549-0.808-0.549-1.326c0-1.036,0.84-1.875,1.875-1.875c0.518,0,0.987,0.21,1.326,0.549l0,0l5.55,5.55l5.55-5.55l0,0
	c0.339-0.34,0.808-0.549,1.326-0.549c1.036,0,1.875,0.84,1.875,1.875c0,0.518-0.21,0.987-0.549,1.326l0,0l-5.55,5.55l5.55,5.55l0,0
	c0.339,0.34,0.549,0.808,0.549,1.326C-383.245,265.915-384.085,266.754-385.121,266.754z"/>
<path id="PLAY_2_" style="fill-rule:evenodd;clip-rule:evenodd;fill:#8B8B8B;" d="M-341.062,257.141
	c-0.752,0-1.409-0.405-1.766-1.008l0,0l-8.872-15.015c-0.003-0.005-0.006-0.011-0.009-0.016l-0.005-0.008l0,0
	c-0.181-0.306-0.285-0.662-0.285-1.043c0-1.133,0.918-2.051,2.051-2.051l0,0h17.774l0,0c1.132,0,2.051,0.918,2.051,2.051
	c0,0.381-0.104,0.738-0.285,1.043l0,0l-0.005,0.008c-0.003,0.005-0.006,0.011-0.009,0.016l-8.872,15.015l0,0
	C-339.654,256.736-340.311,257.141-341.062,257.141z"/>
<g>
	<path style="fill:#2A9BDB;" d="M-211.827,269.5c-2.025,0-3.673-1.647-3.673-3.673v-23.654c0-2.025,1.647-3.673,3.673-3.673h23.654
		c2.025,0,3.673,1.647,3.673,3.673v23.654c0,2.025-1.647,3.673-3.673,3.673H-211.827z"/>
	<path style="fill:#1C5996;" d="M-188.173,239c1.75,0,3.173,1.423,3.173,3.173v23.654c0,1.75-1.423,3.173-3.173,3.173h-23.654
		c-1.75,0-3.173-1.423-3.173-3.173v-23.654c0-1.75,1.423-3.173,3.173-3.173H-188.173 M-188.173,238h-23.654
		c-2.305,0-4.173,1.868-4.173,4.173v23.654c0,2.305,1.868,4.173,4.173,4.173h23.654c2.305,0,4.173-1.868,4.173-4.173v-23.654
		C-184,239.868-185.868,238-188.173,238L-188.173,238z"/>
</g>
<polygon style="fill-rule:evenodd;clip-rule:evenodd;" points="-205.5,261.241 -205.5,261.241 -205.5,261.241 "/>
<polygon style="fill-rule:evenodd;clip-rule:evenodd;" points="-194.5,261.241 -194.5,261.241 -194.5,261.241 "/>
<polygon style="fill-rule:evenodd;clip-rule:evenodd;" points="-193,259.741 -193,259.74 -193,259.741 "/>
<path style="fill-rule:evenodd;clip-rule:evenodd;fill:#FFFFFF;" d="M-189.874,250.069l-11.355,11.355l0,0
	c-0.385,0.385-0.918,0.624-1.505,0.624s-1.12-0.238-1.505-0.624l0,0l-6.387-6.387l0,0c-0.385-0.385-0.624-0.918-0.624-1.506
	c0-1.176,0.953-2.129,2.129-2.129c0.588,0,1.12,0.238,1.505,0.624l0,0l4.882,4.882l9.849-9.849l0,0
	c0.385-0.385,0.918-0.624,1.505-0.624c1.176,0,2.129,0.953,2.129,2.129C-189.25,249.151-189.488,249.684-189.874,250.069
	L-189.874,250.069z"/>
<circle style="fill:none;stroke:#2A9BDB;stroke-width:2.0873;stroke-miterlimit:10;" cx="-152.931" cy="248.553" r="6.21"/>
<rect x="-148.509" y="245.669" style="fill:#FFFFFF;" width="3.051" height="2.884"/>
<rect x="-160.542" y="248.553" style="fill:#FFFFFF;" width="3.051" height="2.884"/>
<g>
	<defs>
		
			<rect id="SVGID_5_" x="-160.072" y="249.91" transform="matrix(-1 -0.0021 0.0021 -1 -315.9252 504.2382)" width="4.752" height="4.752"/>
	</defs>
	<clipPath id="SVGID_1_">
		<use xlink:href="#SVGID_5_"  style="overflow:visible;"/>
	</clipPath>
	
		<rect x="-163.294" y="248.246" transform="matrix(-0.7086 0.7056 -0.7056 -0.7086 -95.496 540.6813)" style="clip-path:url(#SVGID_1_);fill:#2A9BDB;" width="7.804" height="4.752"/>
</g>
<g>
	<defs>
		<rect id="SVGID_7_" x="-150.536" y="242.601" transform="matrix(1 0.0021 -0.0021 1 0.518 0.314)" width="4.752" height="4.752"/>
	</defs>
	<clipPath id="SVGID_2_">
		<use xlink:href="#SVGID_7_"  style="overflow:visible;"/>
	</clipPath>
	
		<rect x="-150.366" y="244.265" transform="matrix(0.7086 -0.7056 0.7056 0.7086 -216.7114 -31.4753)" style="clip-path:url(#SVGID_2_);fill:#2A9BDB;" width="7.804" height="4.752"/>
</g>
<path d="M-351.245,313.021L-351.245,313.021L-351.245,313.021z"/>
<path d="M-337.495,313.021L-337.495,313.021L-337.495,313.021z"/>
<path d="M-335.62,311.146v-0.001V311.146z"/>
<path id="BIN_2_" style="fill:#C65739;" d="M-56.503,6.246c0-1.14,0.924-2.063,2.062-2.063h10.315V2.121
	c0-1.14,0.924-2.062,2.062-2.062h4.126c1.139,0,2.062,0.924,2.062,2.062v2.062h10.315c1.14,0,2.062,0.924,2.062,2.063v2.062h-33.006
	V6.246z M-25.559,12.435v4.126v21.318c0,1.139-0.924,2.062-2.062,2.062h-24.755c-1.139,0-2.062-0.924-2.062-2.062V16.561v-4.126
	v-2.062h28.881v2.062H-25.559z M-46.188,16.561c0-1.139-0.924-2.062-2.062-2.062c-1.139,0-2.062,0.924-2.062,2.062v17.191
	c0,1.14,0.924,2.062,2.062,2.062c1.139,0,2.062-0.924,2.062-2.062V16.561z M-37.937,16.561c0-1.139-0.924-2.062-2.062-2.062
	c-1.139,0-2.062,0.924-2.062,2.062v17.191c0,1.14,0.924,2.062,2.062,2.062c1.139,0,2.062-0.924,2.062-2.062V16.561z M-29.686,16.561
	c0-1.139-0.924-2.062-2.062-2.062c-1.139,0-2.062,0.924-2.062,2.062v17.191c0,1.14,0.924,2.062,2.062,2.062
	c1.139,0,2.062-0.924,2.062-2.062V16.561z"/>
<g>
	<path style="fill:#FFFFFF;" d="M220,31.953c0,0.993-0.805,1.798-1.798,1.798h-36.405c-0.993,0-1.798-0.805-1.798-1.798V8.3
		c0-1.133,0.917-2.05,2.05-2.05h35.9c1.133,0,2.05,0.918,2.05,2.05C220,8.3,220,31.953,220,31.953z"/>
	<path id="MAIL_2_" style="fill:#1C5996;" d="M207.259,18.6l12.168-11.788c0.344,0.34,0.559,0.811,0.559,1.333v23.731
		c0,0.493-0.194,0.938-0.505,1.272L207.259,18.6z M180.64,6.76c0.331-0.3,0.768-0.488,1.25-0.488h36.22
		c0.482,0,0.917,0.188,1.25,0.488L200,21.885L180.64,6.76z M180.521,33.149c-0.311-0.334-0.505-0.779-0.505-1.273V8.146
		c0-0.521,0.214-0.992,0.559-1.332l12.167,11.788L180.521,33.149z M200,25.631l5.081-4.921l14.314,12.525
		c-0.335,0.317-0.786,0.515-1.285,0.515h-36.22c-0.499,0-0.949-0.198-1.285-0.515l14.314-12.525L200,25.631z"/>
</g>
<path d="M-260.887,318.046L-260.887,318.046L-260.887,318.046z"/>
<path d="M-247.137,318.046L-247.137,318.046L-247.137,318.046z"/>
<path d="M-245.262,316.171v-0.001V316.171z"/>
<path id="MAGNIFYING_GLASS_2_" style="fill:#414143;" d="M278.902,33.61c0.677,0.679,1.098,1.616,1.098,2.651
	c0,2.071-1.679,3.75-3.75,3.75c-1.035,0-1.973-0.42-2.651-1.099l0,0l-10.99-10.99c-2.234,1.319-4.828,2.089-7.609,2.089
	c-8.284,0-15-6.715-15-15c0-8.284,6.716-15,15-15s15,6.716,15,15c0,2.78-0.77,5.375-2.089,7.608L278.902,33.61L278.902,33.61z
	 M255,3.761c-6.214,0-11.25,5.036-11.25,11.25s5.036,11.25,11.25,11.25s11.25-5.038,11.25-11.25
	C266.25,8.798,261.214,3.761,255,3.761z"/>
<g>
	<path d="M73.141,29.068L73.141,29.068L73.141,29.068z"/>
	<path d="M86.891,29.068L86.891,29.068L86.891,29.068z"/>
	<path d="M88.766,27.193v-0.001V27.193z"/>
	<path style="fill:#1C5996;" d="M98.815,32.353l-18.074,7.479c-0.228,0.097-0.478,0.153-0.741,0.153s-0.514-0.055-0.741-0.153
		l-18.074-7.479c-0.685-0.279-1.169-0.951-1.169-1.736V1.89c0-1.035,0.839-1.874,1.874-1.874c0.254,0,0.495,0.051,0.716,0.142l0,0
		l0.002,0.001c0.006,0.002,0.011,0.004,0.018,0.006L80,7.355l17.374-7.189c0.005-0.002,0.011-0.005,0.016-0.007l0.003-0.001l0,0
		c0.222-0.09,0.464-0.141,0.717-0.141c1.035,0,1.874,0.839,1.874,1.874v28.726C99.984,31.401,99.5,32.074,98.815,32.353z"/>
	<polygon style="fill:#FFFFFF;" points="78.321,35.688 78.321,10.75 63.804,4.743 63.804,29.68 	"/>
	<polygon style="fill:#FFFFFF;" points="96.626,4.743 82.109,10.75 82.109,35.688 96.626,29.68 	"/>
</g>
<g>
	<g>
		<path style="fill:#FFFFFF;" d="M5.207,39.375c-2.531,0-4.591-2.059-4.591-4.591V5.216c0-2.531,2.059-4.591,4.591-4.591h29.567
			c2.531,0,4.591,2.059,4.591,4.591v29.567c0,2.531-2.059,4.591-4.591,4.591H5.207z"/>
		<path style="fill:#FFDA59;" d="M34.775,1.25c2.188,0,3.966,1.779,3.966,3.966v29.567c0,2.188-1.779,3.966-3.966,3.966H5.207
			c-2.188,0-3.966-1.779-3.966-3.966V5.216c0-2.188,1.779-3.966,3.966-3.966H34.775 M34.775,0H5.207
			C2.326,0-0.009,2.335-0.009,5.216v29.567c0,2.881,2.335,5.216,5.216,5.216h29.567c2.881,0,5.216-2.335,5.216-5.216V5.216
			C39.991,2.335,37.656,0,34.775,0L34.775,0z"/>
	</g>
	<path d="M13.116,29.051L13.116,29.051L13.116,29.051z"/>
	<path d="M26.866,29.051L26.866,29.051L26.866,29.051z"/>
	<path d="M28.741,27.176v-0.001V27.176z"/>
	<path id="RESIZE_1_7_" style="fill:#6F6600;" d="M35.512,12.484L35.512,12.484c0,0.884-0.716,1.601-1.601,1.601
		c-0.884,0-1.601-0.716-1.601-1.601l0,0V9.945l-7.94,7.94c-0.29,0.29-0.69,0.469-1.133,0.469c-0.884,0-1.601-0.716-1.601-1.601
		c0-0.443,0.179-0.843,0.469-1.133l0,0l7.94-7.94h-2.539l0,0c-0.884,0-1.601-0.717-1.601-1.601s0.716-1.601,1.601-1.601l0,0h6.404
		l0,0c0.884,0,1.601,0.717,1.601,1.601l0,0v6.405H35.512z M17.966,24.289l-7.94,7.94h2.539l0,0c0.884,0,1.601,0.716,1.601,1.601
		c0,0.884-0.716,1.601-1.601,1.601l0,0H6.161l0,0c-0.884,0-1.601-0.717-1.601-1.601l0,0v-6.404l0,0c0-0.884,0.716-1.601,1.601-1.601
		c0.884,0,1.601,0.716,1.601,1.601l0,0v2.539l7.94-7.94c0.29-0.29,0.69-0.469,1.133-0.469c0.884,0,1.601,0.716,1.601,1.601
		C18.435,23.599,18.256,23.999,17.966,24.289L17.966,24.289z"/>
	<path style="fill:#6F6600;" d="M25.296,15.195c0.494,0.494,0.399,1.388-0.211,1.997l-7.559,7.559
		c-0.61,0.61-1.505,0.705-1.998,0.211l-0.47-0.47c-0.494-0.494-0.399-1.387,0.211-1.997l7.559-7.559
		c0.61-0.61,1.505-0.705,1.998-0.211L25.296,15.195z"/>
</g>
<g>
	<path d="M133.125,29.067L133.125,29.067L133.125,29.067z"/>
	<path d="M146.875,29.067L146.875,29.067L146.875,29.067z"/>
	<polygon points="148.75,27.193 148.75,27.192 148.75,27.192 	"/>
	<path style="fill:#1C5996;" d="M158.41,12.822c-1.978-4.616-5.679-8.318-10.295-10.295c1.249-0.983,2.82-1.574,4.531-1.574
		c4.052,0,7.337,3.285,7.337,7.338C159.984,10.002,159.393,11.573,158.41,12.822z"/>
	<path style="fill:#1C5996;" d="M158.11,20.937c0,4.811-1.889,9.173-4.949,12.415l2.533,2.532c0.335,0.335,0.542,0.799,0.542,1.31
		c0,1.023-0.829,1.853-1.853,1.853c-0.511,0-0.975-0.208-1.31-0.542l-2.721-2.721c-2.936,2.051-6.5,3.264-10.354,3.264
		c-3.845,0-7.404-1.208-10.336-3.251l-2.703,2.703c-0.339,0.339-0.807,0.549-1.325,0.549c-1.035,0-1.874-0.839-1.874-1.874
		c0-0.517,0.21-0.986,0.549-1.325l2.512-2.513c-3.051-3.241-4.935-7.596-4.935-12.4C121.89,10.934,129.997,2.827,140,2.827
		S158.11,10.934,158.11,20.937z"/>
	<circle style="fill:#FFFFFF;" cx="140" cy="20.937" r="14.364"/>
	<path style="fill:#1C5996;" d="M147.494,22.811H140c-1.035,0-1.874-0.839-1.874-1.874v-9.991c0-1.035,0.839-1.874,1.874-1.874
		s1.874,0.839,1.874,1.874v8.119h5.62c1.035,0,1.874,0.839,1.874,1.874C149.367,21.972,148.529,22.811,147.494,22.811z"/>
	<path style="fill:#1C5996;" d="M121.624,13.076c-1.004-1.275-1.607-2.88-1.607-4.629c0-4.139,3.355-7.494,7.494-7.494
		c1.749,0,3.354,0.604,4.629,1.608C127.424,4.581,123.644,8.361,121.624,13.076z"/>
</g>
</svg>
