<?xml version="1.0" encoding="iso-8859-1"?>
<!-- Generator: Adobe Illustrator 17.1.0, SVG Export Plug-In . SVG Version: 6.00 Build 0)  -->
<!DOCTYPE svg PUBLIC "-//W3C//DTD SVG 1.1//EN" "http://www.w3.org/Graphics/SVG/1.1/DTD/svg11.dtd">
<svg version="1.1" id="Layer_1" xmlns="http://www.w3.org/2000/svg" xmlns:xlink="http://www.w3.org/1999/xlink" x="0px" y="0px"
	 viewBox="0 0 24 22.868" style="enable-background:new 0 0 24 22.868;" xml:space="preserve">
<g>
	<g>
		<path style="fill-rule:evenodd;clip-rule:evenodd;fill:#158226;" d="M23.698,12.815c-0.597,0.454-1.211,0.351-1.588-0.001
			l-0.003,0.003L12.029,2.738l0-0.001L12,2.71v0L1.915,12.795l-0.001-0.001C1.538,13.166,0.9,13.274,0.3,12.816
			c-0.465-0.612-0.343-1.261,0.045-1.634L11.189,0.339C11.394,0.126,11.681-0.007,12-0.007l0,0l0,0l0,0
			c0.02,0,0.04,0.001,0.059,0.002c0.003,0,0.006,0.001,0.009,0.001C12.086-0.003,12.103-0.002,12.12,0c0.001,0,0.002,0,0.003,0
			c0.275,0.03,0.521,0.159,0.7,0.351l0.001-0.001l4.427,4.427V3.202c0.992-1.129,2.25-0.441,2.25,0.541v3.284l4.198,4.198
			l-0.003,0.003C24.047,11.606,24.151,12.218,23.698,12.815z"/>
	</g>
	<polygon style="fill-rule:evenodd;clip-rule:evenodd;fill:#00B81E;" points="21.75,13.868 21.75,17.243 21.75,18.743 21.75,22.868 
		18.375,22.868 18.375,13.868 13.875,13.868 13.875,22.868 2.25,22.868 2.25,18.743 2.25,17.243 2.25,13.868 12,4.118 	"/>
	<rect x="5.625" y="13.868" style="fill-rule:evenodd;clip-rule:evenodd;fill:#158226;" width="4.5" height="4.5"/>
	<rect x="13.878" y="13.868" style="fill-rule:evenodd;clip-rule:evenodd;fill:#158226;" width="4.5" height="9"/>
</g>
</svg>
