<?xml version="1.0" encoding="utf-8"?>
<!-- Generator: Adobe Illustrator 18.0.0, SVG Export Plug-In . SVG Version: 6.00 Build 0)  -->
<!DOCTYPE svg PUBLIC "-//W3C//DTD SVG 1.1//EN" "http://www.w3.org/Graphics/SVG/1.1/DTD/svg11.dtd">
<svg version="1.1" id="Layer_1" xmlns="http://www.w3.org/2000/svg" xmlns:xlink="http://www.w3.org/1999/xlink" x="0px" y="0px"
	 viewBox="38 38 436 436" enable-background="new 38 38 436 436" xml:space="preserve">
<g>
	<circle fill="#2A9BDB" cx="251.5" cy="172" r="20"/>
	<polygon fill="#2A9BDB" points="272,344 272,216 224,216 224,224 240,224 240,344 224,344 224,352 288,352 288,344 	"/>
</g>
<g>
	<path fill="#2A9BDB" stroke="#2A9BDB" stroke-width="20" stroke-miterlimit="10" d="M256,48C141.1,48,48,141.1,48,256
		s93.1,208,208,208s208-93.1,208-208S370.9,48,256,48z M256,446.7c-105.1,0-190.7-85.5-190.7-190.7c0-105.1,85.5-190.7,190.7-190.7
		c105.1,0,190.7,85.5,190.7,190.7C446.7,361.1,361.1,446.7,256,446.7z"/>
</g>
</svg>
