<?xml version="1.0" encoding="utf-8"?>
<!-- Generator: Adobe Illustrator 18.0.0, SVG Export Plug-In . SVG Version: 6.00 Build 0)  -->
<!DOCTYPE svg PUBLIC "-//W3C//DTD SVG 1.1//EN" "http://www.w3.org/Graphics/SVG/1.1/DTD/svg11.dtd">
<svg version="1.1" id="Layer_1" xmlns="http://www.w3.org/2000/svg" xmlns:xlink="http://www.w3.org/1999/xlink" x="0px" y="0px"
	 viewBox="0 0 16 16" enable-background="new 0 0 16 16" xml:space="preserve">
<g>
	<g>
		<circle fill="#2A9BDB" cx="8" cy="8" r="8"/>
	</g>
	<g>
		<circle fill="#FFFFFF" cx="8" cy="8" r="7"/>
	</g>
	<path fill-rule="evenodd" clip-rule="evenodd" fill="#2A9BDB" d="M6.6,6.6c0.3-0.2,0.5-0.2,0.7-0.2c0.6-0.1,1.3,0,1.6,0.6
		C9.2,7.2,9.1,7.7,9,8.1C8.8,8.6,8.7,9.1,8.5,9.5c-0.1,0.5-0.3,1-0.3,1.4c0,0.1,0,0.3,0.1,0.4c0.1,0.2,0.5,0.3,0.7,0.2
		c0.1,0,0.4-0.2,0.5-0.1c0.2,0.1,0,0.4-0.2,0.6c-0.3,0.2-0.7,0.4-1,0.4c-0.5,0-1,0-1.4-0.2c-0.6-0.3-0.7-0.8-0.7-1
		C6.2,10,7,8.9,7.1,7.7c0-0.3-0.1-0.6-0.4-0.6C6.5,7.1,6.3,7.2,6.2,7C6.1,6.9,6.3,6.7,6.6,6.6z"/>
	<circle fill-rule="evenodd" clip-rule="evenodd" fill="#2A9BDB" cx="8.7" cy="4.6" r="1.1"/>
</g>
</svg>
