<?xml version="1.0" encoding="iso-8859-1"?>
<!-- Generator: Adobe Illustrator 17.1.0, SVG Export Plug-In . SVG Version: 6.00 Build 0)  -->
<!DOCTYPE svg PUBLIC "-//W3C//DTD SVG 1.1//EN" "http://www.w3.org/Graphics/SVG/1.1/DTD/svg11.dtd">
<svg version="1.1" id="Layer_1" xmlns="http://www.w3.org/2000/svg" xmlns:xlink="http://www.w3.org/1999/xlink" x="0px" y="0px"
	 viewBox="0 0 24 24" style="enable-background:new 0 0 24 24;" xml:space="preserve">
<path style="fill:#004E7A;" d="M16.606,24H8.39c-0.893,0-1.62-0.727-1.62-1.62V1.62C6.77,0.726,7.497,0,8.39,0h8.217
	c0.893,0,1.62,0.726,1.62,1.62v20.76C18.226,23.273,17.499,24,16.606,24L16.606,24z"/>
<path style="fill:#2A9BDB;" d="M12.502,23.114c-0.605,0-1.097-0.493-1.097-1.097c0-0.604,0.491-1.097,1.097-1.097
	c0.604,0,1.096,0.493,1.096,1.097C13.598,22.621,13.107,23.114,12.502,23.114L12.502,23.114z"/>
<rect x="8" y="3.5" style="fill:#2A9BDB;" width="9" height="17"/>
</svg>
