<?xml version="1.0" encoding="utf-8"?>
<!-- Generator: Adobe Illustrator 18.0.0, SVG Export Plug-In . SVG Version: 6.00 Build 0)  -->
<!DOCTYPE svg PUBLIC "-//W3C//DTD SVG 1.1//EN" "http://www.w3.org/Graphics/SVG/1.1/DTD/svg11.dtd">
<svg version="1.1" id="Layer_1" xmlns="http://www.w3.org/2000/svg" xmlns:xlink="http://www.w3.org/1999/xlink" x="0px" y="0px"
	 viewBox="0 0 100 100" enable-background="new 0 0 100 100" xml:space="preserve">
<path id="SQUARE_2_" fill-rule="evenodd" clip-rule="evenodd" fill="#7599BB" d="M95.3,100H4.7C2.1,100,0,97.9,0,95.3V4.7
	C0,2.1,2.1,0,4.7,0h90.6c2.6,0,4.7,2.1,4.7,4.7v90.6C100,97.9,97.9,100,95.3,100z M90.6,9.4H9.4v81.2h81.3V9.4z"/>
<path fill="#DD6165" d="M54.9,73.7c0,3.2-2.6,5.8-5.8,5.8s-5.8-2.6-5.8-5.8c0-3.2,2.6-5.8,5.8-5.8C52.3,67.9,54.9,70.5,54.9,73.7z
	 M54.9,22.1c-0.1-0.1-0.2-0.2-0.3-0.3c-1.4-1.4-3.4-2.3-5.6-2.3c-2.3,0-4.4,1-5.8,2.6c-0.7,0.8-1,1.8-1,2.9l3,35.4
	c0.2,2,1.8,3.5,3.8,3.5c0,0,0,0,0,0c0,0,0,0,0,0c2,0,3.6-1.5,3.8-3.5l3-35.4C56,23.9,55.6,22.8,54.9,22.1z"/>
</svg>
