<?xml version="1.0" encoding="iso-8859-1"?>
<!-- Generator: Adobe Illustrator 17.1.0, SVG Export Plug-In . SVG Version: 6.00 Build 0)  -->
<!DOCTYPE svg PUBLIC "-//W3C//DTD SVG 1.1//EN" "http://www.w3.org/Graphics/SVG/1.1/DTD/svg11.dtd">
<svg version="1.1" id="Layer_1" xmlns="http://www.w3.org/2000/svg" xmlns:xlink="http://www.w3.org/1999/xlink" x="0px" y="0px"
	 viewBox="0 0 1052 1052" style="enable-background:new 0 0 1052 1052;" xml:space="preserve">
<circle style="fill:#D8D8D8;" cx="526.002" cy="526" r="526"/>
<path style="fill:#FFFFFF;stroke:#FFFFFF;stroke-width:12;stroke-miterlimit:10;" d="M758.118,429.371L495.119,692.367l0,0
	c-8.925,8.928-21.253,14.444-34.869,14.444s-25.946-5.516-34.868-14.444l0,0l-147.94-147.934l0,0
	C268.519,535.508,263,523.181,263,509.561c0-27.233,22.076-49.312,49.312-49.312c13.616,0,25.944,5.521,34.869,14.444l0,0
	L460.25,587.761l228.131-228.127l0,0c8.922-8.925,21.251-14.447,34.869-14.447c27.234,0,49.312,22.076,49.312,49.312
	C772.563,408.119,767.043,420.446,758.118,429.371L758.118,429.371z"/>
</svg>
