<?xml version="1.0" encoding="iso-8859-1"?>
<!-- Generator: Adobe Illustrator 17.1.0, SVG Export Plug-In . SVG Version: 6.00 Build 0)  -->
<!DOCTYPE svg PUBLIC "-//W3C//DTD SVG 1.1//EN" "http://www.w3.org/Graphics/SVG/1.1/DTD/svg11.dtd">
<svg version="1.1" id="Layer_1" xmlns="http://www.w3.org/2000/svg" xmlns:xlink="http://www.w3.org/1999/xlink" x="0px" y="0px"
	 viewBox="0 0 32 32" style="enable-background:new 0 0 32 32;" xml:space="preserve">
<g>
	<path style="fill:#FFFFFF;" d="M-646.405,39c-10.477,0-19-8.523-19-19s8.523-19,19-19s19,8.523,19,19S-635.929,39-646.405,39z"/>
	<path style="fill:#D53A3A;" d="M-646.405,2c9.925,0,18,8.075,18,18s-8.075,18-18,18s-18-8.075-18-18S-656.331,2-646.405,2
		 M-646.405,0c-11.046,0-20,8.954-20,20s8.954,20,20,20c11.046,0,20-8.954,20-20S-635.36,0-646.405,0L-646.405,0z"/>
</g>
<text transform="matrix(1 0 0 1 -651.2963 32.4288)" style="fill:#D53A3A; font-family:'OpenSans-Bold'; font-size:34.9664;">!</text>
<g>
	<path style="fill:#FFFFFF;" d="M-648.405,95.1c-9.429,0-17.1-7.671-17.1-17.1s7.671-17.1,17.1-17.1s17.1,7.671,17.1,17.1
		S-638.976,95.1-648.405,95.1z"/>
	<path style="fill:#FFFFFF;" d="M-648.405,61.8c8.933,0,16.2,7.267,16.2,16.2s-7.267,16.2-16.2,16.2c-8.933,0-16.2-7.267-16.2-16.2
		S-657.338,61.8-648.405,61.8 M-648.405,60c-9.941,0-18,8.059-18,18s8.059,18,18,18s18-8.059,18-18S-638.464,60-648.405,60
		L-648.405,60z"/>
</g>
<g>
	<path style="fill:#FFFFFF;" d="M-586.405,39c-10.477,0-19-8.523-19-19s8.523-19,19-19s19,8.523,19,19S-575.929,39-586.405,39z"/>
	<path style="fill:#2A9BDB;" d="M-586.405,2c9.925,0,18,8.075,18,18s-8.075,18-18,18s-18-8.075-18-18S-596.331,2-586.405,2
		 M-586.405,0c-11.046,0-20,8.954-20,20s8.954,20,20,20s20-8.954,20-20S-575.36,0-586.405,0L-586.405,0z"/>
</g>
<text transform="matrix(1 0 0 1 -593.7152 32.4288)" style="fill:#2A9BDB; font-family:'OpenSans-Bold'; font-size:34.9664;">?</text>
<g>
	<path style="fill:#2A9BDB;" d="M-526.405,39c-10.477,0-19-8.523-19-19s8.523-19,19-19s19,8.523,19,19S-515.929,39-526.405,39z"/>
	<path style="fill:#2A9BDB;" d="M-526.405,2c9.925,0,18,8.075,18,18s-8.075,18-18,18s-18-8.075-18-18S-536.331,2-526.405,2
		 M-526.405,0c-11.046,0-20,8.954-20,20s8.954,20,20,20c11.046,0,20-8.954,20-20S-515.36,0-526.405,0L-526.405,0z"/>
</g>
<text transform="matrix(1 0 0 1 -531.7599 33.291)" style="fill:#FFFFFF; font-family:'Garamond-Bold'; font-size:41.5087;">i</text>
<g>
	<path style="fill:#FFFFFF;" d="M-466.405,39c-10.477,0-19-8.523-19-19s8.523-19,19-19s19,8.523,19,19S-455.929,39-466.405,39z"/>
	<g>
		<path style="fill:#2A9BDB;" d="M-466.405,2c9.925,0,18,8.075,18,18s-8.075,18-18,18s-18-8.075-18-18S-476.331,2-466.405,2
			 M-466.405,0c-11.046,0-20,8.954-20,20s8.954,20,20,20c11.046,0,20-8.954,20-20S-455.36,0-466.405,0L-466.405,0z"/>
	</g>
</g>
<text transform="matrix(1 0 0 1 -471.76 33.291)" style="fill:#2A9BDB; font-family:'Garamond-Bold'; font-size:41.5087;">i</text>
<circle style="fill:#2A9BDB;" cx="-415.405" cy="10.995" r="11"/>
<circle style="fill:#2A9BDB;" cx="-603.405" cy="304.995" r="11"/>
<path id="PEN_2_2_" style="fill-rule:evenodd;clip-rule:evenodd;fill:#2A9BDB;" d="M-639.719,86.284h-17.373
	c-0.496,0-0.899-0.402-0.899-0.899c0-0.496,0.402-0.899,0.899-0.899h17.373c0.496,0,0.899,0.402,0.899,0.899
	C-638.82,85.881-639.222,86.284-639.719,86.284z M-643.363,72.964l-2.53-2.525l1.897-1.894c0.349-0.349,0.916-0.349,1.265,0
	l1.265,1.262c0.349,0.349,0.349,0.914,0,1.262L-643.363,72.964z M-651.585,81.17l-2.53-2.525l7.59-7.575l2.53,2.525L-651.585,81.17z
	 M-655.595,82.641l0.842-3.366l2.53,2.525L-655.595,82.641z"/>
<g>
	<path style="fill:#FFFFFF;" d="M-592.405,95.1c-9.429,0-17.1-7.671-17.1-17.1s7.671-17.1,17.1-17.1s17.1,7.671,17.1,17.1
		S-582.976,95.1-592.405,95.1z"/>
	<path style="fill:#FFFFFF;" d="M-592.405,61.8c8.933,0,16.2,7.267,16.2,16.2s-7.267,16.2-16.2,16.2c-8.933,0-16.2-7.267-16.2-16.2
		S-601.338,61.8-592.405,61.8 M-592.405,60c-9.941,0-18,8.059-18,18s8.059,18,18,18c9.941,0,18-8.059,18-18S-582.464,60-592.405,60
		L-592.405,60z"/>
</g>
<path id="CAMERA_2_" style="fill-rule:evenodd;clip-rule:evenodd;fill:#939393;" d="M-584.249,85.284h-16.312
	c-0.466,0-0.844-0.378-0.844-0.844V73.19c0-0.466,0.378-0.844,0.844-0.844h3.604l1.351-1.351c0.154-0.203,0.396-0.336,0.67-0.336
	h5.062c0.237,0,0.45,0.098,0.604,0.256l0.001-0.001l1.433,1.433h3.588c0.466,0,0.844,0.378,0.844,0.844v11.25
	C-583.405,84.906-583.783,85.284-584.249,85.284z M-592.405,73.471c-2.796,0-5.062,2.267-5.062,5.062
	c0,2.796,2.267,5.062,5.062,5.062s5.062-2.266,5.062-5.062C-587.343,75.738-589.609,73.471-592.405,73.471z M-592.405,81.909
	c-1.864,0-3.375-1.511-3.375-3.375c0-1.864,1.511-3.375,3.375-3.375s3.375,1.511,3.375,3.375
	C-589.03,80.398-590.542,81.909-592.405,81.909z"/>
<path id="SQUARE__x2F__RIGHT_2_" style="fill-rule:evenodd;clip-rule:evenodd;fill:#FFFFFF;" d="M-622.562,161.971h-8.625
	c-1.191,0-2.156-0.965-2.156-2.156c0-1.191,0.965-2.156,2.156-2.156h6.469v-6.468l0,0c0-1.191,0.965-2.156,2.156-2.156
	c1.191,0,2.156,0.965,2.156,2.156v8.625C-620.405,161.006-621.371,161.971-622.562,161.971z M-622.562,133.221
	c1.191,0,2.156,0.965,2.156,2.156v7.188c0,1.191-0.965,2.156-2.156,2.156s-2.156-0.966-2.156-2.156v-7.188
	C-624.718,134.187-623.753,133.221-622.562,133.221z M-622.562,128.909c-1.191,0-2.156-0.965-2.156-2.156l0,0v-6.468h-6.469v0
	c-1.191,0-2.156-0.965-2.156-2.156s0.965-2.156,2.156-2.156h0h8.625c1.191,0,2.156,0.965,2.156,2.156v8.625
	C-620.405,127.943-621.371,128.909-622.562,128.909z M-639.812,120.284h-7.188c-1.191,0-2.156-0.965-2.156-2.156
	s0.965-2.156,2.156-2.156h7.188c1.191,0,2.156,0.966,2.156,2.156S-638.621,120.284-639.812,120.284z M-642.692,134.105l0.005-0.006
	c-0.438-0.395-0.719-0.961-0.719-1.597c0-1.191,0.965-2.156,2.156-2.156c0.555,0,1.055,0.215,1.437,0.559l0.005-0.006l7.188,6.469
	l-0.005,0.006c0.438,0.395,0.719,0.961,0.719,1.597c0,0.636-0.281,1.202-0.719,1.597l0.005,0.006l-7.188,6.469l-0.005-0.006
	c-0.382,0.344-0.883,0.559-1.437,0.559c-1.191,0-2.156-0.965-2.156-2.156c0-0.636,0.281-1.202,0.719-1.597l-0.005-0.006l3.011-2.71
	h-13.068c-1.191,0-2.156-0.965-2.156-2.156c0-1.191,0.965-2.156,2.156-2.156h13.068L-642.692,134.105z M-655.624,120.284
	L-655.624,120.284l-6.469,0v6.469c0,1.191-0.965,2.156-2.156,2.156s-2.156-0.965-2.156-2.156l0,0v-8.625
	c0-1.191,0.965-2.156,2.156-2.156h8.625h0c1.191,0,2.156,0.965,2.156,2.156S-654.433,120.284-655.624,120.284z M-664.249,144.721
	c-1.191,0-2.156-0.966-2.156-2.156v-7.188c0-1.191,0.965-2.156,2.156-2.156s2.156,0.965,2.156,2.156v7.188
	C-662.093,143.756-663.058,144.721-664.249,144.721z M-664.249,149.034c1.191,0,2.156,0.965,2.156,2.156v6.469h6.469
	c1.191,0,2.156,0.965,2.156,2.156c0,1.191-0.965,2.156-2.156,2.156h-8.625c-1.191,0-2.156-0.965-2.156-2.156v-8.625l0,0
	C-666.405,149.999-665.44,149.034-664.249,149.034z M-646.999,157.659h7.188c1.191,0,2.156,0.965,2.156,2.156
	c0,1.191-0.965,2.156-2.156,2.156h-7.188c-1.191,0-2.156-0.965-2.156-2.156C-649.155,158.624-648.19,157.659-646.999,157.659z"/>
<g>
	<path style="fill:#D69D9D;stroke:#E02222;stroke-miterlimit:10;" d="M-545.736,63.225c-0.36,0.662-2.3,4.416-2.248,7.854
		c0,0-0.034,1.158,0.834,1.532c0.281,0.122,1.925,0.821,2.105,1.002c0,0,0.999,2.155,1.806,3.129
		c1.869,2.258,3.36,3.413,3.792,3.731c0.273,0.202,0.901,0.447,2.183,1.787c1.008,1.053,1.083,2.167,1.837,2.179
		c0.075,0.002,0.09-0.006,0.251-0.055c0.403-0.123,2.218-1.563,0.722-3.971c0,0-0.751-1.183-2.046-2.288c0,0-1.768-1.55,0.181-2.708
		c0,0,1.263-0.646,2.8-0.561c0.625,0.035,1.594,0.2,1.894,0.259c0.301,0.061,1.305,0.369,2.106-0.12
		c1.548-0.945,0.663-9.409-2.9-12.313c-1.343-1.096-5.945-1.467-8.473-0.745c0,0-1.435,0.502-2.167,0.422
		c-1.022-0.115-1.647,0.064-1.647,0.064S-545.375,62.563-545.736,63.225z"/>
	<path style="fill:#E02222;" d="M-551.44,72.661c1.226,0.191,2.353,0.381,2.592,0.407c0.208,0.023,0.227-0.253,0.054-0.334
		c-0.214-0.123-0.512-0.492-0.598-1.255c-0.006-0.554-0.448-4.111,2.502-9.001c0.682-1.128,1.203-1.09,2.075-1.168
		c-0.039-0.527-0.843-0.818-0.843-0.818s-2.565-0.833-4.123-0.331c0,0-2.297,0.487-3.718,4.757c-0.395,1.186-0.677,2.409-0.8,3.449
		c-0.06,0.499-0.094,0.952-0.105,1.332C-554.46,71.62-552.971,72.389-551.44,72.661z"/>
</g>
<path style="fill:#C5E4D1;stroke:#069342;stroke-miterlimit:10;" d="M-490.124,82.214c0.36-0.662,2.3-4.416,2.248-7.854
	c0,0,0.034-1.158-0.834-1.532c-0.281-0.122-1.925-0.821-2.105-1.002c0,0-0.999-2.155-1.806-3.129
	c-1.869-2.258-3.36-3.413-3.792-3.731c-0.273-0.202-0.901-0.447-2.183-1.787c-1.008-1.053-1.083-2.167-1.837-2.179
	c-0.075-0.002-0.09,0.006-0.251,0.055c-0.403,0.123-2.218,1.563-0.722,3.971c0,0,0.751,1.183,2.046,2.288
	c0,0,1.768,1.55-0.181,2.708c0,0-1.263,0.646-2.8,0.561c-0.625-0.035-1.594-0.2-1.894-0.259c-0.301-0.061-1.305-0.369-2.106,0.12
	c-1.548,0.945-0.663,9.409,2.9,12.313c1.343,1.096,5.945,1.467,8.473,0.745c0,0,1.435-0.502,2.167-0.422
	c1.022,0.115,1.647-0.064,1.647-0.064S-490.485,82.876-490.124,82.214z"/>
<path style="fill:#069342;" d="M-484.42,72.778c-1.226-0.191-2.353-0.381-2.592-0.407c-0.208-0.023-0.227,0.253-0.054,0.334
	c0.214,0.123,0.512,0.492,0.598,1.255c0.006,0.554,0.448,4.111-2.502,9.001c-0.682,1.128-1.203,1.09-2.075,1.168
	c0.039,0.527,0.843,0.818,0.843,0.818s2.565,0.833,4.123,0.331c0,0,2.297-0.487,3.718-4.757c0.395-1.186,0.677-2.409,0.8-3.449
	c0.06-0.499,0.094-0.952,0.105-1.332C-481.4,73.819-482.889,73.05-484.42,72.778z"/>
<path style="fill:#F2F2F2;stroke:#CFCFCF;stroke-miterlimit:10;" d="M-443.766,82.214c0.36-0.662,2.3-4.416,2.248-7.854
	c0,0,0.034-1.158-0.834-1.532c-0.281-0.122-1.925-0.821-2.105-1.002c0,0-0.999-2.155-1.806-3.129
	c-1.869-2.258-3.36-3.413-3.792-3.731c-0.273-0.202-0.901-0.447-2.183-1.787c-1.008-1.053-1.083-2.167-1.837-2.179
	c-0.075-0.002-0.09,0.006-0.251,0.055c-0.403,0.123-2.218,1.563-0.722,3.971c0,0,0.751,1.183,2.046,2.288
	c0,0,1.768,1.55-0.181,2.708c0,0-1.263,0.646-2.8,0.561c-0.625-0.035-1.594-0.2-1.894-0.259c-0.301-0.061-1.305-0.369-2.106,0.12
	c-1.548,0.945-0.663,9.409,2.9,12.313c1.343,1.096,5.945,1.467,8.473,0.745c0,0,1.435-0.502,2.167-0.422
	c1.022,0.115,1.647-0.064,1.647-0.064S-444.127,82.876-443.766,82.214z"/>
<path style="fill:#CFCFCF;" d="M-438.062,72.778c-1.226-0.191-2.353-0.381-2.592-0.407c-0.208-0.023-0.227,0.253-0.054,0.334
	c0.214,0.123,0.512,0.492,0.598,1.255c0.006,0.554,0.448,4.111-2.502,9.001c-0.682,1.128-1.203,1.09-2.075,1.168
	c0.039,0.527,0.843,0.818,0.843,0.818s2.565,0.833,4.123,0.331c0,0,2.297-0.487,3.718-4.757c0.395-1.186,0.677-2.409,0.8-3.449
	c0.06-0.499,0.094-0.952,0.105-1.332C-435.042,73.819-436.531,73.05-438.062,72.778z"/>
<path style="fill:#D53A3A;" d="M-568.405,143.827c0,2.305-1.868,4.173-4.173,4.173h-23.654c-2.305,0-4.173-1.868-4.173-4.173
	v-23.654c0-2.305,1.868-4.173,4.173-4.173h23.654c2.305,0,4.173,1.868,4.173,4.173V143.827z"/>
<path id="CLOSE_1_" style="fill-rule:evenodd;clip-rule:evenodd;fill:#FFFFFF;" d="M-574.685,124.838l-7.162,7.162l7.162,7.162l0,0
	c0.327,0.327,0.53,0.779,0.53,1.279c0,0.999-0.81,1.809-1.809,1.809c-0.5,0-0.952-0.203-1.279-0.53l0,0l-7.162-7.162l-7.162,7.162
	l0,0c-0.327,0.327-0.78,0.53-1.279,0.53c-0.999,0-1.809-0.81-1.809-1.809c0-0.5,0.203-0.952,0.53-1.279l0,0l7.162-7.162
	l-7.162-7.162l0,0c-0.327-0.327-0.53-0.78-0.53-1.279c0-0.999,0.81-1.809,1.809-1.809c0.499,0,0.952,0.202,1.279,0.53l0,0
	l7.162,7.162l7.162-7.162l0,0c0.327-0.327,0.779-0.53,1.279-0.53c0.999,0,1.809,0.81,1.809,1.809
	C-574.155,124.058-574.358,124.511-574.685,124.838L-574.685,124.838z"/>
<path style="fill:#1C5996;" d="M-516.405,143.827c0,2.305-1.868,4.173-4.173,4.173h-23.654c-2.305,0-4.173-1.868-4.173-4.173
	v-23.654c0-2.305,1.868-4.173,4.173-4.173h23.654c2.305,0,4.173,1.868,4.173,4.173V143.827z"/>
<path style="fill-rule:evenodd;clip-rule:evenodd;fill:#FFFFFF;" d="M-525.872,127.45L-525.872,127.45
	c0.722,0.722,0.721,1.892,0,2.613c-0.722,0.722-1.892,0.722-2.613,0l0,0l-2.072-2.072l0,12.961c0,0.473-0.18,0.946-0.541,1.307
	c-0.722,0.722-1.892,0.722-2.613,0c-0.361-0.361-0.541-0.834-0.541-1.307l0,0l0-12.961l-2.072,2.072l0,0
	c-0.722,0.722-1.892,0.722-2.613,0c-0.722-0.722-0.722-1.892,0-2.613l0,0l5.227-5.227l0,0c0.722-0.722,1.892-0.722,2.613,0l0,0
	L-525.872,127.45z"/>
<path style="fill:#1C5996;" d="M-496.405,120.173c0-2.305,1.868-4.173,4.173-4.173h23.654c2.305,0,4.173,1.868,4.173,4.173v23.654
	c0,2.305-1.868,4.173-4.173,4.173h-23.654c-2.305,0-4.173-1.868-4.173-4.173V120.173z"/>
<path style="fill-rule:evenodd;clip-rule:evenodd;fill:#FFFFFF;" d="M-486.939,136.55L-486.939,136.55
	c-0.722-0.722-0.721-1.892,0-2.613c0.722-0.722,1.892-0.722,2.613,0l0,0l2.072,2.072l0-12.961c0-0.473,0.18-0.946,0.541-1.307
	c0.722-0.722,1.892-0.722,2.613,0c0.361,0.361,0.541,0.834,0.541,1.307l0,0l0,12.961l2.072-2.072l0,0
	c0.722-0.722,1.892-0.722,2.613,0c0.722,0.722,0.722,1.892,0,2.613l0,0l-5.227,5.227l0,0c-0.722,0.722-1.892,0.722-2.613,0l0,0
	L-486.939,136.55z"/>
<g>
	<path style="fill:#FFFFFF;" d="M-440.232,147c-1.75,0-3.174-1.423-3.174-3.173v-23.654c0-1.75,1.424-3.173,3.174-3.173h23.653
		c1.75,0,3.173,1.423,3.173,3.173v23.654c0,1.75-1.423,3.173-3.173,3.173H-440.232z"/>
	<path style="fill:#1C5996;" d="M-416.578,118c1.198,0,2.173,0.975,2.173,2.173v23.654c0,1.198-0.975,2.173-2.173,2.173h-23.654
		c-1.198,0-2.173-0.975-2.173-2.173v-23.654c0-1.198,0.975-2.173,2.173-2.173H-416.578 M-416.578,116h-23.654
		c-2.305,0-4.173,1.868-4.173,4.173v23.654c0,2.305,1.868,4.173,4.173,4.173h23.654c2.305,0,4.173-1.868,4.173-4.173v-23.654
		C-412.405,117.868-414.274,116-416.578,116L-416.578,116z"/>
</g>
<path style="fill-rule:evenodd;clip-rule:evenodd;fill:#1C5996;" d="M-418.279,128.069l-11.355,11.355l0,0
	c-0.385,0.385-0.918,0.624-1.505,0.624c-0.588,0-1.12-0.238-1.505-0.624l0,0l-6.387-6.387l0,0c-0.385-0.385-0.624-0.918-0.624-1.506
	c0-1.176,0.953-2.129,2.129-2.129c0.588,0,1.12,0.238,1.505,0.624l0,0l4.882,4.882l9.849-9.849l0,0
	c0.385-0.385,0.918-0.624,1.505-0.624c1.176,0,2.129,0.953,2.129,2.129C-417.655,127.151-417.894,127.684-418.279,128.069
	L-418.279,128.069z"/>
<polygon style="fill-rule:evenodd;clip-rule:evenodd;" points="-433.905,139.241 -433.906,139.241 -433.905,139.241 "/>
<polygon style="fill-rule:evenodd;clip-rule:evenodd;" points="-422.905,139.241 -422.906,139.241 -422.905,139.241 "/>
<polygon style="fill-rule:evenodd;clip-rule:evenodd;" points="-421.405,137.741 -421.405,137.74 -421.405,137.741 "/>
<g>
	<path style="fill:#FFFFFF;" d="M-230.233,31.5c-2.025,0-3.673-1.647-3.673-3.673V4.173c0-2.025,1.647-3.673,3.673-3.673h23.654
		c2.025,0,3.673,1.647,3.673,3.673v23.654c0,2.025-1.647,3.673-3.673,3.673H-230.233z"/>
	<path style="fill:#1C5996;" d="M-206.578,1c1.75,0,3.173,1.423,3.173,3.173v23.654c0,1.75-1.423,3.173-3.173,3.173h-23.654
		c-1.75,0-3.173-1.423-3.173-3.173V4.173c0-1.75,1.423-3.173,3.173-3.173H-206.578 M-206.578,0h-23.654
		c-2.305,0-4.173,1.868-4.173,4.173v23.654c0,2.305,1.868,4.173,4.173,4.173h23.654c2.305,0,4.173-1.868,4.173-4.173V4.173
		C-202.405,1.868-204.274,0-206.578,0L-206.578,0z"/>
</g>
<polygon style="fill-rule:evenodd;clip-rule:evenodd;" points="-223.905,23.241 -223.906,23.241 -223.905,23.241 "/>
<polygon style="fill-rule:evenodd;clip-rule:evenodd;" points="-212.905,23.241 -212.906,23.241 -212.905,23.241 "/>
<polygon style="fill-rule:evenodd;clip-rule:evenodd;" points="-211.405,21.741 -211.405,21.74 -211.405,21.741 "/>
<polygon style="fill-rule:evenodd;clip-rule:evenodd;" points="-35.905,23.241 -35.906,23.241 -35.905,23.241 "/>
<polygon style="fill-rule:evenodd;clip-rule:evenodd;" points="-24.905,23.241 -24.906,23.241 -24.905,23.241 "/>
<polygon style="fill-rule:evenodd;clip-rule:evenodd;" points="-23.405,21.741 -23.405,21.74 -23.405,21.741 "/>
<g>
	<path style="fill:#D69D9D;stroke:#E02222;stroke-miterlimit:10;" d="M-642.294,184.686l-0.006-0.007
		c-0.401-0.464-0.945-0.722-1.512-0.717c-2.738,0.024-11.142,0.096-15.517,0.114c-3.398,0.014-2.685,4.221-0.791,4.209
		c-3.112,0-3.639,4.697-0.264,4.697c-4.559-0.02-3.936,4.614-1.266,4.636c-3.672,0-3.428,4.422,0.363,4.422
		c0.251-0.029,5.394-0.32,7.176-0.554c0.302-0.04,0.54,0.289,0.454,0.626l-1.264,4.962c-0.062,0.245-0.068,0.505-0.016,0.753
		c0.162,0.77,0.695,2.506,2.411,4.49c1.293,1.496,2.161,1.192,2.675,0.629c0.399-0.437,0.497-1.128,0.251-1.697
		c-0.306-0.706-0.634-1.929-0.131-3.324c0.791-2.196,4.002-6.188,5.169-6.527c0.983-0.285,1.437-0.467,2.268-0.847"/>
	<path style="fill:#E02222;" d="M-643.439,182.889c0-0.491,0.204-0.889,0.455-0.889h5.991c0.251,0,0.455,0.398,0.455,0.889v19.782
		c0,0.491-0.204,0.889-0.455,0.889h-5.991c-0.251,0-0.455-0.398-0.455-0.889V182.889z"/>
</g>
<g>
	<path style="fill:#C5E4D1;stroke:#069342;stroke-miterlimit:10;" d="M-606.516,211.301l0.006,0.007
		c0.401,0.464,0.945,0.722,1.512,0.717c2.738-0.024,11.142-0.096,15.517-0.114c3.398-0.014,2.685-4.221,0.791-4.209
		c3.112,0,3.639-4.697,0.264-4.697c4.559,0.02,3.936-4.614,1.266-4.636c3.672,0,3.428-4.422-0.362-4.422
		c-0.251,0.029-5.394,0.32-7.176,0.554c-0.302,0.04-0.54-0.289-0.454-0.626l1.264-4.962c0.062-0.245,0.068-0.505,0.016-0.753
		c-0.162-0.77-0.696-2.506-2.411-4.49c-1.293-1.496-2.161-1.192-2.675-0.629c-0.399,0.437-0.497,1.128-0.251,1.697
		c0.306,0.706,0.634,1.929,0.131,3.324c-0.791,2.196-4.002,6.188-5.169,6.527c-0.983,0.285-1.437,0.467-2.268,0.847"/>
	<path style="fill:#069342;" d="M-605.372,213.097c0,0.491-0.204,0.889-0.455,0.889h-5.991c-0.251,0-0.455-0.398-0.455-0.889
		v-19.782c0-0.491,0.204-0.889,0.455-0.889h5.991c0.251,0,0.455,0.398,0.455,0.889V213.097z"/>
</g>
<g>
	<path style="fill:#F2F2F2;stroke:#CFCFCF;stroke-miterlimit:10;" d="M-555.516,211.301l0.006,0.007
		c0.401,0.464,0.945,0.722,1.512,0.717c2.738-0.024,11.142-0.096,15.517-0.114c3.398-0.014,2.685-4.221,0.791-4.209
		c3.112,0,3.639-4.697,0.264-4.697c4.559,0.02,3.936-4.614,1.266-4.636c3.672,0,3.428-4.422-0.362-4.422
		c-0.251,0.029-5.394,0.32-7.176,0.554c-0.302,0.04-0.54-0.29-0.454-0.626l1.264-4.962c0.062-0.245,0.068-0.505,0.016-0.753
		c-0.162-0.77-0.696-2.506-2.411-4.49c-1.293-1.496-2.161-1.192-2.675-0.629c-0.399,0.437-0.497,1.128-0.251,1.697
		c0.306,0.706,0.634,1.929,0.131,3.324c-0.791,2.196-4.002,6.188-5.169,6.527c-0.983,0.285-1.437,0.467-2.268,0.847"/>
	<path style="fill:#CFCFCF;" d="M-554.372,213.097c0,0.491-0.204,0.889-0.455,0.889h-5.991c-0.251,0-0.455-0.398-0.455-0.889
		v-19.782c0-0.491,0.204-0.889,0.455-0.889h5.991c0.251,0,0.455,0.398,0.455,0.889V213.097z"/>
</g>
<circle style="fill:#2A9BDB;" cx="-499.405" cy="192.995" r="11"/>
<circle style="fill:#D03135;" cx="-454.292" cy="196" r="14"/>
<path id="CLOSE_2_" style="fill-rule:evenodd;clip-rule:evenodd;fill:#FFFFFF;" d="M-446.705,190.41l-5.59,5.59l5.59,5.59l0,0
	c0.255,0.256,0.413,0.608,0.413,0.998c0,0.78-0.632,1.412-1.412,1.412c-0.39,0-0.743-0.158-0.998-0.414l0,0l-5.59-5.59l-5.59,5.59
	l0,0c-0.255,0.255-0.608,0.414-0.998,0.414c-0.78,0-1.412-0.632-1.412-1.412c0-0.39,0.158-0.743,0.414-0.998l0,0l5.59-5.59
	l-5.59-5.59l0,0c-0.255-0.256-0.414-0.609-0.414-0.998c0-0.78,0.632-1.412,1.412-1.412c0.39,0,0.743,0.158,0.998,0.414l0,0
	l5.59,5.59l5.59-5.59l0,0c0.255-0.256,0.608-0.414,0.998-0.414c0.78,0,1.412,0.632,1.412,1.412
	C-446.292,189.802-446.45,190.155-446.705,190.41L-446.705,190.41z"/>
<circle style="fill:#FFFFFF;" cx="-652.405" cy="248" r="14"/>
<path id="CLOSE_3_" style="fill-rule:evenodd;clip-rule:evenodd;fill:#4A7D12;" d="M-644.819,242.41l-5.59,5.59l5.59,5.59l0,0
	c0.255,0.256,0.413,0.608,0.413,0.998c0,0.78-0.632,1.412-1.412,1.412c-0.39,0-0.743-0.158-0.998-0.414l0,0l-5.59-5.59l-5.59,5.59
	l0,0c-0.255,0.255-0.608,0.414-0.998,0.414c-0.78,0-1.412-0.632-1.412-1.412c0-0.39,0.158-0.743,0.414-0.998l0,0l5.59-5.59
	l-5.59-5.59l0,0c-0.255-0.256-0.414-0.609-0.414-0.998c0-0.78,0.632-1.412,1.412-1.412c0.39,0,0.743,0.158,0.998,0.414l0,0
	l5.59,5.59l5.59-5.59l0,0c0.255-0.256,0.608-0.414,0.998-0.414c0.78,0,1.412,0.632,1.412,1.412
	C-644.405,241.802-644.563,242.155-644.819,242.41L-644.819,242.41z"/>
<path style="fill:#9661BE;" d="M-618.405,239.216c0-2.881,2.335-5.216,5.216-5.216h29.568c2.881,0,5.216,2.335,5.216,5.216v29.568
	c0,2.881-2.335,5.216-5.216,5.216h-29.568c-2.881,0-5.216-2.335-5.216-5.216V239.216z"/>
<path id="USER_6_" style="fill-rule:evenodd;clip-rule:evenodd;fill:#FFFFFF;" d="M-590.238,267.265c0,0.001,0,0.002,0,0.003
	c0,0.652-0.528,1.18-1.18,1.18h-22.809c-0.652,0-1.18-0.528-1.18-1.18c0-0.001,0-0.002,0-0.003h-0.001c0,0,0-4.299,3.141-5.862
	c1.988-0.989,1.222-0.186,3.663-1.198c2.44-1.01,3.018-1.363,3.018-1.363l0.023-2.329c0,0-0.914-0.699-1.198-2.891
	c-0.572,0.165-0.761-0.671-0.795-1.204c-0.031-0.515-0.331-2.122,0.367-1.977c-0.143-1.073-0.245-2.041-0.195-2.554
	c0.175-1.8,1.908-3.68,4.579-3.818c3.141,0.137,4.385,2.016,4.559,3.816c0.051,0.513-0.061,1.481-0.204,2.553
	c0.698-0.143,0.395,1.461,0.361,1.976c-0.031,0.533-0.224,1.367-0.794,1.202c-0.285,2.192-1.199,2.885-1.199,2.885l0.021,2.318
	c0,0,0.578,0.33,3.018,1.341c2.44,1.012,1.675,0.255,3.663,1.244C-590.237,262.966-590.237,267.265-590.238,267.265
	L-590.238,267.265z"/>
<path id="USER_1_" style="fill-rule:evenodd;clip-rule:evenodd;fill:#FFFFFF;" d="M-580.663,259.86c0,0.001,0,0.002,0,0.003
	c0,0.614-0.457,1.112-1.021,1.112h-19.736c-0.564,0-1.021-0.498-1.021-1.112c0-0.001,0-0.002,0-0.003h-0.001
	c0,0,0-4.051,2.718-5.525c1.72-0.932,1.058-0.175,3.169-1.129c2.111-0.952,2.612-1.285,2.612-1.285l0.02-2.195
	c0,0-0.791-0.659-1.036-2.724c-0.495,0.156-0.658-0.633-0.688-1.135c-0.026-0.485-0.286-2,0.317-1.863
	c-0.123-1.011-0.212-1.923-0.169-2.406c0.151-1.696,1.651-3.468,3.962-3.598c2.718,0.129,3.794,1.9,3.945,3.596
	c0.044,0.483-0.053,1.396-0.176,2.405c0.604-0.135,0.341,1.377,0.312,1.862c-0.027,0.502-0.194,1.288-0.687,1.132
	c-0.247,2.065-1.038,2.719-1.038,2.719l0.018,2.184c0,0,0.5,0.311,2.612,1.264c2.112,0.954,1.449,0.241,3.169,1.173
	C-580.663,255.809-580.663,259.86-580.663,259.86L-580.663,259.86z"/>
<path style="fill:#FFFFFF;" d="M-558.405,239.216c0-2.881,2.335-5.216,5.216-5.216h29.568c2.881,0,5.216,2.335,5.216,5.216v29.568
	c0,2.881-2.335,5.216-5.216,5.216h-29.568c-2.881,0-5.216-2.335-5.216-5.216V239.216z M-530.237,267.265c0,0,0-4.299-3.141-5.862
	c-1.988-0.989-1.222-0.232-3.663-1.244c-2.44-1.011-3.018-1.341-3.018-1.341l-0.021-2.318c0,0,0.914-0.694,1.199-2.885
	c0.57,0.165,0.764-0.669,0.794-1.202c0.034-0.515,0.337-2.119-0.361-1.976c0.143-1.071,0.255-2.04,0.204-2.553
	c-0.174-1.8-1.419-3.679-4.559-3.816c-2.67,0.137-4.404,2.018-4.579,3.818c-0.05,0.513,0.052,1.48,0.195,2.554
	c-0.698-0.145-0.397,1.462-0.367,1.977c0.034,0.533,0.223,1.369,0.795,1.204c0.284,2.192,1.198,2.891,1.198,2.891l-0.023,2.329
	c0,0-0.578,0.353-3.018,1.363c-2.44,1.012-1.675,0.21-3.663,1.198c-3.141,1.563-3.141,5.862-3.141,5.862h0.001
	c0,0.001,0,0.002,0,0.003c0,0.652,0.528,1.18,1.18,1.18h22.809c0.652,0,1.18-0.528,1.18-1.18
	C-530.238,267.267-530.238,267.266-530.237,267.265L-530.237,267.265z M-520.663,259.86c0,0,0-4.051-2.718-5.524
	c-1.72-0.932-1.058-0.219-3.169-1.173c-2.111-0.953-2.612-1.264-2.612-1.264l-0.018-2.184c0,0,0.791-0.654,1.038-2.719
	c0.493,0.155,0.661-0.63,0.687-1.132c0.029-0.485,0.292-1.997-0.312-1.862c0.124-1.01,0.221-1.922,0.176-2.405
	c-0.151-1.696-1.228-3.467-3.945-3.596c-2.31,0.13-3.81,1.901-3.962,3.598c-0.044,0.483,0.045,1.395,0.169,2.406
	c-0.604-0.137-0.344,1.378-0.317,1.863c0.029,0.502,0.193,1.291,0.688,1.135c0.246,2.066,1.036,2.724,1.036,2.724l-0.02,2.195
	c0,0-0.5,0.332-2.612,1.285c-2.111,0.954-1.449,0.197-3.169,1.129c-2.718,1.473-2.718,5.525-2.718,5.525h0.001
	c0,0.001,0,0.002,0,0.003c0,0.614,0.457,1.112,1.021,1.112h19.736c0.564,0,1.021-0.498,1.021-1.112
	C-520.663,259.861-520.663,259.861-520.663,259.86L-520.663,259.86z"/>
<path id="USER_2_" style="fill-rule:evenodd;clip-rule:evenodd;fill:#49B173;" d="M-458.407,272.119c0,0.001,0,0.003,0,0.005
	c0,1.036-0.84,1.876-1.876,1.876h-36.27c-1.036,0-1.876-0.84-1.876-1.876c0-0.002,0-0.003,0-0.005h-0.001c0,0,0-6.836,4.995-9.322
	c3.161-1.572,1.944-0.296,5.824-1.906c3.88-1.607,4.8-2.168,4.8-2.168l0.037-3.704c0,0-1.453-1.112-1.905-4.597
	c-0.91,0.263-1.21-1.068-1.263-1.915c-0.049-0.818-0.526-3.374,0.583-3.143c-0.227-1.707-0.39-3.245-0.31-4.061
	c0.278-2.862,3.035-5.852,7.281-6.071c4.994,0.218,6.973,3.206,7.25,6.068c0.081,0.815-0.097,2.355-0.324,4.059
	c1.11-0.228,0.627,2.324,0.574,3.142c-0.049,0.847-0.356,2.173-1.263,1.911c-0.453,3.485-1.907,4.588-1.907,4.588l0.034,3.685
	c0,0,0.919,0.525,4.799,2.132c3.881,1.609,2.663,0.406,5.824,1.979c4.995,2.485,4.995,9.321,4.995,9.321H-458.407z"/>
<path id="USER_5_" style="fill-rule:evenodd;clip-rule:evenodd;fill:#FFFFFF;" d="M-398.407,272.119c0,0.001,0,0.003,0,0.005
	c0,1.036-0.84,1.876-1.876,1.876h-36.27c-1.036,0-1.876-0.84-1.876-1.876c0-0.002,0-0.003,0-0.005h-0.001c0,0,0-6.836,4.995-9.322
	c3.161-1.572,1.944-0.296,5.824-1.906c3.88-1.607,4.8-2.168,4.8-2.168l0.037-3.704c0,0-1.453-1.112-1.905-4.597
	c-0.91,0.263-1.21-1.068-1.263-1.915c-0.049-0.818-0.526-3.374,0.583-3.143c-0.227-1.707-0.39-3.245-0.31-4.061
	c0.278-2.862,3.035-5.852,7.281-6.071c4.994,0.218,6.973,3.206,7.25,6.068c0.081,0.815-0.097,2.355-0.324,4.059
	c1.11-0.228,0.627,2.324,0.574,3.142c-0.049,0.847-0.356,2.173-1.263,1.911c-0.453,3.485-1.907,4.588-1.907,4.588l0.034,3.685
	c0,0,0.919,0.525,4.799,2.132c3.881,1.609,2.663,0.406,5.824,1.979c4.995,2.485,4.995,9.321,4.995,9.321H-398.407z"/>
<path id="ARROWS_2_" style="fill-rule:evenodd;clip-rule:evenodd;fill:#FFFFFF;" d="M-634.452,309.977
	c0,0.442-0.191,0.839-0.496,1.113l0,0l-4.993,4.493l0,0c-0.265,0.239-0.617,0.385-1.002,0.385c-0.827,0-1.498-0.671-1.498-1.498
	c0-0.442,0.191-0.839,0.496-1.113l0,0l2.091-1.882h-9.078v9.078l1.882-2.091l0,0c0.274-0.304,0.671-0.496,1.113-0.496
	c0.827,0,1.498,0.671,1.498,1.498c0,0.385-0.146,0.737-0.385,1.002l0,0l-4.493,4.993l0,0c-0.274,0.304-0.671,0.496-1.113,0.496
	c-0.442,0-0.839-0.191-1.113-0.496l0,0l-4.493-4.993l0,0c-0.239-0.265-0.385-0.617-0.385-1.002c0-0.827,0.671-1.498,1.498-1.498
	c0.442,0,0.839,0.191,1.113,0.496l0,0l1.882,2.091v-9.078h-9.078l2.091,1.882l0,0c0.304,0.274,0.496,0.671,0.496,1.113
	c0,0.827-0.671,1.498-1.498,1.498c-0.385,0-0.736-0.146-1.002-0.385l0,0l-4.993-4.493l0,0c-0.304-0.274-0.496-0.671-0.496-1.113
	s0.192-0.839,0.496-1.113l0,0l4.993-4.493h0c0.265-0.239,0.617-0.385,1.002-0.385c0.827,0,1.498,0.671,1.498,1.498
	c0,0.442-0.192,0.839-0.496,1.113l0,0l-2.091,1.882h9.078v-9.078l-1.882,2.092l0,0c-0.274,0.304-0.671,0.496-1.113,0.496
	c-0.827,0-1.498-0.671-1.498-1.498c0-0.385,0.146-0.736,0.385-1.002l0,0l4.493-4.993l0,0c0.274-0.304,0.671-0.496,1.113-0.496
	c0.442,0,0.839,0.192,1.113,0.496l0,0l4.493,4.993l0,0c0.239,0.265,0.385,0.617,0.385,1.002c0,0.827-0.671,1.498-1.498,1.498
	c-0.442,0-0.839-0.192-1.113-0.496l0,0l-1.882-2.092v9.078h9.078l-2.091-1.882l0,0c-0.304-0.274-0.496-0.671-0.496-1.113
	c0-0.827,0.671-1.498,1.498-1.498c0.385,0,0.736,0.146,1.002,0.385h0l4.993,4.493l0,0
	C-634.644,309.138-634.452,309.535-634.452,309.977z"/>
<path style="fill-rule:evenodd;clip-rule:evenodd;fill:#FFFFFF;" d="M-599.585,305c-0.376,0-0.71-0.166-0.943-0.425l-0.003,0.003
	l-1.6-1.778v7.718c0,0.703-0.57,1.274-1.273,1.274s-1.273-0.57-1.273-1.274V302.8l-1.6,1.778l-0.004-0.003
	c-0.233,0.259-0.567,0.425-0.943,0.425c-0.703,0-1.273-0.57-1.273-1.273c0-0.328,0.127-0.623,0.33-0.849l-0.003-0.003l3.82-4.245
	l0.003,0.003c0.233-0.259,0.567-0.425,0.943-0.425s0.71,0.166,0.943,0.425l0.003-0.003l3.82,4.245l-0.003,0.003
	c0.203,0.226,0.33,0.521,0.33,0.849C-598.312,304.43-598.882,305-599.585,305z"/>
<circle style="fill:#FFFFFF;" cx="-519.405" cy="304.995" r="11"/>
<circle style="fill:#2A9BDB;" cx="-561.405" cy="304.995" r="11"/>
<path style="fill-rule:evenodd;clip-rule:evenodd;fill:#FFFFFF;" d="M-565.226,305c0.376,0,0.71,0.166,0.943,0.425l0.003-0.003
	l1.6,1.778v-7.718c0-0.703,0.57-1.273,1.273-1.273s1.273,0.57,1.273,1.273v7.718l1.6-1.778l0.004,0.003
	c0.233-0.259,0.567-0.425,0.943-0.425c0.703,0,1.273,0.57,1.273,1.273c0,0.328-0.127,0.623-0.33,0.849l0.003,0.003l-3.82,4.245
	l-0.003-0.003c-0.233,0.259-0.567,0.425-0.943,0.425s-0.71-0.166-0.943-0.425l-0.003,0.003l-3.82-4.245l0.003-0.003
	c-0.203-0.226-0.33-0.521-0.33-0.849C-566.499,305.57-565.929,305-565.226,305z"/>
<circle style="fill:#2A9BDB;" cx="-265.405" cy="10.995" r="11"/>
<path style="fill-rule:evenodd;clip-rule:evenodd;fill:#FFFFFF;" d="M-269.226,11c0.376,0,0.71,0.166,0.943,0.425l0.003-0.003
	l1.6,1.778V5.482c0-0.703,0.57-1.274,1.273-1.274c0.703,0,1.273,0.57,1.273,1.274V13.2l1.6-1.778l0.004,0.003
	c0.233-0.259,0.567-0.425,0.943-0.425c0.703,0,1.273,0.57,1.273,1.273c0,0.328-0.127,0.623-0.33,0.849l0.003,0.003l-3.82,4.245
	l-0.003-0.003c-0.233,0.259-0.567,0.425-0.943,0.425s-0.71-0.166-0.943-0.425l-0.003,0.003l-3.82-4.245l0.003-0.003
	c-0.203-0.226-0.33-0.521-0.33-0.849C-270.499,11.57-269.929,11-269.226,11z"/>
<g>
	<path style="fill:#FFFFFF;" d="M-119.405,21.495c-5.79,0-10.5-4.71-10.5-10.5s4.71-10.5,10.5-10.5s10.5,4.71,10.5,10.5
		S-113.615,21.495-119.405,21.495z"/>
	<path style="fill:#2A9BDB;" d="M-119.405,0.995c5.514,0,10,4.486,10,10s-4.486,10-10,10s-10-4.486-10-10
		S-124.919,0.995-119.405,0.995 M-119.405-0.005c-6.075,0-11,4.925-11,11s4.925,11,11,11s11-4.925,11-11
		S-113.33-0.005-119.405-0.005L-119.405-0.005z"/>
</g>
<path style="fill-rule:evenodd;clip-rule:evenodd;fill:#2A9BDB;" d="M-119.405,7.18c0,0.376-0.166,0.71-0.425,0.943l0.003,0.003
	l-1.778,1.6h7.718c0.703,0,1.274,0.57,1.274,1.273c0,0.703-0.57,1.273-1.274,1.273h-7.718l1.778,1.6l-0.003,0.004
	c0.259,0.233,0.425,0.567,0.425,0.943c0,0.703-0.57,1.273-1.273,1.273c-0.328,0-0.623-0.127-0.849-0.33l-0.003,0.003l-4.245-3.82
	l0.003-0.003c-0.259-0.233-0.425-0.567-0.425-0.943s0.166-0.71,0.425-0.943l-0.003-0.003l4.245-3.82l0.003,0.003
	c0.226-0.203,0.521-0.33,0.849-0.33C-119.975,5.906-119.405,6.476-119.405,7.18z"/>
<g>
	<path style="fill:#FFFFFF;" d="M-77.405,21.495c-5.79,0-10.5-4.71-10.5-10.5s4.71-10.5,10.5-10.5s10.5,4.71,10.5,10.5
		S-71.615,21.495-77.405,21.495z"/>
	<path style="fill:#2A9BDB;" d="M-77.405,0.995c5.514,0,10,4.486,10,10s-4.486,10-10,10s-10-4.486-10-10S-82.919,0.995-77.405,0.995
		 M-77.405-0.005c-6.075,0-11,4.925-11,11s4.925,11,11,11s11-4.925,11-11S-71.33-0.005-77.405-0.005L-77.405-0.005z"/>
</g>
<path style="fill-rule:evenodd;clip-rule:evenodd;fill:#2A9BDB;" d="M-77.405,14.82c0-0.376,0.166-0.71,0.425-0.943l-0.003-0.003
	l1.778-1.6h-7.718c-0.703,0-1.274-0.57-1.274-1.273c0-0.703,0.57-1.273,1.274-1.273h7.718l-1.778-1.6l0.003-0.004
	c-0.259-0.233-0.425-0.567-0.425-0.943c0-0.703,0.57-1.273,1.273-1.273c0.328,0,0.623,0.127,0.849,0.33l0.003-0.003l4.245,3.82
	l-0.003,0.003c0.259,0.233,0.425,0.567,0.425,0.943s-0.166,0.71-0.425,0.943l0.003,0.003l-4.245,3.82l-0.003-0.003
	c-0.226,0.203-0.521,0.33-0.849,0.33C-76.835,16.094-77.405,15.524-77.405,14.82z"/>
<circle style="fill:#FFFFFF;" cx="-265.405" cy="44.995" r="11"/>
<path style="fill-rule:evenodd;clip-rule:evenodd;fill:#2A9BDB;" d="M-513.247,309.882l0,0.001c0,0.319-0.258,0.577-0.577,0.577
	h-0.353c0.099-0.17,0.16-0.366,0.16-0.577c0.288,0,0.549-0.11,0.751-0.284C-513.248,309.773-513.247,309.882-513.247,309.882
	L-513.247,309.882z"/>
<path style="fill-rule:evenodd;clip-rule:evenodd;fill:#2A9BDB;" d="M-516.326,307.574c-0.638,0-1.155,0.517-1.155,1.155
	c0,0.638,0.517,1.155,1.155,1.155c0,0.211,0.061,0.407,0.16,0.577h-8.821c-0.319,0-0.577-0.258-0.577-0.577l0-0.001h0
	c0,0,0-2.104,1.537-2.869c0.973-0.484,0.598-0.091,1.792-0.586c1.194-0.495,1.477-0.667,1.477-0.667l0.011-1.14
	c0,0-0.447-0.342-0.586-1.415c-0.28,0.081-0.372-0.329-0.389-0.589c-0.015-0.252-0.162-1.038,0.179-0.967
	c-0.07-0.525-0.12-0.999-0.095-1.25c0.086-0.881,0.934-1.801,2.241-1.868c1.537,0.067,2.146,0.987,2.231,1.868
	c0.025,0.251-0.03,0.725-0.1,1.249c0.342-0.07,0.193,0.715,0.177,0.967c-0.015,0.261-0.11,0.669-0.389,0.588
	c-0.14,1.073-0.587,1.412-0.587,1.412l0.01,1.134c0,0,0.283,0.161,1.477,0.656c0.345,0.143,0.557,0.213,0.71,0.253
	C-516.144,306.868-516.326,307.198-516.326,307.574z"/>
<circle style="fill:#FFFFFF;" cx="-515.172" cy="308.728" r="2.542"/>
<path style="fill-rule:evenodd;clip-rule:evenodd;fill:#2A9BDB;" d="M-513.672,309.478h-0.75v0.75c0,0.414-0.336,0.75-0.75,0.75
	c-0.414,0-0.75-0.336-0.75-0.75v-0.75h-0.75c-0.414,0-0.75-0.336-0.75-0.75c0-0.414,0.336-0.75,0.75-0.75h0.75v-0.75
	c0-0.414,0.336-0.75,0.75-0.75c0.414,0,0.75,0.336,0.75,0.75v0.75h0.75c0.414,0,0.75,0.336,0.75,0.75
	C-512.922,309.143-513.257,309.478-513.672,309.478z"/>
<path id="CIRCLE__x2F__DELETE_2_" style="fill-rule:evenodd;clip-rule:evenodd;fill:#FFFFFF;" d="M-358.402,40.006
	c-11.047,0-20.003-8.956-20.003-20.003C-378.405,8.956-369.45,0-358.402,0s20.003,8.956,20.003,20.003
	C-338.399,31.051-347.355,40.006-358.402,40.006z M-358.402,3.751c-8.976,0-16.253,7.276-16.253,16.252
	c0,8.976,7.277,16.253,16.253,16.253s16.253-7.277,16.253-16.253C-342.15,11.027-349.426,3.751-358.402,3.751z M-351.526,28.754
	c-0.518,0-0.987-0.21-1.326-0.549l0,0l-5.55-5.55l-5.55,5.55l0,0c-0.339,0.339-0.808,0.549-1.326,0.549
	c-1.036,0-1.875-0.839-1.875-1.875c0-0.518,0.21-0.987,0.549-1.326l0,0l5.55-5.55l-5.55-5.55l0,0
	c-0.339-0.339-0.549-0.808-0.549-1.326c0-1.036,0.84-1.875,1.875-1.875c0.518,0,0.987,0.21,1.326,0.549l0,0l5.55,5.55l5.55-5.55l0,0
	c0.339-0.34,0.808-0.549,1.326-0.549c1.036,0,1.875,0.84,1.875,1.875c0,0.518-0.21,0.987-0.549,1.326l0,0l-5.55,5.55l5.55,5.55l0,0
	c0.339,0.34,0.549,0.808,0.549,1.326C-349.651,27.915-350.49,28.754-351.526,28.754z"/>
<path id="PLAY_2_" style="fill-rule:evenodd;clip-rule:evenodd;fill:#8B8B8B;" d="M-307.468,19.141
	c-0.752,0-1.409-0.405-1.766-1.008l0,0l-8.872-15.015c-0.003-0.005-0.006-0.011-0.009-0.016l-0.005-0.008l0,0
	c-0.181-0.306-0.285-0.662-0.285-1.043c0-1.133,0.918-2.051,2.051-2.051l0,0l17.774,0l0,0c1.132,0,2.051,0.918,2.051,2.051
	c0,0.381-0.104,0.738-0.285,1.043l0,0l-0.005,0.008c-0.003,0.005-0.006,0.011-0.01,0.016l-8.872,15.015l0,0
	C-306.06,18.736-306.716,19.141-307.468,19.141z"/>
<g>
	<path style="fill:#2A9BDB;" d="M-178.233,31.5c-2.025,0-3.673-1.647-3.673-3.673V4.173c0-2.025,1.647-3.673,3.673-3.673h23.654
		c2.025,0,3.673,1.647,3.673,3.673v23.654c0,2.025-1.647,3.673-3.673,3.673H-178.233z"/>
	<path style="fill:#1C5996;" d="M-154.578,1c1.75,0,3.173,1.423,3.173,3.173v23.654c0,1.75-1.423,3.173-3.173,3.173h-23.654
		c-1.75,0-3.173-1.423-3.173-3.173V4.173c0-1.75,1.423-3.173,3.173-3.173H-154.578 M-154.578,0h-23.654
		c-2.305,0-4.173,1.868-4.173,4.173v23.654c0,2.305,1.868,4.173,4.173,4.173h23.654c2.305,0,4.173-1.868,4.173-4.173V4.173
		C-150.405,1.868-152.274,0-154.578,0L-154.578,0z"/>
</g>
<polygon style="fill-rule:evenodd;clip-rule:evenodd;" points="-171.905,23.241 -171.906,23.241 -171.905,23.241 "/>
<polygon style="fill-rule:evenodd;clip-rule:evenodd;" points="-160.905,23.241 -160.906,23.241 -160.905,23.241 "/>
<polygon style="fill-rule:evenodd;clip-rule:evenodd;" points="-159.405,21.741 -159.405,21.74 -159.405,21.741 "/>
<path style="fill-rule:evenodd;clip-rule:evenodd;fill:#FFFFFF;" d="M-156.279,12.069l-11.355,11.355l0,0
	c-0.385,0.385-0.918,0.624-1.505,0.624s-1.12-0.238-1.505-0.624l0,0l-6.387-6.387l0,0c-0.385-0.385-0.624-0.918-0.624-1.506
	c0-1.176,0.953-2.129,2.129-2.129c0.588,0,1.12,0.238,1.505,0.624l0,0l4.882,4.882l9.849-9.849l0,0
	c0.385-0.385,0.917-0.624,1.505-0.624c1.176,0,2.129,0.953,2.129,2.129C-155.655,11.151-155.894,11.684-156.279,12.069
	L-156.279,12.069z"/>
<circle style="fill:none;stroke:#2A9BDB;stroke-width:2.0873;stroke-miterlimit:10;" cx="-265.337" cy="44.553" r="6.21"/>
<rect x="-260.915" y="41.669" style="fill:#FFFFFF;" width="3.051" height="2.884"/>
<rect x="-272.947" y="44.553" style="fill:#FFFFFF;" width="3.051" height="2.884"/>
<g>
	<defs>
		
			<rect id="SVGID_5_" x="-272.477" y="45.91" transform="matrix(-1 -0.0021 0.0021 -1 -540.3042 96.0008)" width="4.752" height="4.752"/>
	</defs>
	<clipPath id="SVGID_1_">
		<use xlink:href="#SVGID_5_"  style="overflow:visible;"/>
	</clipPath>
	
		<rect x="-275.699" y="44.246" transform="matrix(-0.7086 0.7056 -0.7056 -0.7086 -431.4964 271.4409)" style="clip-path:url(#SVGID_1_);fill:#2A9BDB;" width="7.804" height="4.752"/>
</g>
<g>
	<defs>
		
			<rect id="SVGID_7_" x="-262.941" y="38.601" transform="matrix(1 0.0021 -0.0021 1 0.0861 0.5514)" width="4.752" height="4.752"/>
	</defs>
	<clipPath id="SVGID_2_">
		<use xlink:href="#SVGID_7_"  style="overflow:visible;"/>
	</clipPath>
	
		<rect x="-262.771" y="40.265" transform="matrix(0.7086 -0.7056 0.7056 0.7086 -105.522 -170.2349)" style="clip-path:url(#SVGID_2_);fill:#2A9BDB;" width="7.804" height="4.752"/>
</g>
<path id="BIN_2_" style="fill-rule:evenodd;clip-rule:evenodd;fill:#C65739;" d="M-46.405,4.946c0-0.912,0.739-1.65,1.65-1.65h8.252
	v-1.65c0-0.912,0.739-1.65,1.65-1.65h3.301c0.912,0,1.65,0.739,1.65,1.65v1.65h8.252c0.912,0,1.65,0.739,1.65,1.65v1.65h-26.405
	V4.946z M-21.65,9.897v3.301v17.054c0,0.911-0.739,1.65-1.65,1.65h-19.804c-0.911,0-1.65-0.739-1.65-1.65V13.198V9.897v-1.65h23.105
	V9.897z M-38.154,13.198c0-0.911-0.739-1.65-1.65-1.65c-0.911,0-1.65,0.739-1.65,1.65v13.753c0,0.912,0.739,1.65,1.65,1.65
	c0.911,0,1.65-0.739,1.65-1.65V13.198z M-31.552,13.198c0-0.911-0.739-1.65-1.65-1.65c-0.911,0-1.65,0.739-1.65,1.65v13.753
	c0,0.912,0.739,1.65,1.65,1.65c0.911,0,1.65-0.739,1.65-1.65V13.198z M-24.951,13.198c0-0.911-0.739-1.65-1.65-1.65
	c-0.911,0-1.65,0.739-1.65,1.65v13.753c0,0.912,0.739,1.65,1.65,1.65c0.911,0,1.65-0.739,1.65-1.65V13.198z"/>
<polygon style="fill-rule:evenodd;clip-rule:evenodd;" points="10.5,23.241 10.5,23.241 10.5,23.241 "/>
<polygon style="fill-rule:evenodd;clip-rule:evenodd;" points="21.5,23.241 21.5,23.241 21.5,23.241 "/>
<polygon style="fill-rule:evenodd;clip-rule:evenodd;" points="23,21.741 23,21.74 23,21.741 "/>
<path id="MAGNIFYING_GLASS_2_" style="fill-rule:evenodd;clip-rule:evenodd;fill:#414143;" d="M31.122,26.879
	C31.664,27.422,32,28.172,32,29c0,1.657-1.343,3-3,3c-0.828,0-1.578-0.336-2.121-0.879l0,0l-8.792-8.792
	C16.3,23.384,14.225,24,12,24C5.373,24,0,18.628,0,12C0,5.373,5.373,0,12,0c6.627,0,12,5.373,12,12c0,2.224-0.616,4.3-1.671,6.086
	L31.122,26.879L31.122,26.879z M12,3c-4.971,0-9,4.029-9,9c0,4.971,4.029,9,9,9c4.971,0,9-4.03,9-9C21,7.029,16.971,3,12,3z"/>
</svg>
