<?xml version="1.0" encoding="utf-8"?>
<!-- Generator: Adobe Illustrator 18.0.0, SVG Export Plug-In . SVG Version: 6.00 Build 0)  -->
<!DOCTYPE svg PUBLIC "-//W3C//DTD SVG 1.1//EN" "http://www.w3.org/Graphics/SVG/1.1/DTD/svg11.dtd">
<svg version="1.1" id="Layer_1" xmlns="http://www.w3.org/2000/svg" xmlns:xlink="http://www.w3.org/1999/xlink" x="0px" y="0px"
	 viewBox="0 0 16 16" enable-background="new 0 0 16 16" xml:space="preserve">
<g>
	<g>
		<rect x="3.2" y="5.8" fill-rule="evenodd" clip-rule="evenodd" fill="#F5F6F7" width="9.7" height="9.7"/>
		<path fill="#282828" d="M12.3,6.3V15H3.7V6.3H12.3 M12.8,5.3H3.2c-0.3,0-0.5,0.2-0.5,0.5v9.7c0,0.3,0.2,0.5,0.5,0.5h9.7
			c0.3,0,0.5-0.2,0.5-0.5V5.8C13.3,5.6,13.1,5.3,12.8,5.3L12.8,5.3z"/>
	</g>
	<g>
		<path id="ARROW__x2F__UP_2_" fill-rule="evenodd" clip-rule="evenodd" fill="#282828" d="M5.4,3.8L8,1.2l2.7,2.7l0,0
			C10.7,3.9,10.9,4,11,4c0.3,0,0.5-0.2,0.5-0.5c0-0.1-0.1-0.3-0.1-0.3h0l-3-3h0C8.3,0,8.1,0,8,0h0h0C7.9,0,7.7,0,7.6,0.2h0l-3,3l0,0
			C4.6,3.2,4.5,3.4,4.5,3.5C4.5,3.8,4.7,4,5,4C5.2,4,5.3,3.9,5.4,3.8z"/>
		<path fill-rule="evenodd" clip-rule="evenodd" fill="#282828" d="M7.5,10.9V1.2c0-0.3,0.2-0.5,0.5-0.5c0.3,0,0.5,0.2,0.5,0.5v9.7
			c0,0.3-0.2,0.5-0.5,0.5C7.7,11.4,7.5,11.1,7.5,10.9z"/>
	</g>
</g>
</svg>
