<?xml version="1.0" encoding="utf-8"?>
<!-- Generator: Adobe Illustrator 18.1.0, SVG Export Plug-In . SVG Version: 6.00 Build 0)  -->
<!DOCTYPE svg PUBLIC "-//W3C//DTD SVG 1.1 Basic//EN" "http://www.w3.org/Graphics/SVG/1.1/DTD/svg11-basic.dtd">
<svg version="1.1" baseProfile="basic" id="Layer_1"
	 xmlns="http://www.w3.org/2000/svg" xmlns:xlink="http://www.w3.org/1999/xlink" x="0px" y="0px" viewBox="-256 0 2048 2048"
	 xml:space="preserve">
<g>
	<path fill="#8BC639" d="M1375.3,704.2H814.2v701.4c0,28.1-28,56.1-56.1,56.1c-28,0-56.1-28.1-56.1-56.1V704.2H140.9
		c-28.1,0-56.1,28.1-56.1,56.1v1234.4c0,28.1,28,56.1,56.1,56.1h1234.4c28.1,0,56.1-28.1,56.1-56.1V760.3
		C1431.4,732.2,1403.3,704.2,1375.3,704.2z"/>
	<path fill-rule="evenodd" clip-rule="evenodd" fill="#8BC639" d="M1199.4,444.2c0,34.8-28.2,63.1-63,63.1c-17,0-32.4-6.8-43.8-17.7
		l0,0L814.2,211.1v493H702V210.8L427.6,485.2c-11.6,13.4-28.7,22-47.8,22c-34.8,0-63-28.2-63-63.1c0-16.9,6.7-32.3,17.5-43.6
		l-0.2-0.2L712.4,22.1l0,0C723.9,10.2,740,2.8,757.8,2.8c0.1,0,0.1,0,0.1,0c0,0,0.1,0,0.1,0c17.8,0,33.9,7.4,45.4,19.3l0,0
		l378.3,378.3l0,0C1192.7,411.8,1199.4,427.2,1199.4,444.2z"/>
</g>
</svg>
