<?xml version="1.0" encoding="utf-8"?>
<!-- Generator: Adobe Illustrator 18.0.0, SVG Export Plug-In . SVG Version: 6.00 Build 0)  -->
<!DOCTYPE svg PUBLIC "-//W3C//DTD SVG 1.1//EN" "http://www.w3.org/Graphics/SVG/1.1/DTD/svg11.dtd">
<svg version="1.1" id="Layer_1" xmlns="http://www.w3.org/2000/svg" xmlns:xlink="http://www.w3.org/1999/xlink" x="0px" y="0px"
	 viewBox="0 0 31.2 22" enable-background="new 0 0 31.2 22" xml:space="preserve">
<g>
	<path fill-rule="evenodd" clip-rule="evenodd" fill="#1C5996" d="M31.2,21C31.2,21,31.2,21,31.2,21c0,0.5-0.4,1-1,1H23
		c0.5-0.1,0.9-0.6,0.9-1.2c0,0,0,0,0,0h0c0,0,0-4.4-3.2-6c-1.4-0.7-1.5-0.6-2.2-0.7l0-1.9c0,0-0.8-0.6-1-2.4c-0.5,0.1-0.6-0.6-0.7-1
		c0-0.4-0.3-1.7,0.3-1.6c-0.1-0.9-0.2-1.7-0.2-2.1c0.1-1.5,1.6-3,3.8-3.1c2.6,0.1,3.6,1.7,3.8,3.1c0,0.4-0.1,1.2-0.2,2.1
		c0.6-0.1,0.3,1.2,0.3,1.6c0,0.4-0.2,1.1-0.7,1c-0.2,1.8-1,2.4-1,2.4l0,1.9c0,0,0.5,0.3,2.5,1.1c2,0.8,1.4,0.2,3,1
		C31.2,17.5,31.2,21,31.2,21L31.2,21z"/>
	<path fill-rule="evenodd" clip-rule="evenodd" fill="#2A9BDB" d="M16.6,14.5c2.2,0.9,1.5,0.2,3.3,1.1c2.8,1.4,2.8,5.3,2.8,5.3h0
		c0,0,0,0,0,0c0,0.6-0.5,1.1-1.1,1.1H1.1C0.5,22,0,21.5,0,20.9c0,0,0,0,0,0h0c0,0,0-3.9,2.8-5.3c1.8-0.9,1.1-0.2,3.3-1.1
		c2.2-0.9,2.7-1.2,2.7-1.2l0-2.1c0,0-0.8-0.6-1.1-2.6C7.3,8.8,7.1,8,7.1,7.5c0-0.5-0.3-1.9,0.3-1.8c-0.1-1-0.2-1.8-0.2-2.3
		C7.4,1.8,9,0.1,11.4,0c2.8,0.1,4,1.8,4.1,3.4c0,0.5-0.1,1.3-0.2,2.3c0.6-0.1,0.4,1.3,0.3,1.8c0,0.5-0.2,1.2-0.7,1.1
		c-0.3,2-1.1,2.6-1.1,2.6l0,2.1C13.9,13.3,14.4,13.6,16.6,14.5z"/>
</g>
</svg>
