<?xml version="1.0" encoding="utf-8"?>
<!-- Generator: Adobe Illustrator 18.0.0, SVG Export Plug-In . SVG Version: 6.00 Build 0)  -->
<!DOCTYPE svg PUBLIC "-//W3C//DTD SVG 1.1//EN" "http://www.w3.org/Graphics/SVG/1.1/DTD/svg11.dtd">
<svg version="1.1" id="Layer_1" xmlns="http://www.w3.org/2000/svg" xmlns:xlink="http://www.w3.org/1999/xlink" x="0px" y="0px"
	 viewBox="0 0 64 61.1" enable-background="new 0 0 64 61.1" xml:space="preserve">
<path id="SPEECH_BUBBLES_2_" opacity="0.3" fill-rule="evenodd" clip-rule="evenodd" fill="#2A9BDB" d="M56.7,25.9
	c-1,0.6-1.1,5.1,4.6,7.9c0,0-8.2,1.3-13.4-5.3c-1.3,0.2-2.6,0.6-4,0.6c-11.2,0-18-6.4-18-14.5C26,6.5,32.8,0,44,0s20,6.5,20,14.6
	C64,19.1,61.3,23.2,56.7,25.9z M22.2,16c0.5,8.9,8.3,16.4,20.4,17.1c1.4,0.1,2.7-0.3,4-0.5c0,0,0,0,0,0l0.4-0.1
	c3.5,3.6,7.9,4.2,10.4,4.3c-2.5,9.7-12.2,16.9-26.8,16.9c-2.1,0-4.1-0.6-6.1-0.9C16.5,62.9,4,60.9,4,60.9c8.8-4.2,8.7-11.1,7.1-12
	C4.2,44.8,0,38.6,0,31.6C0,21.1,9.8,12.4,23.3,10C22.5,11.9,22.2,13.9,22.2,16z"/>
</svg>
