<?xml version="1.0" encoding="utf-8"?>
<!-- Generator: Adobe Illustrator 18.1.0, SVG Export Plug-In . SVG Version: 6.00 Build 0)  -->
<!DOCTYPE svg PUBLIC "-//W3C//DTD SVG 1.1//EN" "http://www.w3.org/Graphics/SVG/1.1/DTD/svg11.dtd">
<svg version="1.1" id="ROW_17" xmlns="http://www.w3.org/2000/svg" xmlns:xlink="http://www.w3.org/1999/xlink" x="0px" y="0px"
	 viewBox="0 0 52 64" enable-background="new 0 0 52 64" xml:space="preserve">
<path fill-rule="evenodd" clip-rule="evenodd" fill="#FFFFFF" d="M49,64H3c-1.7,0-3-1.3-3-3V35c0-1.7,1.3-3,3-3h5V18
	C8,8.1,16.1,0,26,0c9.9,0,18,8.1,18,18v14h5c1.7,0,3,1.3,3,3v26C52,62.7,50.7,64,49,64z M38,18c0-6.6-5.4-12-12-12
	c-6.6,0-12,5.4-12,12v14h24V18z"/>
</svg>
