<?xml version="1.0" encoding="utf-8"?>
<!-- Generator: Adobe Illustrator 18.0.0, SVG Export Plug-In . SVG Version: 6.00 Build 0)  -->
<!DOCTYPE svg PUBLIC "-//W3C//DTD SVG 1.1//EN" "http://www.w3.org/Graphics/SVG/1.1/DTD/svg11.dtd">
<svg version="1.1" id="Layer_1" xmlns="http://www.w3.org/2000/svg" xmlns:xlink="http://www.w3.org/1999/xlink" x="0px" y="0px"
	 viewBox="0 38 100 24" enable-background="new 0 38 100 24" xml:space="preserve">
<g>
	<path fill="#00A651" d="M95.6,62H4.4C2,62,0,60,0,57.6V42.4C0,40,2,38,4.4,38h91.2c2.4,0,4.4,2,4.4,4.4v15.2C100,60,98,62,95.6,62z
		"/>
	<g enable-background="new    ">
		<path fill="#FFFFFF" d="M27.2,45c-1.1,0-2,0.4-2.6,1.1c-0.6,0.7-1,1.7-1,3c0,1.3,0.3,2.3,0.9,3c0.6,0.7,1.5,1.1,2.6,1.1
			c0.7,0,1.5-0.1,2.4-0.4v1c-0.7,0.3-1.5,0.4-2.6,0.4c-1.5,0-2.6-0.4-3.4-1.3s-1.2-2.2-1.2-3.8c0-1,0.2-1.9,0.6-2.7s0.9-1.4,1.7-1.8
			s1.6-0.6,2.6-0.6c1,0,2,0.2,2.7,0.6l-0.5,1C28.7,45.2,28,45,27.2,45z"/>
		<path fill="#FFFFFF" d="M38.1,54.1l-1.2-3.2h-4l-1.2,3.2h-1.2l4-10h1l3.9,10H38.1z M36.4,49.9l-1.2-3.1c-0.2-0.4-0.3-0.9-0.5-1.4
			c-0.1,0.4-0.2,0.9-0.4,1.4l-1.2,3.1H36.4z"/>
		<path fill="#FFFFFF" d="M40.6,54.1v-10h1.2V53h4.4v1.1H40.6z"/>
		<path fill="#FFFFFF" d="M47.9,54.1v-10h1.2V53h4.4v1.1H47.9z"/>
		<path fill="#FFFFFF" d="M55.2,54.1v-10h1.2v10H55.2z"/>
		<path fill="#FFFFFF" d="M66.9,54.1h-1.3l-5.5-8.4H60c0.1,1,0.1,1.9,0.1,2.7v5.7h-1.1v-10h1.3l5.4,8.4h0.1c0-0.1,0-0.5-0.1-1.2
			c0-0.7,0-1.1,0-1.4v-5.7h1.1V54.1z"/>
		<path fill="#FFFFFF" d="M74,48.9h3.4v4.9c-0.5,0.2-1.1,0.3-1.6,0.4s-1.2,0.1-1.9,0.1c-1.5,0-2.7-0.5-3.5-1.3
			c-0.8-0.9-1.3-2.2-1.3-3.8c0-1,0.2-1.9,0.6-2.7c0.4-0.8,1-1.4,1.8-1.8c0.8-0.4,1.7-0.6,2.8-0.6c1.1,0,2.1,0.2,3,0.6l-0.5,1
			C75.9,45.2,75,45,74.2,45c-1.2,0-2.2,0.4-2.9,1.1s-1,1.7-1,3c0,1.3,0.3,2.4,1,3.1c0.7,0.7,1.6,1,2.9,1c0.7,0,1.4-0.1,2-0.2v-3.1
			H74V48.9z"/>
	</g>
</g>
</svg>
