<?xml version="1.0" encoding="utf-8"?>
<!-- Generator: Adobe Illustrator 18.0.0, SVG Export Plug-In . SVG Version: 6.00 Build 0)  -->
<!DOCTYPE svg PUBLIC "-//W3C//DTD SVG 1.1//EN" "http://www.w3.org/Graphics/SVG/1.1/DTD/svg11.dtd">
<svg version="1.1" id="Layer_1" xmlns="http://www.w3.org/2000/svg" xmlns:xlink="http://www.w3.org/1999/xlink" x="0px" y="0px"
	 viewBox="0 38 100 24" enable-background="new 0 38 100 24" xml:space="preserve">
<g>
	<path fill="#B2B2B2" d="M95.6,62H4.4C2,62,0,60,0,57.6V42.4C0,40,2,38,4.4,38h91.2c2.4,0,4.4,2,4.4,4.4v15.2C100,60,98,62,95.6,62z
		"/>
	<g enable-background="new    ">
		<path fill="#FFFFFF" d="M39.6,54.1h-1.2v-4.7h-5.3v4.7H32v-10h1.2v4.3h5.3v-4.3h1.2V54.1z"/>
		<path fill="#FFFFFF" d="M51,49.1c0,1.6-0.4,2.9-1.2,3.8s-1.9,1.4-3.4,1.4c-1.5,0-2.6-0.5-3.4-1.3c-0.8-0.9-1.2-2.2-1.2-3.8
			c0-1.6,0.4-2.9,1.2-3.8c0.8-0.9,1.9-1.3,3.4-1.3c1.4,0,2.6,0.5,3.4,1.4S51,47.5,51,49.1z M43.1,49.1c0,1.4,0.3,2.4,0.9,3.1
			c0.6,0.7,1.4,1,2.5,1c1.1,0,1.9-0.3,2.5-1s0.8-1.7,0.8-3.1c0-1.3-0.3-2.4-0.8-3.1c-0.6-0.7-1.4-1-2.5-1c-1.1,0-1.9,0.3-2.5,1
			C43.3,46.7,43.1,47.8,43.1,49.1z"/>
		<path fill="#FFFFFF" d="M53.3,54.1v-10h1.2V53h4.4v1.1H53.3z"/>
		<path fill="#FFFFFF" d="M68.5,49c0,1.6-0.4,2.9-1.3,3.8c-0.9,0.9-2.2,1.3-3.9,1.3h-2.8v-10h3.1c1.6,0,2.8,0.4,3.6,1.3
			S68.5,47.5,68.5,49z M67.3,49c0-1.3-0.3-2.3-1-2.9c-0.7-0.7-1.6-1-2.9-1h-1.7v8h1.4c1.4,0,2.4-0.3,3.1-1
			C66.9,51.4,67.3,50.4,67.3,49z"/>
	</g>
</g>
</svg>
