<?xml version="1.0" encoding="utf-8"?>
<!-- Generator: Adobe Illustrator 18.0.0, SVG Export Plug-In . SVG Version: 6.00 Build 0)  -->
<!DOCTYPE svg PUBLIC "-//W3C//DTD SVG 1.1//EN" "http://www.w3.org/Graphics/SVG/1.1/DTD/svg11.dtd">
<svg version="1.1" id="Layer_1" xmlns="http://www.w3.org/2000/svg" xmlns:xlink="http://www.w3.org/1999/xlink" x="0px" y="0px"
	 viewBox="0 38 100 24" enable-background="new 0 38 100 24" xml:space="preserve">
<g>
	<path fill="#FD960D" d="M95.6,62H4.4C2,62,0,60,0,57.6V42.4C0,40,2,38,4.4,38h91.2c2.4,0,4.4,2,4.4,4.4v15.2C100,60,98,62,95.6,62z
		"/>
	<g enable-background="new    ">
		<path fill="#FFFFFF" d="M27.4,54.1L24,45.2h-0.1c0.1,0.7,0.1,1.5,0.1,2.5v6.4h-1.1v-10h1.8l3.2,8.2h0.1l3.2-8.2h1.7v10h-1.2v-6.4
			c0-0.7,0-1.5,0.1-2.4h-0.1l-3.4,8.8H27.4z"/>
		<path fill="#FFFFFF" d="M41.1,54.1h-5.6v-10h5.6v1h-4.4v3.2h4.1v1h-4.1v3.7h4.4V54.1z"/>
		<path fill="#FFFFFF" d="M44.5,49.9v4.2h-1.2v-10h2.7c1.2,0,2.1,0.2,2.7,0.7s0.9,1.2,0.9,2.1c0,1.3-0.7,2.2-2,2.7l2.7,4.5H49
			l-2.4-4.2H44.5z M44.5,48.9h1.6c0.8,0,1.4-0.2,1.8-0.5c0.4-0.3,0.6-0.8,0.6-1.5c0-0.7-0.2-1.1-0.6-1.4s-1-0.4-1.9-0.4h-1.5V48.9z"
			/>
		<path fill="#FFFFFF" d="M56.4,48.9h3.4v4.9c-0.5,0.2-1.1,0.3-1.6,0.4s-1.2,0.1-1.9,0.1c-1.5,0-2.7-0.5-3.5-1.3
			c-0.8-0.9-1.3-2.2-1.3-3.8c0-1,0.2-1.9,0.6-2.7c0.4-0.8,1-1.4,1.8-1.8c0.8-0.4,1.7-0.6,2.8-0.6c1.1,0,2.1,0.2,3,0.6l-0.5,1
			c-0.9-0.4-1.8-0.6-2.6-0.6c-1.2,0-2.2,0.4-2.9,1.1s-1,1.7-1,3c0,1.3,0.3,2.4,1,3.1c0.7,0.7,1.6,1,2.9,1c0.7,0,1.4-0.1,2-0.2v-3.1
			h-2.2V48.9z"/>
		<path fill="#FFFFFF" d="M67.8,54.1h-5.6v-10h5.6v1h-4.4v3.2h4.1v1h-4.1v3.7h4.4V54.1z"/>
		<path fill="#FFFFFF" d="M78,49c0,1.6-0.4,2.9-1.3,3.8c-0.9,0.9-2.2,1.3-3.9,1.3H70v-10h3.1c1.6,0,2.8,0.4,3.6,1.3S78,47.5,78,49z
			 M76.7,49c0-1.3-0.3-2.3-1-2.9c-0.7-0.7-1.6-1-2.9-1h-1.7v8h1.4c1.4,0,2.4-0.3,3.1-1C76.4,51.4,76.7,50.4,76.7,49z"/>
	</g>
</g>
</svg>
