<?xml version="1.0" encoding="utf-8"?>
<!-- Generator: Adobe Illustrator 18.0.0, SVG Export Plug-In . SVG Version: 6.00 Build 0)  -->
<!DOCTYPE svg PUBLIC "-//W3C//DTD SVG 1.1//EN" "http://www.w3.org/Graphics/SVG/1.1/DTD/svg11.dtd">
<svg version="1.1" id="Layer_1" xmlns="http://www.w3.org/2000/svg" xmlns:xlink="http://www.w3.org/1999/xlink" x="0px" y="0px"
	 viewBox="0 38 100 24" enable-background="new 0 38 100 24" xml:space="preserve">
<g>
	<path fill="#2A9BDB" d="M100,57.6c0,2.4-2,4.4-4.4,4.4H4.4C2,62,0,60,0,57.6V42.4C0,40,2,38,4.4,38h91.2c2.4,0,4.4,2,4.4,4.4V57.6z
		"/>
	<g enable-background="new    ">
		<path fill="#FFFFFF" d="M14.1,45.5c-1.1,0-2,0.4-2.6,1.1c-0.6,0.7-1,1.7-1,3c0,1.3,0.3,2.3,0.9,3c0.6,0.7,1.5,1.1,2.6,1.1
			c0.7,0,1.5-0.1,2.4-0.4v1c-0.7,0.3-1.5,0.4-2.6,0.4c-1.5,0-2.6-0.4-3.4-1.3s-1.2-2.2-1.2-3.8c0-1,0.2-1.9,0.6-2.7s0.9-1.4,1.7-1.8
			s1.6-0.6,2.6-0.6c1,0,2,0.2,2.7,0.6l-0.5,1C15.6,45.6,14.8,45.5,14.1,45.5z"/>
		<path fill="#FFFFFF" d="M27.3,49.6c0,1.6-0.4,2.9-1.2,3.8s-1.9,1.4-3.4,1.4c-1.5,0-2.6-0.5-3.4-1.3c-0.8-0.9-1.2-2.2-1.2-3.8
			c0-1.6,0.4-2.9,1.2-3.8c0.8-0.9,1.9-1.3,3.4-1.3c1.4,0,2.6,0.5,3.4,1.4S27.3,47.9,27.3,49.6z M19.3,49.6c0,1.4,0.3,2.4,0.9,3.1
			c0.6,0.7,1.4,1,2.5,1c1.1,0,1.9-0.3,2.5-1s0.8-1.7,0.8-3.1c0-1.3-0.3-2.4-0.8-3.1c-0.6-0.7-1.4-1-2.5-1c-1.1,0-1.9,0.3-2.5,1
			C19.6,47.2,19.3,48.2,19.3,49.6z"/>
		<path fill="#FFFFFF" d="M37.3,54.6H36l-5.5-8.4h-0.1c0.1,1,0.1,1.9,0.1,2.7v5.7h-1.1v-10h1.3l5.4,8.4h0.1c0-0.1,0-0.5-0.1-1.2
			c0-0.7,0-1.1,0-1.4v-5.7h1.1V54.6z"/>
		<path fill="#FFFFFF" d="M47.9,54.6h-1.3l-5.5-8.4H41c0.1,1,0.1,1.9,0.1,2.7v5.7h-1.1v-10h1.3l5.4,8.4h0.1c0-0.1,0-0.5-0.1-1.2
			c0-0.7,0-1.1,0-1.4v-5.7h1.1V54.6z"/>
		<path fill="#FFFFFF" d="M56.2,54.6h-5.6v-10h5.6v1h-4.4v3.2h4.1v1h-4.1v3.7h4.4V54.6z"/>
		<path fill="#FFFFFF" d="M62.7,45.5c-1.1,0-2,0.4-2.6,1.1c-0.6,0.7-1,1.7-1,3c0,1.3,0.3,2.3,0.9,3c0.6,0.7,1.5,1.1,2.6,1.1
			c0.7,0,1.5-0.1,2.4-0.4v1c-0.7,0.3-1.5,0.4-2.6,0.4c-1.5,0-2.6-0.4-3.4-1.3c-0.8-0.9-1.2-2.2-1.2-3.8c0-1,0.2-1.9,0.6-2.7
			c0.4-0.8,0.9-1.4,1.7-1.8c0.7-0.4,1.6-0.6,2.6-0.6c1,0,2,0.2,2.7,0.6L65,46C64.2,45.6,63.4,45.5,62.7,45.5z"/>
		<path fill="#FFFFFF" d="M70.3,54.6h-1.2v-9H66v-1h7.5v1h-3.2V54.6z"/>
		<path fill="#FFFFFF" d="M80.6,54.6H75v-10h5.6v1h-4.4v3.2h4.1v1h-4.1v3.7h4.4V54.6z"/>
		<path fill="#FFFFFF" d="M90.7,49.5c0,1.6-0.4,2.9-1.3,3.8c-0.9,0.9-2.2,1.3-3.9,1.3h-2.8v-10h3.1c1.6,0,2.8,0.4,3.6,1.3
			S90.7,47.9,90.7,49.5z M89.5,49.5c0-1.3-0.3-2.3-1-2.9c-0.7-0.7-1.6-1-2.9-1h-1.7v8h1.4c1.4,0,2.4-0.3,3.1-1
			C89.2,51.9,89.5,50.8,89.5,49.5z"/>
	</g>
</g>
</svg>
