<?xml version="1.0" encoding="utf-8"?>
<!-- Generator: Adobe Illustrator 18.1.0, SVG Export Plug-In . SVG Version: 6.00 Build 0)  -->
<!DOCTYPE svg PUBLIC "-//W3C//DTD SVG 1.1//EN" "http://www.w3.org/Graphics/SVG/1.1/DTD/svg11.dtd">
<svg version="1.1" id="Layer_1" xmlns="http://www.w3.org/2000/svg" xmlns:xlink="http://www.w3.org/1999/xlink" x="0px" y="0px"
	 viewBox="0 0 750 750" enable-background="new 0 0 750 750" xml:space="preserve">
<circle fill="#2A9BDB" cx="375" cy="375" r="375"/>
<g>
	<g>
		<path fill="#FFFFFF" d="M375.2,183.9c33.4,0,66.5,8.9,95.6,25.8c44.1,25.6,75.6,66.9,88.7,116.2c13.1,49.3,6.2,100.7-19.4,144.9
			c-17.1,29.5-41.7,53.8-71.2,70.5c-28.7,16.2-61.2,24.7-94.1,24.7c-33.4,0-66.5-8.9-95.6-25.8c-44.1-25.6-75.6-66.9-88.7-116.2
			c-13.1-49.3-6.2-100.7,19.4-144.9c17.1-29.5,41.7-53.8,71.2-70.5C309.7,192.4,342.3,183.9,375.2,183.9L375.2,183.9L375.2,183.9
			 M375.2,149.9c-77.6,0-153,40.2-194.8,112.1c-62.4,107.5-25.8,245.1,81.7,307.5c35.5,20.6,74.4,30.4,112.7,30.4
			c77.6,0,153-40.2,194.8-112.1c62.4-107.5,25.8-245.1-81.7-307.5C452.4,159.7,413.5,149.8,375.2,149.9L375.2,149.9z"/>
	</g>
	<path fill="#FFFFFF" d="M278.2,541.8c0,0,57.7,11.4,127.9-71.1s84.6-182.2,84.6-182.2s2.8-36.1-2-55.3
		c-4.8-19.2-19.8-25.5-19.8-25.5l19-27.7c0,0,149.4,81.7,103.4,254.4c-47,176.2-243.6,194.4-327,134.7L278.2,541.8z"/>
</g>
</svg>
