<?xml version="1.0" encoding="iso-8859-1"?>
<!-- Generator: Adobe Illustrator 17.1.0, SVG Export Plug-In . SVG Version: 6.00 Build 0)  -->
<!DOCTYPE svg PUBLIC "-//W3C//DTD SVG 1.1//EN" "http://www.w3.org/Graphics/SVG/1.1/DTD/svg11.dtd">
<svg version="1.1" id="Layer_1" xmlns="http://www.w3.org/2000/svg" xmlns:xlink="http://www.w3.org/1999/xlink" x="0px" y="0px"
	 viewBox="0 0 24 24" style="enable-background:new 0 0 24 24;" xml:space="preserve">
<g>
	<g>
		<rect x="0.313" y="4.344" style="fill:#DA512D;" width="9.176" height="19.656"/>
		<path style="fill:#DA512D;" d="M8.065,3.307H1.642c-0.283,0-0.513,0.24-0.513,0.536V4.71c0,0.296,0.23,0.536,0.513,0.536h6.423
			c0.283,0,0.513-0.24,0.513-0.536V3.843C8.578,3.547,8.349,3.307,8.065,3.307z"/>
		<path style="fill:#DA512D;" d="M6.387,2.446H3.243c-0.285,0-0.516,0.241-0.516,0.539v0.861c0,0.297,0.231,0.539,0.516,0.539h3.145
			c0.285,0,0.516-0.241,0.516-0.539V2.984C6.903,2.687,6.672,2.446,6.387,2.446z"/>
		<path style="fill:#DA512D;" d="M4.966,0H4.612C4.525,0,4.454,0.107,4.454,0.238v2.32c0,0.131,0.071,0.238,0.158,0.238h0.354
			c0.087,0,0.158-0.107,0.158-0.238v-2.32C5.124,0.107,5.053,0,4.966,0z"/>
	</g>
	<rect x="1.399" y="5.061" style="fill:#E78D75;" width="2.766" height="5.32"/>
	<rect x="5.562" y="5.061" style="fill:#E78D75;" width="2.766" height="5.32"/>
	<rect x="1.399" y="12.017" style="fill:#E78D75;" width="2.766" height="5.32"/>
	<rect x="5.562" y="12.017" style="fill:#E78D75;" width="2.766" height="5.32"/>
	<rect x="1.399" y="18.68" style="fill:#E78D75;" width="2.766" height="5.32"/>
	<rect x="5.562" y="18.68" style="fill:#E78D75;" width="2.766" height="5.32"/>
</g>
<g>
	<rect x="11.637" y="7.316" style="fill:#E78D75;" width="12.05" height="16.649"/>
	<g>
		<rect x="12.519" y="8.007" style="fill:#DA512D;" width="5.031" height="2.768"/>
		<rect x="17.55" y="8.007" style="fill:#DA512D;" width="5.031" height="2.768"/>
	</g>
	<g>
		<rect x="12.519" y="11.806" style="fill:#DA512D;" width="5.031" height="2.768"/>
		<rect x="17.55" y="11.806" style="fill:#DA512D;" width="5.031" height="2.768"/>
	</g>
	<g>
		<rect x="12.519" y="15.605" style="fill:#DA512D;" width="5.031" height="2.768"/>
		<rect x="17.55" y="15.605" style="fill:#DA512D;" width="5.031" height="2.768"/>
	</g>
	<g>
		<rect x="12.519" y="19.404" style="fill:#DA512D;" width="5.031" height="2.768"/>
		<rect x="17.55" y="19.404" style="fill:#DA512D;" width="5.031" height="2.768"/>
	</g>
</g>
</svg>
