<?xml version="1.0" encoding="utf-8"?>
<!-- Generator: Adobe Illustrator 18.1.0, SVG Export Plug-In . SVG Version: 6.00 Build 0)  -->
<!DOCTYPE svg PUBLIC "-//W3C//DTD SVG 1.1//EN" "http://www.w3.org/Graphics/SVG/1.1/DTD/svg11.dtd">
<svg version="1.1" id="Layer_1" xmlns="http://www.w3.org/2000/svg" xmlns:xlink="http://www.w3.org/1999/xlink" x="0px" y="0px"
	 viewBox="-350 644 48 48" enable-background="new -350 644 48 48" xml:space="preserve">
<path fill="#1C5996" d="M-327.8,653.9l16.3,16.3c3.1,3.1,3.1,8.2,0,11.3c-3.1,3.1-8.2,3.1-11.3,0l-17.7-17.7c-2-2-2-5.1,0-7.1
	c2-2,5.1-2,7.1,0l14.8,14.8c0.8,0.8,0.8,2,0,2.8c-0.8,0.8-2.1,0.8-2.8,0l-13.4-13.4l-2.1,2.1l13.4,13.4c2,2,5.1,2,7.1,0
	c2-2,2-5.1,0-7.1l-14.8-14.8c-3.1-3.1-8.2-3.1-11.3,0c-3.1,3.1-3.1,8.2,0,11.3l17.7,17.7c4.3,4.3,11.3,4.3,15.6,0
	c4.3-4.3,4.3-11.3,0-15.6l-16.3-16.3L-327.8,653.9z"/>
<path fill="none" d="M-350,644h48v48h-48V644z"/>
</svg>
