<?xml version="1.0" encoding="iso-8859-1"?>
<!-- Generator: Adobe Illustrator 17.1.0, SVG Export Plug-In . SVG Version: 6.00 Build 0)  -->
<!DOCTYPE svg PUBLIC "-//W3C//DTD SVG 1.1//EN" "http://www.w3.org/Graphics/SVG/1.1/DTD/svg11.dtd">
<svg version="1.1" id="Layer_1" xmlns="http://www.w3.org/2000/svg" xmlns:xlink="http://www.w3.org/1999/xlink" x="0px" y="0px"
	 viewBox="0 0 50 50" style="enable-background:new 0 0 50 50;" xml:space="preserve">
<g>
	<path style="fill:#FFFFFF;" d="M-451,39c-10.477,0-19-8.523-19-19s8.523-19,19-19s19,8.523,19,19S-440.523,39-451,39z"/>
	<path style="fill:#D53A3A;" d="M-451,2c9.925,0,18,8.075,18,18s-8.075,18-18,18s-18-8.075-18-18S-460.925,2-451,2 M-451,0
		c-11.046,0-20,8.954-20,20s8.954,20,20,20s20-8.954,20-20S-439.954,0-451,0L-451,0z"/>
</g>
<g>
	<path style="fill:#D53A3A;" d="M-453.893,29.987c0-0.956,0.256-1.679,0.769-2.168s1.257-0.734,2.236-0.734
		c0.945,0,1.676,0.25,2.194,0.751s0.777,1.218,0.777,2.151c0,0.899-0.263,1.607-0.786,2.126c-0.523,0.518-1.252,0.776-2.185,0.776
		c-0.956,0-1.696-0.253-2.219-0.76C-453.631,31.624-453.893,30.909-453.893,29.987z M-448.788,24.148h-4.166l-0.871-16.681h5.908
		L-448.788,24.148z"/>
</g>
<g>
	<path style="fill:#FFFFFF;" d="M-171,35.1c-9.429,0-17.1-7.671-17.1-17.1s7.671-17.1,17.1-17.1s17.1,7.671,17.1,17.1
		S-161.571,35.1-171,35.1z"/>
	<path style="fill:#FFFFFF;" d="M-171,1.8c8.933,0,16.2,7.267,16.2,16.2s-7.267,16.2-16.2,16.2s-16.2-7.267-16.2-16.2
		S-179.933,1.8-171,1.8 M-171,0c-9.941,0-18,8.059-18,18s8.059,18,18,18c9.941,0,18-8.059,18-18S-161.059,0-171,0L-171,0z"/>
</g>
<g>
	<path style="fill:#FFFFFF;" d="M-391,39c-10.477,0-19-8.523-19-19s8.523-19,19-19s19,8.523,19,19S-380.523,39-391,39z"/>
	<path style="fill:#2A9BDB;" d="M-391,2c9.925,0,18,8.075,18,18s-8.075,18-18,18s-18-8.075-18-18S-400.925,2-391,2 M-391,0
		c-11.046,0-20,8.954-20,20s8.954,20,20,20s20-8.954,20-20S-379.954,0-391,0L-391,0z"/>
</g>
<g>
	<path style="fill:#2A9BDB;" d="M-393.597,24.148v-1.264c0-1.093,0.233-2.043,0.7-2.852c0.467-0.808,1.32-1.667,2.562-2.578
		c1.194-0.854,1.982-1.547,2.364-2.083c0.381-0.535,0.572-1.133,0.572-1.793c0-0.74-0.273-1.303-0.819-1.69
		c-0.547-0.387-1.31-0.58-2.288-0.58c-1.708,0-3.654,0.558-5.839,1.673l-1.861-3.739c2.538-1.423,5.23-2.134,8.075-2.134
		c2.345,0,4.209,0.563,5.592,1.69c1.383,1.126,2.074,2.629,2.074,4.507c0,1.252-0.284,2.333-0.854,3.244
		c-0.569,0.911-1.65,1.935-3.244,3.073c-1.092,0.809-1.784,1.423-2.074,1.844c-0.29,0.421-0.436,0.973-0.436,1.656v1.024H-393.597z
		 M-394.144,29.987c0-0.956,0.256-1.679,0.768-2.168s1.258-0.734,2.237-0.734c0.944,0,1.676,0.25,2.194,0.751
		c0.518,0.501,0.776,1.218,0.776,2.151c0,0.899-0.262,1.607-0.785,2.126c-0.523,0.518-1.252,0.776-2.186,0.776
		c-0.956,0-1.696-0.253-2.22-0.76C-393.882,31.624-394.144,30.909-394.144,29.987z"/>
</g>
<g>
	<path style="fill:#2A9BDB;" d="M-331,39c-10.477,0-19-8.523-19-19s8.523-19,19-19s19,8.523,19,19S-320.523,39-331,39z"/>
	<path style="fill:#2A9BDB;" d="M-331,2c9.925,0,18,8.075,18,18s-8.075,18-18,18s-18-8.075-18-18S-340.925,2-331,2 M-331,0
		c-11.046,0-20,8.954-20,20s8.954,20,20,20c11.046,0,20-8.954,20-20S-319.954,0-331,0L-331,0z"/>
</g>
<g>
	<path style="fill:#FFFFFF;" d="M-335.706,33.169l-0.04-1.317l2.29-0.304c0.338-0.095,0.57-0.233,0.699-0.415
		c0.128-0.183,0.192-0.591,0.192-1.227v-0.223c0-0.162,0.01-0.456,0.03-0.882s0.03-0.801,0.03-1.125c0-0.257-0.02-0.75-0.061-1.479
		l0.03-1.014l-0.03-0.952l0.061-3.304c0-0.419-0.041-0.852-0.122-1.297c-0.149-0.203-0.422-0.378-0.816-0.527
		c-0.395-0.148-1.082-0.256-2.061-0.324v-1.135c1.392-0.081,2.614-0.371,3.668-0.872c0.716-0.324,1.493-0.898,2.331-1.723h1.358
		c0.054,1.676,0.081,3.851,0.081,6.526l-0.143,8.27c0,0.567,0.027,1.081,0.081,1.54c0.419,0.149,1.102,0.298,2.047,0.446
		c0.365,0.054,0.655,0.121,0.872,0.202l-0.041,1.115c-0.364,0.014-0.634,0.02-0.809,0.02c-0.202,0-0.513-0.013-0.931-0.04
		c-1.376-0.067-3.217-0.102-5.522-0.102c-0.661,0-1.302,0.024-1.922,0.071S-335.477,33.169-335.706,33.169z M-332.868,8.99
		c0-0.729,0.236-1.328,0.709-1.793c0.473-0.466,1.081-0.699,1.824-0.699c0.797,0,1.459,0.247,1.986,0.74s0.79,1.051,0.79,1.672
		c0,0.459-0.104,0.919-0.313,1.378c-0.21,0.459-0.541,0.828-0.993,1.104c-0.453,0.277-0.916,0.416-1.389,0.416
		c-0.648,0-1.246-0.277-1.794-0.831C-332.595,10.422-332.868,9.76-332.868,8.99z"/>
</g>
<g>
	<path style="fill:#FFFFFF;" d="M-271,39c-10.477,0-19-8.523-19-19s8.523-19,19-19s19,8.523,19,19S-260.523,39-271,39z"/>
	<g>
		<path style="fill:#2A9BDB;" d="M-271,2c9.925,0,18,8.075,18,18s-8.075,18-18,18s-18-8.075-18-18S-280.925,2-271,2 M-271,0
			c-11.046,0-20,8.954-20,20s8.954,20,20,20s20-8.954,20-20S-259.954,0-271,0L-271,0z"/>
	</g>
</g>
<g>
	<path style="fill:#2A9BDB;" d="M-275.706,33.169l-0.04-1.317l2.29-0.304c0.338-0.095,0.57-0.233,0.699-0.415
		c0.128-0.183,0.192-0.591,0.192-1.227v-0.223c0-0.162,0.01-0.456,0.03-0.882s0.03-0.801,0.03-1.125c0-0.257-0.02-0.75-0.061-1.479
		l0.03-1.014l-0.03-0.952l0.061-3.304c0-0.419-0.041-0.852-0.122-1.297c-0.149-0.203-0.422-0.378-0.816-0.527
		c-0.395-0.148-1.082-0.256-2.061-0.324v-1.135c1.392-0.081,2.614-0.371,3.668-0.872c0.716-0.324,1.493-0.898,2.331-1.723h1.358
		c0.054,1.676,0.081,3.851,0.081,6.526l-0.143,8.27c0,0.567,0.027,1.081,0.081,1.54c0.419,0.149,1.102,0.298,2.047,0.446
		c0.365,0.054,0.655,0.121,0.872,0.202l-0.041,1.115c-0.364,0.014-0.634,0.02-0.809,0.02c-0.202,0-0.513-0.013-0.931-0.04
		c-1.376-0.067-3.217-0.102-5.522-0.102c-0.661,0-1.302,0.024-1.922,0.071S-275.477,33.169-275.706,33.169z M-272.868,8.99
		c0-0.729,0.236-1.328,0.709-1.793c0.473-0.466,1.081-0.699,1.824-0.699c0.797,0,1.459,0.247,1.986,0.74s0.79,1.051,0.79,1.672
		c0,0.459-0.104,0.919-0.313,1.378c-0.21,0.459-0.541,0.828-0.993,1.104c-0.453,0.277-0.916,0.416-1.389,0.416
		c-0.648,0-1.246-0.277-1.794-0.831C-272.595,10.422-272.868,9.76-272.868,8.99z"/>
</g>
<circle style="fill:#2A9BDB;" cx="-220" cy="10.995" r="11"/>
<circle style="fill:#2A9BDB;" cx="-140" cy="330.995" r="25"/>
<circle style="fill:#2A9BDB;" cx="-348" cy="196.995" r="11"/>
<path id="PEN_2_2_" style="fill-rule:evenodd;clip-rule:evenodd;fill:#2A9BDB;" d="M-162.313,26.284h-17.373
	c-0.496,0-0.899-0.402-0.899-0.899c0-0.496,0.402-0.899,0.899-0.899h17.373c0.496,0,0.899,0.402,0.899,0.899
	C-161.415,25.881-161.817,26.284-162.313,26.284z M-165.958,12.964l-2.53-2.525l1.897-1.894c0.349-0.349,0.916-0.349,1.265,0
	l1.265,1.262c0.349,0.349,0.349,0.914,0,1.262L-165.958,12.964z M-174.18,21.17l-2.53-2.525l7.59-7.575l2.53,2.525L-174.18,21.17z
	 M-178.19,22.641l0.842-3.366l2.53,2.525L-178.19,22.641z"/>
<g>
	<path style="fill:#FFFFFF;" d="M-115,35.1c-9.429,0-17.1-7.671-17.1-17.1s7.671-17.1,17.1-17.1S-97.9,8.571-97.9,18
		S-105.571,35.1-115,35.1z"/>
	<path style="fill:#FFFFFF;" d="M-115,1.8c8.933,0,16.2,7.267,16.2,16.2s-7.267,16.2-16.2,16.2s-16.2-7.267-16.2-16.2
		S-123.933,1.8-115,1.8 M-115,0c-9.941,0-18,8.059-18,18s8.059,18,18,18s18-8.059,18-18S-105.059,0-115,0L-115,0z"/>
</g>
<path id="CAMERA_2_" style="fill-rule:evenodd;clip-rule:evenodd;fill:#939393;" d="M-106.844,25.284h-16.313
	c-0.466,0-0.844-0.378-0.844-0.844V13.19c0-0.466,0.378-0.844,0.844-0.844h3.604l1.351-1.351c0.154-0.203,0.396-0.336,0.67-0.336
	h5.062c0.237,0,0.45,0.098,0.604,0.256l0.001-0.001l1.433,1.433h3.588c0.466,0,0.844,0.378,0.844,0.844v11.25
	C-106,24.906-106.378,25.284-106.844,25.284z M-115,13.471c-2.796,0-5.062,2.267-5.062,5.062c0,2.796,2.267,5.062,5.062,5.062
	s5.062-2.266,5.062-5.062C-109.938,15.738-112.204,13.471-115,13.471z M-115,21.909c-1.864,0-3.375-1.511-3.375-3.375
	c0-1.864,1.511-3.375,3.375-3.375s3.375,1.511,3.375,3.375C-111.625,20.398-113.136,21.909-115,21.909z"/>
<path id="SQUARE__x2F__RIGHT_2_" style="fill-rule:evenodd;clip-rule:evenodd;fill:#FFFFFF;" d="M-334.18,105.971h-8.625
	c-1.191,0-2.156-0.965-2.156-2.156c0-1.191,0.965-2.156,2.156-2.156h6.469V95.19l0,0c0-1.191,0.965-2.156,2.156-2.156
	c1.191,0,2.156,0.965,2.156,2.156v8.625C-332.024,105.006-332.99,105.971-334.18,105.971z M-334.181,77.221
	c1.191,0,2.156,0.965,2.156,2.156v7.188c0,1.191-0.965,2.156-2.156,2.156s-2.156-0.966-2.156-2.156v-7.188
	C-336.337,78.187-335.371,77.221-334.181,77.221z M-334.181,72.909c-1.191,0-2.156-0.965-2.156-2.156l0,0v-6.468h-6.469v0
	c-1.191,0-2.156-0.965-2.156-2.156s0.965-2.156,2.156-2.156h0h8.625c1.191,0,2.156,0.965,2.156,2.156v8.625
	C-332.024,71.943-332.99,72.909-334.181,72.909z M-351.43,64.284h-7.187c-1.191,0-2.156-0.965-2.156-2.156s0.965-2.156,2.156-2.156
	h7.187c1.191,0,2.156,0.966,2.156,2.156S-350.24,64.284-351.43,64.284z M-354.31,78.105l0.005-0.006
	c-0.438-0.395-0.719-0.961-0.719-1.597c0-1.191,0.965-2.156,2.156-2.156c0.555,0,1.055,0.215,1.437,0.559l0.005-0.006l7.188,6.469
	l-0.005,0.006c0.438,0.395,0.719,0.961,0.719,1.597c0,0.636-0.281,1.202-0.719,1.597l0.005,0.006l-7.188,6.469l-0.005-0.006
	c-0.382,0.344-0.883,0.559-1.437,0.559c-1.191,0-2.156-0.965-2.156-2.156c0-0.636,0.281-1.202,0.719-1.597l-0.005-0.006l3.011-2.71
	h-13.068c-1.191,0-2.156-0.965-2.156-2.156c0-1.191,0.965-2.156,2.156-2.156h13.068L-354.31,78.105z M-367.243,64.284
	L-367.243,64.284l-6.469,0v6.469c0,1.191-0.965,2.156-2.156,2.156c-1.191,0-2.156-0.965-2.156-2.156l0,0v-8.625
	c0-1.191,0.965-2.156,2.156-2.156h8.625h0c1.191,0,2.156,0.965,2.156,2.156S-366.052,64.284-367.243,64.284z M-375.868,88.721
	c-1.191,0-2.156-0.966-2.156-2.156v-7.188c0-1.191,0.965-2.156,2.156-2.156c1.191,0,2.156,0.965,2.156,2.156v7.188
	C-373.712,87.756-374.677,88.721-375.868,88.721z M-375.868,93.034c1.191,0,2.156,0.965,2.156,2.156v6.469h6.469
	c1.191,0,2.156,0.965,2.156,2.156c0,1.191-0.965,2.156-2.156,2.156h-8.625c-1.191,0-2.156-0.965-2.156-2.156V95.19l0,0
	C-378.024,93.999-377.059,93.034-375.868,93.034z M-358.618,101.659h7.187c1.191,0,2.156,0.965,2.156,2.156
	s-0.965,2.156-2.156,2.156h-7.187c-1.191,0-2.156-0.965-2.156-2.156S-359.809,101.659-358.618,101.659z"/>
<g>
	<path style="fill:#D69D9D;stroke:#E02222;stroke-miterlimit:10;" d="M-68.33,3.225c-0.36,0.662-2.3,4.416-2.248,7.854
		c0,0-0.034,1.158,0.834,1.532c0.281,0.122,1.925,0.821,2.105,1.002c0,0,0.999,2.155,1.806,3.129
		c1.869,2.258,3.36,3.413,3.792,3.731c0.273,0.202,0.901,0.447,2.183,1.787c1.008,1.053,1.083,2.167,1.837,2.179
		c0.075,0.002,0.09-0.006,0.251-0.055c0.403-0.123,2.218-1.563,0.722-3.971c0,0-0.751-1.183-2.046-2.288c0,0-1.768-1.55,0.181-2.708
		c0,0,1.263-0.646,2.8-0.561c0.625,0.035,1.594,0.2,1.894,0.259c0.301,0.061,1.305,0.369,2.106-0.12
		c1.548-0.945,0.663-9.409-2.9-12.313c-1.343-1.096-5.945-1.467-8.473-0.745c0,0-1.435,0.502-2.167,0.422
		C-66.675,2.244-67.3,2.423-67.3,2.423S-67.969,2.563-68.33,3.225z"/>
	<path style="fill:#E02222;" d="M-74.034,12.661c1.226,0.191,2.353,0.381,2.592,0.407c0.208,0.023,0.227-0.253,0.054-0.334
		c-0.214-0.123-0.512-0.492-0.598-1.255c-0.006-0.554-0.448-4.111,2.502-9.001c0.682-1.128,1.203-1.09,2.075-1.168
		c-0.039-0.527-0.843-0.818-0.843-0.818s-2.565-0.833-4.123-0.331c0,0-2.297,0.487-3.718,4.757c-0.395,1.186-0.677,2.409-0.8,3.449
		c-0.06,0.499-0.094,0.952-0.105,1.332C-77.054,11.62-75.565,12.389-74.034,12.661z"/>
</g>
<path style="fill:#C5E4D1;stroke:#069342;stroke-miterlimit:10;" d="M-453.052,82.214c0.36-0.662,2.3-4.416,2.248-7.854
	c0,0,0.034-1.158-0.834-1.532c-0.281-0.122-1.925-0.821-2.105-1.002c0,0-0.999-2.155-1.806-3.129
	c-1.869-2.258-3.36-3.413-3.792-3.731c-0.273-0.202-0.901-0.447-2.183-1.787c-1.008-1.053-1.083-2.167-1.837-2.179
	c-0.075-0.002-0.09,0.006-0.251,0.055c-0.403,0.123-2.218,1.563-0.722,3.971c0,0,0.751,1.183,2.046,2.288
	c0,0,1.768,1.55-0.181,2.708c0,0-1.263,0.646-2.8,0.561c-0.625-0.035-1.594-0.2-1.894-0.259c-0.301-0.061-1.305-0.369-2.106,0.12
	c-1.548,0.945-0.663,9.409,2.9,12.313c1.343,1.096,5.945,1.467,8.473,0.745c0,0,1.435-0.502,2.167-0.422
	c1.022,0.115,1.647-0.064,1.647-0.064S-453.413,82.876-453.052,82.214z"/>
<path style="fill:#069342;" d="M-447.348,72.778c-1.226-0.191-2.353-0.381-2.592-0.407c-0.208-0.023-0.227,0.253-0.054,0.334
	c0.214,0.123,0.512,0.492,0.598,1.255c0.006,0.554,0.448,4.111-2.502,9.001c-0.682,1.128-1.203,1.09-2.075,1.168
	c0.039,0.527,0.843,0.818,0.843,0.818s2.565,0.833,4.123,0.331c0,0,2.297-0.487,3.718-4.757c0.395-1.186,0.677-2.409,0.8-3.449
	c0.06-0.499,0.094-0.952,0.105-1.332C-444.328,73.819-445.817,73.05-447.348,72.778z"/>
<path style="fill:#F2F2F2;stroke:#CFCFCF;stroke-miterlimit:10;" d="M-406.694,82.214c0.36-0.662,2.3-4.416,2.248-7.854
	c0,0,0.034-1.158-0.834-1.532c-0.281-0.122-1.925-0.821-2.105-1.002c0,0-0.999-2.155-1.806-3.129
	c-1.869-2.258-3.36-3.413-3.792-3.731c-0.273-0.202-0.901-0.447-2.183-1.787c-1.008-1.053-1.083-2.167-1.837-2.179
	c-0.075-0.002-0.09,0.006-0.251,0.055c-0.403,0.123-2.218,1.563-0.722,3.971c0,0,0.751,1.183,2.046,2.288
	c0,0,1.768,1.55-0.181,2.708c0,0-1.263,0.646-2.8,0.561c-0.625-0.035-1.594-0.2-1.894-0.259c-0.301-0.061-1.305-0.369-2.106,0.12
	c-1.548,0.945-0.663,9.409,2.9,12.313c1.343,1.096,5.945,1.467,8.473,0.745c0,0,1.435-0.502,2.167-0.422
	c1.022,0.115,1.647-0.064,1.647-0.064S-407.055,82.876-406.694,82.214z"/>
<path style="fill:#CFCFCF;" d="M-400.99,72.778c-1.226-0.191-2.353-0.381-2.592-0.407c-0.208-0.023-0.227,0.253-0.054,0.334
	c0.214,0.123,0.512,0.492,0.598,1.255c0.006,0.554,0.448,4.111-2.502,9.001c-0.682,1.128-1.203,1.09-2.075,1.168
	c0.039,0.527,0.843,0.818,0.843,0.818s2.565,0.833,4.123,0.331c0,0,2.297-0.487,3.718-4.757c0.395-1.186,0.677-2.409,0.8-3.449
	c0.06-0.499,0.094-0.952,0.105-1.332C-397.97,73.819-399.459,73.05-400.99,72.778z"/>
<path style="fill:#D53A3A;" d="M-280.024,87.827c0,2.305-1.868,4.173-4.173,4.173h-23.654c-2.305,0-4.173-1.868-4.173-4.173V64.173
	c0-2.305,1.868-4.173,4.173-4.173h23.654c2.305,0,4.173,1.868,4.173,4.173V87.827z"/>
<path id="CLOSE_1_" style="fill-rule:evenodd;clip-rule:evenodd;fill:#FFFFFF;" d="M-286.304,68.838L-293.466,76l7.162,7.162l0,0
	c0.327,0.327,0.53,0.779,0.53,1.279c0,0.999-0.81,1.809-1.809,1.809c-0.5,0-0.952-0.203-1.279-0.53l0,0l-7.162-7.162l-7.162,7.162
	l0,0c-0.327,0.327-0.78,0.53-1.279,0.53c-0.999,0-1.809-0.81-1.809-1.809c0-0.5,0.202-0.952,0.53-1.279l0,0l7.162-7.162
	l-7.162-7.162l0,0c-0.327-0.327-0.53-0.78-0.53-1.279c0-0.999,0.81-1.809,1.809-1.809c0.499,0,0.952,0.202,1.279,0.53l0,0
	l7.162,7.162l7.162-7.162l0,0c0.327-0.327,0.78-0.53,1.279-0.53c0.999,0,1.809,0.81,1.809,1.809
	C-285.774,68.058-285.977,68.511-286.304,68.838L-286.304,68.838z"/>
<path style="fill:#1C5996;" d="M-228.024,87.827c0,2.305-1.868,4.173-4.173,4.173h-23.654c-2.305,0-4.173-1.868-4.173-4.173V64.173
	c0-2.305,1.868-4.173,4.173-4.173h23.654c2.305,0,4.173,1.868,4.173,4.173V87.827z"/>
<path style="fill-rule:evenodd;clip-rule:evenodd;fill:#FFFFFF;" d="M-237.491,71.45L-237.491,71.45
	c0.722,0.722,0.721,1.892,0,2.613c-0.722,0.722-1.892,0.722-2.613,0l0,0l-2.072-2.072l0,12.961c0,0.473-0.18,0.946-0.541,1.307
	c-0.722,0.722-1.892,0.722-2.613,0c-0.361-0.361-0.541-0.834-0.541-1.307l0,0l0-12.961l-2.072,2.072l0,0
	c-0.722,0.722-1.892,0.722-2.613,0s-0.722-1.892,0-2.613l0,0l5.227-5.227l0,0c0.722-0.722,1.892-0.722,2.613,0l0,0L-237.491,71.45z"
	/>
<path style="fill:#1C5996;" d="M-208.024,64.173c0-2.305,1.868-4.173,4.173-4.173h23.654c2.305,0,4.173,1.868,4.173,4.173v23.654
	c0,2.305-1.868,4.173-4.173,4.173h-23.654c-2.305,0-4.173-1.868-4.173-4.173V64.173z"/>
<path style="fill-rule:evenodd;clip-rule:evenodd;fill:#FFFFFF;" d="M-198.558,80.55L-198.558,80.55
	c-0.722-0.722-0.721-1.892,0-2.613c0.722-0.722,1.892-0.722,2.613,0l0,0l2.072,2.072l0-12.961c0-0.473,0.18-0.946,0.541-1.307
	c0.722-0.722,1.892-0.722,2.613,0c0.361,0.361,0.541,0.834,0.541,1.307l0,0l0,12.961l2.072-2.072l0,0
	c0.722-0.722,1.892-0.722,2.613,0s0.722,1.892,0,2.613l0,0l-5.227,5.227l0,0c-0.722,0.722-1.892,0.722-2.613,0l0,0L-198.558,80.55z"
	/>
<g>
	<path style="fill:#FFFFFF;" d="M-151.852,91c-1.75,0-3.173-1.423-3.173-3.173V64.173c0-1.75,1.423-3.173,3.173-3.173h23.654
		c1.75,0,3.173,1.423,3.173,3.173v23.654c0,1.75-1.423,3.173-3.173,3.173H-151.852z"/>
	<path style="fill:#1C5996;" d="M-128.197,62c1.198,0,2.173,0.975,2.173,2.173v23.654c0,1.198-0.975,2.173-2.173,2.173h-23.654
		c-1.198,0-2.173-0.975-2.173-2.173V64.173c0-1.198,0.975-2.173,2.173-2.173H-128.197 M-128.197,60h-23.654
		c-2.305,0-4.173,1.868-4.173,4.173v23.654c0,2.305,1.868,4.173,4.173,4.173h23.654c2.305,0,4.173-1.868,4.173-4.173V64.173
		C-124.024,61.868-125.893,60-128.197,60L-128.197,60z"/>
</g>
<path style="fill-rule:evenodd;clip-rule:evenodd;fill:#1C5996;" d="M-129.898,72.069l-11.355,11.355l0,0
	c-0.385,0.385-0.918,0.624-1.505,0.624s-1.12-0.238-1.505-0.624l0,0l-6.387-6.387l0,0c-0.385-0.385-0.624-0.918-0.624-1.506
	c0-1.176,0.953-2.129,2.129-2.129c0.588,0,1.12,0.238,1.505,0.624l0,0l4.882,4.882l9.849-9.849l0,0
	c0.385-0.385,0.917-0.624,1.505-0.624c1.176,0,2.129,0.953,2.129,2.129C-129.274,71.151-129.512,71.684-129.898,72.069
	L-129.898,72.069z"/>
<polygon style="fill-rule:evenodd;clip-rule:evenodd;" points="-145.524,83.241 -145.524,83.241 -145.524,83.241 "/>
<polygon style="fill-rule:evenodd;clip-rule:evenodd;" points="-134.524,83.241 -134.524,83.241 -134.524,83.241 "/>
<polygon style="fill-rule:evenodd;clip-rule:evenodd;" points="-133.024,81.741 -133.024,81.74 -133.024,81.741 "/>
<path style="fill-rule:evenodd;clip-rule:evenodd;" d="M-299.624,379.635l-11.355,11.355l0,0c-0.385,0.385-0.918,0.624-1.505,0.624
	c-0.588,0-1.12-0.238-1.505-0.624l0,0l-6.387-6.387l0,0c-0.385-0.385-0.624-0.918-0.624-1.506c0-1.176,0.953-2.129,2.129-2.129
	c0.588,0,1.12,0.238,1.505,0.624l0,0l4.882,4.882l9.849-9.849l0,0c0.385-0.385,0.918-0.624,1.505-0.624
	c1.176,0,2.129,0.953,2.129,2.129C-299,378.717-299.238,379.249-299.624,379.635L-299.624,379.635z"/>
<polygon style="fill-rule:evenodd;clip-rule:evenodd;" points="-315.25,390.806 -315.25,390.806 -315.25,390.806 "/>
<polygon style="fill-rule:evenodd;clip-rule:evenodd;" points="-304.25,390.806 -304.25,390.806 -304.25,390.806 "/>
<polygon style="fill-rule:evenodd;clip-rule:evenodd;" points="-302.75,389.307 -302.75,389.306 -302.75,389.306 "/>
<g>
	<path style="fill:#FFFFFF;" d="M-466.827,277.5c-2.025,0-3.673-1.647-3.673-3.673v-23.654c0-2.025,1.647-3.673,3.673-3.673h23.654
		c2.025,0,3.673,1.647,3.673,3.673v23.654c0,2.025-1.647,3.673-3.673,3.673H-466.827z"/>
	<path style="fill:#1C5996;" d="M-443.173,247c1.75,0,3.173,1.423,3.173,3.173v23.654c0,1.75-1.423,3.173-3.173,3.173h-23.654
		c-1.75,0-3.173-1.423-3.173-3.173v-23.654c0-1.75,1.423-3.173,3.173-3.173H-443.173 M-443.173,246h-23.654
		c-2.305,0-4.173,1.868-4.173,4.173v23.654c0,2.305,1.868,4.173,4.173,4.173h23.654c2.305,0,4.173-1.868,4.173-4.173v-23.654
		C-439,247.868-440.868,246-443.173,246L-443.173,246z"/>
</g>
<polygon style="fill-rule:evenodd;clip-rule:evenodd;" points="-460.5,269.241 -460.5,269.241 -460.5,269.241 "/>
<polygon style="fill-rule:evenodd;clip-rule:evenodd;" points="-449.5,269.241 -449.5,269.241 -449.5,269.241 "/>
<polygon style="fill-rule:evenodd;clip-rule:evenodd;" points="-448,267.741 -448,267.74 -448,267.741 "/>
<g>
	<path style="fill:#D69D9D;stroke:#E02222;stroke-miterlimit:10;" d="M-79.913,62.686l-0.006-0.007
		c-0.401-0.464-0.945-0.722-1.512-0.717c-2.738,0.024-11.142,0.096-15.517,0.114c-3.398,0.014-2.685,4.221-0.791,4.209
		c-3.112,0-3.639,4.697-0.264,4.697c-4.559-0.02-3.936,4.614-1.266,4.636c-3.672,0-3.428,4.422,0.363,4.422
		c0.251-0.029,5.394-0.32,7.176-0.554c0.302-0.04,0.54,0.289,0.454,0.626l-1.264,4.962c-0.062,0.245-0.068,0.505-0.016,0.753
		c0.162,0.77,0.696,2.506,2.411,4.49c1.293,1.496,2.161,1.192,2.675,0.629c0.399-0.437,0.497-1.128,0.251-1.697
		c-0.306-0.706-0.634-1.929-0.131-3.324c0.791-2.196,4.002-6.188,5.169-6.527c0.983-0.285,1.437-0.467,2.268-0.847"/>
	<path style="fill:#E02222;" d="M-81.058,60.889c0-0.491,0.204-0.889,0.455-0.889h5.991c0.251,0,0.455,0.398,0.455,0.889v19.782
		c0,0.491-0.204,0.889-0.455,0.889h-5.991c-0.251,0-0.455-0.398-0.455-0.889V60.889z"/>
</g>
<g>
	<path style="fill:#C5E4D1;stroke:#069342;stroke-miterlimit:10;" d="M-463.111,155.301l0.006,0.007
		c0.401,0.464,0.945,0.722,1.512,0.717c2.738-0.024,11.142-0.096,15.517-0.114c3.398-0.014,2.685-4.221,0.791-4.209
		c3.112,0,3.639-4.697,0.264-4.697c4.559,0.02,3.936-4.614,1.266-4.636c3.672,0,3.428-4.422-0.363-4.422
		c-0.251,0.029-5.394,0.32-7.176,0.554c-0.302,0.04-0.54-0.289-0.454-0.626l1.264-4.962c0.062-0.245,0.068-0.505,0.016-0.753
		c-0.162-0.77-0.696-2.506-2.411-4.49c-1.293-1.496-2.161-1.192-2.675-0.629c-0.399,0.437-0.497,1.128-0.251,1.697
		c0.306,0.706,0.634,1.929,0.131,3.324c-0.791,2.196-4.002,6.188-5.169,6.527c-0.983,0.285-1.437,0.467-2.268,0.847"/>
	<path style="fill:#069342;" d="M-461.966,157.097c0,0.491-0.204,0.889-0.455,0.889h-5.991c-0.251,0-0.455-0.398-0.455-0.889
		v-19.782c0-0.491,0.204-0.889,0.455-0.889h5.991c0.251,0,0.455,0.398,0.455,0.889V157.097z"/>
</g>
<g>
	<path style="fill:#F2F2F2;stroke:#CFCFCF;stroke-miterlimit:10;" d="M-412.111,155.301l0.006,0.007
		c0.401,0.464,0.945,0.722,1.512,0.717c2.738-0.024,11.142-0.096,15.517-0.114c3.398-0.014,2.685-4.221,0.791-4.209
		c3.112,0,3.639-4.697,0.264-4.697c4.559,0.02,3.936-4.614,1.266-4.636c3.672,0,3.428-4.422-0.363-4.422
		c-0.251,0.029-5.394,0.32-7.176,0.554c-0.302,0.04-0.54-0.29-0.454-0.626l1.264-4.962c0.062-0.245,0.068-0.505,0.016-0.753
		c-0.162-0.77-0.696-2.506-2.411-4.49c-1.293-1.496-2.161-1.192-2.675-0.629c-0.399,0.437-0.497,1.128-0.251,1.697
		c0.306,0.706,0.634,1.929,0.131,3.324c-0.791,2.196-4.002,6.188-5.169,6.527c-0.983,0.285-1.437,0.467-2.268,0.847"/>
	<path style="fill:#CFCFCF;" d="M-410.966,157.097c0,0.491-0.204,0.889-0.455,0.889h-5.991c-0.251,0-0.455-0.398-0.455-0.889
		v-19.782c0-0.491,0.204-0.889,0.455-0.889h5.991c0.251,0,0.455,0.398,0.455,0.889V157.097z"/>
</g>
<circle style="fill:#2A9BDB;" cx="-356" cy="136.995" r="11"/>
<circle style="fill:#D03135;" cx="-310.886" cy="140" r="14"/>
<path id="CLOSE_2_" style="fill-rule:evenodd;clip-rule:evenodd;fill:#FFFFFF;" d="M-303.3,134.41l-5.59,5.59l5.59,5.59l0,0
	c0.255,0.256,0.413,0.608,0.413,0.998c0,0.78-0.632,1.412-1.412,1.412c-0.39,0-0.743-0.158-0.998-0.414l0,0l-5.59-5.59l-5.59,5.59
	l0,0c-0.255,0.255-0.608,0.414-0.998,0.414c-0.78,0-1.412-0.632-1.412-1.412c0-0.39,0.158-0.743,0.413-0.998l0,0l5.59-5.59
	l-5.59-5.59l0,0c-0.255-0.256-0.413-0.609-0.413-0.998c0-0.78,0.632-1.412,1.412-1.412c0.39,0,0.743,0.158,0.998,0.414l0,0
	l5.59,5.59l5.59-5.59l0,0c0.255-0.256,0.608-0.414,0.998-0.414c0.78,0,1.412,0.632,1.412,1.412
	C-302.886,133.802-303.044,134.155-303.3,134.41L-303.3,134.41z"/>
<circle style="fill:#D43A3A;" cx="-456" cy="391" r="15"/>
<path id="CLOSE_4_" style="fill-rule:evenodd;clip-rule:evenodd;fill:#FFFFFF;stroke:#FFFFFF;stroke-miterlimit:10;" d="
	M-448.888,385.76l-5.241,5.241l5.241,5.241l0,0c0.239,0.24,0.388,0.57,0.388,0.936c0,0.731-0.593,1.324-1.324,1.324
	c-0.366,0-0.696-0.148-0.936-0.388l0,0l-5.241-5.241l-5.241,5.241l0,0c-0.24,0.239-0.57,0.388-0.936,0.388
	c-0.731,0-1.324-0.593-1.324-1.324c0-0.366,0.148-0.696,0.388-0.936l0,0l5.241-5.241l-5.241-5.241l0,0
	c-0.24-0.24-0.388-0.57-0.388-0.936c0-0.731,0.593-1.324,1.324-1.324c0.365,0,0.696,0.148,0.936,0.388l0,0l5.241,5.241l5.241-5.241
	l0,0c0.24-0.24,0.57-0.388,0.936-0.388c0.731,0,1.324,0.593,1.324,1.324C-448.5,385.189-448.648,385.52-448.888,385.76
	L-448.888,385.76z"/>
<circle style="fill:#F6BF16;" cx="-406" cy="391" r="15"/>
<circle style="fill:#FFFFFF;" cx="-262.886" cy="140" r="14"/>
<path id="CLOSE_3_" style="fill-rule:evenodd;clip-rule:evenodd;fill:#4A7D12;" d="M-255.3,134.41l-5.59,5.59l5.59,5.59l0,0
	c0.255,0.256,0.413,0.608,0.413,0.998c0,0.78-0.632,1.412-1.412,1.412c-0.39,0-0.743-0.158-0.998-0.414l0,0l-5.59-5.59l-5.59,5.59
	l0,0c-0.255,0.255-0.608,0.414-0.998,0.414c-0.78,0-1.412-0.632-1.412-1.412c0-0.39,0.158-0.743,0.413-0.998l0,0l5.59-5.59
	l-5.59-5.59l0,0c-0.255-0.256-0.413-0.609-0.413-0.998c0-0.78,0.632-1.412,1.412-1.412c0.39,0,0.743,0.158,0.998,0.414l0,0
	l5.59,5.59l5.59-5.59l0,0c0.255-0.256,0.608-0.414,0.998-0.414c0.78,0,1.412,0.632,1.412,1.412
	C-254.886,133.802-255.044,134.155-255.3,134.41L-255.3,134.41z"/>
<path style="fill:#9661BE;" d="M-228.886,131.216c0-2.881,2.335-5.216,5.216-5.216h29.568c2.881,0,5.216,2.335,5.216,5.216v29.568
	c0,2.881-2.335,5.216-5.216,5.216h-29.568c-2.881,0-5.216-2.335-5.216-5.216V131.216z"/>
<path id="USER_6_" style="fill-rule:evenodd;clip-rule:evenodd;fill:#FFFFFF;" d="M-200.719,159.265c0,0.001,0,0.002,0,0.003
	c0,0.652-0.528,1.18-1.18,1.18h-22.809c-0.652,0-1.18-0.528-1.18-1.18c0-0.001,0-0.002,0-0.003h-0.001c0,0,0-4.299,3.141-5.862
	c1.988-0.989,1.223-0.186,3.663-1.198c2.44-1.01,3.018-1.363,3.018-1.363l0.023-2.329c0,0-0.914-0.699-1.198-2.891
	c-0.572,0.165-0.761-0.671-0.795-1.204c-0.031-0.515-0.331-2.122,0.367-1.977c-0.143-1.073-0.245-2.041-0.195-2.554
	c0.175-1.8,1.908-3.68,4.579-3.818c3.141,0.137,4.385,2.016,4.559,3.816c0.051,0.513-0.061,1.481-0.204,2.553
	c0.698-0.143,0.395,1.461,0.361,1.976c-0.031,0.533-0.224,1.367-0.794,1.202c-0.285,2.192-1.199,2.885-1.199,2.885l0.021,2.318
	c0,0,0.578,0.33,3.018,1.341c2.44,1.012,1.675,0.255,3.663,1.244C-200.718,154.966-200.718,159.265-200.719,159.265
	L-200.719,159.265z"/>
<path id="USER_1_" style="fill-rule:evenodd;clip-rule:evenodd;fill:#FFFFFF;" d="M-191.144,151.86c0,0.001,0,0.002,0,0.003
	c0,0.614-0.457,1.112-1.021,1.112H-211.9c-0.564,0-1.021-0.498-1.021-1.112c0-0.001,0-0.002,0-0.003h-0.001c0,0,0-4.051,2.718-5.525
	c1.72-0.932,1.058-0.175,3.169-1.129c2.111-0.952,2.612-1.285,2.612-1.285l0.02-2.195c0,0-0.791-0.659-1.037-2.724
	c-0.495,0.156-0.658-0.633-0.687-1.135c-0.026-0.485-0.286-2,0.317-1.863c-0.123-1.011-0.212-1.923-0.169-2.406
	c0.151-1.696,1.651-3.468,3.962-3.598c2.718,0.129,3.794,1.9,3.945,3.596c0.044,0.483-0.053,1.396-0.176,2.405
	c0.604-0.135,0.341,1.377,0.312,1.862c-0.027,0.502-0.194,1.288-0.687,1.132c-0.247,2.065-1.038,2.719-1.038,2.719l0.019,2.184
	c0,0,0.5,0.311,2.611,1.264c2.112,0.954,1.449,0.241,3.169,1.173C-191.143,147.809-191.143,151.86-191.144,151.86L-191.144,151.86z"
	/>
<path style="fill:#FFFFFF;" d="M-168.886,131.216c0-2.881,2.335-5.216,5.216-5.216h29.568c2.881,0,5.216,2.335,5.216,5.216v29.568
	c0,2.881-2.335,5.216-5.216,5.216h-29.568c-2.881,0-5.216-2.335-5.216-5.216V131.216z M-140.718,159.265c0,0,0-4.299-3.141-5.862
	c-1.988-0.989-1.222-0.232-3.663-1.244c-2.44-1.011-3.018-1.341-3.018-1.341l-0.021-2.318c0,0,0.914-0.694,1.199-2.885
	c0.57,0.165,0.764-0.669,0.794-1.202c0.034-0.515,0.337-2.119-0.361-1.976c0.143-1.071,0.255-2.04,0.204-2.553
	c-0.174-1.8-1.419-3.679-4.559-3.816c-2.67,0.137-4.404,2.018-4.579,3.818c-0.05,0.513,0.052,1.48,0.195,2.554
	c-0.698-0.145-0.397,1.462-0.367,1.977c0.034,0.533,0.223,1.369,0.795,1.204c0.284,2.192,1.198,2.891,1.198,2.891l-0.023,2.329
	c0,0-0.578,0.353-3.018,1.363c-2.44,1.012-1.675,0.21-3.663,1.198c-3.141,1.563-3.141,5.862-3.141,5.862h0.001
	c0,0.001,0,0.002,0,0.003c0,0.652,0.528,1.18,1.18,1.18h22.809c0.652,0,1.18-0.528,1.18-1.18
	C-140.719,159.267-140.719,159.266-140.718,159.265L-140.718,159.265z M-131.143,151.86c0,0,0-4.051-2.718-5.524
	c-1.72-0.932-1.058-0.219-3.169-1.173c-2.111-0.953-2.611-1.264-2.611-1.264l-0.019-2.184c0,0,0.791-0.654,1.038-2.719
	c0.493,0.155,0.661-0.63,0.687-1.132c0.029-0.485,0.292-1.997-0.312-1.862c0.124-1.01,0.221-1.922,0.176-2.405
	c-0.151-1.696-1.228-3.467-3.945-3.596c-2.31,0.13-3.81,1.901-3.962,3.598c-0.044,0.483,0.045,1.395,0.169,2.406
	c-0.604-0.137-0.344,1.378-0.317,1.863c0.029,0.502,0.193,1.291,0.687,1.135c0.246,2.066,1.037,2.724,1.037,2.724l-0.02,2.195
	c0,0-0.5,0.332-2.612,1.285c-2.111,0.954-1.449,0.197-3.169,1.129c-2.718,1.473-2.718,5.525-2.718,5.525h0.001
	c0,0.001,0,0.002,0,0.003c0,0.614,0.457,1.112,1.021,1.112h19.736c0.564,0,1.021-0.498,1.021-1.112
	C-131.144,151.861-131.144,151.861-131.143,151.86L-131.143,151.86z"/>
<path id="USER_2_" style="fill-rule:evenodd;clip-rule:evenodd;fill:#49B173;" d="M-68.887,164.119c0,0.001,0,0.003,0,0.005
	c0,1.036-0.84,1.876-1.876,1.876h-36.27c-1.036,0-1.876-0.84-1.876-1.876c0-0.002,0-0.003,0-0.005h-0.001c0,0,0-6.836,4.995-9.322
	c3.161-1.572,1.944-0.296,5.824-1.906c3.88-1.607,4.8-2.168,4.8-2.168l0.037-3.704c0,0-1.453-1.112-1.905-4.597
	c-0.91,0.263-1.21-1.068-1.263-1.915c-0.049-0.818-0.526-3.374,0.583-3.143c-0.227-1.707-0.39-3.245-0.31-4.061
	c0.278-2.862,3.035-5.852,7.281-6.071c4.994,0.218,6.973,3.206,7.25,6.068c0.081,0.815-0.097,2.355-0.324,4.059
	c1.11-0.228,0.627,2.324,0.574,3.142c-0.049,0.847-0.356,2.173-1.263,1.911c-0.453,3.485-1.907,4.588-1.907,4.588l0.034,3.685
	c0,0,0.919,0.525,4.799,2.132c3.881,1.609,2.663,0.406,5.824,1.979c4.995,2.485,4.995,9.321,4.995,9.321H-68.887z"/>
<path id="USER_5_" style="fill-rule:evenodd;clip-rule:evenodd;fill:#FFFFFF;" d="M-431.001,224.119c0,0.001,0,0.003,0,0.005
	c0,1.036-0.84,1.876-1.876,1.876h-36.27c-1.036,0-1.876-0.84-1.876-1.876c0-0.002,0-0.003,0-0.005h-0.001c0,0,0-6.836,4.995-9.322
	c3.161-1.572,1.944-0.296,5.824-1.906c3.88-1.607,4.8-2.168,4.8-2.168l0.037-3.704c0,0-1.453-1.112-1.905-4.597
	c-0.91,0.263-1.21-1.068-1.263-1.915c-0.049-0.818-0.526-3.374,0.583-3.143c-0.227-1.707-0.39-3.245-0.31-4.061
	c0.278-2.862,3.035-5.852,7.281-6.071c4.994,0.218,6.973,3.206,7.25,6.068c0.081,0.815-0.097,2.355-0.324,4.059
	c1.11-0.228,0.628,2.324,0.574,3.142c-0.049,0.847-0.356,2.173-1.263,1.911c-0.453,3.485-1.907,4.588-1.907,4.588l0.034,3.685
	c0,0,0.919,0.525,4.799,2.132c3.881,1.609,2.663,0.406,5.824,1.979c4.995,2.485,4.995,9.321,4.995,9.321H-431.001z"/>
<path id="ARROWS_2_" style="fill-rule:evenodd;clip-rule:evenodd;fill:#FFFFFF;" d="M-379.047,201.977
	c0,0.442-0.191,0.839-0.496,1.113l0,0l-4.993,4.493l0,0c-0.265,0.239-0.617,0.385-1.002,0.385c-0.827,0-1.498-0.671-1.498-1.498
	c0-0.442,0.191-0.839,0.496-1.113l0,0l2.091-1.882h-9.078v9.078l1.882-2.091l0,0c0.274-0.304,0.671-0.496,1.113-0.496
	c0.827,0,1.498,0.671,1.498,1.498c0,0.385-0.146,0.737-0.385,1.002l0,0l-4.493,4.993l0,0c-0.274,0.304-0.671,0.496-1.113,0.496
	c-0.442,0-0.839-0.191-1.113-0.496l0,0l-4.493-4.993l0,0c-0.239-0.265-0.385-0.617-0.385-1.002c0-0.827,0.671-1.498,1.498-1.498
	c0.442,0,0.839,0.192,1.113,0.496l0,0l1.882,2.091v-9.078h-9.078l2.091,1.882l0,0c0.304,0.274,0.496,0.671,0.496,1.113
	c0,0.827-0.671,1.498-1.498,1.498c-0.385,0-0.736-0.146-1.002-0.385l0,0l-4.993-4.493l0,0c-0.304-0.274-0.496-0.671-0.496-1.113
	c0-0.442,0.192-0.839,0.496-1.113l0,0l4.993-4.493h0c0.265-0.239,0.617-0.385,1.002-0.385c0.827,0,1.498,0.671,1.498,1.498
	c0,0.442-0.192,0.839-0.496,1.113l0,0l-2.091,1.882h9.078v-9.078l-1.882,2.092l0,0c-0.274,0.304-0.671,0.496-1.113,0.496
	c-0.827,0-1.498-0.671-1.498-1.498c0-0.385,0.146-0.736,0.385-1.002l0,0l4.493-4.993l0,0c0.274-0.304,0.671-0.496,1.113-0.496
	c0.442,0,0.839,0.192,1.113,0.496l0,0l4.493,4.993l0,0c0.239,0.265,0.385,0.617,0.385,1.002c0,0.827-0.671,1.498-1.498,1.498
	c-0.442,0-0.839-0.191-1.113-0.496l0,0l-1.882-2.092v9.078h9.078l-2.091-1.882l0,0c-0.304-0.274-0.496-0.671-0.496-1.113
	c0-0.827,0.671-1.498,1.498-1.498c0.385,0,0.736,0.146,1.002,0.385h0l4.993,4.493l0,0
	C-379.238,201.138-379.047,201.535-379.047,201.977z"/>
<path style="fill-rule:evenodd;clip-rule:evenodd;fill:#FFFFFF;" d="M-344.18,197c-0.376,0-0.71-0.166-0.943-0.425l-0.003,0.003
	l-1.6-1.778v7.718c0,0.703-0.57,1.274-1.273,1.274c-0.703,0-1.273-0.57-1.273-1.274V194.8l-1.6,1.778l-0.004-0.003
	c-0.233,0.259-0.567,0.425-0.943,0.425c-0.703,0-1.273-0.57-1.273-1.273c0-0.328,0.127-0.623,0.33-0.849l-0.003-0.003l3.82-4.245
	l0.003,0.003c0.233-0.259,0.567-0.425,0.943-0.425c0.376,0,0.71,0.166,0.943,0.425l0.003-0.003l3.82,4.245l-0.003,0.003
	c0.203,0.226,0.33,0.521,0.33,0.849C-342.906,196.43-343.476,197-344.18,197z"/>
<circle style="fill:#FFFFFF;" cx="-264" cy="196.995" r="11"/>
<circle style="fill:#2A9BDB;" cx="-306" cy="196.995" r="11"/>
<path style="fill-rule:evenodd;clip-rule:evenodd;fill:#FFFFFF;" d="M-309.82,197c0.376,0,0.71,0.166,0.943,0.425l0.003-0.003
	l1.6,1.778v-7.718c0-0.703,0.57-1.274,1.273-1.274s1.273,0.57,1.273,1.274v7.718l1.6-1.778l0.004,0.003
	c0.233-0.259,0.567-0.425,0.943-0.425c0.703,0,1.273,0.57,1.273,1.273c0,0.328-0.127,0.623-0.33,0.849l0.003,0.003l-3.82,4.245
	l-0.003-0.003c-0.233,0.259-0.567,0.425-0.943,0.425c-0.376,0-0.71-0.166-0.943-0.425l-0.003,0.003l-3.82-4.245l0.003-0.003
	c-0.203-0.226-0.33-0.521-0.33-0.849C-311.094,197.57-310.524,197-309.82,197z"/>
<circle style="fill:#2A9BDB;" cx="-120" cy="196.995" r="11"/>
<path style="fill-rule:evenodd;clip-rule:evenodd;fill:#FFFFFF;" d="M-123.82,197c0.376,0,0.71,0.166,0.943,0.425l0.003-0.003
	l1.6,1.778v-7.718c0-0.703,0.57-1.274,1.273-1.274c0.703,0,1.273,0.57,1.273,1.274v7.718l1.6-1.778l0.004,0.003
	c0.233-0.259,0.567-0.425,0.943-0.425c0.703,0,1.273,0.57,1.273,1.273c0,0.328-0.127,0.623-0.33,0.849l0.003,0.003l-3.82,4.245
	l-0.003-0.003c-0.233,0.259-0.567,0.425-0.943,0.425s-0.71-0.166-0.943-0.425l-0.003,0.003l-3.82-4.245l0.003-0.003
	c-0.203-0.226-0.33-0.521-0.33-0.849C-125.094,197.57-124.524,197-123.82,197z"/>
<g>
	<path style="fill:#FFFFFF;" d="M-314,267.495c-5.79,0-10.5-4.71-10.5-10.5s4.71-10.5,10.5-10.5s10.5,4.71,10.5,10.5
		S-308.21,267.495-314,267.495z"/>
	<path style="fill:#2A9BDB;" d="M-314,246.995c5.514,0,10,4.486,10,10c0,5.514-4.486,10-10,10s-10-4.486-10-10
		C-324,251.481-319.514,246.995-314,246.995 M-314,245.995c-6.075,0-11,4.925-11,11c0,6.075,4.925,11,11,11s11-4.925,11-11
		C-303,250.92-307.925,245.995-314,245.995L-314,245.995z"/>
</g>
<path style="fill-rule:evenodd;clip-rule:evenodd;fill:#2A9BDB;" d="M-314,253.18c0,0.376-0.166,0.71-0.425,0.943l0.003,0.003
	l-1.778,1.6h7.718c0.703,0,1.274,0.57,1.274,1.273c0,0.703-0.57,1.273-1.274,1.273h-7.718l1.778,1.6l-0.003,0.004
	c0.259,0.233,0.425,0.567,0.425,0.943c0,0.703-0.57,1.273-1.273,1.273c-0.328,0-0.623-0.127-0.849-0.33l-0.003,0.003l-4.245-3.82
	l0.003-0.003c-0.259-0.233-0.425-0.567-0.425-0.943s0.166-0.71,0.425-0.943l-0.003-0.003l4.245-3.82l0.003,0.003
	c0.226-0.203,0.521-0.33,0.849-0.33C-314.57,251.906-314,252.476-314,253.18z"/>
<g>
	<path style="fill:#FFFFFF;" d="M-272,267.495c-5.79,0-10.5-4.71-10.5-10.5s4.71-10.5,10.5-10.5c5.79,0,10.5,4.71,10.5,10.5
		S-266.21,267.495-272,267.495z"/>
	<path style="fill:#2A9BDB;" d="M-272,246.995c5.514,0,10,4.486,10,10c0,5.514-4.486,10-10,10c-5.514,0-10-4.486-10-10
		C-282,251.481-277.514,246.995-272,246.995 M-272,245.995c-6.075,0-11,4.925-11,11c0,6.075,4.925,11,11,11s11-4.925,11-11
		C-261,250.92-265.925,245.995-272,245.995L-272,245.995z"/>
</g>
<path style="fill-rule:evenodd;clip-rule:evenodd;fill:#2A9BDB;" d="M-272,260.82c0-0.376,0.166-0.71,0.425-0.943l-0.003-0.003
	l1.778-1.6h-7.718c-0.703,0-1.273-0.57-1.273-1.273c0-0.703,0.57-1.273,1.273-1.273h7.718l-1.778-1.6l0.003-0.004
	c-0.259-0.233-0.425-0.567-0.425-0.943c0-0.703,0.57-1.273,1.273-1.273c0.328,0,0.623,0.127,0.849,0.33l0.003-0.003l4.245,3.82
	l-0.003,0.003c0.259,0.233,0.425,0.567,0.425,0.943s-0.166,0.71-0.425,0.943l0.003,0.003l-4.245,3.82l-0.003-0.003
	c-0.226,0.203-0.521,0.33-0.849,0.33C-271.43,262.094-272,261.524-272,260.82z"/>
<circle style="fill:#FFFFFF;" cx="-356" cy="256.995" r="11"/>
<path style="fill-rule:evenodd;clip-rule:evenodd;fill:#2A9BDB;" d="M-257.842,201.882l0,0.001c0,0.319-0.259,0.577-0.577,0.577
	h-0.353c0.099-0.17,0.16-0.366,0.16-0.577c0.288,0,0.549-0.11,0.751-0.284C-257.842,201.773-257.841,201.882-257.842,201.882
	L-257.842,201.882z"/>
<path style="fill-rule:evenodd;clip-rule:evenodd;fill:#2A9BDB;" d="M-260.921,199.574c-0.638,0-1.155,0.517-1.155,1.155
	c0,0.638,0.517,1.155,1.155,1.155c0,0.211,0.061,0.407,0.16,0.577h-8.821c-0.319,0-0.577-0.258-0.577-0.577l0-0.001h0
	c0,0,0-2.104,1.537-2.869c0.973-0.484,0.598-0.091,1.792-0.586c1.194-0.495,1.477-0.667,1.477-0.667l0.011-1.14
	c0,0-0.447-0.342-0.586-1.415c-0.28,0.081-0.372-0.329-0.389-0.589c-0.015-0.252-0.162-1.038,0.179-0.967
	c-0.07-0.525-0.12-0.999-0.095-1.25c0.086-0.881,0.934-1.801,2.241-1.868c1.537,0.067,2.146,0.987,2.231,1.868
	c0.025,0.251-0.03,0.725-0.1,1.249c0.342-0.07,0.193,0.715,0.176,0.967c-0.015,0.261-0.11,0.669-0.389,0.588
	c-0.14,1.073-0.587,1.412-0.587,1.412l0.01,1.134c0,0,0.283,0.161,1.477,0.656c0.345,0.143,0.557,0.213,0.71,0.253
	C-260.739,198.868-260.921,199.198-260.921,199.574z"/>
<circle style="fill:#FFFFFF;" cx="-259.766" cy="200.728" r="2.542"/>
<path style="fill-rule:evenodd;clip-rule:evenodd;fill:#2A9BDB;" d="M-258.266,201.478h-0.75v0.75c0,0.414-0.336,0.75-0.75,0.75
	c-0.414,0-0.75-0.336-0.75-0.75v-0.75h-0.75c-0.414,0-0.75-0.336-0.75-0.75c0-0.414,0.336-0.75,0.75-0.75h0.75v-0.75
	c0-0.414,0.336-0.75,0.75-0.75c0.414,0,0.75,0.336,0.75,0.75v0.75h0.75c0.414,0,0.75,0.336,0.75,0.75
	C-257.516,201.143-257.852,201.478-258.266,201.478z"/>
<path id="CIRCLE__x2F__DELETE_2_" style="fill-rule:evenodd;clip-rule:evenodd;fill:#FFFFFF;" d="M-212.997,226.006
	c-11.047,0-20.003-8.956-20.003-20.003c0-11.047,8.956-20.003,20.003-20.003c11.047,0,20.003,8.956,20.003,20.003
	C-192.994,217.051-201.949,226.006-212.997,226.006z M-212.997,189.751c-8.976,0-16.253,7.276-16.253,16.252
	c0,8.976,7.277,16.253,16.253,16.253c8.976,0,16.253-7.277,16.253-16.253C-196.744,197.027-204.021,189.751-212.997,189.751z
	 M-206.121,214.754c-0.518,0-0.987-0.21-1.326-0.549l0,0l-5.55-5.55l-5.55,5.55l0,0c-0.339,0.339-0.808,0.549-1.326,0.549
	c-1.036,0-1.875-0.839-1.875-1.875c0-0.518,0.21-0.987,0.549-1.326l0,0l5.55-5.55l-5.55-5.55l0,0
	c-0.339-0.339-0.549-0.808-0.549-1.326c0-1.036,0.84-1.875,1.875-1.875c0.518,0,0.987,0.21,1.326,0.549l0,0l5.55,5.55l5.55-5.55l0,0
	c0.339-0.34,0.808-0.549,1.326-0.549c1.036,0,1.875,0.84,1.875,1.875c0,0.518-0.21,0.987-0.549,1.326l0,0l-5.55,5.55l5.55,5.55l0,0
	c0.339,0.34,0.549,0.808,0.549,1.326C-204.245,213.915-205.085,214.754-206.121,214.754z"/>
<path id="PLAY_2_" style="fill-rule:evenodd;clip-rule:evenodd;fill:#8B8B8B;" d="M-162.062,205.141
	c-0.752,0-1.409-0.405-1.766-1.008l0,0l-8.872-15.015c-0.003-0.005-0.006-0.011-0.01-0.016l-0.005-0.008l0,0
	c-0.181-0.306-0.285-0.662-0.285-1.043c0-1.133,0.918-2.051,2.051-2.051l0,0h17.774l0,0c1.132,0,2.051,0.918,2.051,2.051
	c0,0.381-0.104,0.738-0.285,1.043l0,0l-0.005,0.008c-0.003,0.005-0.006,0.011-0.01,0.016l-8.872,15.015l0,0
	C-160.654,204.736-161.311,205.141-162.062,205.141z"/>
<path id="PLAY_1_" style="fill-rule:evenodd;clip-rule:evenodd;fill:#1C5996;" d="M-280.062,325.141
	c-0.752,0-1.409-0.405-1.766-1.008l0,0l-8.872-15.015c-0.003-0.005-0.006-0.011-0.009-0.016l-0.005-0.008l0,0
	c-0.181-0.306-0.285-0.662-0.285-1.043c0-1.133,0.918-2.051,2.051-2.051l0,0h17.774l0,0c1.132,0,2.051,0.918,2.051,2.051
	c0,0.381-0.104,0.738-0.285,1.043l0,0l-0.005,0.008c-0.003,0.005-0.006,0.011-0.009,0.016l-8.872,15.015l0,0
	C-278.654,324.736-279.311,325.141-280.062,325.141z"/>
<path id="PLAY_3_" style="fill-rule:evenodd;clip-rule:evenodd;fill:#B7B27F;" d="M-238.062,325.141
	c-0.752,0-1.409-0.405-1.766-1.008l0,0l-8.872-15.015c-0.003-0.005-0.006-0.011-0.01-0.016l-0.005-0.008l0,0
	c-0.181-0.306-0.285-0.662-0.285-1.043c0-1.133,0.918-2.051,2.051-2.051l0,0h17.774l0,0c1.132,0,2.051,0.918,2.051,2.051
	c0,0.381-0.104,0.738-0.285,1.043l0,0l-0.005,0.008c-0.003,0.005-0.006,0.011-0.01,0.016l-8.872,15.015l0,0
	C-236.654,324.736-237.311,325.141-238.062,325.141z"/>
<path id="PLAY_4_" style="fill-rule:evenodd;clip-rule:evenodd;fill:#AF9CCE;" d="M-196.062,325.141
	c-0.752,0-1.409-0.405-1.766-1.008l0,0l-8.872-15.015c-0.003-0.005-0.006-0.011-0.01-0.016l-0.005-0.008l0,0
	c-0.181-0.306-0.285-0.662-0.285-1.043c0-1.133,0.918-2.051,2.051-2.051l0,0h17.774l0,0c1.132,0,2.051,0.918,2.051,2.051
	c0,0.381-0.104,0.738-0.285,1.043l0,0l-0.005,0.008c-0.003,0.005-0.006,0.011-0.01,0.016l-8.872,15.015l0,0
	C-194.654,324.736-195.311,325.141-196.062,325.141z"/>
<g>
	<path style="fill:#2A9BDB;" d="M-414.827,277.5c-2.025,0-3.673-1.647-3.673-3.673v-23.654c0-2.025,1.647-3.673,3.673-3.673h23.654
		c2.025,0,3.673,1.647,3.673,3.673v23.654c0,2.025-1.647,3.673-3.673,3.673H-414.827z"/>
	<path style="fill:#1C5996;" d="M-391.173,247c1.75,0,3.173,1.423,3.173,3.173v23.654c0,1.75-1.423,3.173-3.173,3.173h-23.654
		c-1.75,0-3.173-1.423-3.173-3.173v-23.654c0-1.75,1.423-3.173,3.173-3.173H-391.173 M-391.173,246h-23.654
		c-2.305,0-4.173,1.868-4.173,4.173v23.654c0,2.305,1.868,4.173,4.173,4.173h23.654c2.305,0,4.173-1.868,4.173-4.173v-23.654
		C-387,247.868-388.868,246-391.173,246L-391.173,246z"/>
</g>
<polygon style="fill-rule:evenodd;clip-rule:evenodd;" points="-408.5,269.241 -408.5,269.241 -408.5,269.241 "/>
<polygon style="fill-rule:evenodd;clip-rule:evenodd;" points="-397.5,269.241 -397.5,269.241 -397.5,269.241 "/>
<polygon style="fill-rule:evenodd;clip-rule:evenodd;" points="-396,267.741 -396,267.74 -396,267.741 "/>
<path style="fill-rule:evenodd;clip-rule:evenodd;fill:#FFFFFF;" d="M-392.874,258.069l-11.355,11.355l0,0
	c-0.385,0.385-0.918,0.624-1.505,0.624c-0.588,0-1.12-0.238-1.505-0.624l0,0l-6.387-6.387l0,0c-0.385-0.385-0.624-0.918-0.624-1.506
	c0-1.176,0.953-2.129,2.129-2.129c0.588,0,1.12,0.238,1.505,0.624l0,0l4.882,4.882l9.849-9.849l0,0
	c0.385-0.385,0.917-0.624,1.505-0.624c1.176,0,2.129,0.953,2.129,2.129C-392.25,257.151-392.488,257.684-392.874,258.069
	L-392.874,258.069z"/>
<circle style="fill:none;stroke:#2A9BDB;stroke-width:2.0873;stroke-miterlimit:10;" cx="-355.931" cy="256.553" r="6.21"/>
<rect x="-351.509" y="253.669" style="fill:#FFFFFF;" width="3.051" height="2.884"/>
<rect x="-363.542" y="256.553" style="fill:#FFFFFF;" width="3.051" height="2.884"/>
<g>
	<defs>
		
			<rect id="SVGID_5_" x="-363.072" y="257.91" transform="matrix(-1 -0.0021 0.0021 -1 -721.9417 519.8087)" width="4.752" height="4.752"/>
	</defs>
	<clipPath id="SVGID_1_">
		<use xlink:href="#SVGID_5_"  style="overflow:visible;"/>
	</clipPath>
	
		<rect x="-366.294" y="256.246" transform="matrix(-0.7086 0.7056 -0.7056 -0.7086 -436.6973 697.5887)" style="clip-path:url(#SVGID_1_);fill:#2A9BDB;" width="7.804" height="4.752"/>
</g>
<g>
	<defs>
		
			<rect id="SVGID_7_" x="-353.536" y="250.601" transform="matrix(1 0.0021 -0.0021 1 0.5345 0.7436)" width="4.752" height="4.752"/>
	</defs>
	<clipPath id="SVGID_2_">
		<use xlink:href="#SVGID_7_"  style="overflow:visible;"/>
	</clipPath>
	
		<rect x="-353.366" y="252.265" transform="matrix(0.7086 -0.7056 0.7056 0.7086 -281.5102 -172.3827)" style="clip-path:url(#SVGID_2_);fill:#2A9BDB;" width="7.804" height="4.752"/>
</g>
<path d="M-336.245,342.021L-336.245,342.021L-336.245,342.021z"/>
<path d="M-322.495,342.021L-322.495,342.021L-322.495,342.021z"/>
<path d="M-320.62,340.146v-0.001V340.146z"/>
<path id="BIN_2_" style="fill:#C65739;" d="M-237.503,252.246c0-1.14,0.924-2.062,2.062-2.062h10.315v-2.062
	c0-1.14,0.924-2.062,2.062-2.062h4.126c1.139,0,2.062,0.924,2.062,2.062v2.062h10.315c1.14,0,2.062,0.924,2.062,2.062v2.062h-33.006
	V252.246z M-206.559,258.435v4.126v21.318c0,1.139-0.924,2.062-2.062,2.062h-24.755c-1.139,0-2.062-0.924-2.062-2.062v-21.318
	v-4.126v-2.062h28.881v2.062H-206.559z M-227.188,262.561c0-1.139-0.924-2.062-2.062-2.062c-1.139,0-2.062,0.924-2.062,2.062v17.191
	c0,1.14,0.924,2.062,2.062,2.062c1.139,0,2.062-0.924,2.062-2.062V262.561z M-218.937,262.561c0-1.139-0.924-2.062-2.062-2.062
	s-2.062,0.924-2.062,2.062v17.191c0,1.14,0.924,2.062,2.062,2.062c1.139,0,2.062-0.924,2.062-2.062V262.561z M-210.686,262.561
	c0-1.139-0.924-2.062-2.062-2.062s-2.062,0.924-2.062,2.062v17.191c0,1.14,0.924,2.062,2.062,2.062s2.062-0.924,2.062-2.062V262.561
	z"/>
<g>
	<path style="fill:#FFFFFF;" d="M-371,337.953c0,0.992-0.805,1.797-1.797,1.797h-36.405c-0.992,0-1.797-0.805-1.797-1.797V314.3
		c0-1.133,0.918-2.05,2.05-2.05h35.9c1.132,0,2.05,0.918,2.05,2.05V337.953z"/>
	<path id="MAIL_2_" style="fill:#1C5996;" d="M-383.741,324.6l12.167-11.788c0.344,0.34,0.559,0.811,0.559,1.333v23.731
		c0,0.492-0.194,0.938-0.505,1.273L-383.741,324.6z M-410.36,312.76c0.331-0.3,0.767-0.487,1.25-0.487h36.22
		c0.483,0,0.918,0.188,1.25,0.487L-391,327.885L-410.36,312.76z M-410.479,339.149c-0.311-0.334-0.505-0.779-0.505-1.272v-23.73
		c0-0.521,0.214-0.993,0.559-1.333l12.167,11.788L-410.479,339.149z M-391,331.631l5.081-4.921l14.314,12.525
		c-0.335,0.318-0.786,0.515-1.285,0.515h-36.22c-0.499,0-0.949-0.197-1.285-0.515l14.314-12.525L-391,331.631z"/>
</g>
<path d="M-252.887,364.046L-252.887,364.046L-252.887,364.046z"/>
<path d="M-239.137,364.046L-239.137,364.046L-239.137,364.046z"/>
<path d="M-237.262,362.171v-0.001V362.171z"/>
<path id="MAGNIFYING_GLASS_2_" style="fill:#414143;" d="M-312.098,339.61c0.677,0.679,1.098,1.616,1.098,2.651
	c0,2.071-1.679,3.75-3.75,3.75c-1.035,0-1.973-0.42-2.651-1.099l0,0l-10.99-10.99c-2.234,1.319-4.828,2.089-7.609,2.089
	c-8.284,0-15-6.715-15-15c0-8.284,6.716-15,15-15s15,6.716,15,15c0,2.78-0.77,5.375-2.089,7.607L-312.098,339.61L-312.098,339.61z
	 M-336,309.761c-6.214,0-11.25,5.036-11.25,11.25s5.036,11.25,11.25,11.25s11.25-5.038,11.25-11.25
	C-324.75,314.798-329.786,309.761-336,309.761z"/>
<g>
	<path d="M-107.859,275.068L-107.859,275.068L-107.859,275.068z"/>
	<path d="M-94.109,275.068L-94.109,275.068L-94.109,275.068z"/>
	<path d="M-92.234,273.193v-0.001V273.193z"/>
	<path style="fill:#1C5996;" d="M-82.185,278.353l-18.074,7.479c-0.228,0.098-0.478,0.152-0.741,0.152s-0.514-0.055-0.741-0.152
		l-18.074-7.479c-0.685-0.279-1.169-0.951-1.169-1.736V247.89c0-1.035,0.839-1.874,1.874-1.874c0.254,0,0.495,0.051,0.716,0.142l0,0
		l0.003,0.001c0.006,0.003,0.011,0.004,0.018,0.006l17.374,7.189l17.374-7.189c0.005-0.003,0.011-0.005,0.016-0.008l0.003-0.001l0,0
		c0.222-0.09,0.464-0.141,0.717-0.141c1.035,0,1.874,0.839,1.874,1.874v28.726C-81.016,277.401-81.5,278.074-82.185,278.353z"/>
	<polygon style="fill:#FFFFFF;" points="-102.679,281.688 -102.679,256.75 -117.196,250.743 -117.196,275.68 	"/>
	<polygon style="fill:#FFFFFF;" points="-84.374,250.743 -98.891,256.75 -98.891,281.688 -84.374,275.68 	"/>
</g>
<g>
	<path style="fill:#FFFFFF;" d="M-175.793,285.375c-2.531,0-4.591-2.059-4.591-4.591v-29.567c0-2.531,2.059-4.591,4.591-4.591
		h29.567c2.531,0,4.591,2.059,4.591,4.591v29.567c0,2.531-2.059,4.591-4.591,4.591H-175.793z"/>
	<path style="fill:#FFDA59;" d="M-146.225,247.25c2.188,0,3.966,1.779,3.966,3.966v29.567c0,2.188-1.779,3.966-3.966,3.966h-29.567
		c-2.188,0-3.966-1.779-3.966-3.966v-29.567c0-2.188,1.779-3.966,3.966-3.966H-146.225 M-146.225,246h-29.567
		c-2.881,0-5.216,2.335-5.216,5.216v29.567c0,2.881,2.335,5.216,5.216,5.216h29.567c2.881,0,5.216-2.335,5.216-5.216v-29.567
		C-141.009,248.335-143.344,246-146.225,246L-146.225,246z"/>
</g>
<path d="M-167.884,275.051L-167.884,275.051L-167.884,275.051z"/>
<path d="M-154.134,275.051L-154.134,275.051L-154.134,275.051z"/>
<path d="M-152.259,273.176v-0.001V273.176z"/>
<path id="RESIZE_1_7_" style="fill:#6F6600;" d="M-145.488,258.484L-145.488,258.484c0,0.884-0.716,1.601-1.601,1.601
	c-0.884,0-1.601-0.716-1.601-1.601l0,0v-2.539l-7.94,7.94c-0.29,0.29-0.69,0.469-1.133,0.469c-0.884,0-1.601-0.716-1.601-1.601
	c0-0.443,0.179-0.842,0.469-1.133l0,0l7.94-7.94h-2.539l0,0c-0.884,0-1.601-0.717-1.601-1.601c0-0.884,0.716-1.601,1.601-1.601l0,0
	h6.404l0,0c0.884,0,1.601,0.717,1.601,1.601l0,0v6.405H-145.488z M-163.034,270.289l-7.94,7.94h2.539l0,0
	c0.884,0,1.601,0.716,1.601,1.601c0,0.884-0.716,1.601-1.601,1.601l0,0h-6.404l0,0c-0.884,0-1.601-0.717-1.601-1.601l0,0v-6.404l0,0
	c0-0.884,0.716-1.601,1.601-1.601c0.884,0,1.601,0.716,1.601,1.601l0,0v2.539l7.94-7.94c0.29-0.29,0.69-0.469,1.133-0.469
	c0.884,0,1.601,0.716,1.601,1.601C-162.565,269.599-162.744,269.999-163.034,270.289L-163.034,270.289z"/>
<path style="fill:#6F6600;" d="M-155.704,261.195c0.494,0.494,0.399,1.388-0.211,1.997l-7.559,7.559
	c-0.61,0.61-1.505,0.705-1.998,0.211l-0.47-0.47c-0.494-0.494-0.399-1.387,0.211-1.997l7.559-7.559
	c0.61-0.61,1.505-0.705,1.998-0.211L-155.704,261.195z"/>
<g>
	<path d="M-457.875,335.067L-457.875,335.067L-457.875,335.067z"/>
	<path d="M-444.125,335.067L-444.125,335.067L-444.125,335.067z"/>
	<polygon points="-442.25,333.193 -442.25,333.192 -442.25,333.192 	"/>
	<path style="fill:#1C5996;" d="M-432.59,318.822c-1.978-4.616-5.679-8.318-10.295-10.295c1.249-0.983,2.82-1.574,4.531-1.574
		c4.053,0,7.338,3.285,7.338,7.337C-431.016,316.002-431.608,317.573-432.59,318.822z"/>
	<path style="fill:#1C5996;" d="M-432.89,326.937c0,4.811-1.889,9.172-4.949,12.415l2.533,2.533c0.335,0.335,0.542,0.799,0.542,1.31
		c0,1.023-0.829,1.853-1.852,1.853c-0.511,0-0.975-0.207-1.31-0.543l-2.721-2.721c-2.936,2.051-6.5,3.264-10.354,3.264
		c-3.845,0-7.404-1.207-10.336-3.251l-2.703,2.703c-0.339,0.339-0.807,0.549-1.325,0.549c-1.035,0-1.874-0.839-1.874-1.874
		c0-0.517,0.21-0.986,0.549-1.325l2.513-2.512c-3.051-3.241-4.935-7.596-4.935-12.4c0.003-10.001,8.11-18.109,18.113-18.109
		S-432.89,316.934-432.89,326.937z"/>
	<circle style="fill:#FFFFFF;" cx="-451" cy="326.937" r="14.364"/>
	<path style="fill:#1C5996;" d="M-443.506,328.811H-451c-1.035,0-1.874-0.839-1.874-1.874v-9.991c0-1.035,0.839-1.874,1.874-1.874
		s1.874,0.839,1.874,1.874v8.119h5.62c1.035,0,1.874,0.839,1.874,1.874C-441.633,327.972-442.471,328.811-443.506,328.811z"/>
	<path style="fill:#1C5996;" d="M-469.376,319.076c-1.004-1.275-1.608-2.88-1.608-4.629c0-4.139,3.355-7.494,7.494-7.494
		c1.749,0,3.354,0.604,4.629,1.608C-463.576,310.581-467.356,314.361-469.376,319.076z"/>
</g>
<path id="SPEECH_BUBBLE_1_2_" style="fill-rule:evenodd;clip-rule:evenodd;fill:#FFFFFF;" d="M-139.197,316.774
	c8.82,0,14.197,5.151,14.197,11.504c0,6.354-5.376,11.435-14.197,11.435c-1.075,0-2.125-0.311-3.14-0.457
	c-4.106,5.191-10.582,4.17-10.582,4.17c4.574-2.165,4.482-5.751,3.668-6.229c-3.59-2.11-5.749-5.322-5.749-8.92
	C-155,321.924-148.017,316.774-139.197,316.774z"/>
<circle style="fill:#2A9BDB;" cx="25" cy="24.995" r="25"/>
<circle style="fill:#2A9BDB;" cx="95" cy="24.995" r="25"/>
<path style="fill:#2A9BDB;" d="M-20,331.25C-20,344.919-31.081,356-44.75,356h-25.5C-83.919,356-95,344.919-95,331.25v-0.5
	C-95,317.081-83.919,306-70.25,306h25.5C-31.081,306-20,317.081-20,330.75V331.25z"/>
<path style="fill-rule:evenodd;clip-rule:evenodd;fill:#FFFFFF;" d="M-76.02,314.716c2.003,0.035,3.832,4.058,4.733,5.492
	c0.349,0.555,1.291,1.334,0.876,2.396c-0.664,1.7-3.144,1.67-3.506,3.798c-0.264,1.551,1.684,4.171,2.337,5.083
	c1.466,2.047,3.505,3.541,5.726,4.85c0.694,0.409,1.881,1.265,3.097,0.876c1.619-0.517,2.214-4.208,4.441-3.506
	c1.753,1.149,3.506,2.298,5.259,3.447c0.533,0.351,1.325,0.612,1.578,1.227c0.665,1.617-1.449,4.923-2.279,5.551
	c-2.474,1.873-9.48-0.084-11.511-0.935c-6.763-2.832-12.006-8.154-14.724-15.017c-0.777-1.962-2.147-8.392-0.701-10.693
	C-79.716,315.731-77.811,315.507-76.02,314.716z"/>
<path id="ARROW__x2F__DOWN_2_" style="fill-rule:evenodd;clip-rule:evenodd;fill:#FFFFFF;" d="M-44.365,328.85l6.362,6.362
	l6.445-6.445l0,0c0.218-0.211,0.515-0.34,0.843-0.34c0.671,0,1.214,0.544,1.214,1.214c0,0.327-0.13,0.624-0.34,0.843l0,0
	l-7.286,7.286l0,0c-0.221,0.229-0.531,0.372-0.874,0.372c-0.001,0-0.002,0-0.003,0c-0.001,0-0.002,0-0.002,0
	c-0.344,0-0.654-0.143-0.875-0.372l0,0l-7.286-7.286l0.003-0.003c-0.209-0.218-0.338-0.514-0.338-0.84
	c0-0.671,0.544-1.214,1.214-1.214C-44.917,328.427-44.588,328.591-44.365,328.85z"/>
<circle style="fill:#5CBC73;" cx="-356" cy="391" r="15"/>
<path id="TICK_2_" style="fill-rule:evenodd;clip-rule:evenodd;fill:#FFFFFF;stroke:#FFFFFF;stroke-miterlimit:10;" d="
	M-348.814,387.651L-348.814,387.651l-8.214,8.214l0,0c-0.194,0.194-0.462,0.314-0.758,0.314s-0.564-0.12-0.758-0.314l0,0
	l-4.643-4.643l0,0c-0.194-0.194-0.314-0.462-0.314-0.758c0-0.592,0.48-1.071,1.071-1.071c0.296,0,0.564,0.12,0.758,0.314l0,0
	l3.885,3.885l7.457-7.457l0,0c0.194-0.194,0.462-0.314,0.758-0.314c0.592,0,1.071,0.48,1.071,1.072
	C-348.5,387.189-348.62,387.457-348.814,387.651z"/>
<path id="MINUS_2_" style="fill-rule:evenodd;clip-rule:evenodd;fill:#FFFFFF;stroke:#FFFFFF;stroke-width:2;stroke-miterlimit:10;" d="
	M-399.478,391.978h-5.543h-1.957h-5.543c-0.54,0-0.978-0.438-0.978-0.978c0-0.54,0.438-0.978,0.978-0.978h5.543h1.957h5.543
	c0.54,0,0.978,0.438,0.978,0.978C-398.5,391.54-398.938,391.978-399.478,391.978z"/>
<path style="fill-rule:evenodd;clip-rule:evenodd;fill:#FFFFFF;" d="M-239.074,380.429c0-2.047-2.109-3.602-4.273-2.61
	c-1.016,0.466-1.486,1.546-1.563,2.661c-0.026,0.379-0.342,0.679-0.728,0.679c-0.403,0-0.729-0.327-0.729-0.729
	c0-2.713,2.468-4.849,5.281-4.285c2.062,0.413,3.471,2.347,3.471,4.45V382c-0.486,0-0.972,0-1.459,0V380.429z M-229.108,383.833
	h-1.216h-1.459h-5.835V382c-0.486,0-0.972,0-1.459,0v1.833h-1.216c-0.403,0-0.729,0.327-0.729,0.729v6.321
	c0,0.403,0.327,0.729,0.729,0.729h11.183c0.403,0,0.729-0.327,0.729-0.729v-6.321C-228.379,384.16-228.706,383.833-229.108,383.833z
	"/>
<path style="fill-rule:evenodd;clip-rule:evenodd;fill:#FFFFFF;" d="M-267.097,391.613h-11.175c-0.403,0-0.729-0.326-0.729-0.729
	v-6.316c0-0.402,0.326-0.729,0.729-0.729h1.215v-3.401c0-2.415,1.958-4.373,4.373-4.373c2.415,0,4.373,1.958,4.373,4.373v3.401
	h1.215c0.402,0,0.729,0.326,0.729,0.729v6.316C-266.368,391.286-266.694,391.613-267.097,391.613z M-269.769,380.438
	c0-1.61-1.305-2.915-2.915-2.915c-1.61,0-2.915,1.305-2.915,2.915v3.401h5.83V380.438z"/>
<g>
	<path style="fill-rule:evenodd;clip-rule:evenodd;fill:#FFFFFF;" d="M-180.73,380h-25.696c-1.079,0-1.954-0.886-1.954-1.98v-0.04
		c0-1.094,0.875-1.98,1.954-1.98h25.696c1.079,0,1.954,0.886,1.954,1.98v0.04C-178.776,379.114-179.65,380-180.73,380z"/>
	<path style="fill-rule:evenodd;clip-rule:evenodd;fill:#FFFFFF;" d="M-180.73,390h-25.696c-1.079,0-1.954-0.886-1.954-1.98v-0.04
		c0-1.094,0.875-1.98,1.954-1.98h25.696c1.079,0,1.954,0.886,1.954,1.98v0.04C-178.776,389.114-179.65,390-180.73,390z"/>
	<path style="fill-rule:evenodd;clip-rule:evenodd;fill:#FFFFFF;" d="M-180.73,401h-25.696c-1.079,0-1.954-0.886-1.954-1.98v-0.04
		c0-1.094,0.875-1.98,1.954-1.98h25.696c1.079,0,1.954,0.886,1.954,1.98v0.04C-178.776,400.114-179.65,401-180.73,401z"/>
</g>
<path id="MORE_2_" style="fill-rule:evenodd;clip-rule:evenodd;fill:#FFFFFF;" d="M-136.776,382.001c-1.657,0-3-1.343-3-3.001
	c0-1.657,1.343-3.001,3-3.001c1.657,0,3,1.343,3,3.001C-133.776,380.658-135.119,382.001-136.776,382.001z M-146.276,382.001
	c-1.657,0-3-1.343-3-3.001c0-1.657,1.343-3.001,3-3.001c1.657,0,3,1.343,3,3.001C-143.276,380.658-144.619,382.001-146.276,382.001z
	 M-155.776,382.001c-1.657,0-3-1.343-3-3.001c0-1.657,1.343-3.001,3-3.001c1.657,0,3,1.343,3,3.001
	C-152.775,380.658-154.119,382.001-155.776,382.001z"/>
<path id="BROWSER_LAYOUT_3_2_" style="fill-rule:evenodd;clip-rule:evenodd;fill:#FFFFFF;" d="M-448,444.922
	c0,0.595-0.483,1.078-1.078,1.078h-20.844c-0.595,0-1.078-0.483-1.078-1.078v-17.844c0-0.595,0.483-1.078,1.078-1.078h20.844
	c0.595,0,1.078,0.483,1.078,1.078V444.922z M-453,445h4v-9h-0.103l0,0H-453V445z M-464,445h10v-9h-10V445z M-470,445h5v-9h-5V445z
	 M-468.545,427.016c-0.595,0-1.078,0.483-1.078,1.078s0.483,1.078,1.078,1.078s1.078-0.483,1.078-1.078
	S-467.949,427.016-468.545,427.016z M-465.31,427.016c-0.595,0-1.078,0.483-1.078,1.078s0.483,1.078,1.078,1.078
	c0.595,0,1.078-0.483,1.078-1.078S-464.715,427.016-465.31,427.016z M-462.076,427.016c-0.595,0-1.078,0.483-1.078,1.078
	s0.483,1.078,1.078,1.078c0.595,0,1.078-0.483,1.078-1.078S-461.481,427.016-462.076,427.016z M-449.857,430h-18.688H-470v5h4.69
	h1.078h10.062h1.078h3.989l0,0H-449v-5H-449.857z"/>
<path id="EQUALIZER_2_" style="fill-rule:evenodd;clip-rule:evenodd;fill:#FFFFFF;" d="M-406.232,436.313h-2.464
	c-0.68,0-1.232-0.42-1.232-0.938v-3.75c0-0.518,0.552-0.937,1.232-0.937h2.464c0.68,0,1.232,0.42,1.232,0.937v3.75
	C-405,435.893-405.552,436.313-406.232,436.313z M-408.696,426.938c0-0.518,0.552-0.938,1.232-0.938c0.681,0,1.232,0.42,1.232,0.938
	v2.813h-2.464V426.938z M-415.268,441.312h-2.464c-0.68,0-1.232-0.42-1.232-0.937v-3.75c0-0.518,0.552-0.938,1.232-0.938h2.464
	c0.68,0,1.232,0.42,1.232,0.938v3.75C-414.036,440.893-414.587,441.312-415.268,441.312z M-417.732,426.938
	c0-0.518,0.552-0.938,1.232-0.938s1.232,0.42,1.232,0.938v7.813h-2.464V426.938z M-424.304,438.812h-2.464
	c-0.681,0-1.232-0.42-1.232-0.938v-3.75c0-0.518,0.552-0.938,1.232-0.938h2.464c0.68,0,1.232,0.42,1.232,0.938v3.75
	C-423.071,438.393-423.623,438.812-424.304,438.812z M-426.768,426.938c0-0.518,0.552-0.938,1.232-0.938s1.232,0.42,1.232,0.938
	v5.313h-2.464V426.938z M-424.304,445.062c0,0.518-0.552,0.938-1.232,0.938s-1.232-0.42-1.232-0.938v-5.312h2.464V445.062z
	 M-415.268,445.062c0,0.518-0.552,0.938-1.232,0.938s-1.232-0.42-1.232-0.938v-2.812h2.464V445.062z M-406.232,445.062
	c0,0.518-0.552,0.938-1.232,0.938c-0.68,0-1.232-0.42-1.232-0.938v-7.812h2.464V445.062z"/>
<path id="LINE_GRAPH_4_" style="fill-rule:evenodd;clip-rule:evenodd;fill:#FFFFFF;" d="M-282.215,433.231l-0.011,0.007l0,0
	l-9.332,6.461l-0.001-0.001c-0.174,0.121-0.445,0.193-0.674,0.193c-0.221,0-0.299-0.067-0.658-0.181v0l0.057-0.003
	c0,0,0.029-0.001,0.029-0.001l-4.808-3.215l-4.98,2.938v4.414h19.765c0.595,0,1.078,0.483,1.078,1.078
	c0,0.595-0.483,1.078-1.078,1.078h-20.843c-0.595,0-1.078-0.483-1.078-1.078v-17.249c0-0.595,0.483-1.078,1.078-1.078
	s1.078,0.483,1.078,1.078v9.255l4.484-2.638l0.002,0.004c0.16-0.095,0.405-0.152,0.605-0.152c0.221,0,0.573,0.184,0.573,0.185
	l4.76,3.184l8.734-6.052l-0.003,0.001c0.174-0.121,0.383-0.193,0.611-0.193c0.595,0,1.077,0.483,1.077,1.078
	C-281.75,432.712-281.935,433.035-282.215,433.231L-282.215,433.231z"/>
<path id="SPEECH_BUBBLES_2_" style="fill-rule:evenodd;clip-rule:evenodd;fill:#FFFFFF;" d="M-364.617,435.295
	c-0.37,0.217-0.412,1.849,1.669,2.835c0,0-2.947,0.465-4.816-1.898c-0.462,0.066-0.94,0.208-1.429,0.208
	c-4.014,0-6.461-2.312-6.461-5.204c0-2.891,2.447-5.236,6.461-5.236c4.014,0,7.192,2.344,7.192,5.236
	C-362,432.873-362.983,434.335-364.617,435.295z M-377.011,431.753c0.182,3.2,2.996,5.879,7.318,6.149
	c0.487,0.019,0.964-0.099,1.431-0.171c0-0.002,0-0.004,0-0.006l0.127-0.032c1.247,1.282,2.822,1.526,3.731,1.547
	c-0.912,3.495-4.389,6.067-9.616,6.067c-0.747,0-1.476-0.216-2.182-0.317c-2.853,3.606-7.352,2.897-7.352,2.897
	c3.178-1.504,3.114-3.996,2.549-4.327c-2.495-1.466-3.995-3.697-3.995-6.197c0-3.762,3.529-6.909,8.364-7.759
	C-376.901,430.278-377.036,431.003-377.011,431.753z"/>
<path id="PIN_2" style="fill-rule:evenodd;clip-rule:evenodd;fill:#FFFFFF;" d="M-333.375,449c0,0-8.625-9.612-8.625-14.375
	c0-4.763,3.862-8.625,8.625-8.625c4.763,0,8.625,3.862,8.625,8.625C-324.75,439.388-333.375,449-333.375,449z M-333.375,428.875
	c-3.175,0-5.75,2.575-5.75,5.75c0,3.175,2.575,5.75,5.75,5.75s5.75-2.575,5.75-5.75C-327.625,431.45-330.2,428.875-333.375,428.875z
	 M-333.375,437.5c-1.588,0-2.875-1.287-2.875-2.875c0-1.588,1.287-2.875,2.875-2.875c1.588,0,2.875,1.287,2.875,2.875
	C-330.5,436.213-331.787,437.5-333.375,437.5z"/>
<path style="fill-rule:evenodd;clip-rule:evenodd;fill:#FFFFFF;" d="M15.987,10.284c2.003,0.035,3.832,4.058,4.733,5.492
	c0.349,0.555,1.291,1.334,0.876,2.396c-0.664,1.7-3.144,1.67-3.506,3.798c-0.264,1.551,1.684,4.171,2.337,5.083
	c1.466,2.047,3.505,3.541,5.726,4.85c0.694,0.409,1.881,1.265,3.097,0.876c1.619-0.517,2.214-4.208,4.441-3.506
	c1.753,1.149,3.506,2.298,5.259,3.447c0.533,0.351,1.325,0.612,1.578,1.227c0.665,1.617-1.449,4.923-2.279,5.551
	c-2.474,1.873-9.48-0.084-11.511-0.935c-6.763-2.832-12.006-8.154-14.724-15.017c-0.777-1.962-2.147-8.392-0.701-10.693
	C12.29,11.299,14.196,11.074,15.987,10.284z"/>
<g>
	<path style="fill-rule:evenodd;clip-rule:evenodd;fill:#FFFFFF;" d="M99.576,33.14H81.74c-0.938,0-1.699-0.761-1.699-1.699V19.126
		c0-0.938,0.761-1.699,1.699-1.699h17.836c0.938,0,1.699,0.761,1.699,1.699v12.315C101.274,32.379,100.514,33.14,99.576,33.14z"/>
	<path style="fill-rule:evenodd;clip-rule:evenodd;fill:#FFFFFF;" d="M111.215,33.013c-0.787-0.038-1.563-0.357-2.164-0.958
		l-4.369-4.369c-1.327-1.327-1.327-3.478,0-4.805l4.369-4.369c0.601-0.601,1.377-0.92,2.164-0.958"/>
</g>
</svg>
