<?xml version="1.0" encoding="utf-8"?>
<!-- Generator: Adobe Illustrator 18.1.0, SVG Export Plug-In . SVG Version: 6.00 Build 0)  -->
<!DOCTYPE svg PUBLIC "-//W3C//DTD SVG 1.1//EN" "http://www.w3.org/Graphics/SVG/1.1/DTD/svg11.dtd">
<svg version="1.1" id="Layer_1" xmlns="http://www.w3.org/2000/svg" xmlns:xlink="http://www.w3.org/1999/xlink" x="0px" y="0px"
	 viewBox="0 0 750 750" enable-background="new 0 0 750 750" xml:space="preserve">
<circle fill="#FFFFFF" cx="375" cy="375" r="375"/>
<path fill="#C65739" d="M375,750C168,750,0,582,0,375S168,0,375,0s375,168,375,375S582,750,375,750z M375,70.5
	C207,70.5,70.5,207,70.5,375S207,679.5,375,679.5S679.5,543,679.5,375S543,70.5,375,70.5z M534.3,257.7L417,375l117.3,117.3l0,0
	c5.4,5.4,8.7,12.8,8.7,20.8c0,16.5-13.4,29.6-29.6,29.6c-8.1,0-15.5-3.4-20.8-8.7l0,0L375,417L257.7,534.3l0,0
	c-5.4,5.4-12.8,8.7-20.8,8.7c-16.5,0-29.9-13.4-29.9-29.6c0-8.1,3.4-15.5,8.7-20.8l0,0L333,375L215.7,257.7l0,0
	c-5.4-5.4-8.7-12.8-8.7-21.2c0-16.1,13.4-29.6,29.6-29.6c8.1,0,15.5,3.4,20.8,8.7l0,0L375,333l117.3-117.3l0,0
	c5.4-5.4,12.8-8.7,21.2-8.7c16.1,0,29.6,13.4,29.6,29.6C543,245,539.6,252.4,534.3,257.7L534.3,257.7z"/>
</svg>
