<?xml version="1.0" encoding="utf-8"?>
<!-- Generator: Adobe Illustrator 18.1.0, SVG Export Plug-In . SVG Version: 6.00 Build 0)  -->
<!DOCTYPE svg PUBLIC "-//W3C//DTD SVG 1.1//EN" "http://www.w3.org/Graphics/SVG/1.1/DTD/svg11.dtd">
<svg version="1.1" id="Layer_1" xmlns="http://www.w3.org/2000/svg" xmlns:xlink="http://www.w3.org/1999/xlink" x="0px" y="0px"
	 viewBox="0 0 21 21" enable-background="new 0 0 21 21" xml:space="preserve">
<path id="MAGNIFYING_GLASS_2_" fill="#FFFFFF" d="M15.7,14.2c0.2,0.2,0.3,0.4,0.3,0.7c0,0.6-0.5,1-1,1c-0.3,0-0.5-0.1-0.7-0.3l0,0
	l-3-3c-0.6,0.4-1.3,0.6-2.1,0.6C6.8,13.2,5,11.4,5,9.1S6.8,5,9.1,5s4.1,1.8,4.1,4.1c0,0.8-0.2,1.5-0.6,2.1L15.7,14.2L15.7,14.2z
	 M9.1,6C7.4,6,6,7.4,6,9.1s1.4,3.1,3.1,3.1s3.1-1.4,3.1-3.1S10.8,6,9.1,6z"/>
<circle opacity="0.3" fill="#FFFFFF" cx="10.5" cy="10.5" r="10.5"/>
</svg>
