<?xml version="1.0" encoding="utf-8"?>
<!-- Generator: Adobe Illustrator 18.0.0, SVG Export Plug-In . SVG Version: 6.00 Build 0)  -->
<!DOCTYPE svg PUBLIC "-//W3C//DTD SVG 1.1//EN" "http://www.w3.org/Graphics/SVG/1.1/DTD/svg11.dtd">
<svg version="1.1" id="Layer_1" xmlns="http://www.w3.org/2000/svg" xmlns:xlink="http://www.w3.org/1999/xlink" x="0px" y="0px"
	 viewBox="0 0 128 128" enable-background="new 0 0 128 128" xml:space="preserve">
<circle fill="#B3B3B3" cx="64" cy="64" r="64"/>
<path id="CLOSE_2_" fill="#FFFFFF" d="M98.7,38.4L73.1,64l25.6,25.6l0,0c1.2,1.2,1.9,2.8,1.9,4.6c0,3.6-2.9,6.5-6.5,6.5
	c-1.8,0-3.4-0.7-4.6-1.9l0,0L64,73.1L38.4,98.7l0,0c-1.2,1.2-2.8,1.9-4.6,1.9c-3.6,0-6.5-2.9-6.5-6.5c0-1.8,0.7-3.4,1.9-4.6l0,0
	L54.9,64L29.3,38.4l0,0c-1.2-1.2-1.9-2.8-1.9-4.6c0-3.6,2.9-6.5,6.5-6.5c1.8,0,3.4,0.7,4.6,1.9l0,0L64,54.9l25.6-25.6l0,0
	c1.2-1.2,2.8-1.9,4.6-1.9c3.6,0,6.5,2.9,6.5,6.5C100.6,35.7,99.8,37.3,98.7,38.4L98.7,38.4z"/>
</svg>
