<?xml version="1.0" encoding="utf-8"?>
<!-- Generator: Adobe Illustrator 18.0.0, SVG Export Plug-In . SVG Version: 6.00 Build 0)  -->
<!DOCTYPE svg PUBLIC "-//W3C//DTD SVG 1.1//EN" "http://www.w3.org/Graphics/SVG/1.1/DTD/svg11.dtd">
<svg version="1.1" id="Layer_1" xmlns="http://www.w3.org/2000/svg" xmlns:xlink="http://www.w3.org/1999/xlink" x="0px" y="0px"
	 viewBox="0 0 128 128" enable-background="new 0 0 128 128" xml:space="preserve">
<path id="MAGNIFYING_GLASS_2_" fill-rule="evenodd" clip-rule="evenodd" fill="#E6E6E6" d="M124.5,107.5c2.2,2.2,3.5,5.2,3.5,8.5
	c0,6.6-5.4,12-12,12c-3.3,0-6.3-1.3-8.5-3.5l0,0L72.3,89.3C65.2,93.5,56.9,96,48,96C21.5,96,0,74.5,0,48C0,21.5,21.5,0,48,0
	c26.5,0,48,21.5,48,48c0,8.9-2.5,17.2-6.7,24.3L124.5,107.5L124.5,107.5z M48,12c-19.9,0-36,16.1-36,36c0,19.9,16.1,36,36,36
	c19.9,0,36-16.1,36-36C84,28.1,67.9,12,48,12z"/>
</svg>
