<?xml version="1.0" encoding="utf-8"?>
<!-- Generator: Adobe Illustrator 18.1.0, SVG Export Plug-In . SVG Version: 6.00 Build 0)  -->
<!DOCTYPE svg PUBLIC "-//W3C//DTD SVG 1.1//EN" "http://www.w3.org/Graphics/SVG/1.1/DTD/svg11.dtd">
<svg version="1.1" id="Layer_1" xmlns="http://www.w3.org/2000/svg" xmlns:xlink="http://www.w3.org/1999/xlink" x="0px" y="0px"
	 viewBox="0 0 750 500" enable-background="new 0 0 750 500" xml:space="preserve">
<path fill="#2A9BDB" d="M750,252.5C750,389.2,639.2,500,502.5,500h-255C110.8,500,0,389.2,0,252.5v-5C0,110.8,110.8,0,247.5,0h255
	C639.2,0,750,110.8,750,247.5V252.5z"/>
<path fill="#FFFFFF" d="M189.8,87.2c20,0.3,38.3,40.6,47.3,54.9c3.5,5.6,12.9,13.3,8.8,24c-6.6,17-31.4,16.7-35.1,38
	c-2.6,15.5,16.8,41.7,23.4,50.8c14.7,20.5,35.1,35.4,57.3,48.5c6.9,4.1,18.8,12.6,31,8.8c16.2-5.2,22.1-42.1,44.4-35.1
	c17.5,11.5,35.1,23,52.6,34.5c5.3,3.5,13.3,6.1,15.8,12.3c6.7,16.2-14.5,49.2-22.8,55.5c-24.7,18.7-94.8-0.8-115.1-9.4
	c-67.6-28.3-120.1-81.5-147.2-150.2c-7.8-19.6-21.5-83.9-7-106.9C152.8,97.3,171.9,95.1,189.8,87.2z"/>
<path id="ARROW__x2F__DOWN_2_" fill="#FFFFFF" d="M506.3,228.5l63.6,63.6l64.5-64.4l0,0c2.2-2.1,5.1-3.4,8.4-3.4
	c6.7,0,12.1,5.4,12.1,12.1c0,3.3-1.3,6.2-3.4,8.4l0,0l-72.9,72.9l0,0c-2.2,2.3-5.3,3.7-8.7,3.7c0,0,0,0,0,0c0,0,0,0,0,0
	c-3.4,0-6.5-1.4-8.7-3.7l0,0l-72.9-72.9l0,0c-2.1-2.2-3.4-5.1-3.4-8.4c0-6.7,5.4-12.1,12.1-12.1
	C500.8,224.3,504.1,225.9,506.3,228.5z"/>
</svg>
