<?xml version="1.0" encoding="utf-8"?>
<!-- Generator: Adobe Illustrator 17.1.0, SVG Export Plug-In . SVG Version: 6.00 Build 0)  -->
<!DOCTYPE svg PUBLIC "-//W3C//DTD SVG 1.1//EN" "http://www.w3.org/Graphics/SVG/1.1/DTD/svg11.dtd">
<svg version="1.1" id="Layer_1" xmlns="http://www.w3.org/2000/svg" xmlns:xlink="http://www.w3.org/1999/xlink" x="0px" y="0px"
	 viewBox="0 0 120 120" enable-background="new 0 0 120 120" xml:space="preserve">
<path fill="#5CBC73" d="M120,60.6c0,32.7-26.7,59.4-59.4,59.4H0V59.4C0,26.7,26.7,0,59.4,0h1.2C93.3,0,120,26.7,120,59.4V60.6z
	 M21.6,104.6c0-0.7-0.6-1.2-1.2-1.2c-0.3,0-0.6,0.1-0.9,0.4l0,0l-8.6,8.6l-4.5-4.5l0,0c-0.2-0.2-0.5-0.4-0.9-0.4
	c-0.7,0-1.2,0.6-1.2,1.2c0,0.3,0.1,0.6,0.4,0.9l0,0l5.3,5.3l0,0c0.2,0.2,0.5,0.4,0.9,0.4c0.3,0,0.6-0.1,0.9-0.4l0,0l9.5-9.5l0,0
	C21.5,105.2,21.6,104.9,21.6,104.6z M60,6.8C30.6,6.8,6.8,30.6,6.8,60s23.8,53.2,53.2,53.2s53.2-23.8,53.2-53.2S89.4,6.8,60,6.8z"/>
</svg>
