<?xml version="1.0" encoding="utf-8"?>
<!-- Generator: Adobe Illustrator 17.1.0, SVG Export Plug-In . SVG Version: 6.00 Build 0)  -->
<!DOCTYPE svg PUBLIC "-//W3C//DTD SVG 1.1//EN" "http://www.w3.org/Graphics/SVG/1.1/DTD/svg11.dtd">
<svg version="1.1" id="Layer_1" xmlns="http://www.w3.org/2000/svg" xmlns:xlink="http://www.w3.org/1999/xlink" x="0px" y="0px"
	 viewBox="0 0 120 120" enable-background="new 0 0 120 120" xml:space="preserve">
<path fill="#D43A3A" d="M120,60.6c0,32.7-26.7,59.4-59.4,59.4H0V59.4C0,26.7,26.7,0,59.4,0h1.2C93.3,0,120,26.7,120,59.4V60.6z
	 M60,7C30.7,7,7,30.7,7,60s23.7,53,53,53s53-23.7,53-53S89.3,7,60,7z M17.5,103.8c0.2-0.2,0.4-0.5,0.4-0.9c0-0.7-0.5-1.2-1.2-1.2
	c-0.3,0-0.6,0.1-0.9,0.4l0,0l-4.8,4.8l-4.8-4.8l0,0c-0.2-0.2-0.5-0.4-0.9-0.4c-0.7,0-1.2,0.5-1.2,1.2c0,0.3,0.1,0.6,0.4,0.9l0,0
	l4.8,4.8l-4.8,4.8l0,0c-0.2,0.2-0.4,0.5-0.4,0.9c0,0.7,0.5,1.2,1.2,1.2c0.3,0,0.6-0.1,0.9-0.4l0,0l4.8-4.8l4.8,4.8l0,0
	c0.2,0.2,0.5,0.4,0.9,0.4c0.7,0,1.2-0.5,1.2-1.2c0-0.3-0.1-0.6-0.4-0.9l0,0l-4.8-4.8L17.5,103.8L17.5,103.8z"/>
</svg>
