<?xml version="1.0" encoding="utf-8"?>
<!-- Generator: Adobe Illustrator 17.1.0, SVG Export Plug-In . SVG Version: 6.00 Build 0)  -->
<!DOCTYPE svg PUBLIC "-//W3C//DTD SVG 1.1//EN" "http://www.w3.org/Graphics/SVG/1.1/DTD/svg11.dtd">
<svg version="1.1" id="Layer_1" xmlns="http://www.w3.org/2000/svg" xmlns:xlink="http://www.w3.org/1999/xlink" x="0px" y="0px"
	 viewBox="0 0 120 120" enable-background="new 0 0 120 120" xml:space="preserve">
<path fill="#D43A3A" d="M0,59.4C0,26.7,26.7,0,59.4,0l1.2,0C93.3,0,120,26.7,120,59.4V120H59.4C26.7,120,0,93.3,0,60.6L0,59.4z
	 M7,60c0,29.3,23.7,53,53,53s53-23.7,53-53S89.3,7,60,7S7,30.7,7,60z M102.5,103.8l4.8,4.8l-4.8,4.8l0,0c-0.2,0.2-0.4,0.5-0.4,0.9
	c0,0.7,0.5,1.2,1.2,1.2c0.3,0,0.6-0.1,0.9-0.4l0,0l4.8-4.8l4.8,4.8l0,0c0.2,0.2,0.5,0.4,0.9,0.4c0.7,0,1.2-0.5,1.2-1.2
	c0-0.3-0.1-0.6-0.4-0.9l0,0l-4.8-4.8l4.8-4.8l0,0c0.2-0.2,0.4-0.5,0.4-0.9c0-0.7-0.5-1.2-1.2-1.2c-0.3,0-0.6,0.1-0.9,0.4l0,0
	l-4.8,4.8l-4.8-4.8l0,0c-0.2-0.2-0.5-0.4-0.9-0.4c-0.7,0-1.2,0.5-1.2,1.2C102.1,103.3,102.3,103.6,102.5,103.8L102.5,103.8z"/>
</svg>
