<?xml version="1.0" encoding="utf-8"?>
<!-- Generator: Adobe Illustrator 18.1.0, SVG Export Plug-In . SVG Version: 6.00 Build 0)  -->
<!DOCTYPE svg PUBLIC "-//W3C//DTD SVG 1.1//EN" "http://www.w3.org/Graphics/SVG/1.1/DTD/svg11.dtd">
<svg version="1.1" id="Layer_1" xmlns="http://www.w3.org/2000/svg" xmlns:xlink="http://www.w3.org/1999/xlink" x="0px" y="0px"
	 viewBox="0 0 750 750" enable-background="new 0 0 750 750" xml:space="preserve">
<circle fill="#FFFFFF" cx="375" cy="375" r="375"/>
<path fill="#89C82A" d="M375,750C168,750,0,582,0,375S168,0,375,0s375,168,375,375S582,750,375,750z M375,70.5
	C207,70.5,70.5,207,70.5,375S207,679.5,375,679.5S679.5,543,679.5,375S543,70.5,375,70.5z M540.8,306L353.2,493.5l0,0
	c-6,6-15,10.5-24.8,10.5s-18.8-3.8-24.8-10.5l0,0L198,388.5l0,0c-6-6-10.5-15-10.5-24.8c0-19.5,15.8-35.2,35.2-35.2
	c9.8,0,18.8,3.8,24.8,10.5l0,0l80.2,80.2l162.8-162.8l0,0c6-6,15-10.5,24.8-10.5c19.5,0,35.2,15.7,35.2,35.2
	C550.5,291,546.8,300,540.8,306L540.8,306z"/>
</svg>
