<?xml version="1.0" encoding="utf-8"?>
<!-- Generator: Adobe Illustrator 18.0.0, SVG Export Plug-In . SVG Version: 6.00 Build 0)  -->
<!DOCTYPE svg PUBLIC "-//W3C//DTD SVG 1.1//EN" "http://www.w3.org/Graphics/SVG/1.1/DTD/svg11.dtd">
<svg version="1.1" id="Layer_1" xmlns="http://www.w3.org/2000/svg" xmlns:xlink="http://www.w3.org/1999/xlink" x="0px" y="0px"
	 viewBox="0 0 64 64" enable-background="new 0 0 64 64" xml:space="preserve">
<g id="BELL_2_">
	<g>
		<g>
			<path fill-rule="evenodd" clip-rule="evenodd" fill="#FFFFFF" d="M32,61c3.5,0,6.3-2.8,6.3-6.3H25.7C25.7,58.2,28.5,61,32,61z"/>
			<path fill-rule="evenodd" clip-rule="evenodd" fill="#FFFFFF" d="M53.1,45.2c-1.7,0-3.2-1.4-3.2-3.2V20.9
				c0-8.2-6.6-14.8-14.8-14.8C35.2,4.4,33.7,3,32,3c-1.7,0-3.2,1.4-3.2,3.2c-8.2,0-14.8,6.6-14.8,14.8V42c0,1.7-1.4,3.2-3.2,3.2
				c-1.7,0-3.2,1.4-3.2,3.2c0,1.7,1.4,3.2,3.2,3.2h42.2c1.7,0,3.2-1.4,3.2-3.2C56.3,46.6,54.8,45.2,53.1,45.2z"/>
		</g>
	</g>
	<g>
		<g>
			<path fill="#D53A3A" d="M38.3,54.7c0,3.5-2.8,6.3-6.3,6.3c-3.5,0-6.3-2.8-6.3-6.3H38.3 M41.3,51.7h-3H25.7h-3v3
				c0,5.1,4.2,9.3,9.3,9.3c5.1,0,9.3-4.2,9.3-9.3V51.7L41.3,51.7z"/>
			<path fill="#D53A3A" d="M32,3c1.7,0,3.2,1.4,3.2,3.2c8.2,0,14.8,6.6,14.8,14.8V42c0,1.7,1.4,3.2,3.2,3.2c1.7,0,3.2,1.4,3.2,3.2
				c0,1.7-1.4,3.2-3.2,3.2H10.9c-1.7,0-3.2-1.4-3.2-3.2c0-1.7,1.4-3.2,3.2-3.2c1.7,0,3.2-1.4,3.2-3.2V20.9c0-8.2,6.6-14.8,14.8-14.8
				C28.8,4.4,30.3,3,32,3 M32,0c-2.4,0-4.4,1.3-5.5,3.3c-8.7,1.1-15.5,8.6-15.5,17.6V42c0,0.1-0.1,0.2-0.2,0.2
				c-3.4,0-6.2,2.8-6.2,6.2c0,3.4,2.8,6.2,6.2,6.2h42.2c3.4,0,6.2-2.8,6.2-6.2c0-3.4-2.8-6.2-6.2-6.2c-0.1,0-0.2-0.1-0.2-0.2V20.9
				c0-9-6.8-16.5-15.5-17.6C36.4,1.3,34.4,0,32,0L32,0z"/>
		</g>
	</g>
</g>
</svg>
