<?xml version="1.0" encoding="iso-8859-1"?>
<!-- Generator: Adobe Illustrator 18.0.0, SVG Export Plug-In . SVG Version: 6.00 Build 0)  -->
<!DOCTYPE svg PUBLIC "-//W3C//DTD SVG 1.1//EN" "http://www.w3.org/Graphics/SVG/1.1/DTD/svg11.dtd">
<svg version="1.1" id="Layer_1" xmlns="http://www.w3.org/2000/svg" xmlns:xlink="http://www.w3.org/1999/xlink" x="0px" y="0px"
	 viewBox="0 0 64 64" style="enable-background:new 0 0 64 64;" xml:space="preserve">
<g>
	<g>
		<circle style="fill:#2A9BDB;" cx="32" cy="32" r="32"/>
	</g>
	<path id="PLUS_1_" style="fill:#FFFFFF;stroke:#FFFFFF;stroke-width:3.2914;stroke-miterlimit:10;" d="M22.61,19.297l9.39,9.39
		l9.39-9.39c0.915-0.915,2.399-0.915,3.313,0c0.915,0.915,0.915,2.399,0,3.314L35.314,32l9.39,9.39c0.915,0.915,0.915,2.399,0,3.314
		s-2.399,0.915-3.314,0L32,35.314l-9.39,9.39c-0.915,0.915-2.399,0.915-3.314,0c-0.915-0.915-0.915-2.399,0-3.314l9.39-9.39
		l-9.39-9.39c-0.915-0.915-0.915-2.399,0-3.313C20.211,18.381,21.695,18.382,22.61,19.297z"/>
</g>
</svg>
