<?xml version="1.0" encoding="iso-8859-1"?>
<!-- Generator: Adobe Illustrator 18.0.0, SVG Export Plug-In . SVG Version: 6.00 Build 0)  -->
<!DOCTYPE svg PUBLIC "-//W3C//DTD SVG 1.1//EN" "http://www.w3.org/Graphics/SVG/1.1/DTD/svg11.dtd">
<svg version="1.1" id="Layer_1" xmlns="http://www.w3.org/2000/svg" xmlns:xlink="http://www.w3.org/1999/xlink" x="0px" y="0px"
	 viewBox="0 0 64 64" style="enable-background:new 0 0 64 64;" xml:space="preserve">
<path style="fill:#B3B3B3;" d="M59.02,50.149l-9.898-1.834l-3.343,3.011l0.676,10.141l-5.017,2.02l-6.415-7.831l-4.477,0.136
	L24.609,64l-5.129-1.71l0.069-10.164l-3.517-2.802l-9.77,2.433l-2.84-4.64l6.521-7.741l-0.911-4.43L0,30.466l0.777-5.399
	l9.922-1.696l2.122-3.985L8.752,10.09l4.031-3.631l8.68,5.142l4.161-1.675l2.799-9.763L33.821,0l3.377,9.575l4.254,1.419
	l8.357-5.662l4.24,3.379l-3.507,9.527l2.356,3.848l10.005,1.089L64,28.516l-8.749,5.021l-0.644,4.477l6.971,7.33L59.02,50.149z
	 M32.001,19.9c-6.643,0-12.028,5.439-12.028,12.149s5.385,12.149,12.028,12.149s12.028-5.439,12.028-12.149S38.644,19.9,32.001,19.9
	z"/>
</svg>
