<?xml version="1.0" encoding="iso-8859-1"?>
<!-- Generator: Adobe Illustrator 18.0.0, SVG Export Plug-In . SVG Version: 6.00 Build 0)  -->
<!DOCTYPE svg PUBLIC "-//W3C//DTD SVG 1.1//EN" "http://www.w3.org/Graphics/SVG/1.1/DTD/svg11.dtd">
<svg version="1.1" id="Layer_1" xmlns="http://www.w3.org/2000/svg" xmlns:xlink="http://www.w3.org/1999/xlink" x="0px" y="0px"
	 viewBox="0 0 64 64" style="enable-background:new 0 0 64 64;" xml:space="preserve">
<path id="CLOSE_2_" style="opacity:0.6;fill-rule:evenodd;clip-rule:evenodd;fill:#33B862;" d="M62.346,9.64L39.986,32l22.36,22.36
	l0,0C63.368,55.382,64,56.794,64,58.353C64,61.472,61.472,64,58.353,64c-1.559,0-2.971-0.632-3.993-1.654l0,0L32,39.987L9.64,62.346
	l0,0C8.618,63.368,7.206,64,5.647,64C2.528,64,0,61.472,0,58.353c0-1.56,0.632-2.971,1.654-3.993l0,0L24.014,32L1.654,9.64l0,0
	C0.632,8.618,0,7.206,0,5.647C0,2.528,2.528,0,5.647,0C7.206,0,8.618,0.632,9.64,1.654l0,0L32,24.014l22.36-22.36l0,0
	C55.382,0.632,56.794,0,58.353,0C61.472,0,64,2.528,64,5.647C64,7.206,63.368,8.618,62.346,9.64L62.346,9.64z"/>
</svg>
