<?xml version="1.0" encoding="iso-8859-1"?>
<!-- Generator: Adobe Illustrator 17.1.0, SVG Export Plug-In . SVG Version: 6.00 Build 0)  -->
<!DOCTYPE svg PUBLIC "-//W3C//DTD SVG 1.1//EN" "http://www.w3.org/Graphics/SVG/1.1/DTD/svg11.dtd">
<svg version="1.1" id="Layer_1" xmlns="http://www.w3.org/2000/svg" xmlns:xlink="http://www.w3.org/1999/xlink" x="0px" y="0px"
	 viewBox="0 0 32 21.982" style="enable-background:new 0 0 32 21.982;" xml:space="preserve">
<g>
	<path style="fill:#FFFFFF;" d="M-854.406,28.982c-10.477,0-19-8.523-19-19s8.523-19,19-19s19,8.523,19,19
		S-843.929,28.982-854.406,28.982z"/>
	<path style="fill:#D53A3A;" d="M-854.406-8.018c9.925,0,18,8.075,18,18s-8.075,18-18,18s-18-8.075-18-18
		S-864.331-8.018-854.406-8.018 M-854.406-10.018c-11.046,0-20,8.954-20,20s8.954,20,20,20c11.046,0,20-8.954,20-20
		S-843.36-10.018-854.406-10.018L-854.406-10.018z"/>
</g>
<text transform="matrix(1 0 0 1 -859.2964 22.4109)" style="fill:#D53A3A; font-family:'OpenSans-Bold'; font-size:34.9664;">!</text>
<g>
	<path style="fill:#FFFFFF;" d="M-856.406,85.082c-9.429,0-17.1-7.671-17.1-17.1s7.671-17.1,17.1-17.1s17.1,7.671,17.1,17.1
		S-846.976,85.082-856.406,85.082z"/>
	<path style="fill:#FFFFFF;" d="M-856.406,51.782c8.933,0,16.2,7.267,16.2,16.2s-7.267,16.2-16.2,16.2
		c-8.933,0-16.2-7.267-16.2-16.2S-865.338,51.782-856.406,51.782 M-856.406,49.982c-9.941,0-18,8.059-18,18s8.059,18,18,18
		s18-8.059,18-18S-846.465,49.982-856.406,49.982L-856.406,49.982z"/>
</g>
<g>
	<path style="fill:#FFFFFF;" d="M-794.406,28.982c-10.477,0-19-8.523-19-19s8.523-19,19-19s19,8.523,19,19
		S-783.929,28.982-794.406,28.982z"/>
	<path style="fill:#2A9BDB;" d="M-794.406-8.018c9.925,0,18,8.075,18,18s-8.075,18-18,18s-18-8.075-18-18
		S-804.331-8.018-794.406-8.018 M-794.406-10.018c-11.046,0-20,8.954-20,20s8.954,20,20,20s20-8.954,20-20
		S-783.36-10.018-794.406-10.018L-794.406-10.018z"/>
</g>
<text transform="matrix(1 0 0 1 -801.7154 22.411)" style="fill:#2A9BDB; font-family:'OpenSans-Bold'; font-size:34.9664;">?</text>
<g>
	<path style="fill:#2A9BDB;" d="M-734.406,28.982c-10.477,0-19-8.523-19-19s8.523-19,19-19s19,8.523,19,19
		S-723.929,28.982-734.406,28.982z"/>
	<path style="fill:#2A9BDB;" d="M-734.406-8.018c9.925,0,18,8.075,18,18s-8.075,18-18,18s-18-8.075-18-18
		S-744.331-8.018-734.406-8.018 M-734.406-10.018c-11.046,0-20,8.954-20,20s8.954,20,20,20c11.046,0,20-8.954,20-20
		S-723.36-10.018-734.406-10.018L-734.406-10.018z"/>
</g>
<text transform="matrix(1 0 0 1 -739.7601 23.2731)" style="fill:#FFFFFF; font-family:'Garamond-Bold'; font-size:41.5087;">i</text>
<g>
	<path style="fill:#FFFFFF;" d="M-674.406,28.982c-10.477,0-19-8.523-19-19s8.523-19,19-19s19,8.523,19,19
		S-663.929,28.982-674.406,28.982z"/>
	<g>
		<path style="fill:#2A9BDB;" d="M-674.406-8.018c9.925,0,18,8.075,18,18s-8.075,18-18,18s-18-8.075-18-18
			S-684.331-8.018-674.406-8.018 M-674.406-10.018c-11.046,0-20,8.954-20,20s8.954,20,20,20c11.046,0,20-8.954,20-20
			S-663.36-10.018-674.406-10.018L-674.406-10.018z"/>
	</g>
</g>
<text transform="matrix(1 0 0 1 -679.7601 23.2731)" style="fill:#2A9BDB; font-family:'Garamond-Bold'; font-size:41.5087;">i</text>
<circle style="fill:#2A9BDB;" cx="-623.406" cy="0.977" r="11"/>
<circle style="fill:#2A9BDB;" cx="-811.406" cy="294.977" r="11"/>
<path id="PEN_2_2_" style="fill-rule:evenodd;clip-rule:evenodd;fill:#2A9BDB;" d="M-847.719,76.266h-17.373
	c-0.496,0-0.899-0.402-0.899-0.899c0-0.496,0.402-0.899,0.899-0.899h17.373c0.496,0,0.899,0.402,0.899,0.899
	C-846.82,75.864-847.223,76.266-847.719,76.266z M-851.363,62.946l-2.53-2.525l1.897-1.894c0.349-0.349,0.916-0.349,1.265,0
	l1.265,1.262c0.349,0.349,0.349,0.914,0,1.262L-851.363,62.946z M-859.586,71.152l-2.53-2.525l7.59-7.575l2.53,2.525
	L-859.586,71.152z M-863.595,72.623l0.842-3.366l2.53,2.525L-863.595,72.623z"/>
<g>
	<path style="fill:#FFFFFF;" d="M-800.406,85.082c-9.429,0-17.1-7.671-17.1-17.1s7.671-17.1,17.1-17.1s17.1,7.671,17.1,17.1
		S-790.976,85.082-800.406,85.082z"/>
	<path style="fill:#FFFFFF;" d="M-800.406,51.782c8.933,0,16.2,7.267,16.2,16.2s-7.267,16.2-16.2,16.2
		c-8.933,0-16.2-7.267-16.2-16.2S-809.338,51.782-800.406,51.782 M-800.406,49.982c-9.941,0-18,8.059-18,18s8.059,18,18,18
		c9.941,0,18-8.059,18-18S-790.464,49.982-800.406,49.982L-800.406,49.982z"/>
</g>
<path id="CAMERA_2_" style="fill-rule:evenodd;clip-rule:evenodd;fill:#939393;" d="M-792.249,75.266h-16.312
	c-0.466,0-0.844-0.378-0.844-0.844v-11.25c0-0.466,0.378-0.844,0.844-0.844h3.604l1.351-1.351c0.154-0.203,0.396-0.336,0.67-0.336
	h5.062c0.237,0,0.45,0.098,0.604,0.256l0.001-0.001l1.433,1.433h3.588c0.466,0,0.844,0.378,0.844,0.844v11.25
	C-791.406,74.888-791.783,75.266-792.249,75.266z M-800.406,63.453c-2.796,0-5.062,2.267-5.062,5.062
	c0,2.796,2.267,5.062,5.062,5.062s5.062-2.266,5.062-5.062C-795.343,65.72-797.61,63.453-800.406,63.453z M-800.406,71.891
	c-1.864,0-3.375-1.511-3.375-3.375c0-1.864,1.511-3.375,3.375-3.375c1.864,0,3.375,1.511,3.375,3.375
	C-797.031,70.38-798.542,71.891-800.406,71.891z"/>
<path id="SQUARE__x2F__RIGHT_2_" style="fill-rule:evenodd;clip-rule:evenodd;fill:#FFFFFF;" d="M-830.562,151.953h-8.625
	c-1.191,0-2.156-0.965-2.156-2.156c0-1.191,0.965-2.156,2.156-2.156h6.469v-6.468l0,0c0-1.191,0.965-2.156,2.156-2.156
	c1.191,0,2.156,0.965,2.156,2.156v8.625C-828.406,150.988-829.371,151.953-830.562,151.953z M-830.562,123.203
	c1.191,0,2.156,0.965,2.156,2.156v7.188c0,1.191-0.965,2.156-2.156,2.156c-1.191,0-2.156-0.966-2.156-2.156v-7.188
	C-832.718,124.169-831.753,123.203-830.562,123.203z M-830.562,118.891c-1.191,0-2.156-0.965-2.156-2.156l0,0v-6.468h-6.469v0
	c-1.191,0-2.156-0.965-2.156-2.156s0.965-2.156,2.156-2.156h0h8.625c1.191,0,2.156,0.965,2.156,2.156v8.625
	C-828.406,117.925-829.371,118.891-830.562,118.891z M-847.812,110.266h-7.188c-1.191,0-2.156-0.965-2.156-2.156
	s0.965-2.156,2.156-2.156h7.188c1.191,0,2.156,0.966,2.156,2.156S-846.621,110.266-847.812,110.266z M-850.692,124.087l0.005-0.006
	c-0.438-0.395-0.719-0.961-0.719-1.597c0-1.191,0.965-2.156,2.156-2.156c0.555,0,1.055,0.215,1.437,0.559l0.005-0.006l7.188,6.469
	l-0.005,0.006c0.438,0.395,0.719,0.961,0.719,1.597c0,0.636-0.281,1.202-0.719,1.597l0.005,0.006l-7.188,6.469l-0.005-0.006
	c-0.382,0.344-0.883,0.559-1.437,0.559c-1.191,0-2.156-0.965-2.156-2.156c0-0.636,0.281-1.202,0.719-1.597l-0.005-0.006l3.011-2.71
	h-13.068c-1.191,0-2.156-0.965-2.156-2.156c0-1.191,0.965-2.156,2.156-2.156h13.068L-850.692,124.087z M-863.624,110.266
	L-863.624,110.266l-6.469,0v6.469c0,1.191-0.965,2.156-2.156,2.156s-2.156-0.965-2.156-2.156l0,0v-8.625
	c0-1.191,0.965-2.156,2.156-2.156h8.625h0c1.191,0,2.156,0.965,2.156,2.156S-862.433,110.266-863.624,110.266z M-872.249,134.703
	c-1.191,0-2.156-0.966-2.156-2.156v-7.188c0-1.191,0.965-2.156,2.156-2.156s2.156,0.965,2.156,2.156v7.188
	C-870.093,133.738-871.058,134.703-872.249,134.703z M-872.249,139.016c1.191,0,2.156,0.965,2.156,2.156v6.469h6.469
	c1.191,0,2.156,0.965,2.156,2.156c0,1.191-0.965,2.156-2.156,2.156h-8.625c-1.191,0-2.156-0.965-2.156-2.156v-8.625l0,0
	C-874.406,139.981-873.44,139.016-872.249,139.016z M-854.999,147.641h7.188c1.191,0,2.156,0.965,2.156,2.156
	c0,1.191-0.965,2.156-2.156,2.156h-7.188c-1.191,0-2.156-0.965-2.156-2.156C-857.156,148.606-856.19,147.641-854.999,147.641z"/>
<g>
	<path style="fill:#D69D9D;stroke:#E02222;stroke-miterlimit:10;" d="M-753.736,53.207c-0.36,0.662-2.3,4.416-2.248,7.854
		c0,0-0.034,1.158,0.834,1.532c0.281,0.122,1.925,0.821,2.105,1.002c0,0,0.999,2.155,1.806,3.129
		c1.869,2.258,3.36,3.413,3.792,3.731c0.273,0.202,0.901,0.447,2.183,1.787c1.008,1.053,1.083,2.167,1.837,2.179
		c0.075,0.002,0.09-0.006,0.251-0.055c0.403-0.123,2.218-1.563,0.722-3.971c0,0-0.751-1.183-2.046-2.288c0,0-1.768-1.55,0.181-2.708
		c0,0,1.263-0.646,2.8-0.561c0.625,0.035,1.594,0.2,1.894,0.259c0.301,0.061,1.305,0.369,2.106-0.12
		c1.548-0.945,0.663-9.409-2.9-12.313c-1.343-1.096-5.945-1.467-8.473-0.745c0,0-1.435,0.502-2.167,0.422
		c-1.022-0.115-1.647,0.064-1.647,0.064S-753.375,52.545-753.736,53.207z"/>
	<path style="fill:#E02222;" d="M-759.44,62.643c1.226,0.191,2.353,0.381,2.592,0.407c0.208,0.023,0.227-0.253,0.054-0.334
		c-0.214-0.123-0.512-0.492-0.598-1.255c-0.006-0.554-0.448-4.111,2.502-9.001c0.682-1.128,1.203-1.09,2.075-1.168
		c-0.039-0.527-0.843-0.818-0.843-0.818s-2.565-0.833-4.123-0.331c0,0-2.297,0.487-3.718,4.757c-0.395,1.186-0.677,2.409-0.8,3.449
		c-0.06,0.499-0.094,0.952-0.105,1.332C-762.46,61.602-760.971,62.371-759.44,62.643z"/>
</g>
<path style="fill:#C5E4D1;stroke:#069342;stroke-miterlimit:10;" d="M-698.124,72.196c0.36-0.662,2.3-4.416,2.248-7.854
	c0,0,0.034-1.158-0.834-1.532c-0.281-0.122-1.925-0.821-2.105-1.002c0,0-0.999-2.155-1.806-3.129
	c-1.869-2.258-3.36-3.413-3.792-3.731c-0.273-0.202-0.901-0.447-2.183-1.787c-1.008-1.053-1.083-2.167-1.837-2.179
	c-0.075-0.002-0.09,0.006-0.251,0.055c-0.403,0.123-2.218,1.563-0.722,3.971c0,0,0.751,1.183,2.046,2.288
	c0,0,1.768,1.55-0.181,2.708c0,0-1.263,0.646-2.8,0.561c-0.625-0.035-1.594-0.2-1.894-0.259c-0.301-0.061-1.305-0.369-2.106,0.12
	c-1.548,0.945-0.663,9.409,2.9,12.313c1.343,1.096,5.945,1.467,8.473,0.745c0,0,1.435-0.502,2.167-0.422
	c1.022,0.115,1.647-0.064,1.647-0.064S-698.485,72.858-698.124,72.196z"/>
<path style="fill:#069342;" d="M-692.42,62.76c-1.226-0.191-2.353-0.381-2.592-0.407c-0.208-0.023-0.227,0.253-0.054,0.334
	c0.214,0.123,0.512,0.492,0.598,1.255c0.006,0.554,0.448,4.111-2.502,9.001c-0.682,1.128-1.203,1.09-2.075,1.168
	c0.039,0.527,0.843,0.818,0.843,0.818s2.565,0.833,4.123,0.331c0,0,2.297-0.487,3.718-4.757c0.395-1.186,0.677-2.409,0.8-3.449
	c0.06-0.499,0.094-0.952,0.105-1.332C-689.4,63.801-690.889,63.032-692.42,62.76z"/>
<path style="fill:#F2F2F2;stroke:#CFCFCF;stroke-miterlimit:10;" d="M-651.766,72.196c0.36-0.662,2.3-4.416,2.248-7.854
	c0,0,0.034-1.158-0.834-1.532c-0.281-0.122-1.925-0.821-2.105-1.002c0,0-0.999-2.155-1.806-3.129
	c-1.869-2.258-3.36-3.413-3.792-3.731c-0.273-0.202-0.901-0.447-2.183-1.787c-1.008-1.053-1.083-2.167-1.837-2.179
	c-0.075-0.002-0.09,0.006-0.251,0.055c-0.403,0.123-2.218,1.563-0.722,3.971c0,0,0.751,1.183,2.046,2.288
	c0,0,1.768,1.55-0.181,2.708c0,0-1.263,0.646-2.8,0.561c-0.625-0.035-1.594-0.2-1.894-0.259c-0.301-0.061-1.305-0.369-2.106,0.12
	c-1.548,0.945-0.663,9.409,2.9,12.313c1.343,1.096,5.945,1.467,8.473,0.745c0,0,1.435-0.502,2.167-0.422
	c1.022,0.115,1.647-0.064,1.647-0.064S-652.127,72.858-651.766,72.196z"/>
<path style="fill:#CFCFCF;" d="M-646.062,62.76c-1.226-0.191-2.353-0.381-2.592-0.407c-0.208-0.023-0.227,0.253-0.054,0.334
	c0.214,0.123,0.512,0.492,0.598,1.255c0.006,0.554,0.448,4.111-2.502,9.001c-0.682,1.128-1.203,1.09-2.075,1.168
	c0.039,0.527,0.843,0.818,0.843,0.818s2.565,0.833,4.123,0.331c0,0,2.297-0.487,3.718-4.757c0.395-1.186,0.677-2.409,0.8-3.449
	c0.06-0.499,0.094-0.952,0.105-1.332C-643.042,63.801-644.531,63.032-646.062,62.76z"/>
<path style="fill:#D53A3A;" d="M-776.406,133.809c0,2.305-1.868,4.173-4.173,4.173h-23.654c-2.305,0-4.173-1.868-4.173-4.173
	v-23.654c0-2.305,1.868-4.173,4.173-4.173h23.654c2.305,0,4.173,1.868,4.173,4.173V133.809z"/>
<path id="CLOSE_1_" style="fill-rule:evenodd;clip-rule:evenodd;fill:#FFFFFF;" d="M-782.685,114.82l-7.162,7.162l7.162,7.162l0,0
	c0.327,0.327,0.53,0.779,0.53,1.279c0,0.999-0.81,1.809-1.809,1.809c-0.5,0-0.952-0.203-1.279-0.53l0,0l-7.162-7.162l-7.162,7.162
	l0,0c-0.327,0.327-0.78,0.53-1.279,0.53c-0.999,0-1.809-0.81-1.809-1.809c0-0.5,0.203-0.952,0.53-1.279l0,0l7.162-7.162
	l-7.162-7.162l0,0c-0.327-0.327-0.53-0.78-0.53-1.279c0-0.999,0.81-1.809,1.809-1.809c0.499,0,0.952,0.202,1.279,0.53l0,0
	l7.162,7.162l7.162-7.162l0,0c0.327-0.327,0.779-0.53,1.279-0.53c0.999,0,1.809,0.81,1.809,1.809
	C-782.156,114.04-782.358,114.493-782.685,114.82L-782.685,114.82z"/>
<path style="fill:#1C5996;" d="M-724.406,133.809c0,2.305-1.868,4.173-4.173,4.173h-23.654c-2.305,0-4.173-1.868-4.173-4.173
	v-23.654c0-2.305,1.868-4.173,4.173-4.173h23.654c2.305,0,4.173,1.868,4.173,4.173V133.809z"/>
<path style="fill-rule:evenodd;clip-rule:evenodd;fill:#FFFFFF;" d="M-733.872,117.432L-733.872,117.432
	c0.722,0.722,0.721,1.892,0,2.613c-0.722,0.722-1.892,0.722-2.613,0l0,0l-2.072-2.072l0,12.961c0,0.473-0.18,0.946-0.541,1.307
	c-0.722,0.722-1.892,0.722-2.613,0c-0.361-0.361-0.541-0.834-0.541-1.307l0,0l0-12.961l-2.072,2.072l0,0
	c-0.722,0.722-1.892,0.722-2.613,0s-0.722-1.892,0-2.613l0,0l5.227-5.227l0,0c0.722-0.722,1.892-0.722,2.613,0l0,0L-733.872,117.432
	z"/>
<path style="fill:#1C5996;" d="M-704.406,110.155c0-2.305,1.868-4.173,4.173-4.173h23.654c2.305,0,4.173,1.868,4.173,4.173v23.654
	c0,2.305-1.868,4.173-4.173,4.173h-23.654c-2.305,0-4.173-1.868-4.173-4.173V110.155z"/>
<path style="fill-rule:evenodd;clip-rule:evenodd;fill:#FFFFFF;" d="M-694.939,126.532L-694.939,126.532
	c-0.722-0.722-0.721-1.892,0-2.613c0.722-0.722,1.892-0.722,2.613,0l0,0l2.072,2.072l0-12.961c0-0.473,0.18-0.946,0.541-1.307
	c0.722-0.722,1.892-0.722,2.613,0c0.361,0.361,0.541,0.834,0.541,1.307l0,0l0,12.961l2.072-2.072l0,0
	c0.722-0.722,1.892-0.722,2.613,0c0.722,0.722,0.722,1.892,0,2.613l0,0l-5.227,5.227l0,0c-0.722,0.722-1.892,0.722-2.613,0l0,0
	L-694.939,126.532z"/>
<g>
	<path style="fill:#FFFFFF;" d="M-648.232,136.982c-1.75,0-3.174-1.423-3.174-3.173v-23.654c0-1.75,1.424-3.173,3.174-3.173h23.653
		c1.75,0,3.173,1.423,3.173,3.173v23.654c0,1.75-1.423,3.173-3.173,3.173H-648.232z"/>
	<path style="fill:#1C5996;" d="M-624.579,107.982c1.198,0,2.173,0.975,2.173,2.173v23.654c0,1.198-0.975,2.173-2.173,2.173h-23.654
		c-1.198,0-2.173-0.975-2.173-2.173v-23.654c0-1.198,0.975-2.173,2.173-2.173H-624.579 M-624.579,105.982h-23.654
		c-2.305,0-4.173,1.868-4.173,4.173v23.654c0,2.305,1.868,4.173,4.173,4.173h23.654c2.305,0,4.173-1.868,4.173-4.173v-23.654
		C-620.406,107.85-622.274,105.982-624.579,105.982L-624.579,105.982z"/>
</g>
<path style="fill-rule:evenodd;clip-rule:evenodd;fill:#1C5996;" d="M-626.279,118.051l-11.355,11.355l0,0
	c-0.385,0.385-0.918,0.624-1.505,0.624s-1.12-0.238-1.505-0.624l0,0l-6.387-6.387l0,0c-0.385-0.385-0.624-0.918-0.624-1.506
	c0-1.176,0.953-2.129,2.129-2.129c0.588,0,1.12,0.238,1.505,0.624l0,0l4.882,4.882l9.849-9.849l0,0
	c0.385-0.385,0.917-0.624,1.505-0.624c1.176,0,2.129,0.953,2.129,2.129C-625.656,117.134-625.894,117.666-626.279,118.051
	L-626.279,118.051z"/>
<polygon style="fill-rule:evenodd;clip-rule:evenodd;" points="-641.906,129.223 -641.906,129.223 -641.905,129.223 "/>
<polygon style="fill-rule:evenodd;clip-rule:evenodd;" points="-630.906,129.223 -630.906,129.223 -630.905,129.223 "/>
<polygon style="fill-rule:evenodd;clip-rule:evenodd;" points="-629.406,127.723 -629.406,127.722 -629.406,127.723 "/>
<g>
	<path style="fill:#FFFFFF;" d="M-438.233,21.482c-2.025,0-3.673-1.647-3.673-3.673V-5.845c0-2.025,1.647-3.673,3.673-3.673h23.654
		c2.025,0,3.673,1.647,3.673,3.673v23.654c0,2.025-1.647,3.673-3.673,3.673H-438.233z"/>
	<path style="fill:#1C5996;" d="M-414.579-9.018c1.75,0,3.173,1.423,3.173,3.173v23.654c0,1.75-1.423,3.173-3.173,3.173h-23.654
		c-1.75,0-3.173-1.423-3.173-3.173V-5.845c0-1.75,1.423-3.173,3.173-3.173H-414.579 M-414.579-10.018h-23.654
		c-2.305,0-4.173,1.868-4.173,4.173v23.654c0,2.305,1.868,4.173,4.173,4.173h23.654c2.305,0,4.173-1.868,4.173-4.173V-5.845
		C-410.406-8.15-412.274-10.018-414.579-10.018L-414.579-10.018z"/>
</g>
<polygon style="fill-rule:evenodd;clip-rule:evenodd;" points="-431.906,13.223 -431.906,13.223 -431.905,13.223 "/>
<polygon style="fill-rule:evenodd;clip-rule:evenodd;" points="-420.906,13.223 -420.906,13.223 -420.905,13.223 "/>
<polygon style="fill-rule:evenodd;clip-rule:evenodd;" points="-419.406,11.723 -419.406,11.722 -419.406,11.723 "/>
<polygon style="fill-rule:evenodd;clip-rule:evenodd;" points="-243.906,13.223 -243.906,13.223 -243.905,13.223 "/>
<polygon style="fill-rule:evenodd;clip-rule:evenodd;" points="-232.906,13.223 -232.906,13.223 -232.905,13.223 "/>
<polygon style="fill-rule:evenodd;clip-rule:evenodd;" points="-231.406,11.723 -231.406,11.722 -231.406,11.723 "/>
<g>
	<path style="fill:#D69D9D;stroke:#E02222;stroke-miterlimit:10;" d="M-850.295,174.668l-0.006-0.007
		c-0.401-0.464-0.945-0.722-1.512-0.717c-2.738,0.024-11.142,0.096-15.517,0.114c-3.398,0.014-2.685,4.221-0.791,4.209
		c-3.112,0-3.639,4.697-0.264,4.697c-4.559-0.02-3.936,4.614-1.266,4.636c-3.672,0-3.428,4.422,0.363,4.422
		c0.251-0.029,5.394-0.32,7.176-0.554c0.302-0.04,0.54,0.29,0.454,0.626l-1.264,4.962c-0.062,0.245-0.068,0.505-0.016,0.753
		c0.162,0.77,0.695,2.506,2.411,4.49c1.293,1.496,2.161,1.192,2.675,0.629c0.399-0.437,0.497-1.128,0.251-1.697
		c-0.306-0.706-0.634-1.929-0.131-3.324c0.791-2.196,4.002-6.188,5.169-6.527c0.983-0.285,1.437-0.467,2.268-0.847"/>
	<path style="fill:#E02222;" d="M-851.439,172.871c0-0.491,0.204-0.889,0.455-0.889h5.991c0.251,0,0.455,0.398,0.455,0.889v19.782
		c0,0.491-0.204,0.889-0.455,0.889h-5.991c-0.251,0-0.455-0.398-0.455-0.889V172.871z"/>
</g>
<g>
	<path style="fill:#C5E4D1;stroke:#069342;stroke-miterlimit:10;" d="M-814.517,201.283l0.006,0.007
		c0.401,0.464,0.945,0.722,1.512,0.717c2.738-0.024,11.142-0.096,15.517-0.114c3.398-0.014,2.685-4.221,0.791-4.209
		c3.112,0,3.639-4.697,0.264-4.697c4.559,0.02,3.936-4.614,1.266-4.636c3.672,0,3.428-4.422-0.362-4.422
		c-0.251,0.029-5.394,0.32-7.176,0.554c-0.302,0.04-0.54-0.29-0.454-0.626l1.264-4.962c0.062-0.245,0.068-0.505,0.016-0.753
		c-0.162-0.77-0.696-2.506-2.411-4.49c-1.293-1.496-2.161-1.192-2.675-0.629c-0.399,0.437-0.497,1.128-0.251,1.697
		c0.306,0.706,0.634,1.929,0.131,3.324c-0.791,2.196-4.002,6.188-5.169,6.527c-0.983,0.285-1.437,0.467-2.268,0.847"/>
	<path style="fill:#069342;" d="M-813.372,203.08c0,0.491-0.204,0.889-0.455,0.889h-5.991c-0.251,0-0.455-0.398-0.455-0.889v-19.782
		c0-0.491,0.204-0.889,0.455-0.889h5.991c0.251,0,0.455,0.398,0.455,0.889V203.08z"/>
</g>
<g>
	<path style="fill:#F2F2F2;stroke:#CFCFCF;stroke-miterlimit:10;" d="M-763.517,201.283l0.006,0.007
		c0.401,0.464,0.945,0.722,1.512,0.717c2.738-0.024,11.142-0.096,15.517-0.114c3.398-0.014,2.685-4.221,0.791-4.209
		c3.112,0,3.639-4.697,0.264-4.697c4.559,0.02,3.936-4.614,1.266-4.636c3.672,0,3.428-4.422-0.363-4.422
		c-0.251,0.029-5.394,0.32-7.176,0.554c-0.302,0.04-0.54-0.29-0.454-0.626l1.264-4.962c0.062-0.245,0.068-0.505,0.016-0.753
		c-0.162-0.77-0.695-2.506-2.411-4.49c-1.293-1.496-2.161-1.192-2.675-0.629c-0.399,0.437-0.497,1.128-0.251,1.697
		c0.306,0.706,0.634,1.929,0.131,3.324c-0.791,2.196-4.002,6.188-5.169,6.527c-0.983,0.285-1.437,0.467-2.268,0.847"/>
	<path style="fill:#CFCFCF;" d="M-762.372,203.08c0,0.491-0.204,0.889-0.455,0.889h-5.991c-0.251,0-0.455-0.398-0.455-0.889v-19.782
		c0-0.491,0.204-0.889,0.455-0.889h5.991c0.251,0,0.455,0.398,0.455,0.889V203.08z"/>
</g>
<circle style="fill:#2A9BDB;" cx="-707.406" cy="182.977" r="11"/>
<circle style="fill:#D03135;" cx="-662.292" cy="185.982" r="14"/>
<path id="CLOSE_2_" style="fill-rule:evenodd;clip-rule:evenodd;fill:#FFFFFF;" d="M-654.705,180.392l-5.59,5.59l5.59,5.59l0,0
	c0.255,0.256,0.413,0.608,0.413,0.998c0,0.78-0.632,1.412-1.412,1.412c-0.39,0-0.743-0.158-0.998-0.414l0,0l-5.59-5.59l-5.59,5.59
	l0,0c-0.255,0.255-0.608,0.414-0.998,0.414c-0.78,0-1.412-0.632-1.412-1.412c0-0.39,0.158-0.743,0.414-0.998l0,0l5.59-5.59
	l-5.59-5.59l0,0c-0.255-0.256-0.414-0.609-0.414-0.998c0-0.78,0.632-1.412,1.412-1.412c0.39,0,0.743,0.158,0.998,0.414l0,0
	l5.59,5.59l5.59-5.59l0,0c0.255-0.256,0.608-0.414,0.998-0.414c0.78,0,1.412,0.632,1.412,1.412
	C-654.292,179.784-654.45,180.137-654.705,180.392L-654.705,180.392z"/>
<circle style="fill:#FFFFFF;" cx="-860.406" cy="237.982" r="14"/>
<path id="CLOSE_3_" style="fill-rule:evenodd;clip-rule:evenodd;fill:#4A7D12;" d="M-852.819,232.392l-5.59,5.59l5.59,5.59l0,0
	c0.255,0.256,0.413,0.608,0.413,0.998c0,0.78-0.632,1.412-1.412,1.412c-0.39,0-0.743-0.158-0.998-0.414l0,0l-5.59-5.59l-5.59,5.59
	l0,0c-0.255,0.255-0.608,0.414-0.998,0.414c-0.78,0-1.412-0.632-1.412-1.412c0-0.39,0.158-0.743,0.414-0.998l0,0l5.59-5.59
	l-5.59-5.59l0,0c-0.255-0.256-0.414-0.609-0.414-0.998c0-0.78,0.632-1.412,1.412-1.412c0.39,0,0.743,0.158,0.998,0.414l0,0
	l5.59,5.59l5.59-5.59l0,0c0.255-0.256,0.608-0.414,0.998-0.414c0.78,0,1.412,0.632,1.412,1.412
	C-852.406,231.784-852.564,232.137-852.819,232.392L-852.819,232.392z"/>
<path style="fill:#9661BE;" d="M-826.406,229.198c0-2.881,2.335-5.216,5.216-5.216h29.568c2.881,0,5.216,2.335,5.216,5.216v29.568
	c0,2.881-2.335,5.216-5.216,5.216h-29.568c-2.881,0-5.216-2.335-5.216-5.216V229.198z"/>
<path id="USER_6_" style="fill-rule:evenodd;clip-rule:evenodd;fill:#FFFFFF;" d="M-798.238,257.247c0,0.001,0,0.002,0,0.003
	c0,0.652-0.528,1.18-1.18,1.18h-22.809c-0.652,0-1.18-0.528-1.18-1.18c0-0.001,0-0.002,0-0.003h-0.001c0,0,0-4.299,3.141-5.862
	c1.988-0.989,1.222-0.186,3.663-1.198c2.44-1.01,3.018-1.363,3.018-1.363l0.023-2.329c0,0-0.914-0.699-1.198-2.891
	c-0.572,0.165-0.761-0.671-0.795-1.204c-0.031-0.515-0.331-2.122,0.367-1.977c-0.143-1.073-0.245-2.041-0.195-2.554
	c0.175-1.8,1.908-3.68,4.579-3.818c3.141,0.137,4.385,2.016,4.559,3.816c0.051,0.513-0.061,1.481-0.204,2.553
	c0.698-0.143,0.395,1.461,0.361,1.976c-0.031,0.533-0.224,1.367-0.794,1.202c-0.285,2.192-1.199,2.885-1.199,2.885l0.021,2.318
	c0,0,0.578,0.33,3.018,1.341c2.44,1.012,1.675,0.255,3.663,1.244C-798.238,252.948-798.238,257.247-798.238,257.247
	L-798.238,257.247z"/>
<path id="USER_1_" style="fill-rule:evenodd;clip-rule:evenodd;fill:#FFFFFF;" d="M-788.663,249.842c0,0.001,0,0.002,0,0.003
	c0,0.614-0.457,1.112-1.021,1.112h-19.736c-0.564,0-1.021-0.498-1.021-1.112c0-0.001,0-0.002,0-0.003h-0.001
	c0,0,0-4.051,2.718-5.525c1.72-0.932,1.058-0.175,3.169-1.129c2.111-0.952,2.612-1.285,2.612-1.285l0.02-2.195
	c0,0-0.791-0.659-1.036-2.724c-0.495,0.156-0.658-0.633-0.688-1.135c-0.026-0.485-0.286-2,0.317-1.863
	c-0.123-1.011-0.212-1.923-0.169-2.406c0.151-1.696,1.651-3.468,3.962-3.598c2.718,0.129,3.794,1.9,3.945,3.596
	c0.044,0.483-0.053,1.396-0.176,2.406c0.604-0.135,0.341,1.377,0.312,1.862c-0.027,0.502-0.194,1.288-0.687,1.132
	c-0.247,2.065-1.038,2.719-1.038,2.719l0.019,2.184c0,0,0.5,0.311,2.611,1.264c2.112,0.954,1.449,0.241,3.169,1.173
	C-788.663,245.791-788.663,249.842-788.663,249.842L-788.663,249.842z"/>
<path style="fill:#FFFFFF;" d="M-766.406,229.198c0-2.881,2.335-5.216,5.216-5.216h29.568c2.881,0,5.216,2.335,5.216,5.216v29.568
	c0,2.881-2.335,5.216-5.216,5.216h-29.568c-2.881,0-5.216-2.335-5.216-5.216V229.198z M-738.238,257.247c0,0,0-4.299-3.141-5.862
	c-1.988-0.989-1.222-0.232-3.663-1.244c-2.44-1.011-3.018-1.341-3.018-1.341l-0.021-2.318c0,0,0.914-0.694,1.199-2.885
	c0.57,0.165,0.764-0.669,0.794-1.202c0.034-0.515,0.337-2.119-0.361-1.976c0.143-1.071,0.255-2.04,0.204-2.553
	c-0.174-1.8-1.419-3.679-4.559-3.816c-2.67,0.137-4.404,2.018-4.579,3.818c-0.05,0.513,0.052,1.48,0.195,2.554
	c-0.698-0.145-0.397,1.462-0.367,1.977c0.034,0.533,0.223,1.369,0.795,1.204c0.284,2.192,1.198,2.891,1.198,2.891l-0.023,2.329
	c0,0-0.578,0.353-3.018,1.363c-2.44,1.012-1.675,0.21-3.663,1.198c-3.141,1.563-3.141,5.862-3.141,5.862h0.001
	c0,0.001,0,0.002,0,0.003c0,0.652,0.528,1.18,1.18,1.18h22.809c0.651,0,1.18-0.528,1.18-1.18
	C-738.238,257.249-738.238,257.248-738.238,257.247L-738.238,257.247z M-728.663,249.842c0,0,0-4.051-2.718-5.524
	c-1.72-0.932-1.058-0.219-3.169-1.173c-2.111-0.953-2.611-1.264-2.611-1.264l-0.019-2.184c0,0,0.791-0.654,1.038-2.719
	c0.493,0.155,0.661-0.63,0.687-1.132c0.029-0.485,0.292-1.997-0.312-1.862c0.124-1.01,0.221-1.922,0.176-2.406
	c-0.151-1.696-1.228-3.467-3.945-3.596c-2.31,0.13-3.81,1.901-3.962,3.598c-0.044,0.483,0.045,1.395,0.169,2.406
	c-0.604-0.137-0.344,1.378-0.317,1.863c0.029,0.502,0.193,1.291,0.688,1.135c0.246,2.066,1.036,2.724,1.036,2.724l-0.02,2.195
	c0,0-0.5,0.332-2.612,1.285c-2.111,0.954-1.449,0.197-3.169,1.129c-2.718,1.473-2.718,5.525-2.718,5.525h0.001
	c0,0.001,0,0.002,0,0.003c0,0.614,0.457,1.112,1.021,1.112h19.736c0.564,0,1.021-0.498,1.021-1.112
	C-728.663,249.844-728.663,249.843-728.663,249.842L-728.663,249.842z"/>
<path id="USER_2_" style="fill-rule:evenodd;clip-rule:evenodd;fill:#49B173;" d="M-666.407,262.102c0,0.001,0,0.003,0,0.005
	c0,1.036-0.84,1.876-1.876,1.876h-36.27c-1.036,0-1.876-0.84-1.876-1.876c0-0.002,0-0.003,0-0.005h-0.001c0,0,0-6.836,4.995-9.322
	c3.161-1.572,1.944-0.296,5.824-1.906c3.88-1.607,4.8-2.168,4.8-2.168l0.037-3.704c0,0-1.453-1.112-1.905-4.597
	c-0.91,0.263-1.21-1.068-1.263-1.915c-0.049-0.818-0.526-3.374,0.583-3.143c-0.227-1.707-0.39-3.245-0.31-4.061
	c0.278-2.862,3.035-5.852,7.281-6.071c4.994,0.218,6.973,3.206,7.25,6.068c0.081,0.815-0.097,2.355-0.324,4.059
	c1.11-0.228,0.628,2.324,0.574,3.142c-0.049,0.847-0.356,2.173-1.263,1.911c-0.453,3.485-1.907,4.588-1.907,4.588l0.034,3.685
	c0,0,0.919,0.525,4.799,2.132c3.881,1.609,2.663,0.406,5.824,1.979c4.995,2.485,4.995,9.321,4.995,9.321H-666.407z"/>
<path id="USER_5_" style="fill-rule:evenodd;clip-rule:evenodd;fill:#FFFFFF;" d="M-606.407,262.102c0,0.001,0,0.003,0,0.005
	c0,1.036-0.84,1.876-1.876,1.876h-36.27c-1.036,0-1.876-0.84-1.876-1.876c0-0.002,0-0.003,0-0.005h-0.001c0,0,0-6.836,4.995-9.322
	c3.161-1.572,1.944-0.296,5.824-1.906c3.88-1.607,4.8-2.168,4.8-2.168l0.037-3.704c0,0-1.453-1.112-1.905-4.597
	c-0.91,0.263-1.21-1.068-1.263-1.915c-0.049-0.818-0.526-3.374,0.583-3.143c-0.227-1.707-0.39-3.245-0.31-4.061
	c0.278-2.862,3.035-5.852,7.281-6.071c4.994,0.218,6.973,3.206,7.25,6.068c0.081,0.815-0.097,2.355-0.324,4.059
	c1.11-0.228,0.628,2.324,0.574,3.142c-0.049,0.847-0.356,2.173-1.263,1.911c-0.453,3.485-1.907,4.588-1.907,4.588l0.034,3.685
	c0,0,0.919,0.525,4.799,2.132c3.881,1.609,2.663,0.406,5.824,1.979c4.995,2.485,4.995,9.321,4.995,9.321H-606.407z"/>
<path id="ARROWS_2_" style="fill-rule:evenodd;clip-rule:evenodd;fill:#FFFFFF;" d="M-842.452,299.959
	c0,0.442-0.191,0.839-0.496,1.113l0,0l-4.993,4.493l0,0c-0.265,0.239-0.617,0.385-1.002,0.385c-0.827,0-1.498-0.671-1.498-1.498
	c0-0.442,0.191-0.839,0.496-1.113l0,0l2.091-1.882h-9.078v9.078l1.882-2.091l0,0c0.274-0.305,0.671-0.496,1.113-0.496
	c0.827,0,1.498,0.671,1.498,1.498c0,0.385-0.146,0.737-0.385,1.002l0,0l-4.493,4.993l0,0c-0.274,0.304-0.671,0.496-1.113,0.496
	c-0.442,0-0.839-0.191-1.113-0.496l0,0l-4.493-4.993l0,0c-0.239-0.265-0.385-0.616-0.385-1.002c0-0.827,0.671-1.498,1.498-1.498
	c0.442,0,0.839,0.191,1.113,0.496l0,0l1.882,2.091v-9.078h-9.078l2.091,1.882l0,0c0.304,0.274,0.496,0.671,0.496,1.113
	c0,0.827-0.671,1.498-1.498,1.498c-0.385,0-0.736-0.146-1.002-0.385l0,0l-4.993-4.493l0,0c-0.304-0.274-0.496-0.671-0.496-1.113
	s0.192-0.839,0.496-1.113l0,0l4.993-4.493h0c0.265-0.239,0.617-0.385,1.002-0.385c0.827,0,1.498,0.671,1.498,1.498
	c0,0.442-0.192,0.839-0.496,1.113l0,0l-2.091,1.882h9.078v-9.078l-1.882,2.092l0,0c-0.274,0.304-0.671,0.496-1.113,0.496
	c-0.827,0-1.498-0.671-1.498-1.498c0-0.385,0.146-0.736,0.385-1.002l0,0l4.493-4.993l0,0c0.274-0.304,0.671-0.496,1.113-0.496
	c0.442,0,0.839,0.192,1.113,0.496l0,0l4.493,4.993l0,0c0.239,0.265,0.385,0.617,0.385,1.002c0,0.827-0.671,1.498-1.498,1.498
	c-0.442,0-0.839-0.191-1.113-0.496l0,0l-1.882-2.092v9.078h9.078l-2.091-1.882l0,0c-0.304-0.274-0.496-0.671-0.496-1.113
	c0-0.827,0.671-1.498,1.498-1.498c0.385,0,0.736,0.146,1.002,0.385h0l4.993,4.493l0,0
	C-842.644,299.12-842.452,299.517-842.452,299.959z"/>
<path style="fill-rule:evenodd;clip-rule:evenodd;fill:#FFFFFF;" d="M-807.585,294.982c-0.376,0-0.71-0.166-0.943-0.425
	l-0.003,0.003l-1.6-1.778v7.718c0,0.703-0.57,1.273-1.273,1.273s-1.273-0.57-1.273-1.273v-7.718l-1.6,1.778l-0.004-0.003
	c-0.233,0.259-0.567,0.425-0.943,0.425c-0.703,0-1.273-0.57-1.273-1.273c0-0.328,0.127-0.623,0.33-0.849l-0.003-0.003l3.82-4.245
	l0.003,0.003c0.233-0.259,0.567-0.425,0.943-0.425s0.71,0.166,0.943,0.425l0.003-0.003l3.82,4.245l-0.003,0.003
	c0.203,0.226,0.33,0.521,0.33,0.849C-806.312,294.412-806.882,294.982-807.585,294.982z"/>
<circle style="fill:#FFFFFF;" cx="-727.406" cy="294.977" r="11"/>
<circle style="fill:#2A9BDB;" cx="-769.406" cy="294.977" r="11"/>
<path style="fill-rule:evenodd;clip-rule:evenodd;fill:#FFFFFF;" d="M-773.226,294.982c0.376,0,0.71,0.166,0.943,0.425l0.003-0.003
	l1.6,1.778v-7.718c0-0.703,0.57-1.274,1.273-1.274s1.273,0.57,1.273,1.274v7.718l1.6-1.778l0.004,0.003
	c0.233-0.259,0.567-0.425,0.943-0.425c0.703,0,1.273,0.57,1.273,1.273c0,0.328-0.127,0.623-0.33,0.849l0.003,0.003l-3.82,4.245
	l-0.003-0.003c-0.233,0.259-0.567,0.425-0.943,0.425s-0.71-0.166-0.943-0.425l-0.003,0.003l-3.82-4.245l0.003-0.003
	c-0.203-0.226-0.33-0.521-0.33-0.849C-774.499,295.552-773.929,294.982-773.226,294.982z"/>
<circle style="fill:#2A9BDB;" cx="-473.406" cy="0.977" r="11"/>
<path style="fill-rule:evenodd;clip-rule:evenodd;fill:#FFFFFF;" d="M-477.226,0.982c0.376,0,0.71,0.166,0.943,0.425l0.003-0.003
	l1.6,1.778v-7.718c0-0.703,0.57-1.274,1.273-1.274c0.703,0,1.273,0.57,1.273,1.274v7.718l1.6-1.778l0.004,0.003
	c0.233-0.259,0.567-0.425,0.943-0.425c0.703,0,1.273,0.57,1.273,1.273c0,0.328-0.127,0.623-0.33,0.849l0.003,0.003l-3.82,4.245
	l-0.003-0.003c-0.233,0.259-0.567,0.425-0.943,0.425s-0.71-0.166-0.943-0.425l-0.003,0.003l-3.82-4.245l0.003-0.003
	c-0.203-0.226-0.33-0.521-0.33-0.849C-478.499,1.552-477.929,0.982-477.226,0.982z"/>
<g>
	<path style="fill:#FFFFFF;" d="M-327.406,11.477c-5.79,0-10.5-4.71-10.5-10.5s4.71-10.5,10.5-10.5s10.5,4.71,10.5,10.5
		S-321.616,11.477-327.406,11.477z"/>
	<path style="fill:#2A9BDB;" d="M-327.406-9.023c5.514,0,10,4.486,10,10s-4.486,10-10,10s-10-4.486-10-10
		S-332.92-9.023-327.406-9.023 M-327.406-10.023c-6.075,0-11,4.925-11,11s4.925,11,11,11s11-4.925,11-11
		S-321.331-10.023-327.406-10.023L-327.406-10.023z"/>
</g>
<path style="fill-rule:evenodd;clip-rule:evenodd;fill:#2A9BDB;" d="M-327.406-2.838c0,0.376-0.166,0.71-0.425,0.943l0.003,0.003
	l-1.778,1.6h7.718c0.703,0,1.273,0.57,1.273,1.273c0,0.703-0.57,1.273-1.273,1.273h-7.718l1.778,1.6l-0.003,0.004
	c0.259,0.233,0.425,0.567,0.425,0.943c0,0.703-0.57,1.273-1.273,1.273c-0.328,0-0.623-0.127-0.849-0.33l-0.003,0.003l-4.245-3.82
	l0.003-0.003c-0.259-0.233-0.425-0.567-0.425-0.943s0.166-0.71,0.425-0.943l-0.003-0.003l4.245-3.82l0.003,0.003
	c0.226-0.203,0.521-0.33,0.849-0.33C-327.976-4.112-327.406-3.542-327.406-2.838z"/>
<g>
	<path style="fill:#FFFFFF;" d="M-285.406,11.477c-5.79,0-10.5-4.71-10.5-10.5s4.71-10.5,10.5-10.5s10.5,4.71,10.5,10.5
		S-279.616,11.477-285.406,11.477z"/>
	<path style="fill:#2A9BDB;" d="M-285.406-9.023c5.514,0,10,4.486,10,10s-4.486,10-10,10s-10-4.486-10-10
		S-290.92-9.023-285.406-9.023 M-285.406-10.023c-6.075,0-11,4.925-11,11s4.925,11,11,11s11-4.925,11-11
		S-279.331-10.023-285.406-10.023L-285.406-10.023z"/>
</g>
<path style="fill-rule:evenodd;clip-rule:evenodd;fill:#2A9BDB;" d="M-285.406,4.802c0-0.376,0.166-0.71,0.425-0.943l-0.003-0.003
	l1.778-1.6h-7.718c-0.703,0-1.273-0.57-1.273-1.273c0-0.703,0.57-1.273,1.273-1.273h7.718l-1.778-1.6l0.003-0.004
	c-0.259-0.233-0.425-0.567-0.425-0.943c0-0.703,0.57-1.273,1.273-1.273c0.328,0,0.623,0.127,0.849,0.33l0.003-0.003l4.245,3.82
	l-0.003,0.003c0.259,0.233,0.425,0.567,0.425,0.943s-0.166,0.71-0.425,0.943l0.003,0.003l-4.245,3.82l-0.003-0.003
	c-0.226,0.203-0.521,0.33-0.849,0.33C-284.836,6.076-285.406,5.506-285.406,4.802z"/>
<circle style="fill:#FFFFFF;" cx="-473.406" cy="34.977" r="11"/>
<path style="fill-rule:evenodd;clip-rule:evenodd;fill:#2A9BDB;" d="M-721.247,299.864l0,0.001c0,0.319-0.258,0.577-0.577,0.577
	h-0.353c0.099-0.17,0.16-0.366,0.16-0.577c0.288,0,0.549-0.11,0.751-0.284C-721.248,299.755-721.247,299.864-721.247,299.864
	L-721.247,299.864z"/>
<path style="fill-rule:evenodd;clip-rule:evenodd;fill:#2A9BDB;" d="M-724.326,297.556c-0.638,0-1.155,0.517-1.155,1.155
	c0,0.638,0.517,1.155,1.155,1.155c0,0.211,0.061,0.407,0.16,0.577h-8.821c-0.319,0-0.577-0.258-0.577-0.577l0-0.001h0
	c0,0,0-2.104,1.537-2.869c0.973-0.484,0.598-0.091,1.792-0.586c1.194-0.494,1.477-0.667,1.477-0.667l0.011-1.14
	c0,0-0.447-0.342-0.586-1.415c-0.28,0.081-0.372-0.329-0.389-0.589c-0.015-0.252-0.162-1.038,0.179-0.967
	c-0.07-0.525-0.12-0.999-0.095-1.25c0.086-0.881,0.934-1.801,2.241-1.868c1.537,0.067,2.146,0.987,2.231,1.868
	c0.025,0.251-0.03,0.725-0.1,1.249c0.342-0.07,0.193,0.715,0.177,0.967c-0.015,0.261-0.11,0.669-0.389,0.588
	c-0.14,1.073-0.587,1.412-0.587,1.412l0.01,1.134c0,0,0.283,0.161,1.477,0.656c0.345,0.143,0.557,0.213,0.71,0.253
	C-724.144,296.85-724.326,297.18-724.326,297.556z"/>
<circle style="fill:#FFFFFF;" cx="-723.172" cy="298.711" r="2.542"/>
<path style="fill-rule:evenodd;clip-rule:evenodd;fill:#2A9BDB;" d="M-721.672,299.46h-0.75v0.75c0,0.414-0.336,0.75-0.75,0.75
	c-0.414,0-0.75-0.336-0.75-0.75v-0.75h-0.75c-0.414,0-0.75-0.336-0.75-0.75c0-0.414,0.336-0.75,0.75-0.75h0.75v-0.75
	c0-0.414,0.336-0.75,0.75-0.75c0.414,0,0.75,0.336,0.75,0.75v0.75h0.75c0.414,0,0.75,0.336,0.75,0.75
	C-720.922,299.125-721.258,299.46-721.672,299.46z"/>
<path id="CIRCLE__x2F__DELETE_2_" style="fill-rule:evenodd;clip-rule:evenodd;fill:#FFFFFF;" d="M-566.402,29.989
	c-11.047,0-20.003-8.956-20.003-20.003c0-11.047,8.956-20.003,20.003-20.003s20.003,8.956,20.003,20.003
	C-546.399,21.033-555.355,29.989-566.402,29.989z M-566.402-6.267c-8.976,0-16.253,7.276-16.253,16.252
	c0,8.976,7.276,16.253,16.253,16.253s16.253-7.277,16.253-16.253C-550.15,1.009-557.426-6.267-566.402-6.267z M-559.526,18.737
	c-0.518,0-0.987-0.21-1.326-0.549l0,0l-5.55-5.55l-5.55,5.55l0,0c-0.339,0.339-0.808,0.549-1.326,0.549
	c-1.036,0-1.875-0.839-1.875-1.875c0-0.518,0.21-0.987,0.549-1.326l0,0l5.55-5.55l-5.55-5.55l0,0
	c-0.339-0.339-0.549-0.808-0.549-1.326c0-1.036,0.84-1.875,1.875-1.875c0.518,0,0.987,0.21,1.326,0.549l0,0l5.55,5.55l5.55-5.55l0,0
	c0.339-0.34,0.808-0.549,1.326-0.549c1.036,0,1.875,0.84,1.875,1.875c0,0.518-0.21,0.987-0.549,1.326l0,0l-5.55,5.55l5.55,5.55l0,0
	c0.339,0.34,0.549,0.808,0.549,1.326C-557.651,17.897-558.491,18.737-559.526,18.737z"/>
<path id="PLAY_2_" style="fill-rule:evenodd;clip-rule:evenodd;fill:#8B8B8B;" d="M-515.468,9.123c-0.752,0-1.409-0.405-1.766-1.008
	l0,0L-526.106-6.9c-0.003-0.005-0.006-0.011-0.009-0.016l-0.005-0.008l0,0c-0.181-0.306-0.285-0.662-0.285-1.043
	c0-1.133,0.918-2.051,2.051-2.051l0,0h17.774l0,0c1.132,0,2.051,0.918,2.051,2.051c0,0.381-0.104,0.738-0.285,1.043l0,0
	l-0.005,0.008c-0.003,0.005-0.006,0.011-0.01,0.016l-8.872,15.015l0,0C-514.06,8.718-514.716,9.123-515.468,9.123z"/>
<g>
	<path style="fill:#2A9BDB;" d="M-386.233,21.482c-2.025,0-3.673-1.647-3.673-3.673V-5.845c0-2.025,1.647-3.673,3.673-3.673h23.654
		c2.025,0,3.673,1.647,3.673,3.673v23.654c0,2.025-1.647,3.673-3.673,3.673H-386.233z"/>
	<path style="fill:#1C5996;" d="M-362.579-9.018c1.75,0,3.173,1.423,3.173,3.173v23.654c0,1.75-1.423,3.173-3.173,3.173h-23.654
		c-1.75,0-3.173-1.423-3.173-3.173V-5.845c0-1.75,1.423-3.173,3.173-3.173H-362.579 M-362.579-10.018h-23.654
		c-2.305,0-4.173,1.868-4.173,4.173v23.654c0,2.305,1.868,4.173,4.173,4.173h23.654c2.305,0,4.173-1.868,4.173-4.173V-5.845
		C-358.406-8.15-360.274-10.018-362.579-10.018L-362.579-10.018z"/>
</g>
<polygon style="fill-rule:evenodd;clip-rule:evenodd;" points="-379.906,13.223 -379.906,13.223 -379.905,13.223 "/>
<polygon style="fill-rule:evenodd;clip-rule:evenodd;" points="-368.905,13.223 -368.906,13.223 -368.905,13.223 "/>
<polygon style="fill-rule:evenodd;clip-rule:evenodd;" points="-367.406,11.723 -367.406,11.722 -367.406,11.723 "/>
<path style="fill-rule:evenodd;clip-rule:evenodd;fill:#FFFFFF;" d="M-364.279,2.051l-11.355,11.355l0,0
	c-0.385,0.385-0.918,0.624-1.505,0.624c-0.588,0-1.12-0.238-1.505-0.624l0,0l-6.387-6.387l0,0c-0.385-0.385-0.624-0.918-0.624-1.506
	c0-1.176,0.953-2.129,2.129-2.129c0.588,0,1.12,0.238,1.505,0.624l0,0l4.882,4.882l9.849-9.849l0,0
	c0.385-0.385,0.918-0.624,1.505-0.624c1.176,0,2.129,0.953,2.129,2.129C-363.656,1.134-363.894,1.666-364.279,2.051L-364.279,2.051z
	"/>
<g>
	<path style="fill:#FFFFFF;" d="M-151.827,21.482c-2.025,0-3.673-1.647-3.673-3.673V-5.845c0-2.025,1.647-3.673,3.673-3.673h23.654
		c2.025,0,3.673,1.647,3.673,3.673v23.654c0,2.025-1.647,3.673-3.673,3.673H-151.827z"/>
	<path style="fill:#FFDA59;" d="M-128.173-9.018c1.75,0,3.173,1.423,3.173,3.173v23.654c0,1.75-1.423,3.173-3.173,3.173h-23.654
		c-1.75,0-3.173-1.423-3.173-3.173V-5.845c0-1.75,1.423-3.173,3.173-3.173H-128.173 M-128.173-10.018h-23.654
		c-2.305,0-4.173,1.868-4.173,4.173v23.654c0,2.305,1.868,4.173,4.173,4.173h23.654c2.305,0,4.173-1.868,4.173-4.173V-5.845
		C-124-8.15-125.868-10.018-128.173-10.018L-128.173-10.018z"/>
</g>
<polygon style="fill-rule:evenodd;clip-rule:evenodd;" points="-145.5,13.223 -145.5,13.223 -145.5,13.223 "/>
<polygon style="fill-rule:evenodd;clip-rule:evenodd;" points="-134.5,13.223 -134.5,13.223 -134.5,13.223 "/>
<polygon style="fill-rule:evenodd;clip-rule:evenodd;" points="-133,11.723 -133,11.722 -133,11.723 "/>
<circle style="fill:none;stroke:#2A9BDB;stroke-width:2.0873;stroke-miterlimit:10;" cx="-473.337" cy="34.535" r="6.21"/>
<rect x="-468.915" y="31.651" style="fill:#FFFFFF;" width="3.051" height="2.884"/>
<rect x="-480.948" y="34.535" style="fill:#FFFFFF;" width="3.051" height="2.884"/>
<g>
	<defs>
		
			<rect id="SVGID_5_" x="-480.478" y="35.892" transform="matrix(-1 -0.0021 0.0021 -1 -956.2829 75.525)" width="4.752" height="4.752"/>
	</defs>
	<clipPath id="SVGID_1_">
		<use xlink:href="#SVGID_5_"  style="overflow:visible;"/>
	</clipPath>
	
		<rect x="-483.7" y="34.228" transform="matrix(-0.7086 0.7056 -0.7056 -0.7086 -793.9545 401.0911)" style="clip-path:url(#SVGID_1_);fill:#2A9BDB;" width="7.804" height="4.752"/>
</g>
<g>
	<defs>
		
			<rect id="SVGID_7_" x="-470.941" y="28.583" transform="matrix(1 0.0021 -0.0021 1 0.0645 0.9915)" width="4.752" height="4.752"/>
	</defs>
	<clipPath id="SVGID_2_">
		<use xlink:href="#SVGID_7_"  style="overflow:visible;"/>
	</clipPath>
	
		<rect x="-470.771" y="30.247" transform="matrix(0.7086 -0.7056 0.7056 0.7086 -159.0643 -319.9209)" style="clip-path:url(#SVGID_2_);fill:#2A9BDB;" width="7.804" height="4.752"/>
</g>
<path id="BIN_2_" style="fill-rule:evenodd;clip-rule:evenodd;fill:#C65739;" d="M-254.406-5.072c0-0.912,0.739-1.65,1.65-1.65
	h8.252v-1.65c0-0.912,0.739-1.65,1.65-1.65h3.301c0.911,0,1.65,0.739,1.65,1.65v1.65h8.252c0.911,0,1.65,0.739,1.65,1.65v1.65
	h-26.405V-5.072z M-229.651-0.121V3.18v17.054c0,0.911-0.739,1.65-1.65,1.65h-19.804c-0.911,0-1.65-0.739-1.65-1.65V3.18v-3.301
	v-1.65h23.105V-0.121z M-246.154,3.18c0-0.911-0.739-1.65-1.65-1.65c-0.911,0-1.65,0.739-1.65,1.65v13.753
	c0,0.912,0.739,1.65,1.65,1.65c0.911,0,1.65-0.739,1.65-1.65V3.18z M-239.553,3.18c0-0.911-0.739-1.65-1.65-1.65
	c-0.911,0-1.65,0.739-1.65,1.65v13.753c0,0.912,0.739,1.65,1.65,1.65c0.911,0,1.65-0.739,1.65-1.65V3.18z M-232.951,3.18
	c0-0.911-0.739-1.65-1.65-1.65c-0.911,0-1.65,0.739-1.65,1.65v13.753c0,0.912,0.739,1.65,1.65,1.65c0.911,0,1.65-0.739,1.65-1.65
	V3.18z"/>
<polygon style="fill-rule:evenodd;clip-rule:evenodd;" points="-197.5,13.223 -197.5,13.223 -197.5,13.223 "/>
<polygon style="fill-rule:evenodd;clip-rule:evenodd;" points="-186.5,13.223 -186.5,13.223 -186.5,13.223 "/>
<polygon style="fill-rule:evenodd;clip-rule:evenodd;" points="-185,11.723 -185,11.722 -185,11.723 "/>
<path id="MAGNIFYING_GLASS_2_" style="fill-rule:evenodd;clip-rule:evenodd;fill:#414143;" d="M-176.879,16.861
	c0.543,0.543,0.879,1.293,0.879,2.121c0,1.657-1.343,3-3,3c-0.828,0-1.578-0.336-2.121-0.879l0,0l-8.792-8.792
	c-1.786,1.055-3.862,1.671-6.086,1.671c-6.627,0-12-5.373-12-12c0-6.627,5.373-12,12-12c6.627,0,12,5.373,12,12
	c0,2.224-0.616,4.3-1.671,6.086L-176.879,16.861L-176.879,16.861z M-196-7.018c-4.971,0-9,4.029-9,9c0,4.971,4.029,9,9,9
	c4.971,0,9-4.03,9-9C-187-2.988-191.03-7.018-196-7.018z"/>
<path id="RESIZE_1_7_" style="fill-rule:evenodd;clip-rule:evenodd;fill:#6F6600;" d="M-127.583-0.031L-127.583-0.031
	c0,0.707-0.573,1.281-1.281,1.281c-0.707,0-1.281-0.573-1.281-1.281l0,0v-2.031l-6.352,6.352c-0.232,0.232-0.552,0.375-0.906,0.375
	c-0.707,0-1.281-0.573-1.281-1.281c0-0.354,0.143-0.674,0.375-0.906l0,0l6.352-6.352h-2.031l0,0c-0.707,0-1.281-0.574-1.281-1.281
	s0.573-1.281,1.281-1.281l0,0h5.123l0,0c0.707,0,1.281,0.574,1.281,1.281l0,0V-0.031z M-141.62,9.413l-6.352,6.352h2.031l0,0
	c0.707,0,1.281,0.573,1.281,1.281c0,0.707-0.573,1.281-1.281,1.281l0,0h-5.123l0,0c-0.707,0-1.281-0.574-1.281-1.281l0,0v-5.123l0,0
	c0-0.707,0.573-1.281,1.281-1.281c0.707,0,1.281,0.573,1.281,1.281l0,0v2.031l6.352-6.352c0.232-0.232,0.552-0.375,0.906-0.375
	c0.707,0,1.281,0.573,1.281,1.281C-141.245,8.861-141.388,9.181-141.62,9.413L-141.62,9.413z"/>
<path style="fill-rule:evenodd;clip-rule:evenodd;fill:#6F6600;" d="M-135.756,2.138c0.395,0.395,0.319,1.11-0.169,1.598
	l-6.047,6.047c-0.488,0.488-1.204,0.564-1.598,0.169l-0.376-0.376c-0.395-0.395-0.319-1.11,0.169-1.598l6.047-6.047
	c0.488-0.488,1.204-0.564,1.598-0.169L-135.756,2.138z"/>
<polygon style="fill-rule:evenodd;clip-rule:evenodd;" points="-93.5,13.223 -93.5,13.223 -93.5,13.223 "/>
<polygon style="fill-rule:evenodd;clip-rule:evenodd;" points="-82.5,13.223 -82.5,13.223 -82.5,13.223 "/>
<polygon style="fill-rule:evenodd;clip-rule:evenodd;" points="-81,11.723 -81,11.722 -81,11.723 "/>
<path style="fill-rule:evenodd;clip-rule:evenodd;fill:#1C5996;" d="M-72.961,15.851l-14.459,5.983
	c-0.182,0.078-0.382,0.122-0.593,0.122c-0.211,0-0.411-0.044-0.593-0.122l-14.459-5.983c-0.548-0.223-0.935-0.76-0.935-1.389V-8.519
	c0-0.828,0.671-1.499,1.499-1.499c0.203,0,0.396,0.041,0.573,0.114v0l0.002,0.001c0.005,0.002,0.009,0.004,0.013,0.006l13.899,5.751
	l13.899-5.751c0.004-0.002,0.009-0.004,0.013-0.006l0.002-0.001l0,0c0.177-0.073,0.37-0.114,0.573-0.114
	c0.828,0,1.499,0.671,1.499,1.499v22.981C-72.026,15.09-72.413,15.628-72.961,15.851z"/>
<polygon style="fill-rule:evenodd;clip-rule:evenodd;fill:#FFFFFF;" points="-89.356,18.519 -89.356,-1.431 -100.97,-6.237 
	-100.97,13.713 "/>
<polygon style="fill-rule:evenodd;clip-rule:evenodd;fill:#FFFFFF;" points="-74.712,-6.237 -86.326,-1.431 -86.326,18.519 
	-74.712,13.713 "/>
<g>
	<polygon style="fill-rule:evenodd;clip-rule:evenodd;" points="-41.5,13.972 -41.5,13.972 -41.5,13.972 	"/>
	<polygon style="fill-rule:evenodd;clip-rule:evenodd;" points="-30.5,13.972 -30.5,13.972 -30.5,13.972 	"/>
	<polygon style="fill-rule:evenodd;clip-rule:evenodd;" points="-29,12.473 -29,12.472 -29,12.472 	"/>
	<path style="fill-rule:evenodd;clip-rule:evenodd;fill:#1C5996;" d="M-21.272,0.976c-1.582-3.693-4.543-6.654-8.236-8.236
		c0.999-0.786,2.256-1.259,3.625-1.259c3.242,0,5.87,2.628,5.87,5.87C-20.013-1.28-20.486-0.023-21.272,0.976z"/>
	<path style="fill-rule:evenodd;clip-rule:evenodd;fill:#1C5996;" d="M-21.512,7.468c0,3.849-1.511,7.338-3.959,9.932l2.026,2.026
		c0.268,0.268,0.434,0.639,0.434,1.048c0,0.818-0.663,1.482-1.482,1.482c-0.409,0-0.78-0.166-1.048-0.434l-2.177-2.177
		c-2.349,1.641-5.2,2.611-8.283,2.611c-3.076,0-5.923-0.966-8.269-2.601l-2.162,2.162c-0.271,0.271-0.646,0.439-1.06,0.439
		c-0.828,0-1.499-0.671-1.499-1.499c0-0.414,0.168-0.789,0.439-1.06l2.01-2.01c-2.441-2.593-3.948-6.077-3.948-9.92
		C-50.488-0.534-44.002-7.02-36-7.02S-21.512-0.534-21.512,7.468z"/>
	<circle style="fill-rule:evenodd;clip-rule:evenodd;fill:#FFFFFF;" cx="-36" cy="7.468" r="11.491"/>
	<path style="fill-rule:evenodd;clip-rule:evenodd;fill:#1C5996;" d="M-30.005,8.967H-36c-0.828,0-1.499-0.671-1.499-1.499v-7.993
		c0-0.828,0.671-1.499,1.499-1.499c0.828,0,1.499,0.671,1.499,1.499v6.495h4.496c0.828,0,1.499,0.671,1.499,1.499
		C-28.506,8.296-29.177,8.967-30.005,8.967z"/>
	<path style="fill-rule:evenodd;clip-rule:evenodd;fill:#1C5996;" d="M-50.701,1.179c-0.803-1.02-1.286-2.304-1.286-3.703
		c0-3.311,2.684-5.995,5.995-5.995c1.399,0,2.683,0.483,3.703,1.286C-46.061-5.617-49.085-2.593-50.701,1.179z"/>
</g>
<g>
	<path style="fill-rule:evenodd;clip-rule:evenodd;fill:#FFFFFF;" d="M32,20.544c0,0.794-0.644,1.438-1.438,1.438H1.438
		C0.644,21.982,0,21.338,0,20.544V1.622c0-0.906,0.734-1.64,1.64-1.64h28.72c0.906,0,1.64,0.734,1.64,1.64V20.544z"/>
	<path id="MAIL_2_" style="fill-rule:evenodd;clip-rule:evenodd;fill:#1C5996;" d="M21.807,9.862l9.734-9.43
		c0.275,0.272,0.447,0.649,0.447,1.066v18.985c0,0.394-0.155,0.75-0.404,1.018L21.807,9.862z M0.512,0.39
		C0.777,0.15,1.126,0,1.512,0h28.976c0.386,0,0.734,0.15,1,0.39L16,12.49L0.512,0.39z M0.417,21.501
		c-0.249-0.267-0.404-0.623-0.404-1.018V1.499c0-0.417,0.171-0.794,0.447-1.066l9.734,9.43L0.417,21.501z M16,15.487l4.065-3.937
		l11.451,10.02c-0.268,0.254-0.629,0.412-1.028,0.412H1.512c-0.399,0-0.759-0.158-1.028-0.412l11.451-10.02L16,15.487z"/>
</g>
</svg>
