<?xml version="1.0" encoding="utf-8"?>
<!-- Generator: Adobe Illustrator 18.1.0, SVG Export Plug-In . SVG Version: 6.00 Build 0)  -->
<!DOCTYPE svg PUBLIC "-//W3C//DTD SVG 1.1//EN" "http://www.w3.org/Graphics/SVG/1.1/DTD/svg11.dtd">
<svg version="1.1" id="Layer_1" xmlns="http://www.w3.org/2000/svg" xmlns:xlink="http://www.w3.org/1999/xlink" x="0px" y="0px"
	 viewBox="0 0 13 13" enable-background="new 0 0 13 13" xml:space="preserve">
<g>
	<path fill="#1C5996" d="M12.4,13H0.6C0.3,13,0,12.7,0,12.4V2.2c0-0.3,0.3-0.6,0.6-0.6h1.2v0.6c0,0.8,0.6,1.4,1.4,1.4S4.7,3,4.7,2.2
		V1.6h3.7v0.6C8.3,3,9,3.7,9.8,3.7s1.4-0.6,1.4-1.4V1.6h1.2c0.3,0,0.6,0.3,0.6,0.6v10.2C13,12.7,12.7,13,12.4,13z"/>
	<rect x="1.2" y="4.9" fill="#FFFFFF" width="10.6" height="6.9"/>
	<path fill="#1C5996" d="M4.5,7.7c0.2,0,0.3,0.1,0.4,0.2l1,1l2.4-2.4c0.1-0.1,0.3-0.2,0.4-0.2c0.3,0,0.6,0.3,0.6,0.6
		c0,0.2-0.1,0.3-0.2,0.4l-2.8,2.8c-0.1,0.1-0.3,0.2-0.4,0.2s-0.3-0.1-0.4-0.2L4,8.8C3.9,8.7,3.9,8.5,3.9,8.3C3.9,8,4.1,7.7,4.5,7.7z
		"/>
	<path fill="#1C5996" d="M9.8,2.8c-0.3,0-0.6-0.3-0.6-0.6V0.6C9.1,0.3,9.4,0,9.8,0s0.6,0.3,0.6,0.6v1.6C10.4,2.6,10.1,2.8,9.8,2.8z"
		/>
	<path fill="#1C5996" d="M3.2,2.8c-0.3,0-0.6-0.3-0.6-0.6V0.6C2.6,0.3,2.9,0,3.2,0s0.6,0.3,0.6,0.6v1.6C3.9,2.6,3.6,2.8,3.2,2.8z"/>
</g>
</svg>
