<?xml version="1.0" encoding="iso-8859-1"?>
<!-- Generator: Adobe Illustrator 17.1.0, SVG Export Plug-In . SVG Version: 6.00 Build 0)  -->
<!DOCTYPE svg PUBLIC "-//W3C//DTD SVG 1.1//EN" "http://www.w3.org/Graphics/SVG/1.1/DTD/svg11.dtd">
<svg version="1.1" id="Layer_1" xmlns="http://www.w3.org/2000/svg" xmlns:xlink="http://www.w3.org/1999/xlink" x="0px" y="0px"
	 viewBox="0 0 22 19.141" style="enable-background:new 0 0 22 19.141;" xml:space="preserve">
<g>
	<path style="fill:#FFFFFF;" d="M-374,39c-10.477,0-19-8.523-19-19s8.523-19,19-19s19,8.523,19,19S-363.523,39-374,39z"/>
	<path style="fill:#D53A3A;" d="M-374,2c9.925,0,18,8.075,18,18s-8.075,18-18,18s-18-8.075-18-18S-383.925,2-374,2 M-374,0
		c-11.046,0-20,8.954-20,20s8.954,20,20,20c11.046,0,20-8.954,20-20S-362.954,0-374,0L-374,0z"/>
</g>
<text transform="matrix(1 0 0 1 -378.8908 32.4288)" style="fill:#D53A3A; font-family:'OpenSans-Bold'; font-size:34.9664;">!</text>
<g>
	<path style="fill:#FFFFFF;" d="M-94,35.1c-9.429,0-17.1-7.671-17.1-17.1S-103.429,0.9-94,0.9S-76.9,8.571-76.9,18
		S-84.571,35.1-94,35.1z"/>
	<path style="fill:#FFFFFF;" d="M-94,1.8c8.933,0,16.2,7.267,16.2,16.2S-85.067,34.2-94,34.2s-16.2-7.267-16.2-16.2
		S-102.933,1.8-94,1.8 M-94,0c-9.941,0-18,8.059-18,18c0,9.941,8.059,18,18,18s18-8.059,18-18C-76,8.059-84.059,0-94,0L-94,0z"/>
</g>
<g>
	<path style="fill:#FFFFFF;" d="M-314,39c-10.477,0-19-8.523-19-19s8.523-19,19-19s19,8.523,19,19S-303.523,39-314,39z"/>
	<path style="fill:#2A9BDB;" d="M-314,2c9.925,0,18,8.075,18,18s-8.075,18-18,18s-18-8.075-18-18S-323.925,2-314,2 M-314,0
		c-11.046,0-20,8.954-20,20s8.954,20,20,20c11.046,0,20-8.954,20-20S-302.954,0-314,0L-314,0z"/>
</g>
<text transform="matrix(1 0 0 1 -321.3098 32.4288)" style="fill:#2A9BDB; font-family:'OpenSans-Bold'; font-size:34.9664;">?</text>
<g>
	<path style="fill:#2A9BDB;" d="M-254,39c-10.477,0-19-8.523-19-19s8.523-19,19-19s19,8.523,19,19S-243.523,39-254,39z"/>
	<path style="fill:#2A9BDB;" d="M-254,2c9.925,0,18,8.075,18,18s-8.075,18-18,18s-18-8.075-18-18S-263.925,2-254,2 M-254,0
		c-11.046,0-20,8.954-20,20s8.954,20,20,20s20-8.954,20-20S-242.954,0-254,0L-254,0z"/>
</g>
<text transform="matrix(1 0 0 1 -259.3545 33.291)" style="fill:#FFFFFF; font-family:'Garamond-Bold'; font-size:41.5087;">i</text>
<g>
	<path style="fill:#FFFFFF;" d="M-194,39c-10.477,0-19-8.523-19-19s8.523-19,19-19s19,8.523,19,19S-183.523,39-194,39z"/>
	<g>
		<path style="fill:#2A9BDB;" d="M-194,2c9.925,0,18,8.075,18,18s-8.075,18-18,18s-18-8.075-18-18S-203.925,2-194,2 M-194,0
			c-11.046,0-20,8.954-20,20s8.954,20,20,20s20-8.954,20-20S-182.954,0-194,0L-194,0z"/>
	</g>
</g>
<text transform="matrix(1 0 0 1 -199.3545 33.291)" style="fill:#2A9BDB; font-family:'Garamond-Bold'; font-size:41.5087;">i</text>
<circle style="fill:#2A9BDB;" cx="-143" cy="10.995" r="11"/>
<circle style="fill:#2A9BDB;" cx="-91" cy="188.995" r="11"/>
<path id="PEN_2_2_" style="fill-rule:evenodd;clip-rule:evenodd;fill:#2A9BDB;" d="M-85.313,26.284h-17.373
	c-0.496,0-0.899-0.402-0.899-0.899c0-0.496,0.402-0.899,0.899-0.899h17.373c0.496,0,0.899,0.402,0.899,0.899
	C-84.415,25.881-84.817,26.284-85.313,26.284z M-88.958,12.964l-2.53-2.525l1.897-1.894c0.349-0.349,0.916-0.349,1.265,0
	l1.265,1.262c0.349,0.349,0.349,0.914,0,1.262L-88.958,12.964z M-97.18,21.17l-2.53-2.525l7.59-7.575l2.53,2.525L-97.18,21.17z
	 M-101.19,22.641l0.842-3.366l2.53,2.525L-101.19,22.641z"/>
<g>
	<path style="fill:#FFFFFF;" d="M-38,35.1c-9.429,0-17.1-7.671-17.1-17.1S-47.429,0.9-38,0.9S-20.9,8.571-20.9,18
		S-28.571,35.1-38,35.1z"/>
	<path style="fill:#FFFFFF;" d="M-38,1.8c8.933,0,16.2,7.267,16.2,16.2S-29.067,34.2-38,34.2S-54.2,26.933-54.2,18
		S-46.933,1.8-38,1.8 M-38,0c-9.941,0-18,8.059-18,18c0,9.941,8.059,18,18,18s18-8.059,18-18C-20,8.059-28.059,0-38,0L-38,0z"/>
</g>
<path id="CAMERA_2_" style="fill-rule:evenodd;clip-rule:evenodd;fill:#939393;" d="M-29.844,25.284h-16.313
	c-0.466,0-0.844-0.378-0.844-0.844V13.19c0-0.466,0.378-0.844,0.844-0.844h3.604l1.351-1.351c0.154-0.203,0.396-0.336,0.67-0.336
	h5.062c0.237,0,0.45,0.098,0.604,0.256l0.001-0.001l1.433,1.433h3.588c0.466,0,0.844,0.378,0.844,0.844v11.25
	C-29,24.906-29.378,25.284-29.844,25.284z M-38,13.471c-2.796,0-5.063,2.267-5.063,5.062c0,2.796,2.267,5.062,5.063,5.062
	s5.062-2.266,5.062-5.062C-32.938,15.738-35.204,13.471-38,13.471z M-38,21.909c-1.864,0-3.375-1.511-3.375-3.375
	c0-1.864,1.511-3.375,3.375-3.375c1.864,0,3.375,1.511,3.375,3.375C-34.625,20.398-36.136,21.909-38,21.909z"/>
<path id="SQUARE__x2F__RIGHT_2_" style="fill-rule:evenodd;clip-rule:evenodd;fill:#FFFFFF;" d="M-210.847,105.971h-8.625
	c-1.191,0-2.156-0.965-2.156-2.156c0-1.191,0.965-2.156,2.156-2.156h6.469V95.19l0,0c0-1.191,0.965-2.156,2.156-2.156
	c1.191,0,2.156,0.965,2.156,2.156v8.625C-208.691,105.006-209.656,105.971-210.847,105.971z M-210.847,77.221
	c1.191,0,2.156,0.965,2.156,2.156v7.188c0,1.191-0.965,2.156-2.156,2.156s-2.156-0.966-2.156-2.156v-7.188
	C-213.003,78.187-212.038,77.221-210.847,77.221z M-210.847,72.909c-1.191,0-2.156-0.965-2.156-2.156l0,0v-6.468h-6.469v0
	c-1.191,0-2.156-0.965-2.156-2.156s0.965-2.156,2.156-2.156h0h8.625c1.191,0,2.156,0.965,2.156,2.156v8.625
	C-208.691,71.943-209.656,72.909-210.847,72.909z M-228.097,64.284h-7.187c-1.191,0-2.156-0.965-2.156-2.156
	s0.965-2.156,2.156-2.156h7.187c1.191,0,2.156,0.966,2.156,2.156S-226.906,64.284-228.097,64.284z M-230.977,78.105l0.005-0.006
	c-0.438-0.395-0.719-0.961-0.719-1.597c0-1.191,0.965-2.156,2.156-2.156c0.555,0,1.055,0.215,1.437,0.559l0.005-0.006l7.187,6.469
	l-0.005,0.006c0.438,0.395,0.719,0.961,0.719,1.597c0,0.636-0.281,1.202-0.719,1.597l0.005,0.006l-7.187,6.469l-0.005-0.006
	c-0.382,0.344-0.883,0.559-1.437,0.559c-1.191,0-2.156-0.965-2.156-2.156c0-0.636,0.281-1.202,0.719-1.597l-0.005-0.006l3.011-2.71
	h-13.068c-1.191,0-2.156-0.965-2.156-2.156c0-1.191,0.965-2.156,2.156-2.156h13.068L-230.977,78.105z M-243.91,64.284
	L-243.91,64.284l-6.469,0v6.469c0,1.191-0.965,2.156-2.156,2.156c-1.191,0-2.156-0.965-2.156-2.156l0,0v-8.625
	c0-1.191,0.965-2.156,2.156-2.156h8.625h0c1.191,0,2.156,0.965,2.156,2.156S-242.719,64.284-243.91,64.284z M-252.535,88.721
	c-1.191,0-2.156-0.966-2.156-2.156v-7.188c0-1.191,0.965-2.156,2.156-2.156c1.191,0,2.156,0.965,2.156,2.156v7.188
	C-250.378,87.756-251.344,88.721-252.535,88.721z M-252.535,93.034c1.191,0,2.156,0.965,2.156,2.156v6.469h6.469
	c1.191,0,2.156,0.965,2.156,2.156c0,1.191-0.965,2.156-2.156,2.156h-8.625c-1.191,0-2.156-0.965-2.156-2.156V95.19l0,0
	C-254.691,93.999-253.725,93.034-252.535,93.034z M-235.285,101.659h7.187c1.191,0,2.156,0.965,2.156,2.156
	s-0.965,2.156-2.156,2.156h-7.187c-1.191,0-2.156-0.965-2.156-2.156S-236.475,101.659-235.285,101.659z"/>
<g>
	<path style="fill:#D69D9D;stroke:#E02222;stroke-miterlimit:10;" d="M-385.33,63.225c-0.36,0.662-2.3,4.416-2.248,7.854
		c0,0-0.034,1.158,0.834,1.532c0.281,0.122,1.925,0.821,2.105,1.002c0,0,0.999,2.155,1.806,3.129
		c1.869,2.258,3.36,3.413,3.792,3.731c0.273,0.202,0.901,0.447,2.183,1.787c1.008,1.053,1.083,2.167,1.837,2.179
		c0.075,0.002,0.09-0.006,0.251-0.055c0.403-0.123,2.218-1.563,0.722-3.971c0,0-0.751-1.183-2.046-2.288c0,0-1.768-1.55,0.181-2.708
		c0,0,1.263-0.646,2.8-0.561c0.625,0.035,1.594,0.2,1.894,0.259c0.301,0.061,1.305,0.369,2.106-0.12
		c1.548-0.945,0.663-9.409-2.9-12.313c-1.343-1.096-5.945-1.467-8.473-0.745c0,0-1.435,0.502-2.167,0.422
		c-1.022-0.115-1.647,0.064-1.647,0.064S-384.969,62.563-385.33,63.225z"/>
	<path style="fill:#E02222;" d="M-391.034,72.661c1.226,0.191,2.353,0.381,2.592,0.407c0.208,0.023,0.227-0.253,0.054-0.334
		c-0.214-0.123-0.512-0.492-0.598-1.255c-0.006-0.554-0.448-4.111,2.502-9.001c0.682-1.128,1.203-1.09,2.075-1.168
		c-0.039-0.527-0.843-0.818-0.843-0.818s-2.565-0.833-4.123-0.331c0,0-2.297,0.487-3.718,4.757c-0.395,1.186-0.677,2.409-0.8,3.449
		c-0.06,0.499-0.094,0.952-0.105,1.332C-394.054,71.62-392.565,72.389-391.034,72.661z"/>
</g>
<path style="fill:#C5E4D1;stroke:#069342;stroke-miterlimit:10;" d="M-329.719,82.214c0.36-0.662,2.3-4.416,2.248-7.854
	c0,0,0.034-1.158-0.834-1.532c-0.281-0.122-1.925-0.821-2.105-1.002c0,0-0.999-2.155-1.806-3.129
	c-1.869-2.258-3.36-3.413-3.792-3.731c-0.273-0.202-0.901-0.447-2.183-1.787c-1.008-1.053-1.083-2.167-1.837-2.179
	c-0.075-0.002-0.09,0.006-0.251,0.055c-0.403,0.123-2.218,1.563-0.722,3.971c0,0,0.751,1.183,2.046,2.288
	c0,0,1.768,1.55-0.181,2.708c0,0-1.263,0.646-2.8,0.561c-0.625-0.035-1.594-0.2-1.894-0.259c-0.301-0.061-1.305-0.369-2.106,0.12
	c-1.548,0.945-0.663,9.409,2.9,12.313c1.343,1.096,5.945,1.467,8.473,0.745c0,0,1.435-0.502,2.167-0.422
	c1.022,0.115,1.647-0.064,1.647-0.064S-330.08,82.876-329.719,82.214z"/>
<path style="fill:#069342;" d="M-324.015,72.778c-1.226-0.191-2.353-0.381-2.592-0.407c-0.208-0.023-0.227,0.253-0.054,0.334
	c0.214,0.123,0.512,0.492,0.598,1.255c0.006,0.554,0.448,4.111-2.502,9.001c-0.682,1.128-1.203,1.09-2.075,1.168
	c0.039,0.527,0.843,0.818,0.843,0.818s2.565,0.833,4.123,0.331c0,0,2.297-0.487,3.718-4.757c0.395-1.186,0.677-2.409,0.8-3.449
	c0.06-0.499,0.094-0.952,0.105-1.332C-320.995,73.819-322.484,73.05-324.015,72.778z"/>
<path style="fill:#F2F2F2;stroke:#CFCFCF;stroke-miterlimit:10;" d="M-283.36,82.214c0.36-0.662,2.3-4.416,2.248-7.854
	c0,0,0.034-1.158-0.834-1.532c-0.281-0.122-1.925-0.821-2.105-1.002c0,0-0.999-2.155-1.806-3.129
	c-1.869-2.258-3.36-3.413-3.792-3.731c-0.273-0.202-0.901-0.447-2.183-1.787c-1.008-1.053-1.083-2.167-1.837-2.179
	c-0.075-0.002-0.09,0.006-0.251,0.055c-0.403,0.123-2.218,1.563-0.722,3.971c0,0,0.751,1.183,2.046,2.288
	c0,0,1.768,1.55-0.181,2.708c0,0-1.263,0.646-2.8,0.561c-0.625-0.035-1.594-0.2-1.894-0.259c-0.301-0.061-1.305-0.369-2.106,0.12
	c-1.548,0.945-0.663,9.409,2.9,12.313c1.343,1.096,5.945,1.467,8.473,0.745c0,0,1.435-0.502,2.167-0.422
	c1.022,0.115,1.647-0.064,1.647-0.064S-283.721,82.876-283.36,82.214z"/>
<path style="fill:#CFCFCF;" d="M-277.656,72.778c-1.226-0.191-2.353-0.381-2.592-0.407c-0.208-0.023-0.227,0.253-0.054,0.334
	c0.214,0.123,0.512,0.492,0.598,1.255c0.006,0.554,0.448,4.111-2.502,9.001c-0.682,1.128-1.203,1.09-2.075,1.168
	c0.039,0.527,0.843,0.818,0.843,0.818s2.565,0.833,4.123,0.331c0,0,2.297-0.487,3.718-4.757c0.395-1.186,0.677-2.409,0.8-3.449
	c0.06-0.499,0.094-0.952,0.105-1.332C-274.636,73.819-276.125,73.05-277.656,72.778z"/>
<path style="fill:#D53A3A;" d="M-156.691,87.827c0,2.305-1.868,4.173-4.173,4.173h-23.654c-2.305,0-4.173-1.868-4.173-4.173V64.173
	c0-2.305,1.868-4.173,4.173-4.173h23.654c2.305,0,4.173,1.868,4.173,4.173V87.827z"/>
<path id="CLOSE_1_" style="fill-rule:evenodd;clip-rule:evenodd;fill:#FFFFFF;" d="M-162.971,68.838L-170.133,76l7.162,7.162l0,0
	c0.327,0.327,0.53,0.779,0.53,1.279c0,0.999-0.81,1.809-1.809,1.809c-0.5,0-0.952-0.203-1.279-0.53l0,0l-7.162-7.162l-7.162,7.162
	l0,0c-0.327,0.327-0.78,0.53-1.279,0.53c-0.999,0-1.809-0.81-1.809-1.809c0-0.5,0.202-0.952,0.53-1.279l0,0l7.162-7.162
	l-7.162-7.162l0,0c-0.327-0.327-0.53-0.78-0.53-1.279c0-0.999,0.81-1.809,1.809-1.809c0.499,0,0.952,0.202,1.279,0.53l0,0
	l7.162,7.162l7.162-7.162l0,0c0.327-0.327,0.78-0.53,1.279-0.53c0.999,0,1.809,0.81,1.809,1.809
	C-162.441,68.058-162.643,68.511-162.971,68.838L-162.971,68.838z"/>
<path style="fill:#1C5996;" d="M-104.691,87.827c0,2.305-1.868,4.173-4.173,4.173h-23.654c-2.305,0-4.173-1.868-4.173-4.173V64.173
	c0-2.305,1.868-4.173,4.173-4.173h23.654c2.305,0,4.173,1.868,4.173,4.173V87.827z"/>
<path style="fill-rule:evenodd;clip-rule:evenodd;fill:#FFFFFF;" d="M-114.157,71.45L-114.157,71.45
	c0.722,0.722,0.721,1.892,0,2.613c-0.722,0.722-1.892,0.722-2.613,0l0,0l-2.072-2.072l0,12.961c0,0.473-0.18,0.946-0.541,1.307
	c-0.722,0.722-1.892,0.722-2.613,0c-0.361-0.361-0.541-0.834-0.541-1.307l0,0l0-12.961l-2.072,2.072l0,0
	c-0.722,0.722-1.892,0.722-2.613,0s-0.722-1.892,0-2.613l0,0l5.227-5.227l0,0c0.722-0.722,1.892-0.722,2.613,0l0,0L-114.157,71.45z"
	/>
<path style="fill:#1C5996;" d="M-84.691,64.173c0-2.305,1.868-4.173,4.173-4.173h23.654c2.305,0,4.173,1.868,4.173,4.173l0,23.654
	c0,2.305-1.868,4.173-4.173,4.173h-23.654c-2.305,0-4.173-1.868-4.173-4.173V64.173z"/>
<path style="fill-rule:evenodd;clip-rule:evenodd;fill:#FFFFFF;" d="M-75.224,80.55L-75.224,80.55c-0.722-0.722-0.721-1.892,0-2.613
	c0.722-0.722,1.892-0.722,2.613,0l0,0l2.072,2.072l0-12.961c0-0.473,0.18-0.946,0.541-1.307c0.722-0.722,1.892-0.722,2.613,0
	c0.361,0.361,0.541,0.834,0.541,1.307l0,0l0,12.961l2.072-2.072l0,0c0.722-0.722,1.892-0.722,2.613,0
	c0.722,0.722,0.722,1.892,0,2.613l0,0l-5.227,5.227l0,0c-0.722,0.722-1.892,0.722-2.613,0l0,0L-75.224,80.55z"/>
<g>
	<path style="fill:#FFFFFF;" d="M-389.827,157c-1.75,0-3.174-1.423-3.174-3.173v-23.654c0-1.75,1.424-3.173,3.174-3.173h23.653
		c1.75,0,3.173,1.423,3.173,3.173v23.654c0,1.75-1.423,3.173-3.173,3.173H-389.827z"/>
	<path style="fill:#1C5996;" d="M-366.173,128c1.198,0,2.173,0.975,2.173,2.173v23.654c0,1.198-0.975,2.173-2.173,2.173h-23.654
		c-1.198,0-2.173-0.975-2.173-2.173v-23.654c0-1.198,0.975-2.173,2.173-2.173H-366.173 M-366.173,126h-23.654
		c-2.305,0-4.173,1.868-4.173,4.173v23.654c0,2.305,1.868,4.173,4.173,4.173h23.654c2.305,0,4.173-1.868,4.173-4.173v-23.654
		C-362,127.868-363.868,126-366.173,126L-366.173,126z"/>
</g>
<path style="fill-rule:evenodd;clip-rule:evenodd;fill:#1C5996;" d="M-367.874,138.069l-11.355,11.355l0,0
	c-0.385,0.385-0.918,0.624-1.505,0.624c-0.588,0-1.12-0.238-1.505-0.624l0,0l-6.387-6.387l0,0c-0.385-0.385-0.624-0.918-0.624-1.506
	c0-1.176,0.953-2.129,2.129-2.129c0.588,0,1.12,0.238,1.505,0.624l0,0l4.882,4.882l9.849-9.849l0,0
	c0.385-0.385,0.918-0.624,1.505-0.624c1.176,0,2.129,0.953,2.129,2.129C-367.25,137.151-367.488,137.684-367.874,138.069
	L-367.874,138.069z"/>
<polygon style="fill-rule:evenodd;clip-rule:evenodd;" points="-383.5,149.241 -383.5,149.241 -383.5,149.241 "/>
<polygon style="fill-rule:evenodd;clip-rule:evenodd;" points="-372.5,149.241 -372.5,149.241 -372.5,149.241 "/>
<polygon style="fill-rule:evenodd;clip-rule:evenodd;" points="-371,147.741 -371,147.74 -371,147.741 "/>
<g>
	<path style="fill:#FFFFFF;" d="M-203.827,269.5c-2.025,0-3.673-1.647-3.673-3.673v-23.654c0-2.025,1.647-3.673,3.673-3.673h23.654
		c2.025,0,3.673,1.647,3.673,3.673v23.654c0,2.025-1.647,3.673-3.673,3.673H-203.827z"/>
	<path style="fill:#1C5996;" d="M-180.173,239c1.75,0,3.173,1.423,3.173,3.173v23.654c0,1.75-1.423,3.173-3.173,3.173h-23.654
		c-1.75,0-3.173-1.423-3.173-3.173v-23.654c0-1.75,1.423-3.173,3.173-3.173H-180.173 M-180.173,238h-23.654
		c-2.305,0-4.173,1.868-4.173,4.173v23.654c0,2.305,1.868,4.173,4.173,4.173h23.654c2.305,0,4.173-1.868,4.173-4.173v-23.654
		C-176,239.868-177.868,238-180.173,238L-180.173,238z"/>
</g>
<polygon style="fill-rule:evenodd;clip-rule:evenodd;" points="-197.5,261.241 -197.5,261.241 -197.5,261.241 "/>
<polygon style="fill-rule:evenodd;clip-rule:evenodd;" points="-186.5,261.241 -186.5,261.241 -186.5,261.241 "/>
<polygon style="fill-rule:evenodd;clip-rule:evenodd;" points="-185,259.741 -185,259.74 -185,259.741 "/>
<g>
	<path style="fill:#D69D9D;stroke:#E02222;stroke-miterlimit:10;" d="M-317.889,128.686l-0.006-0.007
		c-0.401-0.464-0.945-0.722-1.512-0.717c-2.738,0.024-11.142,0.096-15.517,0.114c-3.398,0.014-2.685,4.221-0.791,4.209
		c-3.112,0-3.639,4.697-0.264,4.697c-4.559-0.02-3.936,4.614-1.266,4.636c-3.672,0-3.428,4.422,0.363,4.422
		c0.251-0.029,5.394-0.32,7.176-0.554c0.302-0.04,0.54,0.289,0.454,0.626l-1.264,4.962c-0.062,0.245-0.068,0.505-0.016,0.753
		c0.162,0.77,0.696,2.506,2.411,4.49c1.293,1.496,2.161,1.192,2.675,0.629c0.399-0.437,0.497-1.128,0.251-1.697
		c-0.306-0.706-0.634-1.929-0.131-3.324c0.791-2.196,4.002-6.188,5.169-6.527c0.983-0.285,1.437-0.467,2.268-0.847"/>
	<path style="fill:#E02222;" d="M-319.034,126.889c0-0.491,0.204-0.889,0.455-0.889h5.991c0.251,0,0.455,0.398,0.455,0.889v19.782
		c0,0.491-0.204,0.889-0.455,0.889h-5.991c-0.251,0-0.455-0.398-0.455-0.889V126.889z"/>
</g>
<g>
	<path style="fill:#C5E4D1;stroke:#069342;stroke-miterlimit:10;" d="M-282.111,155.301l0.006,0.007
		c0.401,0.464,0.945,0.722,1.512,0.717c2.738-0.024,11.142-0.096,15.517-0.114c3.398-0.014,2.685-4.221,0.791-4.209
		c3.112,0,3.639-4.697,0.264-4.697c4.559,0.02,3.936-4.614,1.266-4.636c3.672,0,3.428-4.422-0.363-4.422
		c-0.251,0.029-5.394,0.32-7.176,0.554c-0.302,0.04-0.54-0.289-0.454-0.626l1.264-4.962c0.062-0.245,0.068-0.505,0.016-0.753
		c-0.162-0.77-0.696-2.506-2.411-4.49c-1.293-1.496-2.161-1.192-2.675-0.629c-0.399,0.437-0.497,1.128-0.251,1.697
		c0.306,0.706,0.634,1.929,0.131,3.324c-0.791,2.196-4.002,6.188-5.169,6.527c-0.983,0.285-1.437,0.467-2.268,0.847"/>
	<path style="fill:#069342;" d="M-280.966,157.097c0,0.491-0.204,0.889-0.455,0.889h-5.991c-0.251,0-0.455-0.398-0.455-0.889
		v-19.782c0-0.491,0.204-0.889,0.455-0.889h5.991c0.251,0,0.455,0.398,0.455,0.889V157.097z"/>
</g>
<g>
	<path style="fill:#F2F2F2;stroke:#CFCFCF;stroke-miterlimit:10;" d="M-231.111,155.301l0.006,0.007
		c0.401,0.464,0.945,0.722,1.512,0.717c2.738-0.024,11.142-0.096,15.517-0.114c3.398-0.014,2.685-4.221,0.791-4.209
		c3.112,0,3.639-4.697,0.264-4.697c4.559,0.02,3.936-4.614,1.266-4.636c3.672,0,3.428-4.422-0.363-4.422
		c-0.251,0.029-5.394,0.32-7.176,0.554c-0.302,0.04-0.54-0.29-0.454-0.626l1.264-4.962c0.062-0.245,0.068-0.505,0.016-0.753
		c-0.162-0.77-0.696-2.506-2.411-4.49c-1.293-1.496-2.161-1.192-2.675-0.629c-0.399,0.437-0.497,1.128-0.251,1.697
		c0.306,0.706,0.634,1.929,0.131,3.324c-0.791,2.196-4.002,6.188-5.169,6.527c-0.983,0.285-1.437,0.467-2.268,0.847"/>
	<path style="fill:#CFCFCF;" d="M-229.966,157.097c0,0.491-0.204,0.889-0.455,0.889h-5.991c-0.251,0-0.455-0.398-0.455-0.889
		v-19.782c0-0.491,0.204-0.889,0.455-0.889h5.991c0.251,0,0.455,0.398,0.455,0.889V157.097z"/>
</g>
<circle style="fill:#2A9BDB;" cx="-175" cy="136.995" r="11"/>
<circle style="fill:#D03135;" cx="-129.886" cy="140" r="14"/>
<path id="CLOSE_2_" style="fill-rule:evenodd;clip-rule:evenodd;fill:#FFFFFF;" d="M-122.3,134.41l-5.59,5.59l5.59,5.59l0,0
	c0.255,0.256,0.413,0.608,0.413,0.998c0,0.78-0.632,1.412-1.412,1.412c-0.39,0-0.743-0.158-0.998-0.414l0,0l-5.59-5.59l-5.59,5.59
	l0,0c-0.255,0.255-0.608,0.414-0.998,0.414c-0.78,0-1.412-0.632-1.412-1.412c0-0.39,0.158-0.743,0.413-0.998l0,0l5.59-5.59
	l-5.59-5.59l0,0c-0.255-0.256-0.413-0.609-0.413-0.998c0-0.78,0.632-1.412,1.412-1.412c0.39,0,0.743,0.158,0.998,0.414l0,0
	l5.59,5.59l5.59-5.59l0,0c0.255-0.256,0.608-0.414,0.998-0.414c0.78,0,1.412,0.632,1.412,1.412
	C-121.886,133.802-122.044,134.155-122.3,134.41L-122.3,134.41z"/>
<circle style="fill:#FFFFFF;" cx="-81.886" cy="140" r="14"/>
<path id="CLOSE_3_" style="fill-rule:evenodd;clip-rule:evenodd;fill:#4A7D12;" d="M-74.3,134.41l-5.59,5.59l5.59,5.59l0,0
	c0.255,0.256,0.413,0.608,0.413,0.998c0,0.78-0.632,1.412-1.412,1.412c-0.39,0-0.743-0.158-0.998-0.414l0,0l-5.59-5.59l-5.59,5.59
	l0,0c-0.255,0.255-0.608,0.414-0.998,0.414c-0.78,0-1.412-0.632-1.412-1.412c0-0.39,0.158-0.743,0.413-0.998l0,0l5.59-5.59
	l-5.59-5.59l0,0c-0.255-0.256-0.413-0.609-0.413-0.998c0-0.78,0.632-1.412,1.412-1.412c0.39,0,0.743,0.158,0.998,0.414l0,0
	l5.59,5.59l5.59-5.59l0,0c0.255-0.256,0.608-0.414,0.998-0.414c0.78,0,1.412,0.632,1.412,1.412
	C-73.886,133.802-74.044,134.155-74.3,134.41L-74.3,134.41z"/>
<path style="fill:#9661BE;" d="M-394,183.216c0-2.881,2.335-5.216,5.216-5.216h29.568c2.881,0,5.216,2.335,5.216,5.216v29.568
	c0,2.881-2.335,5.216-5.216,5.216h-29.568c-2.881,0-5.216-2.335-5.216-5.216V183.216z"/>
<path id="USER_6_" style="fill-rule:evenodd;clip-rule:evenodd;fill:#FFFFFF;" d="M-365.833,211.265c0,0.001,0,0.002,0,0.003
	c0,0.652-0.528,1.18-1.18,1.18h-22.809c-0.652,0-1.18-0.528-1.18-1.18c0-0.001,0-0.002,0-0.003h-0.001c0,0,0-4.299,3.141-5.862
	c1.988-0.989,1.223-0.186,3.663-1.198c2.44-1.01,3.018-1.363,3.018-1.363l0.023-2.329c0,0-0.914-0.699-1.198-2.891
	c-0.572,0.165-0.761-0.671-0.795-1.204c-0.031-0.515-0.331-2.122,0.367-1.977c-0.143-1.073-0.245-2.041-0.195-2.554
	c0.175-1.8,1.908-3.68,4.579-3.818c3.141,0.137,4.385,2.016,4.559,3.816c0.051,0.513-0.061,1.481-0.204,2.553
	c0.698-0.143,0.395,1.461,0.361,1.976c-0.031,0.533-0.224,1.367-0.794,1.202c-0.285,2.192-1.199,2.885-1.199,2.885l0.021,2.318
	c0,0,0.578,0.33,3.018,1.341c2.44,1.012,1.675,0.255,3.663,1.244C-365.832,206.966-365.832,211.265-365.833,211.265
	L-365.833,211.265z"/>
<path id="USER_1_" style="fill-rule:evenodd;clip-rule:evenodd;fill:#FFFFFF;" d="M-356.258,203.86c0,0.001,0,0.002,0,0.003
	c0,0.614-0.457,1.112-1.021,1.112h-19.736c-0.564,0-1.021-0.498-1.021-1.112c0-0.001,0-0.002,0-0.003h-0.001
	c0,0,0-4.051,2.718-5.525c1.72-0.932,1.058-0.175,3.169-1.129c2.111-0.952,2.612-1.285,2.612-1.285l0.02-2.195
	c0,0-0.791-0.659-1.037-2.724c-0.495,0.156-0.658-0.633-0.687-1.135c-0.026-0.485-0.286-2,0.317-1.863
	c-0.124-1.011-0.212-1.923-0.169-2.406c0.151-1.696,1.651-3.468,3.962-3.598c2.718,0.129,3.794,1.9,3.945,3.596
	c0.044,0.483-0.053,1.396-0.176,2.405c0.604-0.135,0.341,1.377,0.312,1.862c-0.027,0.502-0.194,1.288-0.687,1.132
	c-0.247,2.065-1.038,2.719-1.038,2.719l0.019,2.184c0,0,0.5,0.311,2.611,1.264c2.112,0.954,1.449,0.241,3.169,1.173
	C-356.257,199.809-356.257,203.86-356.258,203.86L-356.258,203.86z"/>
<path style="fill:#FFFFFF;" d="M-334,183.216c0-2.881,2.335-5.216,5.216-5.216h29.568c2.881,0,5.216,2.335,5.216,5.216v29.568
	c0,2.881-2.335,5.216-5.216,5.216h-29.568c-2.881,0-5.216-2.335-5.216-5.216V183.216z M-305.832,211.265c0,0,0-4.299-3.141-5.862
	c-1.988-0.989-1.222-0.232-3.663-1.244c-2.44-1.011-3.018-1.341-3.018-1.341l-0.021-2.318c0,0,0.914-0.694,1.199-2.885
	c0.57,0.165,0.764-0.669,0.794-1.202c0.034-0.515,0.337-2.119-0.361-1.976c0.143-1.071,0.255-2.04,0.204-2.553
	c-0.174-1.8-1.419-3.679-4.559-3.816c-2.67,0.137-4.404,2.018-4.579,3.818c-0.05,0.513,0.052,1.48,0.195,2.554
	c-0.698-0.145-0.397,1.462-0.367,1.977c0.034,0.533,0.223,1.369,0.795,1.204c0.284,2.192,1.198,2.891,1.198,2.891l-0.023,2.329
	c0,0-0.578,0.353-3.018,1.363c-2.44,1.012-1.675,0.21-3.663,1.198c-3.141,1.563-3.141,5.862-3.141,5.862H-331
	c0,0.001,0,0.002,0,0.003c0,0.652,0.528,1.18,1.18,1.18h22.809c0.652,0,1.18-0.528,1.18-1.18
	C-305.833,211.267-305.833,211.266-305.832,211.265L-305.832,211.265z M-296.257,203.86c0,0,0-4.051-2.718-5.524
	c-1.72-0.932-1.058-0.219-3.169-1.173c-2.111-0.953-2.611-1.264-2.611-1.264l-0.019-2.184c0,0,0.791-0.654,1.038-2.719
	c0.493,0.155,0.661-0.63,0.687-1.132c0.029-0.485,0.292-1.997-0.312-1.862c0.124-1.01,0.221-1.922,0.176-2.405
	c-0.151-1.696-1.228-3.467-3.945-3.596c-2.31,0.13-3.81,1.901-3.962,3.598c-0.044,0.483,0.045,1.395,0.169,2.406
	c-0.604-0.137-0.344,1.378-0.317,1.863c0.029,0.502,0.193,1.291,0.687,1.135c0.246,2.066,1.037,2.724,1.037,2.724l-0.02,2.195
	c0,0-0.5,0.332-2.612,1.285c-2.111,0.954-1.449,0.197-3.169,1.129c-2.718,1.473-2.718,5.525-2.718,5.525h0.001
	c0,0.001,0,0.002,0,0.003c0,0.614,0.457,1.112,1.021,1.112h19.736c0.564,0,1.021-0.498,1.021-1.112
	C-296.258,203.861-296.258,203.861-296.257,203.86L-296.257,203.86z"/>
<path id="USER_2_" style="fill-rule:evenodd;clip-rule:evenodd;fill:#49B173;" d="M-234.001,216.119c0,0.001,0,0.003,0,0.005
	c0,1.036-0.84,1.876-1.876,1.876h-36.27c-1.036,0-1.876-0.84-1.876-1.876c0-0.002,0-0.003,0-0.005h-0.001c0,0,0-6.836,4.995-9.322
	c3.161-1.572,1.944-0.296,5.824-1.906c3.88-1.607,4.8-2.168,4.8-2.168l0.037-3.704c0,0-1.453-1.112-1.905-4.597
	c-0.91,0.263-1.21-1.068-1.263-1.915c-0.049-0.818-0.526-3.374,0.583-3.143c-0.227-1.707-0.39-3.245-0.31-4.061
	c0.278-2.862,3.035-5.852,7.281-6.071c4.994,0.218,6.973,3.206,7.25,6.068c0.081,0.815-0.097,2.355-0.324,4.059
	c1.11-0.228,0.627,2.324,0.574,3.142c-0.049,0.847-0.356,2.173-1.263,1.911c-0.453,3.485-1.907,4.588-1.907,4.588l0.034,3.685
	c0,0,0.919,0.525,4.799,2.132c3.881,1.609,2.663,0.406,5.824,1.979c4.995,2.485,4.995,9.321,4.995,9.321H-234.001z"/>
<path id="USER_5_" style="fill-rule:evenodd;clip-rule:evenodd;fill:#FFFFFF;" d="M-174.001,216.119c0,0.001,0,0.003,0,0.005
	c0,1.036-0.84,1.876-1.876,1.876h-36.27c-1.036,0-1.876-0.84-1.876-1.876c0-0.002,0-0.003,0-0.005h-0.001c0,0,0-6.836,4.995-9.322
	c3.161-1.572,1.944-0.296,5.824-1.906c3.88-1.607,4.8-2.168,4.8-2.168l0.037-3.704c0,0-1.453-1.112-1.905-4.597
	c-0.91,0.263-1.21-1.068-1.263-1.915c-0.049-0.818-0.526-3.374,0.583-3.143c-0.227-1.707-0.39-3.245-0.31-4.061
	c0.278-2.862,3.035-5.852,7.281-6.071c4.994,0.218,6.973,3.206,7.25,6.068c0.081,0.815-0.097,2.355-0.324,4.059
	c1.11-0.228,0.627,2.324,0.574,3.142c-0.049,0.847-0.356,2.173-1.263,1.911c-0.453,3.485-1.907,4.588-1.907,4.588l0.034,3.685
	c0,0,0.919,0.525,4.799,2.132c3.881,1.609,2.663,0.406,5.824,1.979c4.995,2.485,4.995,9.321,4.995,9.321H-174.001z"/>
<path id="ARROWS_2_" style="fill-rule:evenodd;clip-rule:evenodd;fill:#FFFFFF;" d="M-122.047,193.977
	c0,0.442-0.191,0.839-0.496,1.113l0,0l-4.993,4.493l0,0c-0.265,0.239-0.617,0.385-1.002,0.385c-0.827,0-1.498-0.671-1.498-1.498
	c0-0.442,0.191-0.839,0.496-1.113l0,0l2.091-1.882h-9.078v9.078l1.882-2.091l0,0c0.274-0.304,0.671-0.496,1.113-0.496
	c0.827,0,1.498,0.671,1.498,1.498c0,0.385-0.146,0.737-0.385,1.002l0,0l-4.493,4.993l0,0c-0.274,0.304-0.671,0.496-1.113,0.496
	c-0.442,0-0.839-0.191-1.113-0.496l0,0l-4.493-4.993l0,0c-0.239-0.265-0.385-0.617-0.385-1.002c0-0.827,0.671-1.498,1.498-1.498
	c0.442,0,0.839,0.192,1.113,0.496l0,0l1.882,2.091v-9.078h-9.078l2.091,1.882l0,0c0.304,0.274,0.496,0.671,0.496,1.113
	c0,0.827-0.671,1.498-1.498,1.498c-0.385,0-0.736-0.146-1.002-0.385l0,0l-4.993-4.493l0,0c-0.304-0.274-0.496-0.671-0.496-1.113
	c0-0.442,0.192-0.839,0.496-1.113l0,0l4.993-4.493h0c0.265-0.239,0.617-0.385,1.002-0.385c0.827,0,1.498,0.671,1.498,1.498
	c0,0.442-0.192,0.839-0.496,1.113l0,0l-2.091,1.882h9.078v-9.078l-1.882,2.092l0,0c-0.274,0.304-0.671,0.496-1.113,0.496
	c-0.827,0-1.498-0.671-1.498-1.498c0-0.385,0.146-0.736,0.385-1.002l0,0l4.493-4.993l0,0c0.274-0.304,0.671-0.496,1.113-0.496
	c0.442,0,0.839,0.192,1.113,0.496l0,0l4.493,4.993l0,0c0.239,0.265,0.385,0.617,0.385,1.002c0,0.827-0.671,1.498-1.498,1.498
	c-0.442,0-0.839-0.192-1.113-0.496l0,0l-1.882-2.092v9.078h9.078l-2.091-1.882l0,0c-0.304-0.274-0.496-0.671-0.496-1.113
	c0-0.827,0.671-1.498,1.498-1.498c0.385,0,0.736,0.146,1.002,0.385h0l4.993,4.493l0,0
	C-122.238,193.138-122.047,193.535-122.047,193.977z"/>
<path style="fill-rule:evenodd;clip-rule:evenodd;fill:#FFFFFF;" d="M-87.18,189c-0.376,0-0.71-0.166-0.943-0.425l-0.003,0.003
	l-1.6-1.778v7.718c0,0.703-0.57,1.274-1.273,1.274c-0.703,0-1.273-0.57-1.273-1.274V186.8l-1.6,1.778l-0.004-0.003
	C-94.11,188.834-94.445,189-94.82,189c-0.703,0-1.273-0.57-1.273-1.273c0-0.328,0.127-0.623,0.33-0.849l-0.003-0.003l3.82-4.245
	l0.003,0.003c0.233-0.259,0.567-0.425,0.943-0.425s0.71,0.166,0.943,0.425l0.003-0.003l3.82,4.245l-0.003,0.003
	c0.203,0.226,0.33,0.521,0.33,0.849C-85.906,188.43-86.476,189-87.18,189z"/>
<circle style="fill:#FFFFFF;" cx="-383" cy="248.995" r="11"/>
<circle style="fill:#2A9BDB;" cx="-49" cy="188.995" r="11"/>
<path style="fill-rule:evenodd;clip-rule:evenodd;fill:#FFFFFF;" d="M-52.82,189c0.376,0,0.71,0.166,0.943,0.425l0.003-0.003
	l1.6,1.778v-7.718c0-0.703,0.57-1.274,1.273-1.274c0.703,0,1.273,0.57,1.273,1.274v7.718l1.6-1.778l0.004,0.003
	c0.233-0.259,0.567-0.425,0.943-0.425c0.703,0,1.273,0.57,1.273,1.273c0,0.328-0.127,0.623-0.33,0.849l0.003,0.003l-3.82,4.245
	l-0.003-0.003c-0.233,0.259-0.567,0.425-0.943,0.425s-0.71-0.166-0.943-0.425l-0.003,0.003l-3.82-4.245l0.003-0.003
	c-0.203-0.226-0.33-0.521-0.33-0.849C-54.094,189.57-53.524,189-52.82,189z"/>
<circle style="fill:#2A9BDB;" cx="-239" cy="248.995" r="11"/>
<path style="fill-rule:evenodd;clip-rule:evenodd;fill:#FFFFFF;" d="M-242.82,249c0.376,0,0.71,0.166,0.943,0.425l0.003-0.003
	l1.6,1.778v-7.718c0-0.703,0.57-1.274,1.273-1.274c0.703,0,1.273,0.57,1.273,1.274v7.718l1.6-1.778l0.004,0.003
	c0.233-0.259,0.567-0.425,0.943-0.425c0.703,0,1.273,0.57,1.273,1.273c0,0.328-0.127,0.623-0.33,0.849l0.003,0.003l-3.82,4.245
	l-0.003-0.003c-0.233,0.259-0.567,0.425-0.943,0.425c-0.376,0-0.71-0.166-0.943-0.425l-0.003,0.003l-3.82-4.245l0.003-0.003
	c-0.203-0.226-0.33-0.521-0.33-0.849C-244.094,249.57-243.524,249-242.82,249z"/>
<g>
	<path style="fill:#FFFFFF;" d="M-383,319.495c-5.79,0-10.5-4.71-10.5-10.5s4.71-10.5,10.5-10.5s10.5,4.71,10.5,10.5
		S-377.21,319.495-383,319.495z"/>
	<path style="fill:#2A9BDB;" d="M-383,298.995c5.514,0,10,4.486,10,10c0,5.514-4.486,10-10,10s-10-4.486-10-10
		C-393,303.481-388.514,298.995-383,298.995 M-383,297.995c-6.075,0-11,4.925-11,11s4.925,11,11,11s11-4.925,11-11
		S-376.925,297.995-383,297.995L-383,297.995z"/>
</g>
<path style="fill-rule:evenodd;clip-rule:evenodd;fill:#2A9BDB;" d="M-383,305.18c0,0.376-0.166,0.71-0.425,0.943l0.003,0.003
	l-1.778,1.6h7.718c0.703,0,1.273,0.57,1.273,1.273c0,0.703-0.57,1.273-1.273,1.273h-7.718l1.778,1.6l-0.003,0.004
	c0.259,0.233,0.425,0.567,0.425,0.943c0,0.703-0.57,1.273-1.273,1.273c-0.328,0-0.623-0.127-0.849-0.33l-0.003,0.003l-4.245-3.82
	l0.003-0.003c-0.259-0.233-0.425-0.567-0.425-0.943s0.166-0.71,0.425-0.943l-0.003-0.003l4.245-3.82l0.003,0.003
	c0.226-0.203,0.521-0.33,0.849-0.33C-383.57,303.906-383,304.476-383,305.18z"/>
<g>
	<path style="fill:#FFFFFF;" d="M-341,319.495c-5.79,0-10.5-4.71-10.5-10.5s4.71-10.5,10.5-10.5s10.5,4.71,10.5,10.5
		S-335.21,319.495-341,319.495z"/>
	<path style="fill:#2A9BDB;" d="M-341,298.995c5.514,0,10,4.486,10,10c0,5.514-4.486,10-10,10c-5.514,0-10-4.486-10-10
		C-351,303.481-346.514,298.995-341,298.995 M-341,297.995c-6.075,0-11,4.925-11,11s4.925,11,11,11s11-4.925,11-11
		S-334.925,297.995-341,297.995L-341,297.995z"/>
</g>
<path style="fill-rule:evenodd;clip-rule:evenodd;fill:#2A9BDB;" d="M-341,312.82c0-0.376,0.166-0.71,0.425-0.943l-0.003-0.003
	l1.778-1.6h-7.718c-0.703,0-1.274-0.57-1.274-1.273c0-0.703,0.57-1.273,1.274-1.273h7.718l-1.778-1.6l0.003-0.004
	c-0.259-0.233-0.425-0.567-0.425-0.943c0-0.703,0.57-1.273,1.273-1.273c0.328,0,0.623,0.127,0.849,0.33l0.003-0.003l4.245,3.82
	l-0.003,0.003c0.259,0.233,0.425,0.567,0.425,0.943s-0.166,0.71-0.425,0.943l0.003,0.003l-4.245,3.82l-0.003-0.003
	c-0.226,0.203-0.521,0.33-0.849,0.33C-340.43,314.094-341,313.524-341,312.82z"/>
<circle style="fill:#FFFFFF;" cx="-93" cy="248.995" r="11"/>
<path style="fill-rule:evenodd;clip-rule:evenodd;fill:#2A9BDB;" d="M-376.842,253.882l0,0.001c0,0.319-0.259,0.577-0.577,0.577
	h-0.353c0.099-0.17,0.16-0.366,0.16-0.577c0.288,0,0.549-0.11,0.751-0.284C-376.842,253.773-376.841,253.882-376.842,253.882
	L-376.842,253.882z"/>
<path style="fill-rule:evenodd;clip-rule:evenodd;fill:#2A9BDB;" d="M-379.921,251.574c-0.638,0-1.155,0.517-1.155,1.155
	c0,0.638,0.517,1.155,1.155,1.155c0,0.211,0.061,0.407,0.16,0.577h-8.821c-0.319,0-0.577-0.258-0.577-0.577l0-0.001h0
	c0,0,0-2.104,1.537-2.869c0.973-0.484,0.598-0.091,1.792-0.586c1.194-0.495,1.477-0.667,1.477-0.667l0.011-1.14
	c0,0-0.447-0.342-0.586-1.415c-0.28,0.081-0.372-0.329-0.389-0.589c-0.015-0.252-0.162-1.038,0.179-0.967
	c-0.07-0.525-0.12-0.999-0.095-1.25c0.086-0.881,0.934-1.801,2.241-1.868c1.537,0.067,2.146,0.987,2.231,1.868
	c0.025,0.251-0.03,0.725-0.1,1.249c0.342-0.07,0.193,0.715,0.176,0.967c-0.015,0.261-0.11,0.669-0.389,0.588
	c-0.14,1.073-0.587,1.412-0.587,1.412l0.01,1.134c0,0,0.283,0.161,1.477,0.656c0.345,0.143,0.557,0.213,0.71,0.253
	C-379.739,250.868-379.921,251.198-379.921,251.574z"/>
<circle style="fill:#FFFFFF;" cx="-378.766" cy="252.728" r="2.542"/>
<path style="fill-rule:evenodd;clip-rule:evenodd;fill:#2A9BDB;" d="M-377.266,253.478h-0.75v0.75c0,0.414-0.336,0.75-0.75,0.75
	c-0.414,0-0.75-0.336-0.75-0.75v-0.75h-0.75c-0.414,0-0.75-0.336-0.75-0.75c0-0.414,0.336-0.75,0.75-0.75h0.75v-0.75
	c0-0.414,0.336-0.75,0.75-0.75c0.414,0,0.75,0.336,0.75,0.75v0.75h0.75c0.414,0,0.75,0.336,0.75,0.75
	C-376.516,253.143-376.852,253.478-377.266,253.478z"/>
<path id="CIRCLE__x2F__DELETE_2_" style="fill-rule:evenodd;clip-rule:evenodd;fill:#FFFFFF;" d="M-331.997,278.006
	c-11.047,0-20.003-8.956-20.003-20.003c0-11.047,8.956-20.003,20.003-20.003c11.047,0,20.003,8.956,20.003,20.003
	C-311.994,269.051-320.949,278.006-331.997,278.006z M-331.997,241.751c-8.976,0-16.253,7.276-16.253,16.252
	c0,8.976,7.277,16.253,16.253,16.253s16.253-7.277,16.253-16.253C-315.744,249.027-323.021,241.751-331.997,241.751z
	 M-325.121,266.754c-0.518,0-0.987-0.21-1.326-0.549l0,0l-5.55-5.55l-5.55,5.55l0,0c-0.339,0.339-0.808,0.549-1.326,0.549
	c-1.036,0-1.875-0.839-1.875-1.875c0-0.518,0.21-0.987,0.549-1.326l0,0l5.55-5.55l-5.55-5.55l0,0
	c-0.339-0.339-0.549-0.808-0.549-1.326c0-1.036,0.84-1.875,1.875-1.875c0.518,0,0.987,0.21,1.326,0.549l0,0l5.55,5.55l5.55-5.55l0,0
	c0.339-0.34,0.808-0.549,1.326-0.549c1.036,0,1.875,0.84,1.875,1.875c0,0.518-0.21,0.987-0.549,1.326l0,0l-5.55,5.55l5.55,5.55l0,0
	c0.339,0.34,0.549,0.808,0.549,1.326C-323.245,265.915-324.085,266.754-325.121,266.754z"/>
<path id="PLAY_2_" style="fill-rule:evenodd;clip-rule:evenodd;fill:#8B8B8B;" d="M-281.062,257.141
	c-0.752,0-1.409-0.405-1.766-1.008l0,0l-8.872-15.015c-0.003-0.005-0.006-0.011-0.009-0.016l-0.005-0.008l0,0
	c-0.181-0.306-0.285-0.662-0.285-1.043c0-1.133,0.918-2.051,2.051-2.051l0,0h17.774l0,0c1.132,0,2.051,0.918,2.051,2.051
	c0,0.381-0.104,0.738-0.285,1.043l0,0l-0.005,0.008c-0.003,0.005-0.006,0.011-0.009,0.016l-8.872,15.015l0,0
	C-279.654,256.736-280.311,257.141-281.062,257.141z"/>
<path id="PLAY_1_" style="fill-rule:evenodd;clip-rule:evenodd;fill:#1C5996;" d="M10.938,19.141c-0.752,0-1.409-0.405-1.766-1.008
	l0,0L0.299,3.118C0.296,3.113,0.293,3.107,0.29,3.102L0.285,3.094l0,0C0.104,2.788,0,2.432,0,2.051C0,0.918,0.918,0,2.051,0l0,0
	l17.774,0l0,0c1.132,0,2.051,0.918,2.051,2.051c0,0.381-0.104,0.738-0.285,1.043l0,0l-0.005,0.008
	c-0.003,0.005-0.006,0.011-0.01,0.016l-8.872,15.015l0,0C12.346,18.736,11.689,19.141,10.938,19.141z"/>
<g>
	<path style="fill:#2A9BDB;" d="M-151.827,269.5c-2.025,0-3.673-1.647-3.673-3.673v-23.654c0-2.025,1.647-3.673,3.673-3.673h23.654
		c2.025,0,3.673,1.647,3.673,3.673v23.654c0,2.025-1.647,3.673-3.673,3.673H-151.827z"/>
	<path style="fill:#1C5996;" d="M-128.173,239c1.75,0,3.173,1.423,3.173,3.173v23.654c0,1.75-1.423,3.173-3.173,3.173h-23.654
		c-1.75,0-3.173-1.423-3.173-3.173v-23.654c0-1.75,1.423-3.173,3.173-3.173H-128.173 M-128.173,238h-23.654
		c-2.305,0-4.173,1.868-4.173,4.173v23.654c0,2.305,1.868,4.173,4.173,4.173h23.654c2.305,0,4.173-1.868,4.173-4.173v-23.654
		C-124,239.868-125.868,238-128.173,238L-128.173,238z"/>
</g>
<polygon style="fill-rule:evenodd;clip-rule:evenodd;" points="-145.5,261.241 -145.5,261.241 -145.5,261.241 "/>
<polygon style="fill-rule:evenodd;clip-rule:evenodd;" points="-134.5,261.241 -134.5,261.241 -134.5,261.241 "/>
<polygon style="fill-rule:evenodd;clip-rule:evenodd;" points="-133,259.741 -133,259.74 -133,259.741 "/>
<path style="fill-rule:evenodd;clip-rule:evenodd;fill:#FFFFFF;" d="M-129.874,250.069l-11.355,11.355l0,0
	c-0.385,0.385-0.918,0.624-1.505,0.624s-1.12-0.238-1.505-0.624l0,0l-6.387-6.387l0,0c-0.385-0.385-0.624-0.918-0.624-1.506
	c0-1.176,0.953-2.129,2.129-2.129c0.588,0,1.12,0.238,1.505,0.624l0,0l4.882,4.882l9.849-9.849l0,0
	c0.385-0.385,0.918-0.624,1.505-0.624c1.176,0,2.129,0.953,2.129,2.129C-129.25,249.151-129.488,249.684-129.874,250.069
	L-129.874,250.069z"/>
<circle style="fill:none;stroke:#2A9BDB;stroke-width:2.0873;stroke-miterlimit:10;" cx="-92.931" cy="248.553" r="6.21"/>
<rect x="-88.509" y="245.669" style="fill:#FFFFFF;" width="3.051" height="2.884"/>
<rect x="-100.542" y="248.553" style="fill:#FFFFFF;" width="3.051" height="2.884"/>
<g>
	<defs>
		
			<rect id="SVGID_5_" x="-100.072" y="249.91" transform="matrix(-1 -0.0021 0.0021 -1 -195.9253 504.3651)" width="4.752" height="4.752"/>
	</defs>
	<clipPath id="SVGID_1_">
		<use xlink:href="#SVGID_5_"  style="overflow:visible;"/>
	</clipPath>
	
		<rect x="-103.294" y="248.246" transform="matrix(-0.7086 0.7056 -0.7056 -0.7086 7.02 498.3447)" style="clip-path:url(#SVGID_1_);fill:#2A9BDB;" width="7.804" height="4.752"/>
</g>
<g>
	<defs>
		
			<rect id="SVGID_7_" x="-90.536" y="242.601" transform="matrix(1 0.0021 -0.0021 1 0.5181 0.1871)" width="4.752" height="4.752"/>
	</defs>
	<clipPath id="SVGID_2_">
		<use xlink:href="#SVGID_7_"  style="overflow:visible;"/>
	</clipPath>
	
		<rect x="-90.366" y="244.265" transform="matrix(0.7086 -0.7056 0.7056 0.7086 -199.2275 10.8613)" style="clip-path:url(#SVGID_2_);fill:#2A9BDB;" width="7.804" height="4.752"/>
</g>
<path d="M-287.245,343.021L-287.245,343.021L-287.245,343.021z"/>
<path d="M-273.495,343.021L-273.495,343.021L-273.495,343.021z"/>
<path d="M-271.62,341.146v-0.001V341.146z"/>
<path id="BIN_2_" style="fill:#C65739;" d="M-306.503,304.246c0-1.14,0.924-2.062,2.062-2.062h10.315v-2.062
	c0-1.14,0.924-2.062,2.062-2.062h4.126c1.139,0,2.062,0.924,2.062,2.062v2.062h10.315c1.14,0,2.062,0.924,2.062,2.062v2.062h-33.006
	V304.246z M-275.559,310.435v4.126v21.318c0,1.139-0.924,2.062-2.062,2.062h-24.755c-1.139,0-2.062-0.924-2.062-2.062v-21.318
	v-4.126v-2.062h28.881v2.062H-275.559z M-296.188,314.561c0-1.139-0.924-2.062-2.062-2.062c-1.139,0-2.062,0.924-2.062,2.062v17.191
	c0,1.14,0.924,2.062,2.062,2.062c1.139,0,2.062-0.924,2.062-2.062V314.561z M-287.937,314.561c0-1.139-0.924-2.062-2.062-2.062
	c-1.139,0-2.062,0.924-2.062,2.062v17.191c0,1.14,0.924,2.062,2.062,2.062c1.139,0,2.062-0.924,2.062-2.062V314.561z
	 M-279.686,314.561c0-1.139-0.924-2.062-2.062-2.062c-1.139,0-2.062,0.924-2.062,2.062v17.191c0,1.14,0.924,2.062,2.062,2.062
	c1.139,0,2.062-0.924,2.062-2.062V314.561z"/>
<g>
	<path style="fill:#FFFFFF;" d="M-30,329.953c0,0.992-0.805,1.797-1.798,1.797h-36.405c-0.993,0-1.798-0.805-1.798-1.797V306.3
		c0-1.133,0.918-2.05,2.05-2.05h35.9c1.133,0,2.05,0.918,2.05,2.05C-30,306.3-30,329.953-30,329.953z"/>
	<path id="MAIL_2_" style="fill:#1C5996;" d="M-42.741,316.6l12.167-11.788c0.344,0.34,0.559,0.811,0.559,1.333v23.731
		c0,0.492-0.194,0.938-0.505,1.273L-42.741,316.6z M-69.36,304.76c0.331-0.3,0.768-0.487,1.25-0.487h36.22
		c0.483,0,0.917,0.188,1.25,0.487L-50,319.885L-69.36,304.76z M-69.479,331.149c-0.311-0.334-0.505-0.779-0.505-1.272v-23.73
		c0-0.521,0.214-0.993,0.559-1.333l12.168,11.788L-69.479,331.149z M-50,323.631l5.081-4.921l14.314,12.525
		c-0.335,0.318-0.786,0.515-1.285,0.515h-36.22c-0.499,0-0.949-0.197-1.285-0.515l14.314-12.525L-50,323.631z"/>
</g>
<path d="M-196.887,348.046L-196.887,348.046L-196.887,348.046z"/>
<path d="M-183.137,348.046L-183.137,348.046L-183.137,348.046z"/>
<path d="M-181.262,346.171v-0.001V346.171z"/>
<path id="MAGNIFYING_GLASS_2_" style="fill:#414143;" d="M-355.098,391.61c0.677,0.679,1.098,1.616,1.098,2.651
	c0,2.071-1.679,3.75-3.75,3.75c-1.035,0-1.973-0.42-2.651-1.099l0,0l-10.99-10.99c-2.234,1.319-4.828,2.089-7.609,2.089
	c-8.284,0-15-6.715-15-15c0-8.284,6.716-15,15-15s15,6.716,15,15c0,2.78-0.77,5.375-2.089,7.607L-355.098,391.61L-355.098,391.61z
	 M-379,361.761c-6.214,0-11.25,5.036-11.25,11.25s5.036,11.25,11.25,11.25s11.25-5.038,11.25-11.25
	C-367.75,366.798-372.786,361.761-379,361.761z"/>
<g>
	<path d="M-176.859,327.068L-176.859,327.068L-176.859,327.068z"/>
	<path d="M-163.109,327.068L-163.109,327.068L-163.109,327.068z"/>
	<path d="M-161.234,325.193v-0.001V325.193z"/>
	<path style="fill:#1C5996;" d="M-151.185,330.353l-18.074,7.479c-0.228,0.098-0.478,0.152-0.741,0.152s-0.514-0.055-0.741-0.152
		l-18.074-7.479c-0.685-0.279-1.169-0.951-1.169-1.736V299.89c0-1.035,0.839-1.874,1.874-1.874c0.254,0,0.495,0.051,0.716,0.142l0,0
		l0.003,0.001c0.006,0.003,0.011,0.004,0.018,0.006l17.374,7.189l17.374-7.189c0.005-0.003,0.011-0.005,0.016-0.008l0.003-0.001l0,0
		c0.223-0.09,0.464-0.141,0.717-0.141c1.035,0,1.874,0.839,1.874,1.874v28.726C-150.016,329.401-150.5,330.074-151.185,330.353z"/>
	<polygon style="fill:#FFFFFF;" points="-171.679,333.688 -171.679,308.75 -186.196,302.743 -186.196,327.68 	"/>
	<polygon style="fill:#FFFFFF;" points="-153.374,302.743 -167.891,308.75 -167.891,333.688 -153.374,327.68 	"/>
</g>
<g>
	<g>
		<path style="fill:#FFFFFF;" d="M-244.793,337.375c-2.531,0-4.591-2.059-4.591-4.591v-29.568c0-2.531,2.059-4.591,4.591-4.591
			h29.567c2.531,0,4.591,2.059,4.591,4.591v29.568c0,2.531-2.059,4.591-4.591,4.591H-244.793z"/>
		<path style="fill:#FFDA59;" d="M-215.225,299.25c2.188,0,3.966,1.779,3.966,3.966v29.568c0,2.188-1.779,3.966-3.966,3.966h-29.567
			c-2.188,0-3.966-1.779-3.966-3.966v-29.568c0-2.188,1.779-3.966,3.966-3.966H-215.225 M-215.225,298h-29.567
			c-2.881,0-5.216,2.335-5.216,5.216v29.568c0,2.881,2.335,5.216,5.216,5.216h29.567c2.881,0,5.216-2.335,5.216-5.216v-29.568
			C-210.009,300.335-212.344,298-215.225,298L-215.225,298z"/>
	</g>
	<path d="M-236.884,327.051L-236.884,327.051L-236.884,327.051z"/>
	<path d="M-223.134,327.051L-223.134,327.051L-223.134,327.051z"/>
	<path d="M-221.259,325.176v-0.001V325.176z"/>
	<path id="RESIZE_1_7_" style="fill:#6F6600;" d="M-214.488,310.484L-214.488,310.484c0,0.884-0.716,1.601-1.601,1.601
		c-0.884,0-1.601-0.716-1.601-1.601l0,0v-2.539l-7.94,7.94c-0.29,0.29-0.69,0.469-1.133,0.469c-0.884,0-1.601-0.716-1.601-1.601
		c0-0.443,0.179-0.842,0.469-1.133l0,0l7.94-7.94h-2.539l0,0c-0.884,0-1.601-0.717-1.601-1.601c0-0.884,0.716-1.601,1.601-1.601l0,0
		h6.404l0,0c0.884,0,1.601,0.717,1.601,1.601l0,0v6.405H-214.488z M-232.034,322.289l-7.94,7.94h2.539l0,0
		c0.884,0,1.601,0.716,1.601,1.601c0,0.884-0.716,1.601-1.601,1.601l0,0h-6.404l0,0c-0.884,0-1.601-0.717-1.601-1.601l0,0v-6.404
		l0,0c0-0.884,0.716-1.601,1.601-1.601c0.884,0,1.601,0.716,1.601,1.601l0,0v2.539l7.94-7.94c0.29-0.29,0.69-0.469,1.133-0.469
		c0.884,0,1.601,0.716,1.601,1.601C-231.565,321.599-231.744,321.999-232.034,322.289L-232.034,322.289z"/>
	<path style="fill:#6F6600;" d="M-224.704,313.195c0.494,0.494,0.399,1.388-0.211,1.997l-7.559,7.559
		c-0.61,0.61-1.505,0.705-1.998,0.211l-0.47-0.47c-0.494-0.494-0.399-1.387,0.211-1.997l7.559-7.559
		c0.61-0.61,1.505-0.705,1.998-0.211L-224.704,313.195z"/>
</g>
<g>
	<path d="M-116.875,327.067L-116.875,327.067L-116.875,327.067z"/>
	<path d="M-103.125,327.067L-103.125,327.067L-103.125,327.067z"/>
	<polygon points="-101.25,325.193 -101.25,325.192 -101.25,325.192 	"/>
	<path style="fill:#1C5996;" d="M-91.59,310.822c-1.978-4.616-5.679-8.318-10.295-10.295c1.249-0.983,2.82-1.574,4.531-1.574
		c4.053,0,7.338,3.285,7.338,7.337C-90.016,308.002-90.607,309.573-91.59,310.822z"/>
	<path style="fill:#1C5996;" d="M-91.89,318.937c0,4.811-1.889,9.172-4.949,12.415l2.532,2.533c0.335,0.335,0.543,0.799,0.543,1.31
		c0,1.023-0.829,1.853-1.853,1.853c-0.511,0-0.975-0.207-1.31-0.543l-2.721-2.721c-2.936,2.051-6.5,3.264-10.354,3.264
		c-3.845,0-7.404-1.207-10.336-3.251l-2.702,2.703c-0.339,0.339-0.807,0.549-1.325,0.549c-1.035,0-1.874-0.839-1.874-1.874
		c0-0.517,0.21-0.986,0.549-1.325l2.512-2.512c-3.051-3.241-4.935-7.596-4.935-12.4c0.003-10.001,8.11-18.109,18.113-18.109
		S-91.89,308.934-91.89,318.937z"/>
	<circle style="fill:#FFFFFF;" cx="-110" cy="318.937" r="14.364"/>
	<path style="fill:#1C5996;" d="M-102.506,320.811H-110c-1.035,0-1.874-0.839-1.874-1.874v-9.991c0-1.035,0.839-1.874,1.874-1.874
		s1.874,0.839,1.874,1.874v8.119h5.62c1.035,0,1.874,0.839,1.874,1.874C-100.632,319.972-101.471,320.811-102.506,320.811z"/>
	<path style="fill:#1C5996;" d="M-128.376,311.076c-1.004-1.275-1.607-2.88-1.607-4.629c0-4.139,3.355-7.494,7.494-7.494
		c1.749,0,3.354,0.604,4.629,1.608C-122.576,302.581-126.356,306.361-128.376,311.076z"/>
</g>
</svg>
