<?xml version="1.0" encoding="iso-8859-1"?>
<!-- Generator: Adobe Illustrator 17.1.0, SVG Export Plug-In . SVG Version: 6.00 Build 0)  -->
<!DOCTYPE svg PUBLIC "-//W3C//DTD SVG 1.1//EN" "http://www.w3.org/Graphics/SVG/1.1/DTD/svg11.dtd">
<svg version="1.1" id="Layer_1" xmlns="http://www.w3.org/2000/svg" xmlns:xlink="http://www.w3.org/1999/xlink" x="0px" y="0px"
	 viewBox="0 0 32 30.501" style="enable-background:new 0 0 32 30.501;" xml:space="preserve">
<g>
	<path style="fill:#FFFFFF;" d="M-802.406,37.501c-10.477,0-19-8.523-19-19s8.523-19,19-19s19,8.523,19,19
		S-791.929,37.501-802.406,37.501z"/>
	<path style="fill:#D53A3A;" d="M-802.406,0.501c9.925,0,18,8.075,18,18s-8.075,18-18,18s-18-8.075-18-18
		S-812.331,0.501-802.406,0.501 M-802.406-1.499c-11.046,0-20,8.954-20,20s8.954,20,20,20c11.046,0,20-8.954,20-20
		S-791.36-1.499-802.406-1.499L-802.406-1.499z"/>
</g>
<text transform="matrix(1 0 0 1 -807.2964 30.9301)" style="fill:#D53A3A; font-family:'OpenSans-Bold'; font-size:34.9664;">!</text>
<g>
	<path style="fill:#FFFFFF;" d="M-804.406,93.601c-9.429,0-17.1-7.671-17.1-17.1s7.671-17.1,17.1-17.1s17.1,7.671,17.1,17.1
		S-794.976,93.601-804.406,93.601z"/>
	<path style="fill:#FFFFFF;" d="M-804.406,60.301c8.933,0,16.2,7.267,16.2,16.2s-7.267,16.2-16.2,16.2
		c-8.933,0-16.2-7.267-16.2-16.2S-813.338,60.301-804.406,60.301 M-804.406,58.501c-9.941,0-18,8.059-18,18s8.059,18,18,18
		c9.941,0,18-8.059,18-18S-794.464,58.501-804.406,58.501L-804.406,58.501z"/>
</g>
<g>
	<path style="fill:#FFFFFF;" d="M-742.406,37.501c-10.477,0-19-8.523-19-19s8.523-19,19-19s19,8.523,19,19
		S-731.929,37.501-742.406,37.501z"/>
	<path style="fill:#2A9BDB;" d="M-742.406,0.501c9.925,0,18,8.075,18,18s-8.075,18-18,18s-18-8.075-18-18
		S-752.331,0.501-742.406,0.501 M-742.406-1.499c-11.046,0-20,8.954-20,20s8.954,20,20,20c11.046,0,20-8.954,20-20
		S-731.36-1.499-742.406-1.499L-742.406-1.499z"/>
</g>
<text transform="matrix(1 0 0 1 -749.7154 30.9301)" style="fill:#2A9BDB; font-family:'OpenSans-Bold'; font-size:34.9664;">?</text>
<g>
	<path style="fill:#2A9BDB;" d="M-682.406,37.501c-10.477,0-19-8.523-19-19s8.523-19,19-19s19,8.523,19,19
		S-671.929,37.501-682.406,37.501z"/>
	<path style="fill:#2A9BDB;" d="M-682.406,0.501c9.925,0,18,8.075,18,18s-8.075,18-18,18s-18-8.075-18-18
		S-692.331,0.501-682.406,0.501 M-682.406-1.499c-11.046,0-20,8.954-20,20s8.954,20,20,20c11.046,0,20-8.954,20-20
		S-671.36-1.499-682.406-1.499L-682.406-1.499z"/>
</g>
<text transform="matrix(1 0 0 1 -687.7601 31.7923)" style="fill:#FFFFFF; font-family:'Garamond-Bold'; font-size:41.5087;">i</text>
<g>
	<path style="fill:#FFFFFF;" d="M-622.406,37.501c-10.477,0-19-8.523-19-19s8.523-19,19-19s19,8.523,19,19
		S-611.929,37.501-622.406,37.501z"/>
	<g>
		<path style="fill:#2A9BDB;" d="M-622.406,0.501c9.925,0,18,8.075,18,18s-8.075,18-18,18s-18-8.075-18-18
			S-632.331,0.501-622.406,0.501 M-622.406-1.499c-11.046,0-20,8.954-20,20s8.954,20,20,20c11.046,0,20-8.954,20-20
			S-611.36-1.499-622.406-1.499L-622.406-1.499z"/>
	</g>
</g>
<text transform="matrix(1 0 0 1 -627.7601 31.7923)" style="fill:#2A9BDB; font-family:'Garamond-Bold'; font-size:41.5087;">i</text>
<circle style="fill:#2A9BDB;" cx="-571.406" cy="9.496" r="11"/>
<circle style="fill:#2A9BDB;" cx="-759.406" cy="303.496" r="11"/>
<path id="PEN_2_2_" style="fill-rule:evenodd;clip-rule:evenodd;fill:#2A9BDB;" d="M-795.719,84.785h-17.373
	c-0.496,0-0.899-0.402-0.899-0.899c0-0.496,0.402-0.899,0.899-0.899h17.373c0.496,0,0.899,0.402,0.899,0.899
	C-794.82,84.383-795.223,84.785-795.719,84.785z M-799.363,71.465l-2.53-2.525l1.897-1.894c0.349-0.349,0.916-0.349,1.265,0
	l1.265,1.262c0.349,0.349,0.349,0.914,0,1.262L-799.363,71.465z M-807.586,79.671l-2.53-2.525l7.59-7.575l2.53,2.525
	L-807.586,79.671z M-811.595,81.143l0.842-3.366l2.53,2.525L-811.595,81.143z"/>
<g>
	<path style="fill:#FFFFFF;" d="M-748.406,93.601c-9.429,0-17.1-7.671-17.1-17.1s7.671-17.1,17.1-17.1s17.1,7.671,17.1,17.1
		S-738.976,93.601-748.406,93.601z"/>
	<path style="fill:#FFFFFF;" d="M-748.406,60.301c8.933,0,16.2,7.267,16.2,16.2s-7.267,16.2-16.2,16.2
		c-8.933,0-16.2-7.267-16.2-16.2S-757.338,60.301-748.406,60.301 M-748.406,58.501c-9.941,0-18,8.059-18,18s8.059,18,18,18
		c9.941,0,18-8.059,18-18S-738.464,58.501-748.406,58.501L-748.406,58.501z"/>
</g>
<path id="CAMERA_2_" style="fill-rule:evenodd;clip-rule:evenodd;fill:#939393;" d="M-740.249,83.785h-16.312
	c-0.466,0-0.844-0.378-0.844-0.844v-11.25c0-0.466,0.378-0.844,0.844-0.844h3.604l1.351-1.351c0.154-0.203,0.396-0.336,0.67-0.336
	h5.062c0.237,0,0.45,0.098,0.604,0.256l0.001-0.001l1.433,1.433h3.588c0.466,0,0.844,0.378,0.844,0.844v11.25
	C-739.406,83.407-739.783,83.785-740.249,83.785z M-748.406,71.972c-2.796,0-5.062,2.267-5.062,5.062
	c0,2.796,2.267,5.062,5.062,5.062c2.796,0,5.062-2.266,5.062-5.062C-743.343,74.239-745.61,71.972-748.406,71.972z M-748.406,80.41
	c-1.864,0-3.375-1.511-3.375-3.375c0-1.864,1.511-3.375,3.375-3.375c1.864,0,3.375,1.511,3.375,3.375
	C-745.031,78.899-746.542,80.41-748.406,80.41z"/>
<path id="SQUARE__x2F__RIGHT_2_" style="fill-rule:evenodd;clip-rule:evenodd;fill:#FFFFFF;" d="M-778.562,160.473h-8.625
	c-1.191,0-2.156-0.965-2.156-2.156c0-1.191,0.965-2.156,2.156-2.156h6.469v-6.468l0,0c0-1.191,0.965-2.156,2.156-2.156
	c1.191,0,2.156,0.965,2.156,2.156v8.625C-776.406,159.507-777.371,160.473-778.562,160.473z M-778.562,131.722
	c1.191,0,2.156,0.965,2.156,2.156v7.188c0,1.191-0.965,2.156-2.156,2.156c-1.191,0-2.156-0.966-2.156-2.156v-7.188
	C-780.718,132.688-779.753,131.722-778.562,131.722z M-778.562,127.41c-1.191,0-2.156-0.965-2.156-2.156l0,0v-6.468h-6.469v0
	c-1.191,0-2.156-0.965-2.156-2.156s0.965-2.156,2.156-2.156h0h8.625c1.191,0,2.156,0.965,2.156,2.156v8.625
	C-776.406,126.445-777.371,127.41-778.562,127.41z M-795.812,118.785h-7.187c-1.191,0-2.156-0.965-2.156-2.156
	s0.965-2.156,2.156-2.156h7.187c1.191,0,2.156,0.966,2.156,2.156S-794.621,118.785-795.812,118.785z M-798.692,132.607l0.005-0.006
	c-0.438-0.395-0.719-0.961-0.719-1.597c0-1.191,0.965-2.156,2.156-2.156c0.555,0,1.055,0.215,1.437,0.559l0.005-0.006l7.188,6.469
	l-0.005,0.006c0.438,0.395,0.719,0.961,0.719,1.597c0,0.636-0.281,1.202-0.719,1.597l0.005,0.006l-7.188,6.469l-0.005-0.006
	c-0.382,0.344-0.883,0.559-1.437,0.559c-1.191,0-2.156-0.965-2.156-2.156c0-0.636,0.281-1.202,0.719-1.597l-0.005-0.006l3.011-2.71
	h-13.068c-1.191,0-2.156-0.965-2.156-2.156c0-1.191,0.965-2.156,2.156-2.156h13.068L-798.692,132.607z M-811.624,118.785
	L-811.624,118.785l-6.469,0v6.469c0,1.191-0.965,2.156-2.156,2.156s-2.156-0.965-2.156-2.156l0,0v-8.625
	c0-1.191,0.965-2.156,2.156-2.156h8.625h0c1.191,0,2.156,0.965,2.156,2.156S-810.433,118.785-811.624,118.785z M-820.249,143.223
	c-1.191,0-2.156-0.966-2.156-2.156v-7.188c0-1.191,0.965-2.156,2.156-2.156s2.156,0.965,2.156,2.156v7.188
	C-818.093,142.257-819.058,143.223-820.249,143.223z M-820.249,147.535c1.191,0,2.156,0.965,2.156,2.156v6.469h6.469
	c1.191,0,2.156,0.965,2.156,2.156c0,1.191-0.965,2.156-2.156,2.156h-8.625c-1.191,0-2.156-0.965-2.156-2.156v-8.625l0,0
	C-822.406,148.5-821.44,147.535-820.249,147.535z M-802.999,156.16h7.187c1.191,0,2.156,0.965,2.156,2.156
	c0,1.191-0.965,2.156-2.156,2.156h-7.187c-1.191,0-2.156-0.965-2.156-2.156C-805.156,157.125-804.19,156.16-802.999,156.16z"/>
<g>
	<path style="fill:#D69D9D;stroke:#E02222;stroke-miterlimit:10;" d="M-701.736,61.726c-0.36,0.662-2.3,4.416-2.248,7.854
		c0,0-0.034,1.158,0.834,1.532c0.281,0.122,1.925,0.821,2.105,1.002c0,0,0.999,2.155,1.806,3.129
		c1.869,2.258,3.36,3.413,3.792,3.731c0.273,0.202,0.901,0.447,2.183,1.787c1.008,1.053,1.083,2.167,1.837,2.179
		c0.075,0.002,0.09-0.006,0.251-0.055c0.403-0.123,2.218-1.563,0.722-3.971c0,0-0.751-1.183-2.046-2.288c0,0-1.768-1.55,0.181-2.708
		c0,0,1.263-0.646,2.8-0.561c0.625,0.035,1.594,0.2,1.894,0.259c0.301,0.061,1.305,0.369,2.106-0.12
		c1.548-0.945,0.663-9.409-2.9-12.313c-1.343-1.096-5.945-1.467-8.473-0.745c0,0-1.435,0.502-2.167,0.422
		c-1.022-0.115-1.647,0.064-1.647,0.064S-701.375,61.064-701.736,61.726z"/>
	<path style="fill:#E02222;" d="M-707.44,71.162c1.226,0.191,2.353,0.381,2.592,0.407c0.208,0.023,0.227-0.253,0.054-0.334
		c-0.214-0.123-0.512-0.492-0.598-1.255c-0.006-0.554-0.448-4.111,2.502-9.001c0.682-1.128,1.203-1.09,2.075-1.168
		c-0.039-0.527-0.843-0.818-0.843-0.818s-2.565-0.833-4.123-0.331c0,0-2.297,0.487-3.718,4.757c-0.395,1.186-0.677,2.409-0.8,3.449
		c-0.06,0.499-0.094,0.952-0.105,1.332C-710.46,70.121-708.971,70.89-707.44,71.162z"/>
</g>
<path style="fill:#C5E4D1;stroke:#069342;stroke-miterlimit:10;" d="M-646.124,80.716c0.36-0.662,2.3-4.416,2.248-7.854
	c0,0,0.034-1.158-0.834-1.532c-0.281-0.122-1.925-0.821-2.105-1.002c0,0-0.999-2.155-1.806-3.129
	c-1.869-2.258-3.36-3.413-3.792-3.731c-0.273-0.202-0.901-0.447-2.183-1.787c-1.008-1.053-1.083-2.167-1.837-2.179
	c-0.075-0.002-0.09,0.006-0.251,0.055c-0.403,0.123-2.218,1.563-0.722,3.971c0,0,0.751,1.183,2.046,2.288
	c0,0,1.768,1.55-0.181,2.708c0,0-1.263,0.646-2.8,0.561c-0.625-0.035-1.594-0.2-1.894-0.259c-0.301-0.061-1.305-0.369-2.106,0.12
	c-1.548,0.945-0.663,9.409,2.9,12.313c1.343,1.096,5.945,1.467,8.473,0.745c0,0,1.435-0.502,2.167-0.422
	c1.022,0.115,1.647-0.064,1.647-0.064S-646.485,81.378-646.124,80.716z"/>
<path style="fill:#069342;" d="M-640.42,71.28c-1.226-0.191-2.353-0.381-2.592-0.407c-0.208-0.023-0.227,0.253-0.054,0.334
	c0.214,0.123,0.512,0.492,0.598,1.255c0.006,0.554,0.448,4.111-2.502,9.001c-0.682,1.128-1.203,1.09-2.075,1.168
	c0.039,0.527,0.843,0.818,0.843,0.818s2.565,0.833,4.123,0.331c0,0,2.297-0.487,3.718-4.757c0.395-1.186,0.677-2.409,0.8-3.449
	c0.06-0.499,0.094-0.952,0.105-1.332C-637.4,72.321-638.889,71.552-640.42,71.28z"/>
<path style="fill:#F2F2F2;stroke:#CFCFCF;stroke-miterlimit:10;" d="M-599.766,80.716c0.36-0.662,2.3-4.416,2.248-7.854
	c0,0,0.034-1.158-0.834-1.532c-0.281-0.122-1.925-0.821-2.105-1.002c0,0-0.999-2.155-1.806-3.129
	c-1.869-2.258-3.36-3.413-3.792-3.731c-0.273-0.202-0.901-0.447-2.183-1.787c-1.008-1.053-1.083-2.167-1.837-2.179
	c-0.075-0.002-0.09,0.006-0.251,0.055c-0.403,0.123-2.218,1.563-0.722,3.971c0,0,0.751,1.183,2.046,2.288
	c0,0,1.768,1.55-0.181,2.708c0,0-1.263,0.646-2.8,0.561c-0.625-0.035-1.594-0.2-1.894-0.259c-0.301-0.061-1.305-0.369-2.106,0.12
	c-1.548,0.945-0.663,9.409,2.9,12.313c1.343,1.096,5.945,1.467,8.473,0.745c0,0,1.435-0.502,2.167-0.422
	c1.022,0.115,1.647-0.064,1.647-0.064S-600.127,81.378-599.766,80.716z"/>
<path style="fill:#CFCFCF;" d="M-594.062,71.28c-1.226-0.191-2.353-0.381-2.592-0.407c-0.208-0.023-0.227,0.253-0.054,0.334
	c0.214,0.123,0.512,0.492,0.598,1.255c0.006,0.554,0.448,4.111-2.502,9.001c-0.682,1.128-1.203,1.09-2.075,1.168
	c0.039,0.527,0.843,0.818,0.843,0.818s2.565,0.833,4.123,0.331c0,0,2.297-0.487,3.718-4.757c0.395-1.186,0.677-2.409,0.8-3.449
	c0.06-0.499,0.094-0.952,0.105-1.332C-591.042,72.321-592.531,71.552-594.062,71.28z"/>
<path style="fill:#D53A3A;" d="M-724.406,142.328c0,2.305-1.868,4.173-4.173,4.173h-23.654c-2.305,0-4.173-1.868-4.173-4.173
	v-23.654c0-2.305,1.868-4.173,4.173-4.173h23.654c2.305,0,4.173,1.868,4.173,4.173V142.328z"/>
<path id="CLOSE_1_" style="fill-rule:evenodd;clip-rule:evenodd;fill:#FFFFFF;" d="M-730.685,123.339l-7.162,7.162l7.162,7.162l0,0
	c0.327,0.327,0.53,0.779,0.53,1.279c0,0.999-0.81,1.809-1.809,1.809c-0.5,0-0.952-0.203-1.279-0.53l0,0l-7.162-7.162l-7.162,7.162
	l0,0c-0.327,0.327-0.78,0.53-1.279,0.53c-0.999,0-1.809-0.81-1.809-1.809c0-0.5,0.203-0.952,0.53-1.279l0,0l7.162-7.162
	l-7.162-7.162l0,0c-0.327-0.327-0.53-0.78-0.53-1.279c0-0.999,0.81-1.809,1.809-1.809c0.499,0,0.952,0.202,1.279,0.53l0,0
	l7.162,7.162l7.162-7.162l0,0c0.327-0.327,0.779-0.53,1.279-0.53c0.999,0,1.809,0.81,1.809,1.809
	C-730.156,122.56-730.358,123.012-730.685,123.339L-730.685,123.339z"/>
<path style="fill:#1C5996;" d="M-672.406,142.328c0,2.305-1.868,4.173-4.173,4.173h-23.654c-2.305,0-4.173-1.868-4.173-4.173
	v-23.654c0-2.305,1.868-4.173,4.173-4.173h23.654c2.305,0,4.173,1.868,4.173,4.173V142.328z"/>
<path style="fill-rule:evenodd;clip-rule:evenodd;fill:#FFFFFF;" d="M-681.872,125.951L-681.872,125.951
	c0.722,0.722,0.721,1.892,0,2.613c-0.722,0.722-1.892,0.722-2.613,0l0,0l-2.072-2.072l0,12.961c0,0.473-0.18,0.946-0.541,1.307
	c-0.722,0.722-1.892,0.722-2.613,0c-0.361-0.361-0.541-0.834-0.541-1.307l0,0l0-12.961l-2.072,2.072l0,0
	c-0.722,0.722-1.892,0.722-2.613,0s-0.722-1.892,0-2.613l0,0l5.227-5.227l0,0c0.722-0.722,1.892-0.722,2.613,0l0,0L-681.872,125.951
	z"/>
<path style="fill:#1C5996;" d="M-652.406,118.674c0-2.305,1.868-4.173,4.173-4.173h23.654c2.305,0,4.173,1.868,4.173,4.173v23.654
	c0,2.305-1.868,4.173-4.173,4.173h-23.654c-2.305,0-4.173-1.868-4.173-4.173V118.674z"/>
<path style="fill-rule:evenodd;clip-rule:evenodd;fill:#FFFFFF;" d="M-642.939,135.051L-642.939,135.051
	c-0.722-0.722-0.721-1.892,0-2.613c0.722-0.722,1.892-0.722,2.613,0l0,0l2.072,2.072l0-12.961c0-0.473,0.18-0.946,0.541-1.307
	c0.722-0.722,1.892-0.722,2.613,0c0.361,0.361,0.541,0.834,0.541,1.307l0,0l0,12.961l2.072-2.072l0,0
	c0.722-0.722,1.892-0.722,2.613,0s0.722,1.892,0,2.613l0,0l-5.227,5.227l0,0c-0.722,0.722-1.892,0.722-2.613,0l0,0L-642.939,135.051
	z"/>
<g>
	<path style="fill:#FFFFFF;" d="M-596.232,145.501c-1.75,0-3.174-1.423-3.174-3.173v-23.654c0-1.75,1.424-3.173,3.174-3.173h23.653
		c1.75,0,3.173,1.423,3.173,3.173v23.654c0,1.75-1.423,3.173-3.173,3.173H-596.232z"/>
	<path style="fill:#1C5996;" d="M-572.579,116.501c1.198,0,2.173,0.975,2.173,2.173v23.654c0,1.198-0.975,2.173-2.173,2.173h-23.654
		c-1.198,0-2.173-0.975-2.173-2.173v-23.654c0-1.198,0.975-2.173,2.173-2.173H-572.579 M-572.579,114.501h-23.654
		c-2.305,0-4.173,1.868-4.173,4.173v23.654c0,2.305,1.868,4.173,4.173,4.173h23.654c2.305,0,4.173-1.868,4.173-4.173v-23.654
		C-568.406,116.37-570.274,114.501-572.579,114.501L-572.579,114.501z"/>
</g>
<path style="fill-rule:evenodd;clip-rule:evenodd;fill:#1C5996;" d="M-574.279,126.57l-11.355,11.355l0,0
	c-0.385,0.385-0.918,0.624-1.505,0.624s-1.12-0.238-1.505-0.624l0,0l-6.387-6.387l0,0c-0.385-0.385-0.624-0.918-0.624-1.506
	c0-1.176,0.953-2.129,2.129-2.129c0.588,0,1.12,0.238,1.505,0.624l0,0l4.882,4.882l9.849-9.849l0,0
	c0.385-0.385,0.917-0.624,1.505-0.624c1.176,0,2.129,0.953,2.129,2.129C-573.656,125.653-573.894,126.185-574.279,126.57
	L-574.279,126.57z"/>
<polygon style="fill-rule:evenodd;clip-rule:evenodd;" points="-589.906,137.742 -589.906,137.742 -589.905,137.742 "/>
<polygon style="fill-rule:evenodd;clip-rule:evenodd;" points="-578.906,137.742 -578.906,137.742 -578.905,137.742 "/>
<polygon style="fill-rule:evenodd;clip-rule:evenodd;" points="-577.406,136.243 -577.406,136.242 -577.406,136.242 "/>
<g>
	<path style="fill:#FFFFFF;" d="M-386.233,30.001c-2.025,0-3.673-1.647-3.673-3.673V2.674c0-2.025,1.647-3.673,3.673-3.673h23.654
		c2.025,0,3.673,1.647,3.673,3.673v23.654c0,2.025-1.647,3.673-3.673,3.673H-386.233z"/>
	<path style="fill:#1C5996;" d="M-362.579-0.499c1.75,0,3.173,1.423,3.173,3.173v23.654c0,1.75-1.423,3.173-3.173,3.173h-23.654
		c-1.75,0-3.173-1.423-3.173-3.173V2.674c0-1.75,1.423-3.173,3.173-3.173H-362.579 M-362.579-1.499h-23.654
		c-2.305,0-4.173,1.868-4.173,4.173v23.654c0,2.305,1.868,4.173,4.173,4.173h23.654c2.305,0,4.173-1.868,4.173-4.173V2.674
		C-358.406,0.37-360.274-1.499-362.579-1.499L-362.579-1.499z"/>
</g>
<polygon style="fill-rule:evenodd;clip-rule:evenodd;" points="-379.906,21.742 -379.906,21.742 -379.905,21.742 "/>
<polygon style="fill-rule:evenodd;clip-rule:evenodd;" points="-368.906,21.742 -368.906,21.742 -368.905,21.742 "/>
<polygon style="fill-rule:evenodd;clip-rule:evenodd;" points="-367.406,20.243 -367.406,20.242 -367.406,20.242 "/>
<polygon style="fill-rule:evenodd;clip-rule:evenodd;" points="-191.906,21.742 -191.906,21.742 -191.905,21.742 "/>
<polygon style="fill-rule:evenodd;clip-rule:evenodd;" points="-180.906,21.742 -180.906,21.742 -180.905,21.742 "/>
<polygon style="fill-rule:evenodd;clip-rule:evenodd;" points="-179.406,20.243 -179.406,20.242 -179.406,20.242 "/>
<g>
	<path style="fill:#D69D9D;stroke:#E02222;stroke-miterlimit:10;" d="M-798.295,183.187l-0.006-0.007
		c-0.401-0.464-0.945-0.722-1.512-0.717c-2.738,0.024-11.142,0.096-15.517,0.114c-3.398,0.014-2.685,4.221-0.791,4.209
		c-3.112,0-3.639,4.697-0.264,4.697c-4.559-0.02-3.936,4.614-1.266,4.636c-3.672,0-3.428,4.422,0.363,4.422
		c0.251-0.029,5.394-0.32,7.176-0.554c0.302-0.04,0.54,0.289,0.454,0.626l-1.264,4.962c-0.062,0.245-0.068,0.505-0.016,0.753
		c0.162,0.77,0.695,2.506,2.411,4.49c1.293,1.496,2.161,1.192,2.675,0.629c0.399-0.437,0.497-1.128,0.251-1.697
		c-0.306-0.706-0.634-1.929-0.131-3.324c0.791-2.196,4.002-6.188,5.169-6.527c0.983-0.285,1.437-0.467,2.268-0.847"/>
	<path style="fill:#E02222;" d="M-799.439,181.39c0-0.491,0.204-0.889,0.455-0.889h5.991c0.251,0,0.455,0.398,0.455,0.889v19.782
		c0,0.491-0.204,0.889-0.455,0.889h-5.991c-0.251,0-0.455-0.398-0.455-0.889V181.39z"/>
</g>
<g>
	<path style="fill:#C5E4D1;stroke:#069342;stroke-miterlimit:10;" d="M-762.517,209.802l0.006,0.007
		c0.401,0.464,0.945,0.722,1.512,0.717c2.738-0.024,11.142-0.096,15.517-0.114c3.398-0.014,2.685-4.221,0.791-4.209
		c3.112,0,3.639-4.697,0.264-4.697c4.559,0.02,3.936-4.614,1.266-4.636c3.672,0,3.428-4.422-0.362-4.422
		c-0.251,0.029-5.394,0.32-7.176,0.554c-0.302,0.04-0.54-0.289-0.454-0.626l1.264-4.962c0.062-0.245,0.068-0.505,0.016-0.753
		c-0.162-0.77-0.696-2.506-2.411-4.49c-1.293-1.496-2.161-1.192-2.675-0.629c-0.399,0.437-0.497,1.128-0.251,1.697
		c0.306,0.706,0.634,1.929,0.131,3.324c-0.791,2.196-4.002,6.188-5.169,6.527c-0.983,0.285-1.437,0.467-2.268,0.847"/>
	<path style="fill:#069342;" d="M-761.372,211.599c0,0.491-0.204,0.889-0.455,0.889h-5.991c-0.251,0-0.455-0.398-0.455-0.889
		v-19.782c0-0.491,0.204-0.889,0.455-0.889h5.991c0.251,0,0.455,0.398,0.455,0.889V211.599z"/>
</g>
<g>
	<path style="fill:#F2F2F2;stroke:#CFCFCF;stroke-miterlimit:10;" d="M-711.517,209.802l0.006,0.007
		c0.401,0.464,0.945,0.722,1.512,0.717c2.738-0.024,11.142-0.096,15.517-0.114c3.398-0.014,2.685-4.221,0.791-4.209
		c3.112,0,3.639-4.697,0.264-4.697c4.559,0.02,3.936-4.614,1.266-4.636c3.672,0,3.428-4.422-0.363-4.422
		c-0.251,0.029-5.394,0.32-7.176,0.554c-0.302,0.04-0.54-0.289-0.454-0.626l1.264-4.962c0.062-0.245,0.068-0.505,0.016-0.753
		c-0.162-0.77-0.695-2.506-2.411-4.49c-1.293-1.496-2.161-1.192-2.675-0.629c-0.399,0.437-0.497,1.128-0.251,1.697
		c0.306,0.706,0.634,1.929,0.131,3.324c-0.791,2.196-4.002,6.188-5.169,6.527c-0.983,0.285-1.437,0.467-2.268,0.847"/>
	<path style="fill:#CFCFCF;" d="M-710.372,211.599c0,0.491-0.204,0.889-0.455,0.889h-5.991c-0.251,0-0.455-0.398-0.455-0.889
		v-19.782c0-0.491,0.204-0.889,0.455-0.889h5.991c0.251,0,0.455,0.398,0.455,0.889V211.599z"/>
</g>
<circle style="fill:#2A9BDB;" cx="-655.406" cy="191.496" r="11"/>
<circle style="fill:#D03135;" cx="-610.292" cy="194.501" r="14"/>
<path id="CLOSE_2_" style="fill-rule:evenodd;clip-rule:evenodd;fill:#FFFFFF;" d="M-602.705,188.911l-5.59,5.59l5.59,5.59l0,0
	c0.255,0.256,0.413,0.608,0.413,0.998c0,0.78-0.632,1.412-1.412,1.412c-0.39,0-0.743-0.158-0.998-0.414l0,0l-5.59-5.59l-5.59,5.59
	l0,0c-0.255,0.255-0.608,0.414-0.998,0.414c-0.78,0-1.412-0.632-1.412-1.412c0-0.39,0.158-0.743,0.414-0.998l0,0l5.59-5.59
	l-5.59-5.59l0,0c-0.255-0.256-0.414-0.609-0.414-0.998c0-0.78,0.632-1.412,1.412-1.412c0.39,0,0.743,0.158,0.998,0.414l0,0
	l5.59,5.59l5.59-5.59l0,0c0.255-0.256,0.608-0.414,0.998-0.414c0.78,0,1.412,0.632,1.412,1.412
	C-602.292,188.303-602.45,188.656-602.705,188.911L-602.705,188.911z"/>
<circle style="fill:#FFFFFF;" cx="-808.406" cy="246.501" r="14"/>
<path id="CLOSE_3_" style="fill-rule:evenodd;clip-rule:evenodd;fill:#4A7D12;" d="M-800.819,240.911l-5.59,5.59l5.59,5.59l0,0
	c0.255,0.256,0.413,0.608,0.413,0.998c0,0.78-0.632,1.412-1.412,1.412c-0.39,0-0.743-0.158-0.998-0.414l0,0l-5.59-5.59l-5.59,5.59
	l0,0c-0.255,0.255-0.608,0.414-0.998,0.414c-0.78,0-1.412-0.632-1.412-1.412c0-0.39,0.158-0.743,0.414-0.998l0,0l5.59-5.59
	l-5.59-5.59l0,0c-0.255-0.256-0.414-0.609-0.414-0.998c0-0.78,0.632-1.412,1.412-1.412c0.39,0,0.743,0.158,0.998,0.414l0,0
	l5.59,5.59l5.59-5.59l0,0c0.255-0.256,0.608-0.414,0.998-0.414c0.78,0,1.412,0.632,1.412,1.412
	C-800.406,240.303-800.564,240.656-800.819,240.911L-800.819,240.911z"/>
<path style="fill:#9661BE;" d="M-774.406,237.718c0-2.881,2.335-5.216,5.216-5.216h29.568c2.881,0,5.216,2.335,5.216,5.216v29.568
	c0,2.881-2.335,5.216-5.216,5.216h-29.568c-2.881,0-5.216-2.335-5.216-5.216V237.718z"/>
<path id="USER_6_" style="fill-rule:evenodd;clip-rule:evenodd;fill:#FFFFFF;" d="M-746.238,265.766c0,0.001,0,0.002,0,0.003
	c0,0.652-0.528,1.18-1.18,1.18h-22.809c-0.652,0-1.18-0.528-1.18-1.18c0-0.001,0-0.002,0-0.003h-0.001c0,0,0-4.299,3.141-5.862
	c1.988-0.989,1.222-0.186,3.663-1.198c2.44-1.01,3.018-1.363,3.018-1.363l0.023-2.329c0,0-0.914-0.699-1.198-2.891
	c-0.572,0.165-0.761-0.671-0.795-1.204c-0.031-0.515-0.331-2.122,0.367-1.977c-0.143-1.073-0.245-2.041-0.195-2.554
	c0.175-1.8,1.908-3.68,4.579-3.818c3.141,0.137,4.385,2.016,4.559,3.816c0.051,0.513-0.061,1.481-0.204,2.553
	c0.698-0.143,0.395,1.461,0.361,1.976c-0.031,0.533-0.224,1.367-0.794,1.202c-0.285,2.192-1.199,2.885-1.199,2.885l0.021,2.318
	c0,0,0.578,0.33,3.018,1.341c2.44,1.012,1.675,0.255,3.663,1.244C-746.238,261.467-746.238,265.766-746.238,265.766
	L-746.238,265.766z"/>
<path id="USER_1_" style="fill-rule:evenodd;clip-rule:evenodd;fill:#FFFFFF;" d="M-736.663,258.361c0,0.001,0,0.002,0,0.003
	c0,0.614-0.457,1.112-1.021,1.112h-19.736c-0.564,0-1.021-0.498-1.021-1.112c0-0.001,0-0.002,0-0.003h-0.001
	c0,0,0-4.051,2.718-5.525c1.72-0.932,1.058-0.175,3.169-1.129c2.111-0.952,2.612-1.285,2.612-1.285l0.02-2.195
	c0,0-0.791-0.659-1.036-2.724c-0.495,0.156-0.658-0.633-0.688-1.135c-0.026-0.485-0.286-2,0.317-1.863
	c-0.123-1.011-0.212-1.923-0.169-2.406c0.151-1.696,1.651-3.468,3.962-3.598c2.718,0.129,3.794,1.9,3.945,3.596
	c0.044,0.483-0.053,1.396-0.176,2.406c0.604-0.135,0.341,1.377,0.312,1.862c-0.027,0.502-0.194,1.288-0.687,1.132
	c-0.247,2.065-1.038,2.719-1.038,2.719l0.019,2.184c0,0,0.5,0.311,2.611,1.264c2.112,0.954,1.449,0.241,3.169,1.173
	C-736.663,254.31-736.663,258.361-736.663,258.361L-736.663,258.361z"/>
<path style="fill:#FFFFFF;" d="M-714.406,237.718c0-2.881,2.335-5.216,5.216-5.216h29.568c2.881,0,5.216,2.335,5.216,5.216v29.568
	c0,2.881-2.335,5.216-5.216,5.216h-29.568c-2.881,0-5.216-2.335-5.216-5.216V237.718z M-686.238,265.766c0,0,0-4.299-3.141-5.862
	c-1.988-0.989-1.222-0.232-3.663-1.244c-2.44-1.011-3.018-1.341-3.018-1.341l-0.021-2.318c0,0,0.914-0.694,1.199-2.885
	c0.57,0.165,0.764-0.669,0.794-1.202c0.034-0.515,0.337-2.119-0.361-1.976c0.143-1.071,0.255-2.04,0.204-2.553
	c-0.174-1.8-1.419-3.679-4.559-3.816c-2.67,0.137-4.404,2.018-4.579,3.818c-0.05,0.513,0.052,1.48,0.195,2.554
	c-0.698-0.145-0.397,1.462-0.367,1.977c0.034,0.533,0.223,1.369,0.795,1.204c0.284,2.192,1.198,2.891,1.198,2.891l-0.023,2.329
	c0,0-0.578,0.353-3.018,1.363c-2.44,1.012-1.675,0.21-3.663,1.198c-3.141,1.563-3.141,5.862-3.141,5.862h0.001
	c0,0.001,0,0.002,0,0.003c0,0.652,0.528,1.18,1.18,1.18h22.809c0.651,0,1.18-0.528,1.18-1.18
	C-686.238,265.768-686.238,265.767-686.238,265.766L-686.238,265.766z M-676.663,258.361c0,0,0-4.051-2.718-5.524
	c-1.72-0.932-1.058-0.219-3.169-1.173c-2.111-0.953-2.611-1.264-2.611-1.264l-0.019-2.184c0,0,0.791-0.654,1.038-2.719
	c0.493,0.155,0.661-0.63,0.687-1.132c0.029-0.485,0.292-1.997-0.312-1.862c0.124-1.01,0.221-1.922,0.176-2.406
	c-0.151-1.696-1.228-3.467-3.945-3.596c-2.31,0.13-3.81,1.901-3.962,3.598c-0.044,0.483,0.045,1.395,0.169,2.406
	c-0.604-0.137-0.344,1.378-0.317,1.863c0.029,0.502,0.193,1.291,0.688,1.135c0.246,2.066,1.036,2.724,1.036,2.724l-0.02,2.195
	c0,0-0.5,0.332-2.612,1.285c-2.111,0.954-1.449,0.197-3.169,1.129c-2.718,1.473-2.718,5.525-2.718,5.525h0.001
	c0,0.001,0,0.002,0,0.003c0,0.614,0.457,1.112,1.021,1.112h19.736c0.564,0,1.021-0.498,1.021-1.112
	C-676.663,258.363-676.663,258.362-676.663,258.361L-676.663,258.361z"/>
<path id="USER_2_" style="fill-rule:evenodd;clip-rule:evenodd;fill:#49B173;" d="M-614.407,270.621c0,0.001,0,0.003,0,0.005
	c0,1.036-0.84,1.876-1.876,1.876h-36.27c-1.036,0-1.876-0.84-1.876-1.876c0-0.002,0-0.003,0-0.005h-0.001c0,0,0-6.836,4.995-9.322
	c3.161-1.572,1.944-0.296,5.824-1.906c3.88-1.607,4.8-2.168,4.8-2.168l0.037-3.704c0,0-1.453-1.112-1.905-4.597
	c-0.91,0.263-1.21-1.068-1.263-1.915c-0.049-0.818-0.526-3.374,0.583-3.143c-0.227-1.707-0.39-3.245-0.31-4.061
	c0.278-2.862,3.035-5.852,7.281-6.071c4.994,0.218,6.973,3.206,7.25,6.068c0.081,0.815-0.097,2.355-0.324,4.059
	c1.11-0.228,0.628,2.324,0.574,3.142c-0.049,0.847-0.356,2.173-1.263,1.911c-0.453,3.485-1.907,4.588-1.907,4.588l0.034,3.685
	c0,0,0.919,0.525,4.799,2.132c3.881,1.609,2.663,0.406,5.824,1.979c4.995,2.485,4.995,9.321,4.995,9.321H-614.407z"/>
<path id="USER_5_" style="fill-rule:evenodd;clip-rule:evenodd;fill:#FFFFFF;" d="M-554.407,270.621c0,0.001,0,0.003,0,0.005
	c0,1.036-0.84,1.876-1.876,1.876h-36.27c-1.036,0-1.876-0.84-1.876-1.876c0-0.002,0-0.003,0-0.005h-0.001c0,0,0-6.836,4.995-9.322
	c3.161-1.572,1.944-0.296,5.824-1.906c3.88-1.607,4.8-2.168,4.8-2.168l0.037-3.704c0,0-1.453-1.112-1.905-4.597
	c-0.91,0.263-1.21-1.068-1.263-1.915c-0.049-0.818-0.526-3.374,0.583-3.143c-0.227-1.707-0.39-3.245-0.31-4.061
	c0.278-2.862,3.035-5.852,7.281-6.071c4.994,0.218,6.973,3.206,7.25,6.068c0.081,0.815-0.097,2.355-0.324,4.059
	c1.11-0.228,0.628,2.324,0.574,3.142c-0.049,0.847-0.356,2.173-1.263,1.911c-0.453,3.485-1.907,4.588-1.907,4.588l0.034,3.685
	c0,0,0.919,0.525,4.799,2.132c3.881,1.609,2.663,0.406,5.824,1.979c4.995,2.485,4.995,9.321,4.995,9.321H-554.407z"/>
<path id="ARROWS_2_" style="fill-rule:evenodd;clip-rule:evenodd;fill:#FFFFFF;" d="M-790.452,308.478
	c0,0.442-0.191,0.839-0.496,1.113l0,0l-4.993,4.493l0,0c-0.265,0.239-0.617,0.385-1.002,0.385c-0.827,0-1.498-0.671-1.498-1.498
	c0-0.442,0.191-0.839,0.496-1.113l0,0l2.091-1.882h-9.078v9.078l1.882-2.091l0,0c0.274-0.304,0.671-0.496,1.113-0.496
	c0.827,0,1.498,0.671,1.498,1.498c0,0.385-0.146,0.737-0.385,1.002l0,0l-4.493,4.993l0,0c-0.274,0.304-0.671,0.496-1.113,0.496
	c-0.442,0-0.839-0.191-1.113-0.496l0,0l-4.493-4.993l0,0c-0.239-0.265-0.385-0.617-0.385-1.002c0-0.827,0.671-1.498,1.498-1.498
	c0.442,0,0.839,0.192,1.113,0.496l0,0l1.882,2.091v-9.078h-9.078l2.091,1.882l0,0c0.304,0.274,0.496,0.671,0.496,1.113
	c0,0.827-0.671,1.498-1.498,1.498c-0.385,0-0.736-0.146-1.002-0.385l0,0l-4.993-4.493l0,0c-0.304-0.274-0.496-0.671-0.496-1.113
	c0-0.442,0.192-0.839,0.496-1.113l0,0l4.993-4.493h0c0.265-0.239,0.617-0.385,1.002-0.385c0.827,0,1.498,0.671,1.498,1.498
	c0,0.442-0.192,0.839-0.496,1.113l0,0l-2.091,1.882h9.078v-9.078l-1.882,2.092l0,0c-0.274,0.304-0.671,0.496-1.113,0.496
	c-0.827,0-1.498-0.671-1.498-1.498c0-0.385,0.146-0.736,0.385-1.002l0,0l4.493-4.993l0,0c0.274-0.304,0.671-0.496,1.113-0.496
	c0.442,0,0.839,0.192,1.113,0.496l0,0l4.493,4.993l0,0c0.239,0.265,0.385,0.617,0.385,1.002c0,0.827-0.671,1.498-1.498,1.498
	c-0.442,0-0.839-0.192-1.113-0.496l0,0l-1.882-2.092v9.078h9.078l-2.091-1.882l0,0c-0.304-0.274-0.496-0.671-0.496-1.113
	c0-0.827,0.671-1.498,1.498-1.498c0.385,0,0.736,0.146,1.002,0.385h0l4.993,4.493l0,0
	C-790.644,307.639-790.452,308.036-790.452,308.478z"/>
<path style="fill-rule:evenodd;clip-rule:evenodd;fill:#FFFFFF;" d="M-755.585,303.501c-0.376,0-0.71-0.166-0.943-0.425
	l-0.003,0.003l-1.6-1.778v7.718c0,0.703-0.57,1.274-1.273,1.274s-1.273-0.57-1.273-1.274v-7.718l-1.6,1.778l-0.004-0.003
	c-0.233,0.259-0.567,0.425-0.943,0.425c-0.703,0-1.273-0.57-1.273-1.273c0-0.328,0.127-0.623,0.33-0.849l-0.003-0.003l3.82-4.245
	l0.003,0.003c0.233-0.259,0.567-0.425,0.943-0.425s0.71,0.166,0.943,0.425l0.003-0.003l3.82,4.245l-0.003,0.003
	c0.203,0.226,0.33,0.521,0.33,0.849C-754.312,302.931-754.882,303.501-755.585,303.501z"/>
<circle style="fill:#FFFFFF;" cx="-675.406" cy="303.496" r="11"/>
<circle style="fill:#2A9BDB;" cx="-717.406" cy="303.496" r="11"/>
<path style="fill-rule:evenodd;clip-rule:evenodd;fill:#FFFFFF;" d="M-721.226,303.501c0.376,0,0.71,0.166,0.943,0.425l0.003-0.003
	l1.6,1.778v-7.718c0-0.703,0.57-1.273,1.273-1.273s1.273,0.57,1.273,1.273v7.718l1.6-1.778l0.004,0.003
	c0.233-0.259,0.567-0.425,0.943-0.425c0.703,0,1.273,0.57,1.273,1.273c0,0.328-0.127,0.623-0.33,0.849l0.003,0.003l-3.82,4.245
	l-0.003-0.003c-0.233,0.259-0.567,0.425-0.943,0.425s-0.71-0.166-0.943-0.425l-0.003,0.003l-3.82-4.245l0.003-0.003
	c-0.203-0.226-0.33-0.521-0.33-0.849C-722.499,304.071-721.929,303.501-721.226,303.501z"/>
<circle style="fill:#2A9BDB;" cx="-421.406" cy="9.496" r="11"/>
<path style="fill-rule:evenodd;clip-rule:evenodd;fill:#FFFFFF;" d="M-425.226,9.501c0.376,0,0.71,0.166,0.943,0.425l0.003-0.003
	l1.6,1.778V3.983c0-0.703,0.57-1.274,1.273-1.274c0.703,0,1.273,0.57,1.273,1.274v7.718l1.6-1.778l0.004,0.003
	c0.233-0.259,0.567-0.425,0.943-0.425c0.703,0,1.273,0.57,1.273,1.273c0,0.328-0.127,0.623-0.33,0.849l0.003,0.003l-3.82,4.245
	l-0.003-0.003c-0.233,0.259-0.567,0.425-0.943,0.425s-0.71-0.166-0.943-0.425l-0.003,0.003l-3.82-4.245l0.003-0.003
	c-0.203-0.226-0.33-0.521-0.33-0.849C-426.499,10.071-425.929,9.501-425.226,9.501z"/>
<g>
	<path style="fill:#FFFFFF;" d="M-275.406,19.996c-5.79,0-10.5-4.71-10.5-10.5s4.71-10.5,10.5-10.5s10.5,4.71,10.5,10.5
		S-269.616,19.996-275.406,19.996z"/>
	<path style="fill:#2A9BDB;" d="M-275.406-0.504c5.514,0,10,4.486,10,10s-4.486,10-10,10s-10-4.486-10-10
		S-280.92-0.504-275.406-0.504 M-275.406-1.504c-6.075,0-11,4.925-11,11s4.925,11,11,11s11-4.925,11-11S-269.33-1.504-275.406-1.504
		L-275.406-1.504z"/>
</g>
<path style="fill-rule:evenodd;clip-rule:evenodd;fill:#2A9BDB;" d="M-275.406,5.681c0,0.376-0.166,0.71-0.425,0.943l0.003,0.003
	l-1.778,1.6h7.718c0.703,0,1.273,0.57,1.273,1.273c0,0.703-0.57,1.273-1.273,1.273h-7.718l1.778,1.6l-0.003,0.004
	c0.259,0.233,0.425,0.567,0.425,0.943c0,0.703-0.57,1.273-1.273,1.273c-0.328,0-0.623-0.127-0.849-0.33l-0.003,0.003l-4.245-3.82
	l0.003-0.003c-0.259-0.233-0.425-0.567-0.425-0.943s0.166-0.71,0.425-0.943l-0.003-0.003l4.245-3.82l0.003,0.003
	c0.226-0.203,0.521-0.33,0.849-0.33C-275.976,4.407-275.406,4.978-275.406,5.681z"/>
<g>
	<path style="fill:#FFFFFF;" d="M-233.406,19.996c-5.79,0-10.5-4.71-10.5-10.5s4.71-10.5,10.5-10.5s10.5,4.71,10.5,10.5
		S-227.616,19.996-233.406,19.996z"/>
	<path style="fill:#2A9BDB;" d="M-233.406-0.504c5.514,0,10,4.486,10,10s-4.486,10-10,10s-10-4.486-10-10
		S-238.92-0.504-233.406-0.504 M-233.406-1.504c-6.075,0-11,4.925-11,11s4.925,11,11,11s11-4.925,11-11S-227.33-1.504-233.406-1.504
		L-233.406-1.504z"/>
</g>
<path style="fill-rule:evenodd;clip-rule:evenodd;fill:#2A9BDB;" d="M-233.406,13.322c0-0.376,0.166-0.71,0.425-0.943l-0.003-0.003
	l1.778-1.6h-7.718c-0.703,0-1.274-0.57-1.274-1.273c0-0.703,0.57-1.273,1.274-1.273h7.718l-1.778-1.6l0.003-0.004
	c-0.259-0.233-0.425-0.567-0.425-0.943c0-0.703,0.57-1.273,1.273-1.273c0.328,0,0.623,0.127,0.849,0.33l0.003-0.003l4.245,3.82
	l-0.003,0.003c0.259,0.233,0.425,0.567,0.425,0.943c0,0.376-0.166,0.71-0.425,0.943l0.003,0.003l-4.245,3.82l-0.003-0.003
	c-0.226,0.203-0.521,0.33-0.849,0.33C-232.836,14.595-233.406,14.025-233.406,13.322z"/>
<circle style="fill:#FFFFFF;" cx="-421.406" cy="43.496" r="11"/>
<path style="fill-rule:evenodd;clip-rule:evenodd;fill:#2A9BDB;" d="M-669.247,308.383l0,0.001c0,0.319-0.258,0.577-0.577,0.577
	h-0.353c0.099-0.17,0.16-0.366,0.16-0.577c0.288,0,0.549-0.11,0.751-0.284C-669.248,308.274-669.247,308.383-669.247,308.383
	L-669.247,308.383z"/>
<path style="fill-rule:evenodd;clip-rule:evenodd;fill:#2A9BDB;" d="M-672.326,306.075c-0.638,0-1.155,0.517-1.155,1.155
	c0,0.638,0.517,1.155,1.155,1.155c0,0.211,0.061,0.407,0.16,0.577h-8.821c-0.319,0-0.577-0.258-0.577-0.577l0-0.001h0
	c0,0,0-2.104,1.537-2.869c0.973-0.484,0.598-0.091,1.792-0.586c1.194-0.495,1.477-0.667,1.477-0.667l0.011-1.14
	c0,0-0.447-0.342-0.586-1.415c-0.28,0.081-0.372-0.329-0.389-0.589c-0.015-0.252-0.162-1.038,0.179-0.967
	c-0.07-0.525-0.12-0.999-0.095-1.25c0.086-0.881,0.934-1.801,2.241-1.868c1.537,0.067,2.146,0.987,2.231,1.868
	c0.025,0.251-0.03,0.725-0.1,1.249c0.342-0.07,0.193,0.715,0.177,0.967c-0.015,0.261-0.11,0.669-0.389,0.588
	c-0.14,1.073-0.587,1.412-0.587,1.412l0.01,1.134c0,0,0.283,0.161,1.477,0.656c0.345,0.143,0.557,0.213,0.71,0.253
	C-672.144,305.369-672.326,305.699-672.326,306.075z"/>
<circle style="fill:#FFFFFF;" cx="-671.172" cy="307.23" r="2.542"/>
<path style="fill-rule:evenodd;clip-rule:evenodd;fill:#2A9BDB;" d="M-669.672,307.98h-0.75v0.75c0,0.414-0.336,0.75-0.75,0.75
	c-0.414,0-0.75-0.336-0.75-0.75v-0.75h-0.75c-0.414,0-0.75-0.336-0.75-0.75c0-0.414,0.336-0.75,0.75-0.75h0.75v-0.75
	c0-0.414,0.336-0.75,0.75-0.75c0.414,0,0.75,0.336,0.75,0.75v0.75h0.75c0.414,0,0.75,0.336,0.75,0.75
	C-668.922,307.644-669.258,307.98-669.672,307.98z"/>
<path id="CIRCLE__x2F__DELETE_2_" style="fill-rule:evenodd;clip-rule:evenodd;fill:#FFFFFF;" d="M-514.402,38.508
	c-11.047,0-20.003-8.956-20.003-20.003c0-11.047,8.956-20.003,20.003-20.003c11.047,0,20.003,8.956,20.003,20.003
	C-494.399,29.552-503.355,38.508-514.402,38.508z M-514.402,2.252c-8.976,0-16.253,7.276-16.253,16.252
	c0,8.976,7.276,16.253,16.253,16.253s16.253-7.277,16.253-16.253C-498.15,9.528-505.426,2.252-514.402,2.252z M-507.526,27.256
	c-0.518,0-0.987-0.21-1.326-0.549l0,0l-5.55-5.55l-5.55,5.55l0,0c-0.339,0.339-0.808,0.549-1.326,0.549
	c-1.036,0-1.875-0.839-1.875-1.875c0-0.518,0.21-0.987,0.549-1.326l0,0l5.55-5.55l-5.55-5.55l0,0
	c-0.339-0.339-0.549-0.808-0.549-1.326c0-1.036,0.84-1.875,1.875-1.875c0.518,0,0.987,0.21,1.326,0.549l0,0l5.55,5.55l5.55-5.55l0,0
	c0.339-0.34,0.808-0.549,1.326-0.549c1.036,0,1.875,0.84,1.875,1.875c0,0.518-0.21,0.987-0.549,1.326l0,0l-5.55,5.55l5.55,5.55l0,0
	c0.339,0.34,0.549,0.808,0.549,1.326C-505.651,26.416-506.491,27.256-507.526,27.256z"/>
<path id="PLAY_2_" style="fill-rule:evenodd;clip-rule:evenodd;fill:#8B8B8B;" d="M-463.468,17.642
	c-0.752,0-1.409-0.405-1.766-1.008l0,0l-8.872-15.015c-0.003-0.005-0.006-0.011-0.01-0.016l-0.005-0.008l0,0
	c-0.181-0.306-0.285-0.662-0.285-1.043c0-1.133,0.918-2.051,2.051-2.051l0,0h17.774l0,0c1.132,0,2.051,0.918,2.051,2.051
	c0,0.381-0.104,0.738-0.285,1.043l0,0l-0.005,0.008c-0.003,0.005-0.006,0.011-0.009,0.016l-8.872,15.015l0,0
	C-462.06,17.237-462.716,17.642-463.468,17.642z"/>
<g>
	<path style="fill:#2A9BDB;" d="M-334.233,30.001c-2.025,0-3.673-1.647-3.673-3.673V2.674c0-2.025,1.647-3.673,3.673-3.673h23.654
		c2.025,0,3.673,1.647,3.673,3.673v23.654c0,2.025-1.647,3.673-3.673,3.673H-334.233z"/>
	<path style="fill:#1C5996;" d="M-310.579-0.499c1.75,0,3.173,1.423,3.173,3.173v23.654c0,1.75-1.423,3.173-3.173,3.173h-23.654
		c-1.75,0-3.173-1.423-3.173-3.173V2.674c0-1.75,1.423-3.173,3.173-3.173H-310.579 M-310.579-1.499h-23.654
		c-2.305,0-4.173,1.868-4.173,4.173v23.654c0,2.305,1.868,4.173,4.173,4.173h23.654c2.305,0,4.173-1.868,4.173-4.173V2.674
		C-306.406,0.37-308.274-1.499-310.579-1.499L-310.579-1.499z"/>
</g>
<polygon style="fill-rule:evenodd;clip-rule:evenodd;" points="-327.906,21.742 -327.906,21.742 -327.905,21.742 "/>
<polygon style="fill-rule:evenodd;clip-rule:evenodd;" points="-316.905,21.742 -316.906,21.742 -316.905,21.742 "/>
<polygon style="fill-rule:evenodd;clip-rule:evenodd;" points="-315.406,20.243 -315.406,20.242 -315.406,20.242 "/>
<path style="fill-rule:evenodd;clip-rule:evenodd;fill:#FFFFFF;" d="M-312.279,10.57l-11.355,11.355l0,0
	c-0.385,0.385-0.918,0.624-1.505,0.624c-0.588,0-1.12-0.238-1.505-0.624l0,0l-6.387-6.387l0,0c-0.385-0.385-0.624-0.918-0.624-1.506
	c0-1.176,0.953-2.129,2.129-2.129c0.588,0,1.12,0.238,1.505,0.624l0,0l4.882,4.882l9.849-9.849l0,0
	c0.385-0.385,0.918-0.624,1.505-0.624c1.176,0,2.129,0.953,2.129,2.129C-311.656,9.653-311.894,10.185-312.279,10.57L-312.279,10.57
	z"/>
<g>
	<path style="fill:#FFFFFF;" d="M-99.827,30.001c-2.025,0-3.673-1.647-3.673-3.673V2.674c0-2.025,1.647-3.673,3.673-3.673h23.654
		c2.025,0,3.673,1.647,3.673,3.673v23.654c0,2.025-1.647,3.673-3.673,3.673H-99.827z"/>
	<path style="fill:#FFDA59;" d="M-76.173-0.499c1.75,0,3.173,1.423,3.173,3.173v23.654c0,1.75-1.423,3.173-3.173,3.173h-23.654
		c-1.75,0-3.173-1.423-3.173-3.173V2.674c0-1.75,1.423-3.173,3.173-3.173H-76.173 M-76.173-1.499h-23.654
		c-2.305,0-4.173,1.868-4.173,4.173v23.654c0,2.305,1.868,4.173,4.173,4.173h23.654c2.305,0,4.173-1.868,4.173-4.173V2.674
		C-72,0.37-73.868-1.499-76.173-1.499L-76.173-1.499z"/>
</g>
<polygon style="fill-rule:evenodd;clip-rule:evenodd;" points="-93.5,21.742 -93.5,21.742 -93.5,21.742 "/>
<polygon style="fill-rule:evenodd;clip-rule:evenodd;" points="-82.5,21.742 -82.5,21.742 -82.5,21.742 "/>
<polygon style="fill-rule:evenodd;clip-rule:evenodd;" points="-81,20.243 -81,20.242 -81,20.242 "/>
<circle style="fill:none;stroke:#2A9BDB;stroke-width:2.0873;stroke-miterlimit:10;" cx="-421.337" cy="43.054" r="6.21"/>
<rect x="-416.915" y="40.17" style="fill:#FFFFFF;" width="3.051" height="2.884"/>
<rect x="-428.948" y="43.054" style="fill:#FFFFFF;" width="3.051" height="2.884"/>
<g>
	<defs>
		
			<rect id="SVGID_5_" x="-428.478" y="44.411" transform="matrix(-1 -0.0021 0.0021 -1 -852.301 92.6733)" width="4.752" height="4.752"/>
	</defs>
	<clipPath id="SVGID_1_">
		<use xlink:href="#SVGID_5_"  style="overflow:visible;"/>
	</clipPath>
	
		<rect x="-431.7" y="42.747" transform="matrix(-0.7086 0.7056 -0.7056 -0.7086 -699.0961 378.9553)" style="clip-path:url(#SVGID_1_);fill:#2A9BDB;" width="7.804" height="4.752"/>
</g>
<g>
	<defs>
		
			<rect id="SVGID_7_" x="-418.941" y="37.102" transform="matrix(1 0.0021 -0.0021 1 0.0826 0.8815)" width="4.752" height="4.752"/>
	</defs>
	<clipPath id="SVGID_2_">
		<use xlink:href="#SVGID_7_"  style="overflow:visible;"/>
	</clipPath>
	
		<rect x="-418.771" y="38.766" transform="matrix(0.7086 -0.7056 0.7056 0.7086 -149.9227 -280.7468)" style="clip-path:url(#SVGID_2_);fill:#2A9BDB;" width="7.804" height="4.752"/>
</g>
<path id="BIN_2_" style="fill-rule:evenodd;clip-rule:evenodd;fill:#C65739;" d="M-202.406,3.448c0-0.912,0.739-1.65,1.65-1.65
	h8.252v-1.65c0-0.912,0.739-1.65,1.65-1.65h3.301c0.911,0,1.65,0.739,1.65,1.65v1.65h8.252c0.911,0,1.65,0.739,1.65,1.65v1.65
	h-26.405V3.448z M-177.651,8.398v3.301v17.054c0,0.911-0.739,1.65-1.65,1.65h-19.804c-0.911,0-1.65-0.739-1.65-1.65V11.699V8.398
	v-1.65h23.105V8.398z M-194.154,11.699c0-0.911-0.739-1.65-1.65-1.65s-1.65,0.739-1.65,1.65v13.753c0,0.912,0.739,1.65,1.65,1.65
	s1.65-0.739,1.65-1.65V11.699z M-187.553,11.699c0-0.911-0.739-1.65-1.65-1.65c-0.911,0-1.65,0.739-1.65,1.65v13.753
	c0,0.912,0.739,1.65,1.65,1.65c0.911,0,1.65-0.739,1.65-1.65V11.699z M-180.951,11.699c0-0.911-0.739-1.65-1.65-1.65
	c-0.911,0-1.65,0.739-1.65,1.65v13.753c0,0.912,0.739,1.65,1.65,1.65c0.911,0,1.65-0.739,1.65-1.65V11.699z"/>
<polygon style="fill-rule:evenodd;clip-rule:evenodd;" points="-145.5,21.742 -145.5,21.742 -145.5,21.742 "/>
<polygon style="fill-rule:evenodd;clip-rule:evenodd;" points="-134.5,21.742 -134.5,21.742 -134.5,21.742 "/>
<polygon style="fill-rule:evenodd;clip-rule:evenodd;" points="-133,20.243 -133,20.242 -133,20.242 "/>
<path id="MAGNIFYING_GLASS_2_" style="fill-rule:evenodd;clip-rule:evenodd;fill:#414143;" d="M-124.879,25.38
	c0.543,0.543,0.879,1.293,0.879,2.121c0,1.657-1.343,3-3,3c-0.828,0-1.578-0.336-2.121-0.879l0,0l-8.792-8.792
	c-1.786,1.055-3.862,1.671-6.086,1.671c-6.627,0-12-5.373-12-12c0-6.627,5.373-12,12-12c6.627,0,12,5.373,12,12
	c0,2.224-0.616,4.3-1.671,6.086L-124.879,25.38L-124.879,25.38z M-144,1.501c-4.971,0-9,4.029-9,9c0,4.971,4.029,9,9,9
	c4.971,0,9-4.03,9-9C-135,5.531-139.03,1.501-144,1.501z"/>
<path id="RESIZE_1_7_" style="fill-rule:evenodd;clip-rule:evenodd;fill:#6F6600;" d="M-75.583,8.488L-75.583,8.488
	c0,0.707-0.573,1.281-1.281,1.281c-0.707,0-1.281-0.573-1.281-1.281l0,0V6.457l-6.352,6.352c-0.232,0.232-0.552,0.375-0.906,0.375
	c-0.707,0-1.281-0.573-1.281-1.281c0-0.354,0.143-0.674,0.375-0.906l0,0l6.352-6.352h-2.031l0,0c-0.707,0-1.281-0.574-1.281-1.281
	s0.573-1.281,1.281-1.281l0,0h5.123l0,0c0.707,0,1.281,0.574,1.281,1.281l0,0V8.488z M-89.62,17.932l-6.352,6.352h2.031l0,0
	c0.707,0,1.281,0.573,1.281,1.281c0,0.707-0.573,1.281-1.281,1.281l0,0h-5.123l0,0c-0.707,0-1.281-0.574-1.281-1.281l0,0v-5.123l0,0
	c0-0.707,0.573-1.281,1.281-1.281c0.707,0,1.281,0.573,1.281,1.281l0,0v2.031l6.352-6.352c0.232-0.232,0.552-0.375,0.906-0.375
	c0.707,0,1.281,0.573,1.281,1.281C-89.245,17.38-89.388,17.701-89.62,17.932L-89.62,17.932z"/>
<path style="fill-rule:evenodd;clip-rule:evenodd;fill:#6F6600;" d="M-83.756,10.657c0.395,0.395,0.319,1.11-0.169,1.598
	l-6.047,6.047c-0.488,0.488-1.204,0.564-1.598,0.169l-0.376-0.376c-0.395-0.395-0.319-1.11,0.169-1.598l6.047-6.047
	c0.488-0.488,1.204-0.564,1.598-0.169L-83.756,10.657z"/>
<polygon style="fill-rule:evenodd;clip-rule:evenodd;" points="-41.5,21.742 -41.5,21.742 -41.5,21.742 "/>
<polygon style="fill-rule:evenodd;clip-rule:evenodd;" points="-30.5,21.742 -30.5,21.742 -30.5,21.742 "/>
<polygon style="fill-rule:evenodd;clip-rule:evenodd;" points="-29,20.243 -29,20.242 -29,20.242 "/>
<path style="fill-rule:evenodd;clip-rule:evenodd;fill:#1C5996;" d="M-20.961,24.37l-14.459,5.983
	c-0.182,0.078-0.382,0.122-0.593,0.122c-0.211,0-0.411-0.044-0.593-0.122l-14.459-5.983C-51.613,24.147-52,23.609-52,22.981V0
	c0-0.828,0.671-1.499,1.499-1.499c0.203,0,0.396,0.041,0.573,0.114v0l0.002,0.001c0.004,0.002,0.009,0.004,0.013,0.006l13.899,5.751
	l13.899-5.751c0.004-0.002,0.009-0.004,0.013-0.006l0.002-0.001l0,0c0.177-0.073,0.37-0.114,0.573-0.114
	c0.828,0,1.499,0.671,1.499,1.499v22.981C-20.026,23.609-20.413,24.147-20.961,24.37z"/>
<polygon style="fill-rule:evenodd;clip-rule:evenodd;fill:#FFFFFF;" points="-37.356,27.038 -37.356,7.088 -48.97,2.283 
	-48.97,22.232 "/>
<polygon style="fill-rule:evenodd;clip-rule:evenodd;fill:#FFFFFF;" points="-22.712,2.283 -34.326,7.088 -34.326,27.038 
	-22.712,22.232 "/>
<g>
	<polygon style="fill-rule:evenodd;clip-rule:evenodd;" points="10.5,22.491 10.5,22.491 10.5,22.491 	"/>
	<polygon style="fill-rule:evenodd;clip-rule:evenodd;" points="21.5,22.491 21.5,22.491 21.5,22.491 	"/>
	<polygon style="fill-rule:evenodd;clip-rule:evenodd;" points="23,20.992 23,20.991 23,20.991 	"/>
	<path style="fill-rule:evenodd;clip-rule:evenodd;fill:#1C5996;" d="M30.728,9.495c-1.582-3.693-4.543-6.654-8.236-8.236
		C23.491,0.473,24.748,0,26.117,0c3.242,0,5.87,2.628,5.87,5.87C31.987,7.239,31.514,8.496,30.728,9.495z"/>
	<path style="fill-rule:evenodd;clip-rule:evenodd;fill:#1C5996;" d="M30.488,15.987c0,3.849-1.511,7.338-3.959,9.932l2.026,2.026
		c0.268,0.268,0.434,0.639,0.434,1.048c0,0.818-0.663,1.482-1.482,1.482c-0.409,0-0.78-0.166-1.048-0.434l-2.177-2.177
		c-2.349,1.641-5.201,2.611-8.283,2.611c-3.076,0-5.923-0.966-8.269-2.601l-2.162,2.162c-0.271,0.271-0.646,0.439-1.06,0.439
		c-0.828,0-1.499-0.671-1.499-1.499c0-0.414,0.168-0.789,0.439-1.06l2.01-2.01c-2.441-2.593-3.948-6.077-3.948-9.92
		C1.512,7.985,7.998,1.499,16,1.499S30.488,7.985,30.488,15.987z"/>
	<circle style="fill-rule:evenodd;clip-rule:evenodd;fill:#FFFFFF;" cx="16" cy="15.987" r="11.491"/>
	<path style="fill-rule:evenodd;clip-rule:evenodd;fill:#1C5996;" d="M21.995,17.486H16c-0.828,0-1.499-0.671-1.499-1.499V7.993
		c0-0.828,0.671-1.499,1.499-1.499c0.828,0,1.499,0.671,1.499,1.499v6.495h4.496c0.828,0,1.499,0.671,1.499,1.499
		C23.494,16.815,22.823,17.486,21.995,17.486z"/>
	<path style="fill-rule:evenodd;clip-rule:evenodd;fill:#1C5996;" d="M1.299,9.698c-0.803-1.02-1.286-2.304-1.286-3.703
		C0.013,2.684,2.697,0,6.008,0c1.399,0,2.683,0.483,3.703,1.286C5.939,2.902,2.915,5.926,1.299,9.698z"/>
</g>
<g>
	<path style="fill-rule:evenodd;clip-rule:evenodd;fill:#FFFFFF;" d="M84,29.063c0,0.794-0.644,1.438-1.438,1.438H53.438
		c-0.794,0-1.438-0.644-1.438-1.438V10.141c0-0.906,0.734-1.64,1.64-1.64h28.72c0.906,0,1.64,0.734,1.64,1.64V29.063z"/>
	<path id="MAIL_2_" style="fill-rule:evenodd;clip-rule:evenodd;fill:#1C5996;" d="M73.807,18.382l9.734-9.43
		c0.275,0.272,0.447,0.649,0.447,1.066v18.985c0,0.394-0.155,0.75-0.404,1.018L73.807,18.382z M52.512,8.909
		c0.266-0.24,0.614-0.39,1-0.39h28.976c0.386,0,0.734,0.15,1,0.39L68,21.009L52.512,8.909z M52.417,30.02
		c-0.249-0.267-0.404-0.623-0.404-1.018V10.018c0-0.417,0.171-0.794,0.447-1.066l9.734,9.43L52.417,30.02z M68,24.007l4.065-3.937
		l11.451,10.02c-0.268,0.254-0.629,0.412-1.028,0.412H53.512c-0.399,0-0.759-0.158-1.028-0.412l11.451-10.02L68,24.007z"/>
</g>
</svg>
