<?xml version="1.0" encoding="utf-8"?>
<!-- Generator: Adobe Illustrator 18.1.0, SVG Export Plug-In . SVG Version: 6.00 Build 0)  -->
<!DOCTYPE svg PUBLIC "-//W3C//DTD SVG 1.1 Basic//EN" "http://www.w3.org/Graphics/SVG/1.1/DTD/svg11-basic.dtd">
<svg version="1.1" baseProfile="basic" id="Layer_1"
	 xmlns="http://www.w3.org/2000/svg" xmlns:xlink="http://www.w3.org/1999/xlink" x="0px" y="0px" viewBox="0 0 13 13"
	 xml:space="preserve">
<path id="MAGNIFYING_GLASS_2_" fill="#796E5D" d="M12.7,10.9c0.2,0.2,0.3,0.5,0.3,0.9c0,0.7-0.5,1.2-1.2,1.2c-0.3,0-0.7-0.1-0.9-0.3
	l0,0L7.4,9.1C6.6,9.5,5.7,9.8,4.9,9.8C2.2,9.8,0,7.6,0,4.9S2.2,0,4.9,0s4.9,2.2,4.9,4.9c0,0.9-0.2,1.7-0.6,2.5L12.7,10.9L12.7,10.9z
	 M4.9,1.2c-2.1,0-3.7,1.6-3.7,3.7s1.6,3.7,3.7,3.7s3.7-1.6,3.7-3.7S6.9,1.2,4.9,1.2z"/>
</svg>
