<?xml version="1.0" encoding="utf-8"?>
<!-- Generator: Adobe Illustrator 18.1.0, SVG Export Plug-In . SVG Version: 6.00 Build 0)  -->
<!DOCTYPE svg PUBLIC "-//W3C//DTD SVG 1.1 Basic//EN" "http://www.w3.org/Graphics/SVG/1.1/DTD/svg11-basic.dtd">
<svg version="1.1" baseProfile="basic" id="Layer_1"
	 xmlns="http://www.w3.org/2000/svg" xmlns:xlink="http://www.w3.org/1999/xlink" x="0px" y="0px" viewBox="0 0 26 26"
	 xml:space="preserve">
<path fill="#FFCE1F" d="M23,26H3c-1.7,0-3-1.3-3-3V3c0-1.7,1.3-3,3-3h20c1.7,0,3,1.3,3,3v20C26,24.7,24.7,26,23,26z"/>
<path fill="#FFFFFF" d="M23,26H3c-1.7,0-3-1.3-3-3V3c0-1.7,1.3-3,3-3h20c1.7,0,3,1.3,3,3v20C26,24.7,24.7,26,23,26z"/>
<path fill-rule="evenodd" clip-rule="evenodd" fill="#796E5D" d="M18.4,10.7c-0.3,0-0.6-0.3-0.6-0.6v-1l-3.1,3.1l0,0
	c-0.1,0.1-0.3,0.2-0.4,0.2c-0.3,0-0.6-0.3-0.6-0.6c0-0.2,0.1-0.3,0.2-0.4l0,0l3.1-3.1h-1c-0.3,0-0.6-0.3-0.6-0.6S15.6,7,15.9,7h2.5
	C18.7,7,19,7.3,19,7.6v2.5C19,10.4,18.7,10.7,18.4,10.7z M12.2,14.7l-3.1,3.1h1c0.3,0,0.6,0.3,0.6,0.6c0,0.3-0.3,0.6-0.6,0.6H7.6
	C7.3,19,7,18.7,7,18.4v-2.5c0-0.3,0.3-0.6,0.6-0.6c0.3,0,0.6,0.3,0.6,0.6v1l3.1-3.1l0,0c0.1-0.1,0.3-0.2,0.4-0.2
	c0.3,0,0.6,0.3,0.6,0.6C12.4,14.4,12.3,14.6,12.2,14.7L12.2,14.7z"/>
</svg>
