<?xml version="1.0" encoding="utf-8"?>
<!-- Generator: Adobe Illustrator 18.1.0, SVG Export Plug-In . SVG Version: 6.00 Build 0)  -->
<!DOCTYPE svg PUBLIC "-//W3C//DTD SVG 1.1 Basic//EN" "http://www.w3.org/Graphics/SVG/1.1/DTD/svg11-basic.dtd">
<svg version="1.1" baseProfile="basic" id="Layer_1"
	 xmlns="http://www.w3.org/2000/svg" xmlns:xlink="http://www.w3.org/1999/xlink" x="0px" y="0px" viewBox="0 0 254 26"
	 xml:space="preserve">
<path fill="#FFCE1F" d="M251.1,26H2.9C1.3,26,0,24.7,0,23.1V2.9C0,1.3,1.3,0,2.9,0h248.2c1.6,0,2.9,1.3,2.9,2.9v20.2
	C254,24.7,252.7,26,251.1,26z"/>
<path fill="#FFFFFF" d="M251.1,26H2.9C1.3,26,0,24.7,0,23.1V2.9C0,1.3,1.3,0,2.9,0h248.2c1.6,0,2.9,1.3,2.9,2.9v20.2
	C254,24.7,252.7,26,251.1,26z"/>
</svg>
