<?xml version="1.0" encoding="utf-8"?>
<!-- Generator: Adobe Illustrator 18.1.0, SVG Export Plug-In . SVG Version: 6.00 Build 0)  -->
<!DOCTYPE svg PUBLIC "-//W3C//DTD SVG 1.1 Basic//EN" "http://www.w3.org/Graphics/SVG/1.1/DTD/svg11-basic.dtd">
<svg version="1.1" baseProfile="basic" id="Layer_1"
	 xmlns="http://www.w3.org/2000/svg" xmlns:xlink="http://www.w3.org/1999/xlink" x="0px" y="0px" viewBox="0 0 26 26"
	 xml:space="preserve">
<path fill="#FFCE1F" d="M23,26H3c-1.7,0-3-1.3-3-3V3c0-1.7,1.3-3,3-3h20c1.7,0,3,1.3,3,3v20C26,24.7,24.7,26,23,26z"/>
<path fill="#FFFFFF" d="M23,26H3c-1.7,0-3-1.3-3-3V3c0-1.7,1.3-3,3-3h20c1.7,0,3,1.3,3,3v20C26,24.7,24.7,26,23,26z"/>
<g>
	<rect x="12" y="7" fill="#796E5D" width="2" height="12"/>
	<rect x="7" y="12" fill="#796E5D" width="12" height="2"/>
</g>
</svg>
