<?xml version="1.0" encoding="utf-8"?>
<!-- Generator: Adobe Illustrator 18.0.0, SVG Export Plug-In . SVG Version: 6.00 Build 0)  -->
<!DOCTYPE svg PUBLIC "-//W3C//DTD SVG 1.1//EN" "http://www.w3.org/Graphics/SVG/1.1/DTD/svg11.dtd">
<svg version="1.1" id="Layer_1" xmlns="http://www.w3.org/2000/svg" xmlns:xlink="http://www.w3.org/1999/xlink" x="0px" y="0px"
	 viewBox="0 0 100 100" enable-background="new 0 0 100 100" xml:space="preserve">
<path id="CLOSE_2_" fill-rule="evenodd" clip-rule="evenodd" fill="#C65739" d="M97.4,15.1L62.5,50l34.9,34.9l0,0
	c1.6,1.6,2.6,3.8,2.6,6.2c0,4.9-4,8.8-8.8,8.8c-2.4,0-4.6-1-6.2-2.6l0,0L50,62.5L15.1,97.4l0,0c-1.6,1.6-3.8,2.6-6.2,2.6
	C4,100,0,96,0,91.2c0-2.4,1-4.6,2.6-6.2l0,0L37.5,50L2.6,15.1l0,0C1,13.5,0,11.3,0,8.8C0,4,4,0,8.8,0c2.4,0,4.6,1,6.2,2.6l0,0
	L50,37.5L84.9,2.6l0,0C86.5,1,88.7,0,91.2,0C96,0,100,4,100,8.8C100,11.3,99,13.5,97.4,15.1L97.4,15.1z"/>
</svg>
