<?xml version="1.0" encoding="utf-8"?>
<!-- Generator: Adobe Illustrator 18.0.0, SVG Export Plug-In . SVG Version: 6.00 Build 0)  -->
<!DOCTYPE svg PUBLIC "-//W3C//DTD SVG 1.1//EN" "http://www.w3.org/Graphics/SVG/1.1/DTD/svg11.dtd">
<svg version="1.1" id="Layer_1" xmlns="http://www.w3.org/2000/svg" xmlns:xlink="http://www.w3.org/1999/xlink" x="0px" y="0px"
	 viewBox="0 0 118 33" enable-background="new 0 0 118 33" xml:space="preserve">
<path fill="#2A9BDB" d="M118,5v23c0,2.8-2.2,5-5,5H5c-2.8,0-5-2.2-5-5V5c0-2.8,2.2-5,5-5h108C115.8,0,118,2.2,118,5z"/>
<g>
	<path fill="#FFFFFF" d="M34.9,27c-5.8,0-10.5-4.7-10.5-10.5S29.1,6,34.9,6s10.5,4.7,10.5,10.5S40.7,27,34.9,27z"/>
	<path fill="#2A9BDB" d="M39.6,14.6l-5.2,5.2l0,0c-0.2,0.2-0.4,0.3-0.7,0.3s-0.5-0.1-0.7-0.3l0,0l-3-3l0,0c-0.2-0.2-0.3-0.4-0.3-0.7
		c0-0.5,0.4-1,1-1c0.3,0,0.5,0.1,0.7,0.3l0,0l2.3,2.2l4.6-4.6l0,0c0.2-0.2,0.4-0.3,0.7-0.3c0.5,0,1,0.4,1,1
		C39.9,14.2,39.7,14.4,39.6,14.6L39.6,14.6z"/>
</g>
<text transform="matrix(1 0 0 1 54.6042 22.2937)" fill="#FFFFFF" font-family="'OpenSans-Bold'" font-size="17">Save</text>
</svg>
