<?xml version="1.0" encoding="utf-8"?>
<!-- Generator: Adobe Illustrator 18.0.0, SVG Export Plug-In . SVG Version: 6.00 Build 0)  -->
<!DOCTYPE svg PUBLIC "-//W3C//DTD SVG 1.1//EN" "http://www.w3.org/Graphics/SVG/1.1/DTD/svg11.dtd">
<svg version="1.1" id="Layer_1" xmlns="http://www.w3.org/2000/svg" xmlns:xlink="http://www.w3.org/1999/xlink" x="0px" y="0px"
	 viewBox="0 0 134.1 33" enable-background="new 0 0 134.1 33" xml:space="preserve">
<g>
	<path fill="#939393" d="M128.4,1c2.6,0,4.7,1.8,4.7,4v23c0,2.2-2.1,4-4.7,4H5.7C3.1,32,1,30.2,1,28V5c0-2.2,2.1-4,4.7-4H128.4
		 M128.4,0H5.7C2.5,0,0,2.2,0,5v23c0,2.8,2.5,5,5.7,5h122.7c3.1,0,5.7-2.2,5.7-5V5C134.1,2.2,131.5,0,128.4,0L128.4,0z"/>
</g>
<text transform="matrix(1 0 0 1 54.6042 22.2937)" fill="#939393" font-family="'OpenSans-Bold'" font-size="17">Cancel</text>
<g>
	<circle fill-rule="evenodd" clip-rule="evenodd" fill="#939393" cx="34.9" cy="16.5" r="10.5"/>
	<path fill-rule="evenodd" clip-rule="evenodd" fill="#FFFFFF" d="M38.5,21.1c-0.3,0-0.5-0.1-0.7-0.3l0,0l-2.9-2.9L32,20.8l0,0
		c-0.2,0.2-0.4,0.3-0.7,0.3c-0.5,0-1-0.4-1-1c0-0.3,0.1-0.5,0.3-0.7l0,0l2.9-2.9l-2.9-2.9l0,0c-0.2-0.2-0.3-0.4-0.3-0.7
		c0-0.5,0.4-1,1-1c0.3,0,0.5,0.1,0.7,0.3l0,0l2.9,2.9l2.9-2.9l0,0c0.2-0.2,0.4-0.3,0.7-0.3c0.5,0,1,0.4,1,1c0,0.3-0.1,0.5-0.3,0.7
		l0,0l-2.9,2.9l2.9,2.9l0,0c0.2,0.2,0.3,0.4,0.3,0.7C39.5,20.6,39.1,21.1,38.5,21.1z"/>
</g>
</svg>
