<?xml version="1.0" encoding="utf-8"?>
<!-- Generator: Adobe Illustrator 18.0.0, SVG Export Plug-In . SVG Version: 6.00 Build 0)  -->
<!DOCTYPE svg PUBLIC "-//W3C//DTD SVG 1.1//EN" "http://www.w3.org/Graphics/SVG/1.1/DTD/svg11.dtd">
<svg version="1.1" id="Layer_1" xmlns="http://www.w3.org/2000/svg" xmlns:xlink="http://www.w3.org/1999/xlink" x="0px" y="0px"
	 viewBox="0 0 44 44" enable-background="new 0 0 44 44" xml:space="preserve">
<path fill="#FFFFFF" d="M5,43.5c-2.5,0-4.5-2-4.5-4.5V5c0-2.5,2-4.5,4.5-4.5h34c2.5,0,4.5,2,4.5,4.5v34c0,2.5-2,4.5-4.5,4.5H5z"/>
<path fill="#8BC639" d="M39,1c2.2,0,4,1.8,4,4v34c0,2.2-1.8,4-4,4H5c-2.2,0-4-1.8-4-4V5c0-2.2,1.8-4,4-4H39 M39,0H5C2.2,0,0,2.2,0,5
	v34c0,2.8,2.2,5,5,5h34c2.8,0,5-2.2,5-5V5C44,2.2,41.8,0,39,0L39,0z"/>
<path id="PEN_1_2_" fill-rule="evenodd" clip-rule="evenodd" fill="#8BC639" d="M27.3,31.6L14.6,18.9l4.2-4.2l12.7,12.7L27.3,31.6z
	 M17.8,13.6l-4.2,4.2l-3.2-3.2c-0.6-0.6-0.6-1.5,0-2.1l2.1-2.1c0.6-0.6,1.5-0.6,2.1,0L17.8,13.6z M28.4,32.6l4.2-4.2l1.4,5.6
	L28.4,32.6z"/>
</svg>
