<?xml version="1.0" encoding="utf-8"?>
<!-- Generator: Adobe Illustrator 18.0.0, SVG Export Plug-In . SVG Version: 6.00 Build 0)  -->
<!DOCTYPE svg PUBLIC "-//W3C//DTD SVG 1.1//EN" "http://www.w3.org/Graphics/SVG/1.1/DTD/svg11.dtd">
<svg version="1.1" id="Layer_1" xmlns="http://www.w3.org/2000/svg" xmlns:xlink="http://www.w3.org/1999/xlink" x="0px" y="0px"
	 viewBox="0 0 64 64" enable-background="new 0 0 64 64" xml:space="preserve">
<path id="CIRCLE__x2F__PLUS" fill-rule="evenodd" clip-rule="evenodd" fill="#8BC639" d="M32,64C14.3,64,0,49.7,0,32S14.3,0,32,0
	s32,14.3,32,32S49.7,64,32,64z M32,6C17.6,6,6,17.6,6,32c0,14.4,11.6,26,26,26s26-11.6,26-26C58,17.6,46.4,6,32,6z M45,35H35v10
	c0,1.7-1.3,3-3,3c-1.7,0-3-1.3-3-3V35H19c-1.7,0-3-1.3-3-3c0-1.7,1.3-3,3-3h10V19c0-1.7,1.3-3,3-3c1.7,0,3,1.3,3,3v10h10
	c1.7,0,3,1.3,3,3C48,33.7,46.7,35,45,35z"/>
</svg>
