<?xml version="1.0" encoding="iso-8859-1"?>
<!-- Generator: Adobe Illustrator 18.0.0, SVG Export Plug-In . SVG Version: 6.00 Build 0)  -->
<!DOCTYPE svg PUBLIC "-//W3C//DTD SVG 1.1//EN" "http://www.w3.org/Graphics/SVG/1.1/DTD/svg11.dtd">
<svg version="1.1" id="Layer_1" xmlns="http://www.w3.org/2000/svg" xmlns:xlink="http://www.w3.org/1999/xlink" x="0px" y="0px"
	 viewBox="0 0 64 64" style="enable-background:new 0 0 64 64;" xml:space="preserve">
<g>
	<g>
		<circle style="fill-rule:evenodd;clip-rule:evenodd;fill:#D43A3A;" cx="32" cy="32" r="32"/>
	</g>
	<path style="fill-rule:evenodd;clip-rule:evenodd;fill:#FFFFFF;" d="M53.198,40.351c-1.754,1.693-6.788-0.195-8.797-0.654
		c-0.777-0.177-2.259-0.038-2.815-1.307c-0.892-2.033,1.268-4.141-0.251-6.284c-1.107-1.562-5.037-2.14-6.384-2.363
		c-3.022-0.5-6.062-0.031-9.099,0.754c-0.948,0.245-2.706,0.53-3.418,1.91c-0.948,1.837,1.716,5.525-0.804,6.837
		c-2.497,0.519-4.994,1.039-7.49,1.558c-0.761,0.157-1.666,0.613-2.413,0.302c-1.964-0.819-2.989-5.482-2.815-6.736
		c0.517-3.739,8.229-8.084,10.708-9.099c8.255-3.381,17.345-3.314,25.588,0.251c2.357,1.02,9.067,5.374,9.803,8.596
		C55.505,36.297,54.059,38.13,53.198,40.351z"/>
</g>
</svg>
