<?xml version="1.0" encoding="iso-8859-1"?>
<!-- Generator: Adobe Illustrator 18.0.0, SVG Export Plug-In . SVG Version: 6.00 Build 0)  -->
<!DOCTYPE svg PUBLIC "-//W3C//DTD SVG 1.1//EN" "http://www.w3.org/Graphics/SVG/1.1/DTD/svg11.dtd">
<svg version="1.1" id="Layer_1" xmlns="http://www.w3.org/2000/svg" xmlns:xlink="http://www.w3.org/1999/xlink" x="0px" y="0px"
	 viewBox="0 0 64 64" style="enable-background:new 0 0 64 64;" xml:space="preserve">
<g>
	<g>
		<circle style="fill-rule:evenodd;clip-rule:evenodd;fill:#59BD72;" cx="32" cy="32" r="32"/>
	</g>
	<path style="fill-rule:evenodd;clip-rule:evenodd;fill:#FFFFFF;" d="M20.223,13.749c2.437,0.043,4.662,4.938,5.759,6.683
		c0.424,0.675,1.57,1.624,1.066,2.915c-0.807,2.068-3.825,2.032-4.266,4.621c-0.321,1.887,2.049,5.075,2.844,6.185
		c1.784,2.49,4.265,4.309,6.967,5.901c0.844,0.497,2.288,1.539,3.768,1.066c1.97-0.629,2.694-5.12,5.403-4.266
		c2.133,1.398,4.266,2.797,6.398,4.195c0.649,0.427,1.612,0.744,1.92,1.493c0.809,1.968-1.763,5.99-2.773,6.754
		c-3.01,2.279-11.535-0.103-14.006-1.138c-8.228-3.446-14.608-9.921-17.916-18.271c-0.946-2.388-2.612-10.211-0.853-13.01
		C15.725,14.984,18.043,14.711,20.223,13.749z"/>
</g>
</svg>
