<?xml version="1.0" encoding="utf-8"?>
<!-- Generator: Adobe Illustrator 18.0.0, SVG Export Plug-In . SVG Version: 6.00 Build 0)  -->
<!DOCTYPE svg PUBLIC "-//W3C//DTD SVG 1.1//EN" "http://www.w3.org/Graphics/SVG/1.1/DTD/svg11.dtd">
<svg version="1.1" id="Layer_1" xmlns="http://www.w3.org/2000/svg" xmlns:xlink="http://www.w3.org/1999/xlink" x="0px" y="0px"
	 viewBox="0 0 15 13" enable-background="new 0 0 15 13" xml:space="preserve">
<g>
	<path fill-rule="evenodd" clip-rule="evenodd" fill="#B3B3B3" d="M0.4,7.5l3.8,3.9c2.1,2.2,5.6,2.2,7.7,0l0.1-0.1
		c2.6-2.6,2.6-6.9-0.1-9.5l-0.2-0.2c-2.1-2.1-5.4-2.1-7.5,0L0.4,5.5C-0.1,6-0.1,6.9,0.4,7.5z"/>
	<ellipse fill-rule="evenodd" clip-rule="evenodd" fill="#B3B3B3" cx="8.5" cy="6.5" rx="6.5" ry="6.5"/>
	<path fill-rule="evenodd" clip-rule="evenodd" fill="#FFFFFF" d="M10.7,9.3c-0.2,0-0.3-0.1-0.4-0.2l0,0L8.5,7.4L6.7,9.2l0,0
		C6.6,9.3,6.5,9.3,6.3,9.3C6,9.3,5.7,9.1,5.7,8.7c0-0.2,0.1-0.3,0.2-0.4l0,0l1.8-1.8L5.9,4.7l0,0C5.8,4.6,5.7,4.4,5.7,4.3
		c0-0.3,0.3-0.6,0.6-0.6c0.2,0,0.3,0.1,0.4,0.2l0,0l1.8,1.8l1.8-1.8l0,0c0.1-0.1,0.3-0.2,0.4-0.2c0.3,0,0.6,0.3,0.6,0.6
		c0,0.2-0.1,0.3-0.2,0.4l0,0L9.4,6.5l1.8,1.8l0,0c0.1,0.1,0.2,0.3,0.2,0.4C11.4,9.1,11.1,9.3,10.7,9.3z"/>
</g>
</svg>
