<?xml version="1.0" encoding="utf-8"?>
<!-- Generator: Adobe Illustrator 17.1.0, SVG Export Plug-In . SVG Version: 6.00 Build 0)  -->
<!DOCTYPE svg PUBLIC "-//W3C//DTD SVG 1.1//EN" "http://www.w3.org/Graphics/SVG/1.1/DTD/svg11.dtd">
<svg version="1.1" id="Layer_1" xmlns="http://www.w3.org/2000/svg" xmlns:xlink="http://www.w3.org/1999/xlink" x="0px" y="0px"
	 viewBox="0 0 120 120" enable-background="new 0 0 120 120" xml:space="preserve">
<path fill="#F6BF16" d="M0,59.4C0,26.7,26.7,0,59.4,0l1.2,0C93.3,0,120,26.7,120,59.4V120H59.4C26.7,120,0,93.3,0,60.6L0,59.4z
	 M6.8,60c0,29.4,23.8,53.2,53.2,53.2s53.2-23.8,53.2-53.2S89.4,6.8,60,6.8S6.8,30.6,6.8,60z M98.1,110.7h7.3h2.6h7.3
	c0.7,0,1.3-0.8,1.3-1.7c0-0.9-0.6-1.7-1.3-1.7H108h-2.6h-7.3c-0.7,0-1.3,0.8-1.3,1.7C96.8,110,97.4,110.7,98.1,110.7z"/>
</svg>
