<?xml version="1.0" encoding="utf-8"?>
<!-- Generator: Adobe Illustrator 17.1.0, SVG Export Plug-In . SVG Version: 6.00 Build 0)  -->
<!DOCTYPE svg PUBLIC "-//W3C//DTD SVG 1.1//EN" "http://www.w3.org/Graphics/SVG/1.1/DTD/svg11.dtd">
<svg version="1.1" id="Layer_1" xmlns="http://www.w3.org/2000/svg" xmlns:xlink="http://www.w3.org/1999/xlink" x="0px" y="0px"
	 viewBox="0 0 1052 1052" enable-background="new 0 0 1052 1052" xml:space="preserve">
<path id="CLOSE_2_" fill-rule="evenodd" clip-rule="evenodd" fill="#FFFFFF" d="M153.5,910.3l-41.8,41.8l41.8,41.8l0,0
	c1.9,1.9,3.1,4.5,3.1,7.5c0,5.8-4.7,10.6-10.6,10.6c-2.9,0-5.6-1.2-7.5-3.1l0,0L96.8,967L55,1008.8l0,0c-1.9,1.9-4.5,3.1-7.5,3.1
	c-5.8,0-10.6-4.7-10.6-10.6c0-2.9,1.2-5.6,3.1-7.5l0,0l41.8-41.8l-41.8-41.8l0,0c-1.9-1.9-3.1-4.5-3.1-7.5c0-5.8,4.7-10.6,10.6-10.6
	c2.9,0,5.6,1.2,7.5,3.1l0,0l41.8,41.8l41.8-41.8l0,0c1.9-1.9,4.5-3.1,7.5-3.1c5.8,0,10.6,4.7,10.6,10.6
	C156.6,905.8,155.4,908.4,153.5,910.3L153.5,910.3z"/>
<path fill="#282827" d="M1048.5,529.5c0,285.5-233.5,519-519,519H0L0,519C0,233.6,233.6,0,519,0h10.5c285.5,0,519,233.6,519,519
	V529.5z M524.2,64C270,64,64,270,64,524.2S270,984.5,524.2,984.5s460.3-206.1,460.3-460.3S778.4,64,524.2,64z"/>
</svg>
