<?xml version="1.0" encoding="utf-8"?>
<!-- Generator: Adobe Illustrator 17.1.0, SVG Export Plug-In . SVG Version: 6.00 Build 0)  -->
<!DOCTYPE svg PUBLIC "-//W3C//DTD SVG 1.1//EN" "http://www.w3.org/Graphics/SVG/1.1/DTD/svg11.dtd">
<svg version="1.1" id="Layer_1" xmlns="http://www.w3.org/2000/svg" xmlns:xlink="http://www.w3.org/1999/xlink" x="0px" y="0px"
	 viewBox="0 0 1052 1052" enable-background="new 0 0 1052 1052" xml:space="preserve">
<path fill="#F6BF16" d="M1051.5,531c0,286.3-234.2,520.5-520.5,520.5H0l0-531C0,234.2,234.2,0,520.5,0H531
	c286.3,0,520.5,234.2,520.5,520.5V531z M525.8,59.9c-257.3,0-465.9,208.6-465.9,465.9s208.6,465.9,465.9,465.9
	s465.9-208.6,465.9-465.9S783.1,59.9,525.8,59.9z"/>
<path id="MINUS_2_" fill-rule="evenodd" clip-rule="evenodd" fill="#FFFFFF" d="M191.6,970.1h-63.7h-22.5H41.7
	c-6.2,0-11.2-6.6-11.2-14.8c0-8.2,5-14.8,11.2-14.8h63.7h22.5h63.7c6.2,0,11.2,6.6,11.2,14.8C202.9,963.5,197.8,970.1,191.6,970.1z"
	/>
</svg>
