<?xml version="1.0" encoding="utf-8"?>
<!-- Generator: Adobe Illustrator 17.1.0, SVG Export Plug-In . SVG Version: 6.00 Build 0)  -->
<!DOCTYPE svg PUBLIC "-//W3C//DTD SVG 1.1//EN" "http://www.w3.org/Graphics/SVG/1.1/DTD/svg11.dtd">
<svg version="1.1" id="Layer_1" xmlns="http://www.w3.org/2000/svg" xmlns:xlink="http://www.w3.org/1999/xlink" x="0px" y="0px"
	 viewBox="0 0 1052 1052" enable-background="new 0 0 1052 1052" xml:space="preserve">
<path fill="#5CBC73" d="M1052,531.3c0,286.4-234.3,520.7-520.7,520.7H0l0-531.3C0,234.3,234.3,0,520.7,0h10.5
	C817.7,0,1052,234.3,1052,520.7V531.3z M526,69.4C273.8,69.4,69.4,273.8,69.4,526S273.8,982.6,526,982.6S982.6,778.2,982.6,526
	S778.2,69.4,526,69.4z"/>
<path id="TICK_2_" fill-rule="evenodd" clip-rule="evenodd" fill="#FFFFFF" d="M186.1,924.6L186.1,924.6l-83,83l0,0
	c-2,2-4.7,3.2-7.7,3.2c-3,0-5.7-1.2-7.7-3.2l0,0L41,960.7l0,0c-2-2-3.2-4.7-3.2-7.7c0-6,4.8-10.8,10.8-10.8c3,0,5.7,1.2,7.7,3.2l0,0
	l39.2,39.2l75.3-75.3l0,0c2-2,4.7-3.2,7.7-3.2c6,0,10.8,4.8,10.8,10.8C189.3,919.9,188.1,922.7,186.1,924.6z"/>
</svg>
