<?xml version="1.0" encoding="utf-8"?>
<!-- Generator: Adobe Illustrator 17.1.0, SVG Export Plug-In . SVG Version: 6.00 Build 0)  -->
<!DOCTYPE svg PUBLIC "-//W3C//DTD SVG 1.1//EN" "http://www.w3.org/Graphics/SVG/1.1/DTD/svg11.dtd">
<svg version="1.1" id="Layer_1" xmlns="http://www.w3.org/2000/svg" xmlns:xlink="http://www.w3.org/1999/xlink" x="0px" y="0px"
	 viewBox="0 0 1052 1052" enable-background="new 0 0 1052 1052" xml:space="preserve">
<circle fill="#D43A3A" cx="526" cy="526" r="526"/>
<path id="CLOSE_2_" fill-rule="evenodd" clip-rule="evenodd" fill="#FFFFFF" d="M775.9,341.9L591.8,526l184.1,184.1l0,0
	c8.4,8.4,13.6,20,13.6,32.9c0,25.7-20.8,46.5-46.5,46.5c-12.8,0-24.5-5.2-32.9-13.6l0,0L526,591.8L341.9,775.9l0,0
	c-8.4,8.4-20,13.6-32.9,13.6c-25.7,0-46.5-20.8-46.5-46.5c0-12.8,5.2-24.5,13.6-32.9l0,0L460.2,526L276.1,341.9l0,0
	c-8.4-8.4-13.6-20-13.6-32.9c0-25.7,20.8-46.5,46.5-46.5c12.8,0,24.5,5.2,32.9,13.6l0,0L526,460.2l184.1-184.1l0,0
	c8.4-8.4,20-13.6,32.9-13.6c25.7,0,46.5,20.8,46.5,46.5C789.5,321.8,784.3,333.5,775.9,341.9L775.9,341.9z"/>
</svg>
