<?xml version="1.0" encoding="iso-8859-1"?>
<!-- Generator: Adobe Illustrator 17.1.0, SVG Export Plug-In . SVG Version: 6.00 Build 0)  -->
<!DOCTYPE svg PUBLIC "-//W3C//DTD SVG 1.1//EN" "http://www.w3.org/Graphics/SVG/1.1/DTD/svg11.dtd">
<svg version="1.1" id="Layer_1" xmlns="http://www.w3.org/2000/svg" xmlns:xlink="http://www.w3.org/1999/xlink" x="0px" y="0px"
	 viewBox="0 0 30 30" style="enable-background:new 0 0 30 30;" xml:space="preserve">
<g>
	<path style="fill:#FFFFFF;" d="M-747.5,45c-10.477,0-19-8.523-19-19s8.523-19,19-19s19,8.523,19,19S-737.023,45-747.5,45z"/>
	<path style="fill:#D53A3A;" d="M-747.5,8c9.925,0,18,8.075,18,18s-8.075,18-18,18s-18-8.075-18-18S-757.425,8-747.5,8 M-747.5,6
		c-11.046,0-20,8.954-20,20s8.954,20,20,20s20-8.954,20-20S-736.454,6-747.5,6L-747.5,6z"/>
</g>
<g>
	<path style="fill:#D53A3A;" d="M-750.393,35.987c0-0.956,0.256-1.679,0.769-2.168s1.257-0.734,2.236-0.734
		c0.945,0,1.676,0.25,2.194,0.751s0.777,1.218,0.777,2.151c0,0.899-0.263,1.607-0.786,2.126c-0.523,0.518-1.252,0.776-2.185,0.776
		c-0.956,0-1.696-0.253-2.219-0.76C-750.131,37.624-750.393,36.909-750.393,35.987z M-745.288,30.148h-4.166l-0.871-16.681h5.908
		L-745.288,30.148z"/>
</g>
<g>
	<path style="fill:#FFFFFF;" d="M-467.5,41.1c-9.429,0-17.1-7.671-17.1-17.1s7.671-17.1,17.1-17.1s17.1,7.671,17.1,17.1
		S-458.071,41.1-467.5,41.1z"/>
	<path style="fill:#FFFFFF;" d="M-467.5,7.8c8.933,0,16.2,7.267,16.2,16.2s-7.267,16.2-16.2,16.2s-16.2-7.267-16.2-16.2
		S-476.433,7.8-467.5,7.8 M-467.5,6c-9.941,0-18,8.059-18,18c0,9.941,8.059,18,18,18s18-8.059,18-18
		C-449.5,14.059-457.559,6-467.5,6L-467.5,6z"/>
</g>
<g>
	<path style="fill:#FFFFFF;" d="M-687.5,45c-10.477,0-19-8.523-19-19s8.523-19,19-19s19,8.523,19,19S-677.023,45-687.5,45z"/>
	<path style="fill:#2A9BDB;" d="M-687.5,8c9.925,0,18,8.075,18,18s-8.075,18-18,18s-18-8.075-18-18S-697.425,8-687.5,8 M-687.5,6
		c-11.046,0-20,8.954-20,20s8.954,20,20,20s20-8.954,20-20S-676.454,6-687.5,6L-687.5,6z"/>
</g>
<g>
	<path style="fill:#2A9BDB;" d="M-690.097,30.148v-1.264c0-1.093,0.233-2.043,0.7-2.852c0.467-0.808,1.32-1.667,2.562-2.578
		c1.194-0.854,1.982-1.547,2.364-2.083c0.381-0.535,0.572-1.133,0.572-1.793c0-0.74-0.273-1.303-0.819-1.69
		c-0.547-0.387-1.31-0.58-2.288-0.58c-1.708,0-3.654,0.558-5.839,1.673l-1.861-3.739c2.538-1.423,5.23-2.134,8.075-2.134
		c2.345,0,4.209,0.563,5.592,1.69c1.383,1.126,2.074,2.629,2.074,4.507c0,1.252-0.284,2.333-0.854,3.244
		c-0.569,0.911-1.65,1.935-3.244,3.073c-1.092,0.809-1.784,1.423-2.074,1.844c-0.29,0.421-0.436,0.973-0.436,1.656v1.024H-690.097z
		 M-690.644,35.987c0-0.956,0.256-1.679,0.768-2.168s1.258-0.734,2.237-0.734c0.944,0,1.676,0.25,2.194,0.751
		c0.518,0.501,0.776,1.218,0.776,2.151c0,0.899-0.262,1.607-0.785,2.126c-0.523,0.518-1.252,0.776-2.186,0.776
		c-0.956,0-1.696-0.253-2.22-0.76C-690.382,37.624-690.644,36.909-690.644,35.987z"/>
</g>
<g>
	<path style="fill:#2A9BDB;" d="M-627.5,45c-10.477,0-19-8.523-19-19s8.523-19,19-19s19,8.523,19,19S-617.023,45-627.5,45z"/>
	<path style="fill:#2A9BDB;" d="M-627.5,8c9.925,0,18,8.075,18,18s-8.075,18-18,18s-18-8.075-18-18S-637.425,8-627.5,8 M-627.5,6
		c-11.046,0-20,8.954-20,20s8.954,20,20,20s20-8.954,20-20S-616.454,6-627.5,6L-627.5,6z"/>
</g>
<g>
	<path style="fill:#FFFFFF;" d="M-632.206,39.169l-0.04-1.317l2.29-0.304c0.338-0.095,0.57-0.233,0.699-0.415
		c0.128-0.183,0.192-0.591,0.192-1.227v-0.223c0-0.162,0.01-0.456,0.03-0.882s0.03-0.801,0.03-1.125c0-0.257-0.02-0.75-0.061-1.479
		l0.03-1.014l-0.03-0.952l0.061-3.304c0-0.419-0.041-0.852-0.122-1.297c-0.149-0.203-0.422-0.378-0.816-0.527
		c-0.395-0.148-1.082-0.256-2.061-0.324v-1.135c1.392-0.081,2.614-0.371,3.668-0.872c0.716-0.324,1.493-0.898,2.331-1.723h1.358
		c0.054,1.676,0.081,3.851,0.081,6.526l-0.143,8.27c0,0.567,0.027,1.081,0.081,1.54c0.419,0.149,1.102,0.298,2.047,0.446
		c0.365,0.054,0.655,0.121,0.872,0.202l-0.041,1.115c-0.364,0.014-0.634,0.02-0.809,0.02c-0.202,0-0.513-0.013-0.931-0.04
		c-1.376-0.067-3.217-0.102-5.522-0.102c-0.661,0-1.302,0.024-1.922,0.071S-631.977,39.169-632.206,39.169z M-629.368,14.99
		c0-0.729,0.236-1.328,0.709-1.793c0.473-0.466,1.081-0.699,1.824-0.699c0.797,0,1.459,0.247,1.986,0.74s0.79,1.051,0.79,1.672
		c0,0.459-0.104,0.919-0.313,1.378c-0.21,0.459-0.541,0.828-0.993,1.104c-0.453,0.277-0.916,0.416-1.389,0.416
		c-0.648,0-1.246-0.277-1.794-0.831C-629.095,16.422-629.368,15.76-629.368,14.99z"/>
</g>
<g>
	<path style="fill:#FFFFFF;" d="M-567.5,45c-10.477,0-19-8.523-19-19s8.523-19,19-19s19,8.523,19,19S-557.023,45-567.5,45z"/>
	<g>
		<path style="fill:#2A9BDB;" d="M-567.5,8c9.925,0,18,8.075,18,18s-8.075,18-18,18s-18-8.075-18-18S-577.425,8-567.5,8 M-567.5,6
			c-11.046,0-20,8.954-20,20s8.954,20,20,20s20-8.954,20-20S-556.454,6-567.5,6L-567.5,6z"/>
	</g>
</g>
<g>
	<path style="fill:#2A9BDB;" d="M-572.206,39.169l-0.04-1.317l2.29-0.304c0.338-0.095,0.57-0.233,0.699-0.415
		c0.128-0.183,0.192-0.591,0.192-1.227v-0.223c0-0.162,0.01-0.456,0.03-0.882s0.03-0.801,0.03-1.125c0-0.257-0.02-0.75-0.061-1.479
		l0.03-1.014l-0.03-0.952l0.061-3.304c0-0.419-0.041-0.852-0.122-1.297c-0.149-0.203-0.422-0.378-0.816-0.527
		c-0.395-0.148-1.082-0.256-2.061-0.324v-1.135c1.392-0.081,2.614-0.371,3.668-0.872c0.716-0.324,1.493-0.898,2.331-1.723h1.358
		c0.054,1.676,0.081,3.851,0.081,6.526l-0.143,8.27c0,0.567,0.027,1.081,0.081,1.54c0.419,0.149,1.102,0.298,2.047,0.446
		c0.365,0.054,0.655,0.121,0.872,0.202l-0.041,1.115c-0.364,0.014-0.634,0.02-0.809,0.02c-0.202,0-0.513-0.013-0.931-0.04
		c-1.376-0.067-3.217-0.102-5.522-0.102c-0.661,0-1.302,0.024-1.922,0.071S-571.977,39.169-572.206,39.169z M-569.368,14.99
		c0-0.729,0.236-1.328,0.709-1.793c0.473-0.466,1.081-0.699,1.824-0.699c0.797,0,1.459,0.247,1.986,0.74s0.79,1.051,0.79,1.672
		c0,0.459-0.104,0.919-0.313,1.378c-0.21,0.459-0.541,0.828-0.993,1.104c-0.453,0.277-0.916,0.416-1.389,0.416
		c-0.648,0-1.246-0.277-1.794-0.831C-569.095,16.422-569.368,15.76-569.368,14.99z"/>
</g>
<circle style="fill:#2A9BDB;" cx="-516.5" cy="16.995" r="11"/>
<circle style="fill:#2A9BDB;" cx="-226.5" cy="25.995" r="25"/>
<circle style="fill:#2A9BDB;" cx="-464.5" cy="194.995" r="11"/>
<path id="PEN_2_2_" style="fill-rule:evenodd;clip-rule:evenodd;fill:#2A9BDB;" d="M-458.813,32.284h-17.373
	c-0.496,0-0.899-0.402-0.899-0.899c0-0.496,0.402-0.899,0.899-0.899h17.373c0.496,0,0.899,0.402,0.899,0.899
	C-457.915,31.881-458.317,32.284-458.813,32.284z M-462.458,18.964l-2.53-2.525l1.897-1.894c0.349-0.349,0.916-0.349,1.265,0
	l1.265,1.262c0.349,0.349,0.349,0.914,0,1.262L-462.458,18.964z M-470.68,27.17l-2.53-2.525l7.59-7.575l2.53,2.525L-470.68,27.17z
	 M-474.69,28.641l0.842-3.366l2.53,2.525L-474.69,28.641z"/>
<g>
	<path style="fill:#FFFFFF;" d="M-411.5,41.1c-9.429,0-17.1-7.671-17.1-17.1s7.671-17.1,17.1-17.1s17.1,7.671,17.1,17.1
		S-402.071,41.1-411.5,41.1z"/>
	<path style="fill:#FFFFFF;" d="M-411.5,7.8c8.933,0,16.2,7.267,16.2,16.2s-7.267,16.2-16.2,16.2s-16.2-7.267-16.2-16.2
		S-420.433,7.8-411.5,7.8 M-411.5,6c-9.941,0-18,8.059-18,18c0,9.941,8.059,18,18,18s18-8.059,18-18
		C-393.5,14.059-401.559,6-411.5,6L-411.5,6z"/>
</g>
<path id="CAMERA_2_" style="fill-rule:evenodd;clip-rule:evenodd;fill:#939393;" d="M-403.344,31.284h-16.312
	c-0.466,0-0.844-0.378-0.844-0.844V19.19c0-0.466,0.378-0.844,0.844-0.844h3.604l1.351-1.351c0.154-0.203,0.396-0.336,0.67-0.336
	h5.062c0.237,0,0.45,0.098,0.604,0.256l0.001-0.001l1.433,1.433h3.588c0.466,0,0.844,0.378,0.844,0.844v11.25
	C-402.5,30.906-402.878,31.284-403.344,31.284z M-411.5,19.471c-2.796,0-5.062,2.267-5.062,5.062c0,2.796,2.267,5.062,5.062,5.062
	c2.796,0,5.062-2.266,5.062-5.062C-406.438,21.738-408.704,19.471-411.5,19.471z M-411.5,27.909c-1.864,0-3.375-1.511-3.375-3.375
	c0-1.864,1.511-3.375,3.375-3.375s3.375,1.511,3.375,3.375C-408.125,26.398-409.636,27.909-411.5,27.909z"/>
<path id="SQUARE__x2F__RIGHT_2_" style="fill-rule:evenodd;clip-rule:evenodd;fill:#FFFFFF;" d="M-584.347,111.971h-8.625
	c-1.191,0-2.156-0.965-2.156-2.156c0-1.191,0.965-2.156,2.156-2.156h6.469v-6.468l0,0c0-1.191,0.965-2.156,2.156-2.156
	c1.191,0,2.156,0.965,2.156,2.156v8.625C-582.191,111.006-583.156,111.971-584.347,111.971z M-584.347,83.221
	c1.191,0,2.156,0.965,2.156,2.156v7.188c0,1.191-0.965,2.156-2.156,2.156s-2.156-0.966-2.156-2.156v-7.188
	C-586.503,84.187-585.538,83.221-584.347,83.221z M-584.347,78.909c-1.191,0-2.156-0.965-2.156-2.156l0,0v-6.468h-6.469v0
	c-1.191,0-2.156-0.965-2.156-2.156s0.965-2.156,2.156-2.156h0h8.625c1.191,0,2.156,0.965,2.156,2.156v8.625
	C-582.191,77.943-583.156,78.909-584.347,78.909z M-601.597,70.284h-7.188c-1.191,0-2.156-0.965-2.156-2.156
	s0.965-2.156,2.156-2.156h7.188c1.191,0,2.156,0.966,2.156,2.156S-600.406,70.284-601.597,70.284z M-604.477,84.105l0.005-0.006
	c-0.438-0.395-0.719-0.961-0.719-1.597c0-1.191,0.965-2.156,2.156-2.156c0.555,0,1.055,0.215,1.437,0.559l0.005-0.006l7.187,6.469
	l-0.005,0.006c0.438,0.395,0.719,0.961,0.719,1.597c0,0.636-0.281,1.202-0.719,1.597l0.005,0.006l-7.187,6.469l-0.005-0.006
	c-0.382,0.344-0.883,0.559-1.437,0.559c-1.191,0-2.156-0.965-2.156-2.156c0-0.636,0.281-1.202,0.719-1.597l-0.005-0.006l3.011-2.71
	h-13.068c-1.191,0-2.156-0.965-2.156-2.156c0-1.191,0.965-2.156,2.156-2.156h13.068L-604.477,84.105z M-617.41,70.284
	L-617.41,70.284l-6.469,0v6.469c0,1.191-0.965,2.156-2.156,2.156s-2.156-0.965-2.156-2.156l0,0v-8.625
	c0-1.191,0.965-2.156,2.156-2.156h8.625h0c1.191,0,2.156,0.965,2.156,2.156S-616.219,70.284-617.41,70.284z M-626.035,94.721
	c-1.191,0-2.156-0.966-2.156-2.156v-7.188c0-1.191,0.965-2.156,2.156-2.156s2.156,0.965,2.156,2.156v7.188
	C-623.878,93.756-624.844,94.721-626.035,94.721z M-626.035,99.034c1.191,0,2.156,0.965,2.156,2.156v6.469h6.469
	c1.191,0,2.156,0.965,2.156,2.156c0,1.191-0.965,2.156-2.156,2.156h-8.625c-1.191,0-2.156-0.965-2.156-2.156v-8.625l0,0
	C-628.191,99.999-627.225,99.034-626.035,99.034z M-608.785,107.659h7.188c1.191,0,2.156,0.965,2.156,2.156
	s-0.965,2.156-2.156,2.156h-7.188c-1.191,0-2.156-0.965-2.156-2.156S-609.975,107.659-608.785,107.659z"/>
<g>
	<path style="fill:#D69D9D;stroke:#E02222;stroke-miterlimit:10;" d="M-758.83,69.225c-0.36,0.662-2.3,4.416-2.248,7.854
		c0,0-0.034,1.158,0.834,1.532c0.281,0.122,1.925,0.821,2.105,1.002c0,0,0.999,2.155,1.806,3.129
		c1.869,2.258,3.36,3.413,3.792,3.731c0.273,0.202,0.901,0.447,2.183,1.787c1.008,1.053,1.083,2.167,1.837,2.179
		c0.075,0.002,0.09-0.006,0.251-0.055c0.403-0.123,2.218-1.563,0.722-3.971c0,0-0.751-1.183-2.046-2.288c0,0-1.768-1.55,0.181-2.708
		c0,0,1.263-0.646,2.8-0.561c0.625,0.035,1.594,0.2,1.894,0.259c0.301,0.061,1.305,0.369,2.106-0.12
		c1.548-0.945,0.663-9.409-2.9-12.313c-1.343-1.096-5.945-1.467-8.473-0.745c0,0-1.435,0.502-2.167,0.422
		c-1.022-0.115-1.647,0.064-1.647,0.064S-758.469,68.563-758.83,69.225z"/>
	<path style="fill:#E02222;" d="M-764.534,78.661c1.226,0.191,2.353,0.381,2.592,0.407c0.208,0.023,0.227-0.253,0.054-0.334
		c-0.214-0.123-0.512-0.492-0.598-1.255c-0.006-0.554-0.448-4.111,2.502-9.001c0.682-1.128,1.203-1.09,2.075-1.168
		c-0.039-0.527-0.843-0.818-0.843-0.818s-2.565-0.833-4.123-0.331c0,0-2.297,0.487-3.718,4.757c-0.395,1.186-0.677,2.409-0.8,3.449
		c-0.06,0.499-0.094,0.952-0.105,1.332C-767.554,77.62-766.065,78.389-764.534,78.661z"/>
</g>
<path style="fill:#C5E4D1;stroke:#069342;stroke-miterlimit:10;" d="M-703.219,88.214c0.36-0.662,2.3-4.416,2.248-7.854
	c0,0,0.034-1.158-0.834-1.532c-0.281-0.122-1.925-0.821-2.105-1.002c0,0-0.999-2.155-1.806-3.129
	c-1.869-2.258-3.36-3.413-3.792-3.731c-0.273-0.202-0.901-0.447-2.183-1.787c-1.008-1.053-1.083-2.167-1.837-2.179
	c-0.075-0.002-0.09,0.006-0.251,0.055c-0.403,0.123-2.218,1.563-0.722,3.971c0,0,0.751,1.183,2.046,2.288
	c0,0,1.768,1.55-0.181,2.708c0,0-1.263,0.646-2.8,0.561c-0.625-0.035-1.594-0.2-1.894-0.259c-0.301-0.061-1.305-0.369-2.106,0.12
	c-1.548,0.945-0.663,9.409,2.9,12.313c1.343,1.096,5.945,1.467,8.473,0.745c0,0,1.435-0.502,2.167-0.422
	c1.022,0.115,1.647-0.064,1.647-0.064S-703.58,88.876-703.219,88.214z"/>
<path style="fill:#069342;" d="M-697.515,78.778c-1.226-0.191-2.353-0.381-2.592-0.407c-0.208-0.023-0.227,0.253-0.054,0.334
	c0.214,0.123,0.512,0.492,0.598,1.255c0.006,0.554,0.448,4.111-2.502,9.001c-0.682,1.128-1.203,1.09-2.075,1.168
	c0.039,0.527,0.843,0.818,0.843,0.818s2.565,0.833,4.123,0.331c0,0,2.297-0.487,3.718-4.757c0.395-1.186,0.677-2.409,0.8-3.449
	c0.06-0.499,0.094-0.952,0.105-1.332C-694.495,79.819-695.984,79.05-697.515,78.778z"/>
<path style="fill:#F2F2F2;stroke:#CFCFCF;stroke-miterlimit:10;" d="M-656.86,88.214c0.36-0.662,2.3-4.416,2.248-7.854
	c0,0,0.034-1.158-0.834-1.532c-0.281-0.122-1.925-0.821-2.105-1.002c0,0-0.999-2.155-1.806-3.129
	c-1.869-2.258-3.36-3.413-3.792-3.731c-0.273-0.202-0.901-0.447-2.183-1.787c-1.008-1.053-1.083-2.167-1.837-2.179
	c-0.075-0.002-0.09,0.006-0.251,0.055c-0.403,0.123-2.218,1.563-0.722,3.971c0,0,0.751,1.183,2.046,2.288
	c0,0,1.768,1.55-0.181,2.708c0,0-1.263,0.646-2.8,0.561c-0.625-0.035-1.594-0.2-1.894-0.259c-0.301-0.061-1.305-0.369-2.106,0.12
	c-1.548,0.945-0.663,9.409,2.9,12.313c1.343,1.096,5.945,1.467,8.473,0.745c0,0,1.435-0.502,2.167-0.422
	c1.022,0.115,1.647-0.064,1.647-0.064S-657.221,88.876-656.86,88.214z"/>
<path style="fill:#CFCFCF;" d="M-651.156,78.778c-1.226-0.191-2.353-0.381-2.592-0.407c-0.208-0.023-0.227,0.253-0.054,0.334
	c0.214,0.123,0.512,0.492,0.598,1.255c0.006,0.554,0.448,4.111-2.502,9.001c-0.682,1.128-1.203,1.09-2.075,1.168
	c0.039,0.527,0.843,0.818,0.843,0.818s2.565,0.833,4.123,0.331c0,0,2.297-0.487,3.718-4.757c0.395-1.186,0.677-2.409,0.8-3.449
	c0.06-0.499,0.094-0.952,0.105-1.332C-648.136,79.819-649.625,79.05-651.156,78.778z"/>
<path style="fill:#D53A3A;" d="M-530.191,93.827c0,2.305-1.868,4.173-4.173,4.173h-23.654c-2.305,0-4.173-1.868-4.173-4.173V70.173
	c0-2.305,1.868-4.173,4.173-4.173h23.654c2.305,0,4.173,1.868,4.173,4.173V93.827z"/>
<path id="CLOSE_1_" style="fill-rule:evenodd;clip-rule:evenodd;fill:#FFFFFF;" d="M-536.471,74.838L-543.633,82l7.162,7.162l0,0
	c0.327,0.327,0.53,0.779,0.53,1.279c0,0.999-0.81,1.809-1.809,1.809c-0.5,0-0.952-0.203-1.279-0.53l0,0l-7.162-7.162l-7.162,7.162
	l0,0c-0.327,0.327-0.78,0.53-1.279,0.53c-0.999,0-1.809-0.81-1.809-1.809c0-0.5,0.202-0.952,0.53-1.279l0,0l7.162-7.162
	l-7.162-7.162l0,0c-0.327-0.327-0.53-0.78-0.53-1.279c0-0.999,0.81-1.809,1.809-1.809c0.5,0,0.952,0.202,1.279,0.53l0,0l7.162,7.162
	l7.162-7.162l0,0c0.327-0.327,0.78-0.53,1.279-0.53c0.999,0,1.809,0.81,1.809,1.809C-535.941,74.058-536.143,74.511-536.471,74.838
	L-536.471,74.838z"/>
<path style="fill:#1C5996;" d="M-478.191,93.827c0,2.305-1.868,4.173-4.173,4.173h-23.654c-2.305,0-4.173-1.868-4.173-4.173V70.173
	c0-2.305,1.868-4.173,4.173-4.173h23.654c2.305,0,4.173,1.868,4.173,4.173V93.827z"/>
<path style="fill-rule:evenodd;clip-rule:evenodd;fill:#FFFFFF;" d="M-487.657,77.45L-487.657,77.45
	c0.722,0.722,0.721,1.892,0,2.613c-0.722,0.722-1.892,0.722-2.613,0l0,0l-2.072-2.072l0,12.961c0,0.473-0.18,0.946-0.541,1.307
	c-0.722,0.722-1.892,0.722-2.613,0c-0.361-0.361-0.541-0.834-0.541-1.307l0,0l0-12.961l-2.072,2.072l0,0
	c-0.722,0.722-1.892,0.722-2.613,0s-0.722-1.892,0-2.613l0,0l5.227-5.227l0,0c0.722-0.722,1.892-0.722,2.613,0l0,0L-487.657,77.45z"
	/>
<path style="fill:#1C5996;" d="M-458.191,70.173c0-2.305,1.868-4.173,4.173-4.173h23.654c2.305,0,4.173,1.868,4.173,4.173v23.654
	c0,2.305-1.868,4.173-4.173,4.173h-23.654c-2.305,0-4.173-1.868-4.173-4.173V70.173z"/>
<path style="fill-rule:evenodd;clip-rule:evenodd;fill:#FFFFFF;" d="M-448.724,86.55L-448.724,86.55
	c-0.722-0.722-0.721-1.892,0-2.613c0.722-0.722,1.892-0.722,2.613,0l0,0l2.072,2.072l0-12.961c0-0.473,0.18-0.946,0.541-1.307
	c0.722-0.722,1.892-0.722,2.613,0c0.361,0.361,0.541,0.834,0.541,1.307l0,0l0,12.961l2.072-2.072l0,0
	c0.722-0.722,1.892-0.722,2.613,0s0.722,1.892,0,2.613l0,0l-5.227,5.227l0,0c-0.722,0.722-1.892,0.722-2.613,0l0,0L-448.724,86.55z"
	/>
<g>
	<path style="fill:#FFFFFF;" d="M-763.327,163c-1.75,0-3.174-1.423-3.174-3.173v-23.654c0-1.75,1.424-3.173,3.174-3.173h23.653
		c1.75,0,3.173,1.423,3.173,3.173v23.654c0,1.75-1.423,3.173-3.173,3.173H-763.327z"/>
	<path style="fill:#1C5996;" d="M-739.673,134c1.198,0,2.173,0.975,2.173,2.173v23.654c0,1.198-0.975,2.173-2.173,2.173h-23.654
		c-1.198,0-2.173-0.975-2.173-2.173v-23.654c0-1.198,0.975-2.173,2.173-2.173H-739.673 M-739.673,132h-23.654
		c-2.305,0-4.173,1.868-4.173,4.173v23.654c0,2.305,1.868,4.173,4.173,4.173h23.654c2.305,0,4.173-1.868,4.173-4.173v-23.654
		C-735.5,133.868-737.368,132-739.673,132L-739.673,132z"/>
</g>
<path style="fill-rule:evenodd;clip-rule:evenodd;fill:#1C5996;" d="M-741.374,144.069l-11.355,11.355l0,0
	c-0.385,0.385-0.918,0.624-1.505,0.624c-0.588,0-1.12-0.238-1.505-0.624l0,0l-6.387-6.387l0,0c-0.385-0.385-0.624-0.918-0.624-1.506
	c0-1.176,0.953-2.129,2.129-2.129c0.588,0,1.12,0.238,1.505,0.624l0,0l4.882,4.882l9.849-9.849l0,0
	c0.385-0.385,0.918-0.624,1.505-0.624c1.176,0,2.129,0.953,2.129,2.129C-740.75,143.151-740.988,143.684-741.374,144.069
	L-741.374,144.069z"/>
<polygon style="fill-rule:evenodd;clip-rule:evenodd;" points="-757,155.241 -757,155.241 -757,155.241 "/>
<polygon style="fill-rule:evenodd;clip-rule:evenodd;" points="-746,155.241 -746,155.241 -746,155.241 "/>
<polygon style="fill-rule:evenodd;clip-rule:evenodd;" points="-744.5,153.741 -744.5,153.74 -744.5,153.741 "/>
<g>
	<path style="fill:#FFFFFF;" d="M-577.327,275.5c-2.025,0-3.673-1.647-3.673-3.673v-23.654c0-2.025,1.647-3.673,3.673-3.673h23.654
		c2.025,0,3.673,1.647,3.673,3.673v23.654c0,2.025-1.647,3.673-3.673,3.673H-577.327z"/>
	<path style="fill:#1C5996;" d="M-553.673,245c1.75,0,3.173,1.423,3.173,3.173v23.654c0,1.75-1.423,3.173-3.173,3.173h-23.654
		c-1.75,0-3.173-1.423-3.173-3.173v-23.654c0-1.75,1.423-3.173,3.173-3.173H-553.673 M-553.673,244h-23.654
		c-2.305,0-4.173,1.868-4.173,4.173v23.654c0,2.305,1.868,4.173,4.173,4.173h23.654c2.305,0,4.173-1.868,4.173-4.173v-23.654
		C-549.5,245.868-551.368,244-553.673,244L-553.673,244z"/>
</g>
<polygon style="fill-rule:evenodd;clip-rule:evenodd;" points="-571,267.241 -571,267.241 -571,267.241 "/>
<polygon style="fill-rule:evenodd;clip-rule:evenodd;" points="-560,267.241 -560,267.241 -560,267.241 "/>
<polygon style="fill-rule:evenodd;clip-rule:evenodd;" points="-558.5,265.741 -558.5,265.74 -558.5,265.741 "/>
<g>
	<path style="fill:#D69D9D;stroke:#E02222;stroke-miterlimit:10;" d="M-691.389,134.686l-0.006-0.007
		c-0.401-0.464-0.945-0.722-1.512-0.717c-2.738,0.024-11.142,0.096-15.517,0.114c-3.398,0.014-2.685,4.221-0.791,4.209
		c-3.112,0-3.639,4.697-0.264,4.697c-4.559-0.02-3.936,4.614-1.266,4.636c-3.672,0-3.428,4.422,0.363,4.422
		c0.251-0.029,5.394-0.32,7.176-0.554c0.302-0.04,0.54,0.289,0.454,0.626l-1.264,4.962c-0.062,0.245-0.068,0.505-0.016,0.753
		c0.162,0.77,0.695,2.506,2.411,4.49c1.293,1.496,2.161,1.192,2.675,0.629c0.399-0.437,0.497-1.128,0.251-1.697
		c-0.306-0.706-0.634-1.929-0.131-3.324c0.791-2.196,4.002-6.188,5.169-6.527c0.983-0.285,1.437-0.467,2.268-0.847"/>
	<path style="fill:#E02222;" d="M-692.534,132.889c0-0.491,0.204-0.889,0.455-0.889h5.991c0.251,0,0.455,0.398,0.455,0.889v19.782
		c0,0.491-0.204,0.889-0.455,0.889h-5.991c-0.251,0-0.455-0.398-0.455-0.889V132.889z"/>
</g>
<g>
	<path style="fill:#C5E4D1;stroke:#069342;stroke-miterlimit:10;" d="M-655.611,161.301l0.006,0.007
		c0.401,0.464,0.945,0.722,1.512,0.717c2.738-0.024,11.142-0.096,15.517-0.114c3.398-0.014,2.685-4.221,0.791-4.209
		c3.112,0,3.639-4.697,0.264-4.697c4.559,0.02,3.936-4.614,1.266-4.636c3.672,0,3.428-4.422-0.363-4.422
		c-0.251,0.029-5.394,0.32-7.176,0.554c-0.302,0.04-0.54-0.289-0.454-0.626l1.264-4.962c0.062-0.245,0.068-0.505,0.016-0.753
		c-0.162-0.77-0.696-2.506-2.411-4.49c-1.293-1.496-2.161-1.192-2.675-0.629c-0.399,0.437-0.497,1.128-0.251,1.697
		c0.306,0.706,0.634,1.929,0.131,3.324c-0.791,2.196-4.002,6.188-5.169,6.527c-0.983,0.285-1.437,0.467-2.268,0.847"/>
	<path style="fill:#069342;" d="M-654.466,163.097c0,0.491-0.204,0.889-0.455,0.889h-5.991c-0.251,0-0.455-0.398-0.455-0.889
		v-19.782c0-0.491,0.204-0.889,0.455-0.889h5.991c0.251,0,0.455,0.398,0.455,0.889V163.097z"/>
</g>
<g>
	<path style="fill:#F2F2F2;stroke:#CFCFCF;stroke-miterlimit:10;" d="M-604.611,161.301l0.006,0.007
		c0.401,0.464,0.945,0.722,1.512,0.717c2.738-0.024,11.142-0.096,15.517-0.114c3.398-0.014,2.685-4.221,0.791-4.209
		c3.112,0,3.639-4.697,0.264-4.697c4.559,0.02,3.936-4.614,1.266-4.636c3.672,0,3.428-4.422-0.362-4.422
		c-0.251,0.029-5.394,0.32-7.176,0.554c-0.302,0.04-0.54-0.289-0.454-0.626l1.264-4.962c0.062-0.245,0.068-0.505,0.016-0.753
		c-0.162-0.77-0.696-2.506-2.411-4.49c-1.293-1.496-2.161-1.192-2.675-0.629c-0.399,0.437-0.497,1.128-0.251,1.697
		c0.306,0.706,0.634,1.929,0.131,3.324c-0.791,2.196-4.002,6.188-5.169,6.527c-0.983,0.285-1.437,0.467-2.268,0.847"/>
	<path style="fill:#CFCFCF;" d="M-603.466,163.097c0,0.491-0.204,0.889-0.455,0.889h-5.991c-0.251,0-0.455-0.398-0.455-0.889
		v-19.782c0-0.491,0.204-0.889,0.455-0.889h5.991c0.251,0,0.455,0.398,0.455,0.889V163.097z"/>
</g>
<circle style="fill:#2A9BDB;" cx="-548.5" cy="142.995" r="11"/>
<circle style="fill:#D03135;" cx="-503.386" cy="146" r="14"/>
<path id="CLOSE_2_" style="fill-rule:evenodd;clip-rule:evenodd;fill:#FFFFFF;" d="M-495.8,140.41l-5.59,5.59l5.59,5.59l0,0
	c0.255,0.256,0.413,0.608,0.413,0.998c0,0.78-0.632,1.412-1.412,1.412c-0.39,0-0.743-0.158-0.998-0.414l0,0l-5.59-5.59l-5.59,5.59
	l0,0c-0.255,0.255-0.608,0.414-0.998,0.414c-0.78,0-1.412-0.632-1.412-1.412c0-0.39,0.158-0.743,0.413-0.998l0,0l5.59-5.59
	l-5.59-5.59l0,0c-0.255-0.256-0.413-0.609-0.413-0.998c0-0.78,0.632-1.412,1.412-1.412c0.39,0,0.743,0.158,0.998,0.414l0,0
	l5.59,5.59l5.59-5.59l0,0c0.255-0.256,0.608-0.414,0.998-0.414c0.78,0,1.412,0.632,1.412,1.412
	C-495.386,139.802-495.544,140.155-495.8,140.41L-495.8,140.41z"/>
<circle style="fill:#D43A3A;" cx="-85" cy="15" r="15"/>
<path id="CLOSE_4_" style="fill-rule:evenodd;clip-rule:evenodd;fill:#FFFFFF;stroke:#FFFFFF;stroke-miterlimit:10;" d="
	M-77.888,9.76L-83.128,15l5.241,5.241l0,0c0.239,0.24,0.388,0.57,0.388,0.936c0,0.731-0.593,1.324-1.324,1.324
	c-0.365,0-0.696-0.148-0.936-0.388l0,0L-85,16.872l-5.241,5.241l0,0c-0.239,0.239-0.57,0.388-0.936,0.388
	c-0.731,0-1.324-0.593-1.324-1.324c0-0.366,0.148-0.696,0.388-0.936l0,0L-86.872,15l-5.241-5.241l0,0
	c-0.239-0.24-0.388-0.57-0.388-0.936c0-0.731,0.593-1.324,1.324-1.324c0.365,0,0.696,0.148,0.936,0.388l0,0L-85,13.128l5.241-5.241
	l0,0c0.239-0.24,0.57-0.388,0.936-0.388c0.731,0,1.324,0.593,1.324,1.324C-77.5,9.189-77.648,9.52-77.888,9.76L-77.888,9.76z"/>
<circle style="fill:#F6BF16;" cx="-35" cy="15" r="15"/>
<circle style="fill:#FFFFFF;" cx="-455.386" cy="146" r="14"/>
<path id="CLOSE_3_" style="fill-rule:evenodd;clip-rule:evenodd;fill:#4A7D12;" d="M-447.8,140.41l-5.59,5.59l5.59,5.59l0,0
	c0.255,0.256,0.413,0.608,0.413,0.998c0,0.78-0.632,1.412-1.412,1.412c-0.39,0-0.743-0.158-0.998-0.414l0,0l-5.59-5.59l-5.59,5.59
	l0,0c-0.255,0.255-0.608,0.414-0.998,0.414c-0.78,0-1.412-0.632-1.412-1.412c0-0.39,0.158-0.743,0.413-0.998l0,0l5.59-5.59
	l-5.59-5.59l0,0c-0.255-0.256-0.413-0.609-0.413-0.998c0-0.78,0.632-1.412,1.412-1.412c0.39,0,0.743,0.158,0.998,0.414l0,0
	l5.59,5.59l5.59-5.59l0,0c0.255-0.256,0.608-0.414,0.998-0.414c0.78,0,1.412,0.632,1.412,1.412
	C-447.386,139.802-447.544,140.155-447.8,140.41L-447.8,140.41z"/>
<path style="fill:#9661BE;" d="M-767.5,189.216c0-2.881,2.335-5.216,5.216-5.216h29.568c2.881,0,5.216,2.335,5.216,5.216v29.568
	c0,2.881-2.335,5.216-5.216,5.216h-29.568c-2.881,0-5.216-2.335-5.216-5.216V189.216z"/>
<path id="USER_6_" style="fill-rule:evenodd;clip-rule:evenodd;fill:#FFFFFF;" d="M-739.333,217.265c0,0.001,0,0.002,0,0.003
	c0,0.652-0.528,1.18-1.18,1.18h-22.809c-0.652,0-1.18-0.528-1.18-1.18c0-0.001,0-0.002,0-0.003h-0.001c0,0,0-4.299,3.141-5.862
	c1.988-0.989,1.222-0.186,3.663-1.198c2.44-1.01,3.018-1.363,3.018-1.363l0.023-2.329c0,0-0.914-0.699-1.198-2.891
	c-0.572,0.165-0.761-0.671-0.794-1.204c-0.031-0.515-0.331-2.122,0.367-1.977c-0.143-1.073-0.245-2.041-0.195-2.554
	c0.175-1.8,1.908-3.68,4.579-3.818c3.141,0.137,4.385,2.016,4.559,3.816c0.051,0.513-0.061,1.481-0.204,2.553
	c0.698-0.143,0.395,1.461,0.361,1.976c-0.031,0.533-0.224,1.367-0.794,1.202c-0.285,2.192-1.199,2.885-1.199,2.885l0.021,2.318
	c0,0,0.578,0.33,3.018,1.341c2.44,1.012,1.675,0.255,3.663,1.244C-739.332,212.966-739.332,217.265-739.333,217.265
	L-739.333,217.265z"/>
<path id="USER_1_" style="fill-rule:evenodd;clip-rule:evenodd;fill:#FFFFFF;" d="M-729.758,209.86c0,0.001,0,0.002,0,0.003
	c0,0.614-0.457,1.112-1.021,1.112h-19.736c-0.564,0-1.021-0.498-1.021-1.112c0-0.001,0-0.002,0-0.003h-0.001
	c0,0,0-4.051,2.718-5.525c1.72-0.932,1.058-0.175,3.169-1.129c2.111-0.952,2.612-1.285,2.612-1.285l0.02-2.195
	c0,0-0.791-0.659-1.036-2.724c-0.495,0.156-0.658-0.633-0.688-1.135c-0.026-0.485-0.286-2,0.317-1.863
	c-0.124-1.011-0.212-1.923-0.169-2.406c0.151-1.696,1.651-3.468,3.962-3.598c2.718,0.129,3.794,1.9,3.945,3.596
	c0.044,0.483-0.053,1.396-0.177,2.405c0.604-0.135,0.341,1.377,0.312,1.862c-0.027,0.502-0.194,1.288-0.687,1.132
	c-0.247,2.065-1.038,2.719-1.038,2.719l0.018,2.184c0,0,0.5,0.311,2.612,1.264c2.112,0.954,1.449,0.241,3.169,1.173
	C-729.757,205.809-729.757,209.86-729.758,209.86L-729.758,209.86z"/>
<path style="fill:#FFFFFF;" d="M-707.5,189.216c0-2.881,2.335-5.216,5.216-5.216h29.568c2.881,0,5.216,2.335,5.216,5.216v29.568
	c0,2.881-2.335,5.216-5.216,5.216h-29.568c-2.881,0-5.216-2.335-5.216-5.216V189.216z M-679.332,217.265c0,0,0-4.299-3.141-5.862
	c-1.988-0.989-1.222-0.232-3.663-1.244c-2.44-1.011-3.018-1.341-3.018-1.341l-0.021-2.318c0,0,0.914-0.694,1.199-2.885
	c0.57,0.165,0.764-0.669,0.794-1.202c0.034-0.515,0.337-2.119-0.361-1.976c0.143-1.071,0.255-2.04,0.204-2.553
	c-0.174-1.8-1.419-3.679-4.559-3.816c-2.67,0.137-4.404,2.018-4.579,3.818c-0.05,0.513,0.052,1.48,0.195,2.554
	c-0.698-0.145-0.397,1.462-0.367,1.977c0.034,0.533,0.223,1.369,0.794,1.204c0.284,2.192,1.198,2.891,1.198,2.891l-0.023,2.329
	c0,0-0.578,0.353-3.018,1.363c-2.44,1.012-1.675,0.21-3.663,1.198c-3.141,1.563-3.141,5.862-3.141,5.862h0.001
	c0,0.001,0,0.002,0,0.003c0,0.652,0.528,1.18,1.18,1.18h22.809c0.652,0,1.18-0.528,1.18-1.18
	C-679.333,217.267-679.333,217.266-679.332,217.265L-679.332,217.265z M-669.757,209.86c0,0,0-4.051-2.718-5.524
	c-1.72-0.932-1.058-0.219-3.169-1.173c-2.111-0.953-2.612-1.264-2.612-1.264l-0.018-2.184c0,0,0.791-0.654,1.038-2.719
	c0.493,0.155,0.661-0.63,0.687-1.132c0.029-0.485,0.292-1.997-0.312-1.862c0.124-1.01,0.221-1.922,0.177-2.405
	c-0.151-1.696-1.228-3.467-3.945-3.596c-2.31,0.13-3.81,1.901-3.962,3.598c-0.044,0.483,0.045,1.395,0.169,2.406
	c-0.604-0.137-0.344,1.378-0.317,1.863c0.029,0.502,0.193,1.291,0.688,1.135c0.246,2.066,1.036,2.724,1.036,2.724l-0.02,2.195
	c0,0-0.5,0.332-2.612,1.285c-2.111,0.954-1.449,0.197-3.169,1.129c-2.718,1.473-2.718,5.525-2.718,5.525h0.001
	c0,0.001,0,0.002,0,0.003c0,0.614,0.457,1.112,1.021,1.112h19.736c0.564,0,1.021-0.498,1.021-1.112
	C-669.758,209.861-669.758,209.861-669.757,209.86L-669.757,209.86z"/>
<path id="USER_2_" style="fill-rule:evenodd;clip-rule:evenodd;fill:#49B173;" d="M-607.501,222.119c0,0.001,0,0.003,0,0.005
	c0,1.036-0.84,1.876-1.876,1.876h-36.27c-1.036,0-1.876-0.84-1.876-1.876c0-0.002,0-0.003,0-0.005h-0.001c0,0,0-6.836,4.995-9.322
	c3.161-1.572,1.944-0.296,5.824-1.906c3.88-1.607,4.8-2.168,4.8-2.168l0.037-3.704c0,0-1.453-1.112-1.905-4.597
	c-0.91,0.263-1.21-1.068-1.263-1.915c-0.049-0.818-0.526-3.374,0.583-3.143c-0.227-1.707-0.39-3.245-0.31-4.061
	c0.278-2.862,3.035-5.852,7.281-6.071c4.994,0.218,6.973,3.206,7.25,6.068c0.081,0.815-0.097,2.355-0.324,4.059
	c1.11-0.228,0.628,2.324,0.574,3.142c-0.049,0.847-0.356,2.173-1.263,1.911c-0.453,3.485-1.907,4.588-1.907,4.588l0.034,3.685
	c0,0,0.919,0.525,4.799,2.132c3.881,1.609,2.663,0.406,5.824,1.979c4.995,2.485,4.995,9.321,4.995,9.321H-607.501z"/>
<path id="USER_5_" style="fill-rule:evenodd;clip-rule:evenodd;fill:#FFFFFF;" d="M-547.501,222.119c0,0.001,0,0.003,0,0.005
	c0,1.036-0.84,1.876-1.876,1.876h-36.27c-1.036,0-1.876-0.84-1.876-1.876c0-0.002,0-0.003,0-0.005h-0.001c0,0,0-6.836,4.995-9.322
	c3.161-1.572,1.944-0.296,5.824-1.906c3.88-1.607,4.8-2.168,4.8-2.168l0.037-3.704c0,0-1.453-1.112-1.905-4.597
	c-0.91,0.263-1.21-1.068-1.263-1.915c-0.049-0.818-0.526-3.374,0.583-3.143c-0.227-1.707-0.39-3.245-0.31-4.061
	c0.278-2.862,3.035-5.852,7.281-6.071c4.994,0.218,6.973,3.206,7.25,6.068c0.081,0.815-0.097,2.355-0.324,4.059
	c1.11-0.228,0.628,2.324,0.574,3.142c-0.049,0.847-0.356,2.173-1.263,1.911c-0.453,3.485-1.907,4.588-1.907,4.588l0.034,3.685
	c0,0,0.919,0.525,4.799,2.132c3.881,1.609,2.663,0.406,5.824,1.979c4.995,2.485,4.995,9.321,4.995,9.321H-547.501z"/>
<path id="ARROWS_2_" style="fill-rule:evenodd;clip-rule:evenodd;fill:#FFFFFF;" d="M-495.547,199.977
	c0,0.442-0.191,0.839-0.496,1.113l0,0l-4.993,4.493l0,0c-0.265,0.239-0.617,0.385-1.002,0.385c-0.827,0-1.498-0.671-1.498-1.498
	c0-0.442,0.191-0.839,0.496-1.113l0,0l2.091-1.882h-9.078v9.078l1.882-2.091l0,0c0.274-0.304,0.671-0.496,1.113-0.496
	c0.827,0,1.498,0.671,1.498,1.498c0,0.385-0.146,0.737-0.385,1.002l0,0l-4.493,4.993l0,0c-0.274,0.304-0.671,0.496-1.113,0.496
	c-0.442,0-0.839-0.191-1.113-0.496l0,0l-4.493-4.993l0,0c-0.239-0.265-0.385-0.617-0.385-1.002c0-0.827,0.671-1.498,1.498-1.498
	c0.442,0,0.839,0.191,1.113,0.496l0,0l1.882,2.091v-9.078h-9.078l2.091,1.882l0,0c0.304,0.274,0.496,0.671,0.496,1.113
	c0,0.827-0.671,1.498-1.498,1.498c-0.385,0-0.737-0.146-1.002-0.385l0,0l-4.993-4.493l0,0c-0.304-0.274-0.496-0.671-0.496-1.113
	c0-0.442,0.192-0.839,0.496-1.113l0,0l4.993-4.493h0c0.265-0.239,0.617-0.385,1.002-0.385c0.827,0,1.498,0.671,1.498,1.498
	c0,0.442-0.192,0.839-0.496,1.113l0,0l-2.091,1.882h9.078v-9.078l-1.882,2.092l0,0c-0.274,0.304-0.671,0.496-1.113,0.496
	c-0.827,0-1.498-0.671-1.498-1.498c0-0.385,0.146-0.736,0.385-1.002l0,0l4.493-4.993l0,0c0.274-0.304,0.671-0.496,1.113-0.496
	c0.442,0,0.839,0.192,1.113,0.496l0,0l4.493,4.993l0,0c0.239,0.265,0.385,0.617,0.385,1.002c0,0.827-0.671,1.498-1.498,1.498
	c-0.442,0-0.839-0.192-1.113-0.496l0,0l-1.882-2.092v9.078h9.078l-2.091-1.882l0,0c-0.304-0.274-0.496-0.671-0.496-1.113
	c0-0.827,0.671-1.498,1.498-1.498c0.385,0,0.736,0.146,1.002,0.385h0l4.993,4.493l0,0
	C-495.738,199.138-495.547,199.535-495.547,199.977z"/>
<path style="fill-rule:evenodd;clip-rule:evenodd;fill:#FFFFFF;" d="M-460.68,195c-0.376,0-0.71-0.166-0.943-0.425l-0.003,0.003
	l-1.6-1.778v7.718c0,0.703-0.57,1.274-1.273,1.274c-0.703,0-1.273-0.57-1.273-1.274V192.8l-1.6,1.778l-0.004-0.003
	c-0.233,0.259-0.567,0.425-0.943,0.425c-0.703,0-1.273-0.57-1.273-1.273c0-0.328,0.127-0.623,0.33-0.849l-0.003-0.003l3.82-4.245
	l0.003,0.003c0.233-0.259,0.567-0.425,0.943-0.425c0.376,0,0.71,0.166,0.943,0.425l0.003-0.003l3.82,4.245l-0.003,0.003
	c0.203,0.226,0.33,0.521,0.33,0.849C-459.406,194.43-459.976,195-460.68,195z"/>
<circle style="fill:#FFFFFF;" cx="-756.5" cy="254.995" r="11"/>
<circle style="fill:#2A9BDB;" cx="-422.5" cy="194.995" r="11"/>
<path style="fill-rule:evenodd;clip-rule:evenodd;fill:#FFFFFF;" d="M-426.32,195c0.376,0,0.71,0.166,0.943,0.425l0.003-0.003
	l1.6,1.778v-7.718c0-0.703,0.57-1.274,1.273-1.274s1.273,0.57,1.273,1.274v7.718l1.6-1.778l0.004,0.003
	c0.233-0.259,0.567-0.425,0.943-0.425c0.703,0,1.273,0.57,1.273,1.273c0,0.328-0.127,0.623-0.33,0.849l0.003,0.003l-3.82,4.245
	l-0.003-0.003c-0.233,0.259-0.567,0.425-0.943,0.425c-0.376,0-0.71-0.166-0.943-0.425l-0.003,0.003l-3.82-4.245l0.003-0.003
	c-0.203-0.226-0.33-0.521-0.33-0.849C-427.594,195.57-427.024,195-426.32,195z"/>
<circle style="fill:#2A9BDB;" cx="-612.5" cy="254.995" r="11"/>
<path style="fill-rule:evenodd;clip-rule:evenodd;fill:#FFFFFF;" d="M-616.32,255c0.376,0,0.71,0.166,0.943,0.425l0.003-0.003
	l1.6,1.778v-7.718c0-0.703,0.57-1.274,1.273-1.274c0.703,0,1.273,0.57,1.273,1.274v7.718l1.6-1.778l0.004,0.003
	c0.233-0.259,0.567-0.425,0.943-0.425c0.703,0,1.273,0.57,1.273,1.273c0,0.328-0.127,0.623-0.33,0.849l0.003,0.003l-3.82,4.245
	l-0.003-0.003c-0.233,0.259-0.567,0.425-0.943,0.425s-0.71-0.166-0.943-0.425l-0.003,0.003l-3.82-4.245l0.003-0.003
	c-0.203-0.226-0.33-0.521-0.33-0.849C-617.594,255.57-617.024,255-616.32,255z"/>
<g>
	<path style="fill:#FFFFFF;" d="M-756.5,325.495c-5.79,0-10.5-4.71-10.5-10.5s4.71-10.5,10.5-10.5s10.5,4.71,10.5,10.5
		S-750.71,325.495-756.5,325.495z"/>
	<path style="fill:#2A9BDB;" d="M-756.5,304.995c5.514,0,10,4.486,10,10c0,5.514-4.486,10-10,10s-10-4.486-10-10
		C-766.5,309.481-762.014,304.995-756.5,304.995 M-756.5,303.995c-6.075,0-11,4.925-11,11s4.925,11,11,11s11-4.925,11-11
		S-750.425,303.995-756.5,303.995L-756.5,303.995z"/>
</g>
<path style="fill-rule:evenodd;clip-rule:evenodd;fill:#2A9BDB;" d="M-756.5,311.18c0,0.376-0.166,0.71-0.425,0.943l0.003,0.003
	l-1.778,1.6h7.718c0.703,0,1.273,0.57,1.273,1.273c0,0.703-0.57,1.273-1.273,1.273h-7.718l1.778,1.6l-0.003,0.004
	c0.259,0.233,0.425,0.567,0.425,0.943c0,0.703-0.57,1.273-1.273,1.273c-0.328,0-0.623-0.127-0.849-0.33l-0.003,0.003l-4.245-3.82
	l0.003-0.003c-0.259-0.233-0.425-0.567-0.425-0.943s0.166-0.71,0.425-0.943l-0.003-0.003l4.245-3.82l0.003,0.003
	c0.226-0.203,0.521-0.33,0.849-0.33C-757.07,309.906-756.5,310.476-756.5,311.18z"/>
<g>
	<path style="fill:#FFFFFF;" d="M-714.5,325.495c-5.79,0-10.5-4.71-10.5-10.5s4.71-10.5,10.5-10.5s10.5,4.71,10.5,10.5
		S-708.71,325.495-714.5,325.495z"/>
	<path style="fill:#2A9BDB;" d="M-714.5,304.995c5.514,0,10,4.486,10,10c0,5.514-4.486,10-10,10s-10-4.486-10-10
		C-724.5,309.481-720.014,304.995-714.5,304.995 M-714.5,303.995c-6.075,0-11,4.925-11,11s4.925,11,11,11s11-4.925,11-11
		S-708.425,303.995-714.5,303.995L-714.5,303.995z"/>
</g>
<path style="fill-rule:evenodd;clip-rule:evenodd;fill:#2A9BDB;" d="M-714.5,318.82c0-0.376,0.166-0.71,0.425-0.943l-0.003-0.003
	l1.778-1.6h-7.718c-0.703,0-1.273-0.57-1.273-1.273c0-0.703,0.57-1.273,1.273-1.273h7.718l-1.778-1.6l0.003-0.004
	c-0.259-0.233-0.425-0.567-0.425-0.943c0-0.703,0.57-1.273,1.273-1.273c0.328,0,0.623,0.127,0.849,0.33l0.003-0.003l4.245,3.82
	l-0.003,0.003c0.259,0.233,0.425,0.567,0.425,0.943s-0.166,0.71-0.425,0.943l0.003,0.003l-4.245,3.82l-0.003-0.003
	c-0.226,0.203-0.521,0.33-0.849,0.33C-713.93,320.094-714.5,319.524-714.5,318.82z"/>
<circle style="fill:#FFFFFF;" cx="-466.5" cy="254.995" r="11"/>
<path style="fill-rule:evenodd;clip-rule:evenodd;fill:#2A9BDB;" d="M-750.342,259.882l0,0.001c0,0.319-0.259,0.577-0.577,0.577
	h-0.353c0.099-0.17,0.16-0.366,0.16-0.577c0.288,0,0.549-0.11,0.751-0.284C-750.342,259.773-750.341,259.882-750.342,259.882
	L-750.342,259.882z"/>
<path style="fill-rule:evenodd;clip-rule:evenodd;fill:#2A9BDB;" d="M-753.421,257.574c-0.638,0-1.155,0.517-1.155,1.155
	c0,0.638,0.517,1.155,1.155,1.155c0,0.211,0.061,0.407,0.16,0.577h-8.82c-0.319,0-0.577-0.258-0.577-0.577l0-0.001h0
	c0,0,0-2.104,1.537-2.869c0.973-0.484,0.598-0.091,1.792-0.586c1.194-0.495,1.477-0.667,1.477-0.667l0.011-1.14
	c0,0-0.447-0.342-0.586-1.415c-0.28,0.081-0.372-0.329-0.389-0.589c-0.015-0.252-0.162-1.038,0.179-0.967
	c-0.07-0.525-0.12-0.999-0.095-1.25c0.086-0.881,0.934-1.801,2.241-1.868c1.537,0.067,2.146,0.987,2.231,1.868
	c0.025,0.251-0.03,0.725-0.1,1.249c0.342-0.07,0.193,0.715,0.176,0.967c-0.015,0.261-0.11,0.669-0.389,0.588
	c-0.14,1.073-0.587,1.412-0.587,1.412l0.01,1.134c0,0,0.283,0.161,1.477,0.656c0.345,0.143,0.557,0.213,0.71,0.253
	C-753.239,256.868-753.421,257.198-753.421,257.574z"/>
<circle style="fill:#FFFFFF;" cx="-752.266" cy="258.728" r="2.542"/>
<path style="fill-rule:evenodd;clip-rule:evenodd;fill:#2A9BDB;" d="M-750.766,259.478h-0.75v0.75c0,0.414-0.336,0.75-0.75,0.75
	s-0.75-0.336-0.75-0.75v-0.75h-0.75c-0.414,0-0.75-0.336-0.75-0.75c0-0.414,0.336-0.75,0.75-0.75h0.75v-0.75
	c0-0.414,0.336-0.75,0.75-0.75s0.75,0.336,0.75,0.75v0.75h0.75c0.414,0,0.75,0.336,0.75,0.75
	C-750.016,259.143-750.352,259.478-750.766,259.478z"/>
<path id="CIRCLE__x2F__DELETE_2_" style="fill-rule:evenodd;clip-rule:evenodd;fill:#FFFFFF;" d="M-705.497,284.006
	c-11.047,0-20.003-8.956-20.003-20.003c0-11.047,8.956-20.003,20.003-20.003c11.047,0,20.003,8.956,20.003,20.003
	C-685.494,275.051-694.449,284.006-705.497,284.006z M-705.497,247.751c-8.976,0-16.253,7.276-16.253,16.253
	c0,8.976,7.277,16.253,16.253,16.253s16.253-7.277,16.253-16.253C-689.244,255.027-696.521,247.751-705.497,247.751z
	 M-698.621,272.754c-0.518,0-0.987-0.21-1.326-0.549l0,0l-5.55-5.55l-5.55,5.55l0,0c-0.339,0.339-0.808,0.549-1.326,0.549
	c-1.036,0-1.875-0.839-1.875-1.875c0-0.518,0.21-0.987,0.549-1.326l0,0l5.55-5.55l-5.55-5.55l0,0
	c-0.339-0.339-0.549-0.808-0.549-1.326c0-1.036,0.84-1.875,1.875-1.875c0.518,0,0.987,0.21,1.326,0.549l0,0l5.55,5.55l5.55-5.55l0,0
	c0.339-0.34,0.808-0.549,1.326-0.549c1.036,0,1.875,0.84,1.875,1.875c0,0.518-0.21,0.987-0.549,1.326l0,0l-5.55,5.55l5.55,5.55l0,0
	c0.339,0.34,0.549,0.808,0.549,1.326C-696.745,271.915-697.585,272.754-698.621,272.754z"/>
<path id="PLAY_2_" style="fill-rule:evenodd;clip-rule:evenodd;fill:#8B8B8B;" d="M-654.562,263.141
	c-0.752,0-1.409-0.405-1.766-1.008l0,0l-8.872-15.015c-0.003-0.005-0.006-0.011-0.01-0.016l-0.005-0.008l0,0
	c-0.181-0.306-0.285-0.662-0.285-1.043c0-1.133,0.918-2.051,2.051-2.051l0,0h17.774l0,0c1.132,0,2.051,0.918,2.051,2.051
	c0,0.381-0.104,0.738-0.285,1.043l0,0l-0.005,0.008c-0.003,0.005-0.006,0.011-0.01,0.016l-8.872,15.015l0,0
	C-653.154,262.736-653.811,263.141-654.562,263.141z"/>
<path id="PLAY_1_" style="fill-rule:evenodd;clip-rule:evenodd;fill:#1C5996;" d="M-362.562,25.141
	c-0.752,0-1.409-0.405-1.766-1.008l0,0l-8.872-15.015c-0.003-0.005-0.006-0.011-0.009-0.016l-0.005-0.008l0,0
	c-0.181-0.306-0.285-0.662-0.285-1.043c0-1.133,0.918-2.051,2.051-2.051l0,0h17.774l0,0c1.132,0,2.051,0.918,2.051,2.051
	c0,0.381-0.104,0.738-0.285,1.043l0,0l-0.005,0.008c-0.003,0.005-0.006,0.011-0.009,0.016l-8.872,15.015l0,0
	C-361.154,24.736-361.811,25.141-362.562,25.141z"/>
<path id="PLAY_3_" style="fill-rule:evenodd;clip-rule:evenodd;fill:#B7B27F;" d="M-320.562,25.141
	c-0.752,0-1.409-0.405-1.766-1.008l0,0l-8.872-15.015c-0.003-0.005-0.006-0.011-0.009-0.016l-0.005-0.008l0,0
	c-0.181-0.306-0.285-0.662-0.285-1.043c0-1.133,0.918-2.051,2.051-2.051l0,0h17.774l0,0c1.132,0,2.051,0.918,2.051,2.051
	c0,0.381-0.104,0.738-0.285,1.043l0,0l-0.005,0.008c-0.003,0.005-0.006,0.011-0.009,0.016l-8.872,15.015l0,0
	C-319.154,24.736-319.811,25.141-320.562,25.141z"/>
<path id="PLAY_4_" style="fill-rule:evenodd;clip-rule:evenodd;fill:#AF9CCE;" d="M-278.562,25.141
	c-0.752,0-1.409-0.405-1.766-1.008l0,0l-8.872-15.015c-0.003-0.005-0.006-0.011-0.009-0.016l-0.005-0.008l0,0
	c-0.181-0.306-0.285-0.662-0.285-1.043c0-1.133,0.918-2.051,2.051-2.051l0,0h17.774l0,0c1.132,0,2.051,0.918,2.051,2.051
	c0,0.381-0.104,0.738-0.285,1.043l0,0l-0.005,0.008c-0.003,0.005-0.006,0.011-0.009,0.016l-8.872,15.015l0,0
	C-277.154,24.736-277.811,25.141-278.562,25.141z"/>
<g>
	<path style="fill:#2A9BDB;" d="M-525.327,275.5c-2.025,0-3.673-1.647-3.673-3.673v-23.654c0-2.025,1.647-3.673,3.673-3.673h23.654
		c2.025,0,3.673,1.647,3.673,3.673v23.654c0,2.025-1.647,3.673-3.673,3.673H-525.327z"/>
	<path style="fill:#1C5996;" d="M-501.673,245c1.75,0,3.173,1.423,3.173,3.173v23.654c0,1.75-1.423,3.173-3.173,3.173h-23.654
		c-1.75,0-3.173-1.423-3.173-3.173v-23.654c0-1.75,1.423-3.173,3.173-3.173H-501.673 M-501.673,244h-23.654
		c-2.305,0-4.173,1.868-4.173,4.173v23.654c0,2.305,1.868,4.173,4.173,4.173h23.654c2.305,0,4.173-1.868,4.173-4.173v-23.654
		C-497.5,245.868-499.368,244-501.673,244L-501.673,244z"/>
</g>
<polygon style="fill-rule:evenodd;clip-rule:evenodd;" points="-519,267.241 -519,267.241 -519,267.241 "/>
<polygon style="fill-rule:evenodd;clip-rule:evenodd;" points="-508,267.241 -508,267.241 -508,267.241 "/>
<polygon style="fill-rule:evenodd;clip-rule:evenodd;" points="-506.5,265.741 -506.5,265.74 -506.5,265.741 "/>
<path style="fill-rule:evenodd;clip-rule:evenodd;fill:#FFFFFF;" d="M-503.374,256.069l-11.355,11.355l0,0
	c-0.385,0.385-0.918,0.624-1.505,0.624c-0.588,0-1.12-0.238-1.505-0.624l0,0l-6.387-6.387l0,0c-0.385-0.385-0.623-0.918-0.623-1.506
	c0-1.176,0.953-2.129,2.129-2.129c0.588,0,1.12,0.238,1.505,0.624l0,0l4.882,4.882l9.849-9.849l0,0
	c0.385-0.385,0.917-0.624,1.505-0.624c1.176,0,2.129,0.953,2.129,2.129C-502.75,255.151-502.988,255.684-503.374,256.069
	L-503.374,256.069z"/>
<circle style="fill:none;stroke:#2A9BDB;stroke-width:2.0873;stroke-miterlimit:10;" cx="-466.431" cy="254.553" r="6.21"/>
<rect x="-462.009" y="251.669" style="fill:#FFFFFF;" width="3.051" height="2.884"/>
<rect x="-474.042" y="254.553" style="fill:#FFFFFF;" width="3.051" height="2.884"/>
<g>
	<defs>
		
			<rect id="SVGID_5_" x="-473.572" y="255.91" transform="matrix(-1 -0.0021 0.0021 -1 -942.9372 515.5748)" width="4.752" height="4.752"/>
	</defs>
	<clipPath id="SVGID_1_">
		<use xlink:href="#SVGID_5_"  style="overflow:visible;"/>
	</clipPath>
	
		<rect x="-476.794" y="254.246" transform="matrix(-0.7086 0.7056 -0.7056 -0.7086 -626.9089 772.1413)" style="clip-path:url(#SVGID_1_);fill:#2A9BDB;" width="7.804" height="4.752"/>
</g>
<g>
	<defs>
		<rect id="SVGID_7_" x="-464.036" y="248.601" transform="matrix(1 0.0021 -0.0021 1 0.53 0.9774)" width="4.752" height="4.752"/>
	</defs>
	<clipPath id="SVGID_2_">
		<use xlink:href="#SVGID_7_"  style="overflow:visible;"/>
	</clipPath>
	
		<rect x="-463.866" y="250.265" transform="matrix(0.7086 -0.7056 0.7056 0.7086 -312.2986 -250.9353)" style="clip-path:url(#SVGID_2_);fill:#2A9BDB;" width="7.804" height="4.752"/>
</g>
<path d="M-660.745,349.021L-660.745,349.021L-660.745,349.021z"/>
<path d="M-646.995,349.021L-646.995,349.021L-646.995,349.021z"/>
<path d="M-645.12,347.146v-0.001V347.146z"/>
<path id="BIN_2_" style="fill:#C65739;" d="M-680.003,310.246c0-1.14,0.924-2.062,2.062-2.062h10.315v-2.062
	c0-1.14,0.924-2.062,2.062-2.062h4.126c1.139,0,2.062,0.924,2.062,2.062v2.062h10.315c1.14,0,2.062,0.924,2.062,2.062v2.062h-33.006
	V310.246z M-649.059,316.435v4.126v21.318c0,1.139-0.924,2.062-2.062,2.062h-24.755c-1.139,0-2.062-0.924-2.062-2.062v-21.318
	v-4.126v-2.062h28.881v2.062H-649.059z M-669.688,320.561c0-1.139-0.924-2.062-2.062-2.062c-1.139,0-2.062,0.924-2.062,2.062v17.191
	c0,1.14,0.924,2.062,2.062,2.062c1.139,0,2.062-0.924,2.062-2.062V320.561z M-661.437,320.561c0-1.139-0.924-2.062-2.062-2.062
	s-2.062,0.924-2.062,2.062v17.191c0,1.14,0.924,2.062,2.062,2.062c1.139,0,2.062-0.924,2.062-2.062V320.561z M-653.186,320.561
	c0-1.139-0.924-2.062-2.062-2.062c-1.139,0-2.062,0.924-2.062,2.062v17.191c0,1.14,0.924,2.062,2.062,2.062
	c1.139,0,2.062-0.924,2.062-2.062V320.561z"/>
<g>
	<path style="fill:#FFFFFF;" d="M-403.5,335.953c0,0.992-0.805,1.797-1.797,1.797h-36.405c-0.992,0-1.797-0.805-1.797-1.797V312.3
		c0-1.133,0.918-2.05,2.05-2.05h35.9c1.132,0,2.05,0.918,2.05,2.05V335.953z"/>
	<path id="MAIL_2_" style="fill:#1C5996;" d="M-416.241,322.6l12.167-11.788c0.344,0.34,0.559,0.811,0.559,1.333v23.731
		c0,0.492-0.194,0.938-0.505,1.273L-416.241,322.6z M-442.86,310.76c0.331-0.3,0.767-0.487,1.25-0.487h36.22
		c0.483,0,0.918,0.188,1.25,0.487l-19.36,15.125L-442.86,310.76z M-442.979,337.149c-0.311-0.334-0.505-0.779-0.505-1.272v-23.73
		c0-0.521,0.214-0.993,0.559-1.333l12.167,11.788L-442.979,337.149z M-423.5,329.631l5.081-4.921l14.314,12.525
		c-0.335,0.318-0.786,0.515-1.285,0.515h-36.22c-0.499,0-0.949-0.197-1.285-0.515l14.314-12.525L-423.5,329.631z"/>
</g>
<path d="M-570.387,354.046L-570.387,354.046L-570.387,354.046z"/>
<path d="M-556.637,354.046L-556.637,354.046L-556.637,354.046z"/>
<path d="M-554.762,352.171v-0.001V352.171z"/>
<path id="MAGNIFYING_GLASS_2_" style="fill:#414143;" d="M-728.597,397.61c0.677,0.679,1.097,1.616,1.097,2.651
	c0,2.071-1.679,3.75-3.75,3.75c-1.035,0-1.972-0.42-2.651-1.099l0,0l-10.99-10.99c-2.234,1.319-4.828,2.089-7.609,2.089
	c-8.284,0-15-6.715-15-15c0-8.284,6.716-15,15-15s15,6.716,15,15c0,2.78-0.77,5.375-2.089,7.607L-728.597,397.61L-728.597,397.61z
	 M-752.5,367.761c-6.214,0-11.25,5.036-11.25,11.25s5.036,11.25,11.25,11.25s11.25-5.038,11.25-11.25
	C-741.25,372.798-746.286,367.761-752.5,367.761z"/>
<g>
	<path d="M-550.359,333.068L-550.359,333.068L-550.359,333.068z"/>
	<path d="M-536.609,333.068L-536.609,333.068L-536.609,333.068z"/>
	<path d="M-534.734,331.193v-0.001V331.193z"/>
	<path style="fill:#1C5996;" d="M-524.685,336.353l-18.074,7.479c-0.228,0.098-0.478,0.152-0.741,0.152s-0.514-0.055-0.741-0.152
		l-18.074-7.479c-0.685-0.279-1.169-0.951-1.169-1.736V305.89c0-1.035,0.839-1.874,1.874-1.874c0.254,0,0.495,0.051,0.716,0.142l0,0
		l0.003,0.001c0.006,0.003,0.011,0.004,0.017,0.006l17.374,7.189l17.374-7.189c0.005-0.003,0.011-0.005,0.016-0.008l0.003-0.001l0,0
		c0.222-0.09,0.464-0.141,0.717-0.141c1.035,0,1.874,0.839,1.874,1.874v28.726C-523.516,335.401-524,336.074-524.685,336.353z"/>
	<polygon style="fill:#FFFFFF;" points="-545.179,339.688 -545.179,314.75 -559.696,308.743 -559.696,333.68 	"/>
	<polygon style="fill:#FFFFFF;" points="-526.874,308.743 -541.391,314.75 -541.391,339.688 -526.874,333.68 	"/>
</g>
<g>
	<path style="fill:#FFFFFF;" d="M-618.293,343.375c-2.531,0-4.591-2.059-4.591-4.591v-29.568c0-2.531,2.059-4.591,4.591-4.591
		h29.567c2.531,0,4.591,2.059,4.591,4.591v29.568c0,2.531-2.059,4.591-4.591,4.591H-618.293z"/>
	<path style="fill:#FFDA59;" d="M-588.725,305.25c2.188,0,3.966,1.779,3.966,3.966v29.568c0,2.188-1.779,3.966-3.966,3.966h-29.567
		c-2.188,0-3.966-1.779-3.966-3.966v-29.568c0-2.188,1.779-3.966,3.966-3.966H-588.725 M-588.725,304h-29.567
		c-2.881,0-5.216,2.335-5.216,5.216v29.568c0,2.881,2.335,5.216,5.216,5.216h29.567c2.881,0,5.216-2.335,5.216-5.216v-29.568
		C-583.509,306.335-585.844,304-588.725,304L-588.725,304z"/>
</g>
<path d="M-610.384,333.051L-610.384,333.051L-610.384,333.051z"/>
<path d="M-596.634,333.051L-596.634,333.051L-596.634,333.051z"/>
<path d="M-594.759,331.176v-0.001V331.176z"/>
<path id="RESIZE_1_7_" style="fill:#6F6600;" d="M-587.988,316.484L-587.988,316.484c0,0.884-0.716,1.601-1.601,1.601
	c-0.884,0-1.601-0.716-1.601-1.601l0,0v-2.539l-7.94,7.94c-0.29,0.29-0.69,0.469-1.133,0.469c-0.884,0-1.601-0.716-1.601-1.601
	c0-0.443,0.179-0.842,0.469-1.133l0,0l7.94-7.94h-2.539l0,0c-0.884,0-1.601-0.718-1.601-1.601c0-0.884,0.716-1.601,1.601-1.601l0,0
	h6.404l0,0c0.884,0,1.601,0.717,1.601,1.601l0,0v6.405H-587.988z M-605.534,328.289l-7.94,7.94h2.539l0,0
	c0.884,0,1.601,0.716,1.601,1.601c0,0.884-0.716,1.601-1.601,1.601l0,0h-6.404l0,0c-0.884,0-1.601-0.717-1.601-1.601l0,0v-6.404l0,0
	c0-0.884,0.716-1.601,1.601-1.601c0.884,0,1.601,0.716,1.601,1.601l0,0v2.539l7.94-7.94c0.29-0.29,0.69-0.469,1.133-0.469
	c0.884,0,1.601,0.716,1.601,1.601C-605.065,327.599-605.244,327.999-605.534,328.289L-605.534,328.289z"/>
<path style="fill:#6F6600;" d="M-598.204,319.195c0.494,0.494,0.399,1.388-0.211,1.997l-7.559,7.559
	c-0.61,0.61-1.505,0.705-1.997,0.211l-0.47-0.47c-0.494-0.494-0.399-1.387,0.211-1.997l7.559-7.559
	c0.61-0.61,1.505-0.705,1.997-0.211L-598.204,319.195z"/>
<g>
	<path d="M-490.375,333.067L-490.375,333.067L-490.375,333.067z"/>
	<path d="M-476.625,333.067L-476.625,333.067L-476.625,333.067z"/>
	<polygon points="-474.75,331.193 -474.75,331.192 -474.75,331.192 	"/>
	<path style="fill:#1C5996;" d="M-465.09,316.822c-1.978-4.616-5.679-8.318-10.295-10.295c1.249-0.983,2.82-1.574,4.531-1.574
		c4.053,0,7.338,3.285,7.338,7.337C-463.516,314.002-464.108,315.573-465.09,316.822z"/>
	<path style="fill:#1C5996;" d="M-465.39,324.937c0,4.811-1.889,9.172-4.949,12.415l2.533,2.533c0.335,0.335,0.542,0.799,0.542,1.31
		c0,1.023-0.829,1.853-1.852,1.853c-0.511,0-0.975-0.207-1.31-0.543l-2.721-2.721c-2.936,2.051-6.5,3.264-10.354,3.264
		c-3.845,0-7.404-1.207-10.336-3.251l-2.703,2.703c-0.339,0.339-0.807,0.549-1.325,0.549c-1.035,0-1.874-0.839-1.874-1.874
		c0-0.517,0.21-0.986,0.549-1.325l2.513-2.512c-3.051-3.241-4.935-7.596-4.935-12.4c0.003-10.001,8.11-18.109,18.113-18.109
		S-465.39,314.934-465.39,324.937z"/>
	<circle style="fill:#FFFFFF;" cx="-483.5" cy="324.937" r="14.364"/>
	<path style="fill:#1C5996;" d="M-476.006,326.811h-7.494c-1.035,0-1.874-0.839-1.874-1.874v-9.991c0-1.035,0.839-1.874,1.874-1.874
		s1.874,0.839,1.874,1.874v8.119h5.62c1.035,0,1.874,0.839,1.874,1.874C-474.133,325.972-474.971,326.811-476.006,326.811z"/>
	<path style="fill:#1C5996;" d="M-501.876,317.076c-1.004-1.275-1.608-2.88-1.608-4.629c0-4.139,3.355-7.494,7.494-7.494
		c1.749,0,3.354,0.604,4.629,1.608C-496.076,308.581-499.856,312.361-501.876,317.076z"/>
</g>
<path id="SPEECH_BUBBLE_1_2_" style="fill-rule:evenodd;clip-rule:evenodd;fill:#FFFFFF;" d="M-225.697,11.774
	c8.82,0,14.197,5.151,14.197,11.504c0,6.354-5.376,11.435-14.197,11.435c-1.075,0-2.125-0.311-3.14-0.457
	c-4.106,5.191-10.582,4.17-10.582,4.17c4.574-2.165,4.482-5.751,3.668-6.229c-3.59-2.11-5.749-5.322-5.749-8.92
	C-241.5,16.924-234.517,11.774-225.697,11.774z"/>
<path style="fill:#2A9BDB;" d="M-119,26.25C-119,39.919-130.081,51-143.75,51h-25.5C-182.919,51-194,39.919-194,26.25v-0.5
	C-194,12.081-182.919,1-169.25,1h25.5C-130.081,1-119,12.081-119,25.75V26.25z"/>
<path style="fill-rule:evenodd;clip-rule:evenodd;fill:#FFFFFF;" d="M-175.02,9.716c2.003,0.035,3.832,4.058,4.733,5.492
	c0.349,0.555,1.291,1.334,0.876,2.396c-0.664,1.7-3.144,1.67-3.506,3.798c-0.264,1.551,1.684,4.171,2.337,5.083
	c1.466,2.047,3.505,3.541,5.726,4.85c0.694,0.409,1.881,1.265,3.097,0.876c1.619-0.517,2.214-4.208,4.441-3.506
	c1.753,1.149,3.506,2.298,5.259,3.447c0.533,0.351,1.325,0.612,1.578,1.227c0.665,1.617-1.449,4.923-2.279,5.551
	c-2.474,1.873-9.48-0.084-11.511-0.935c-6.763-2.832-12.006-8.154-14.724-15.017c-0.777-1.962-2.147-8.392-0.701-10.693
	C-178.716,10.731-176.811,10.507-175.02,9.716z"/>
<path id="ARROW__x2F__DOWN_2_" style="fill-rule:evenodd;clip-rule:evenodd;fill:#FFFFFF;" d="M-143.365,23.85l6.362,6.362
	l6.445-6.445l0,0c0.218-0.211,0.515-0.34,0.843-0.34c0.671,0,1.214,0.544,1.214,1.214c0,0.327-0.13,0.624-0.34,0.843l0,0
	l-7.286,7.286l0,0c-0.221,0.229-0.531,0.372-0.874,0.372c-0.001,0-0.002,0-0.003,0s-0.002,0-0.003,0
	c-0.343,0-0.653-0.143-0.874-0.372l0,0l-7.286-7.286l0.003-0.003c-0.209-0.218-0.338-0.514-0.338-0.84
	c0-0.671,0.544-1.214,1.214-1.214C-143.917,23.427-143.588,23.591-143.365,23.85z"/>
<circle style="fill:#5CBC73;" cx="15" cy="15" r="15"/>
<path id="TICK_2_" style="fill-rule:evenodd;clip-rule:evenodd;fill:#FFFFFF;stroke:#FFFFFF;stroke-miterlimit:10;" d="
	M22.186,11.651L22.186,11.651l-8.214,8.214l0,0c-0.194,0.194-0.462,0.314-0.758,0.314c-0.296,0-0.564-0.12-0.758-0.314l0,0
	l-4.643-4.643l0,0C7.62,15.028,7.5,14.76,7.5,14.464c0-0.592,0.48-1.071,1.071-1.071c0.296,0,0.564,0.12,0.758,0.314l0,0
	l3.885,3.885l7.457-7.457l0,0c0.194-0.194,0.462-0.314,0.758-0.314c0.592,0,1.071,0.48,1.071,1.071
	C22.5,11.189,22.38,11.457,22.186,11.651z"/>
<path id="MINUS_2_" style="fill-rule:evenodd;clip-rule:evenodd;fill:#FFFFFF;stroke:#FFFFFF;stroke-width:2;stroke-miterlimit:10;" d="
	M-28.478,15.978h-5.543h-1.957h-5.543c-0.54,0-0.978-0.438-0.978-0.978c0-0.54,0.438-0.978,0.978-0.978h5.543h1.957h5.543
	c0.54,0,0.978,0.438,0.978,0.978C-27.5,15.54-27.938,15.978-28.478,15.978z"/>
</svg>
