<?xml version="1.0" encoding="utf-8"?>
<!-- Generator: Adobe Illustrator 17.1.0, SVG Export Plug-In . SVG Version: 6.00 Build 0)  -->
<!DOCTYPE svg PUBLIC "-//W3C//DTD SVG 1.1//EN" "http://www.w3.org/Graphics/SVG/1.1/DTD/svg11.dtd">
<svg version="1.1" id="Layer_1" xmlns="http://www.w3.org/2000/svg" xmlns:xlink="http://www.w3.org/1999/xlink" x="0px" y="0px"
	 viewBox="0 0 1052 1052" enable-background="new 0 0 1052 1052" xml:space="preserve">
<path id="BLOCK_2_" fill-rule="evenodd" clip-rule="evenodd" fill="#4A4A4A" d="M526,1052C235.5,1052,0,816.5,0,526
	C0,235.5,235.5,0,526,0c290.5,0,526,235.5,526,526C1052,816.5,816.5,1052,526,1052z M98.6,526C98.6,762,290,953.4,526,953.4
	c100.2,0,192.2-34.8,265.1-92.5L191.2,260.9C133.4,333.8,98.6,425.8,98.6,526z M526,98.6c-100.2,0-192.2,34.8-265.1,92.5
	l599.9,599.9c57.8-72.9,92.5-164.9,92.5-265.1C953.4,290,762,98.6,526,98.6z"/>
</svg>
