<?xml version="1.0" encoding="utf-8"?>
<!-- Generator: Adobe Illustrator 18.0.0, SVG Export Plug-In . SVG Version: 6.00 Build 0)  -->
<!DOCTYPE svg PUBLIC "-//W3C//DTD SVG 1.1//EN" "http://www.w3.org/Graphics/SVG/1.1/DTD/svg11.dtd">
<svg version="1.1" id="Layer_1" xmlns="http://www.w3.org/2000/svg" xmlns:xlink="http://www.w3.org/1999/xlink" x="0px" y="0px"
	 viewBox="0 0 100 100" enable-background="new 0 0 100 100" xml:space="preserve">
<path id="MAGNIFYING_GLASS_2_" fill-rule="evenodd" clip-rule="evenodd" fill="#E4E4E4" d="M97.3,84c1.7,1.7,2.7,4,2.7,6.6
	c0,5.2-4.2,9.4-9.4,9.4c-2.6,0-4.9-1-6.6-2.7l0,0L56.5,69.8c-5.6,3.3-12.1,5.2-19,5.2C16.8,75,0,58.2,0,37.5C0,16.8,16.8,0,37.5,0
	C58.2,0,75,16.8,75,37.5c0,7-1.9,13.4-5.2,19L97.3,84L97.3,84z M37.5,9.4C22,9.4,9.4,22,9.4,37.5C9.4,53,22,65.6,37.5,65.6
	C53,65.6,65.6,53,65.6,37.5C65.6,22,53,9.4,37.5,9.4z"/>
</svg>
