<?xml version="1.0" encoding="iso-8859-1"?>
<!-- Generator: Adobe Illustrator 17.1.0, SVG Export Plug-In . SVG Version: 6.00 Build 0)  -->
<!DOCTYPE svg PUBLIC "-//W3C//DTD SVG 1.1//EN" "http://www.w3.org/Graphics/SVG/1.1/DTD/svg11.dtd">
<svg version="1.1" id="Layer_1" xmlns="http://www.w3.org/2000/svg" xmlns:xlink="http://www.w3.org/1999/xlink" x="0px" y="0px"
	 viewBox="0 0 1052 1052" style="enable-background:new 0 0 1052 1052;" xml:space="preserve">
<path id="PLAY_1_" style="fill-rule:evenodd;clip-rule:evenodd;fill:#D53A3E;" d="M525.94,985.821
	c-36.147,0-67.742-19.459-84.91-48.456l-0.006,0.003L14.335,215.273c-0.15-0.255-0.301-0.519-0.457-0.777l-0.226-0.378l0.006-0.003
	c-8.706-14.698-13.721-31.847-13.721-50.171c0-54.469,44.158-98.624,98.625-98.624l0,0h854.756l0,0
	c54.455,0,98.619,44.156,98.619,98.624c0,18.324-5.015,35.473-13.726,50.171l0.011,0.003l-0.226,0.378
	c-0.156,0.258-0.307,0.522-0.457,0.777L610.85,937.368l-0.006-0.003C593.67,966.362,562.087,985.821,525.94,985.821z"/>
</svg>
