<?xml version="1.0" encoding="iso-8859-1"?>
<!-- Generator: Adobe Illustrator 17.1.0, SVG Export Plug-In . SVG Version: 6.00 Build 0)  -->
<!DOCTYPE svg PUBLIC "-//W3C//DTD SVG 1.1 Tiny//EN" "http://www.w3.org/Graphics/SVG/1.1/DTD/svg11-tiny.dtd">
<svg version="1.1" baseProfile="tiny" id="Layer_1" xmlns="http://www.w3.org/2000/svg" xmlns:xlink="http://www.w3.org/1999/xlink"
	 x="0px" y="0px" viewBox="0 0 1052 1052" xml:space="preserve">
<path id="PLAY_2_" fill-rule="evenodd" fill="#272A42" d="M526.003,986.251c-36.147,0-67.742-19.459-84.91-48.456l-0.006,0.003
	L14.398,215.703c-0.15-0.255-0.301-0.519-0.457-0.777l-0.226-0.378l0.006-0.003C5.015,199.847,0,182.698,0,164.374
	c0-54.469,44.158-98.624,98.625-98.624l0,0h854.756l0,0c54.455,0,98.619,44.156,98.619,98.624c0,18.324-5.015,35.473-13.727,50.171
	l0.012,0.003l-0.226,0.378c-0.156,0.258-0.307,0.522-0.457,0.777l-426.69,722.095l-0.006-0.003
	C593.733,966.792,562.15,986.251,526.003,986.251z"/>
</svg>
