<?xml version="1.0" encoding="iso-8859-1"?>
<!-- Generator: Adobe Illustrator 17.1.0, SVG Export Plug-In . SVG Version: 6.00 Build 0)  -->
<!DOCTYPE svg PUBLIC "-//W3C//DTD SVG 1.1 Tiny//EN" "http://www.w3.org/Graphics/SVG/1.1/DTD/svg11-tiny.dtd">
<svg version="1.1" baseProfile="tiny" id="Layer_1" xmlns="http://www.w3.org/2000/svg" xmlns:xlink="http://www.w3.org/1999/xlink"
	 x="0px" y="0px" viewBox="0 0 1052 1052" xml:space="preserve">
<g>
	<path fill="#454B75" d="M263,1025.7c-63.225,0-122.666-24.621-167.372-69.328C50.921,911.666,26.3,852.225,26.3,789V263
		c0-63.225,24.621-122.666,69.328-167.372C140.334,50.921,199.775,26.3,263,26.3h526c63.225,0,122.666,24.621,167.372,69.328
		C1001.079,140.334,1025.7,199.775,1025.7,263v526c0,63.225-24.621,122.666-69.328,167.372
		C911.666,1001.079,852.225,1025.7,789,1025.7H263z"/>
	<path fill="#454B75" d="M789,52.6c56.2,0,109.036,21.886,148.775,61.625C977.514,153.964,999.4,206.8,999.4,263v526
		c0,56.2-21.886,109.036-61.625,148.775C898.036,977.514,845.2,999.4,789,999.4H263c-56.2,0-109.036-21.886-148.775-61.625
		C74.486,898.036,52.6,845.2,52.6,789V263c0-56.2,21.886-109.036,61.625-148.775C153.964,74.486,206.8,52.6,263,52.6H789 M789,0H263
		C117.749,0,0,117.749,0,263v526c0,145.251,117.749,263,263,263h526c145.251,0,263-117.749,263-263V263
		C1052,117.749,934.251,0,789,0L789,0z"/>
</g>
<path fill-rule="evenodd" fill="#FFFFFF" d="M312.312,460.25c13.618,0,25.944,5.521,34.869,14.444l113.068,113.069l228.132-228.13
	c8.923-8.923,21.251-14.444,34.869-14.444c27.234,0,49.312,22.076,49.312,49.312c0,13.617-5.52,25.946-14.445,34.872
	L495.118,692.371c-8.923,8.922-21.251,14.441-34.869,14.441c-13.616,0-25.944-5.518-34.868-14.441l-147.94-147.937
	c-8.923-8.922-14.442-21.252-14.442-34.872C262.999,482.332,285.076,460.25,312.312,460.25z"/>
<path fill-rule="evenodd" d="M756.124,706.829V706.8c0,0.006,0.001,0.012,0.001,0.012L756.124,706.829z"/>
<path fill-rule="evenodd" d="M756.124,345.177c0,0.009,0.001,0.012,0.001,0.012c0,0.009-0.001,0.014-0.001,0.014V345.177z"/>
</svg>
