<?xml version="1.0" encoding="iso-8859-1"?>
<!-- Generator: Adobe Illustrator 17.1.0, SVG Export Plug-In . SVG Version: 6.00 Build 0)  -->
<!DOCTYPE svg PUBLIC "-//W3C//DTD SVG 1.1 Tiny//EN" "http://www.w3.org/Graphics/SVG/1.1/DTD/svg11-tiny.dtd">
<svg version="1.1" baseProfile="tiny" id="Layer_1" xmlns="http://www.w3.org/2000/svg" xmlns:xlink="http://www.w3.org/1999/xlink"
	 x="0px" y="0px" viewBox="0 0 1052 1052" xml:space="preserve">
<g>
	<path fill="#FFFFFF" d="M263,1025.7c-63.225,0-122.666-24.621-167.372-69.328C50.921,911.666,26.3,852.225,26.3,789V263
		c0-63.225,24.621-122.666,69.328-167.372C140.334,50.921,199.775,26.3,263,26.3h526c63.225,0,122.666,24.621,167.372,69.328
		C1001.079,140.334,1025.7,199.775,1025.7,263v526c0,63.225-24.621,122.666-69.328,167.372
		C911.666,1001.079,852.225,1025.7,789,1025.7H263z"/>
	<path fill="#454B75" d="M789,52.6c56.2,0,109.036,21.886,148.775,61.625C977.514,153.964,999.4,206.8,999.4,263v526
		c0,56.2-21.886,109.036-61.625,148.775C898.036,977.514,845.2,999.4,789,999.4H263c-56.2,0-109.036-21.886-148.775-61.625
		C74.486,898.036,52.6,845.2,52.6,789V263c0-56.2,21.886-109.036,61.625-148.775C153.964,74.486,206.8,52.6,263,52.6H789 M789,0H263
		C117.749,0,0,117.749,0,263v526c0,145.251,117.749,263,263,263h526c145.251,0,263-117.749,263-263V263
		C1052,117.749,934.251,0,789,0L789,0z"/>
</g>
<path id="ARROWS_HORIZONTAL_2_" fill-rule="evenodd" fill="#272A42" d="M851.613,200.388c9.007,9.007,13.196,21.001,12.581,32.795
	l0.003,0.001l-10.174,193.331l-0.004,0c-0.537,10.28-4.729,20.406-12.581,28.258c-16.859,16.859-44.192,16.86-61.052,0
	c-9.006-9.006-13.198-21.002-12.581-32.795l-0.005,0.001l4.263-80.988L587.052,526l0,0l-61.053,61.053l0,0L340.99,772.062
	l80.987-4.262l0,0.004c11.793-0.617,23.789,3.575,32.795,12.581c16.86,16.86,16.86,44.192,0,61.052
	c-7.852,7.852-17.977,12.043-28.257,12.58l0,0.004l-193.333,10.176l0-0.004c-11.794,0.615-23.787-3.574-32.795-12.581
	s-13.199-21.004-12.581-32.794h-0.004l10.178-193.331l0.002-0.002c0.537-10.28,4.728-20.405,12.58-28.257
	c16.86-16.86,44.192-16.86,61.05-0.002c9.007,9.007,13.2,21.003,12.583,32.796l0.005,0.002l-4.263,80.985l185.009-185.009l0,0
	L526,464.948l0,0l185.01-185.01l-80.986,4.264l-0.001-0.006c-11.792,0.616-23.789-3.575-32.796-12.583
	c-16.858-16.858-16.857-44.191,0.002-61.05c7.852-7.852,17.977-12.044,28.258-12.581l0.002-0.002l193.329-10.176l0.001,0.003
	C830.608,187.188,842.605,191.38,851.613,200.388z"/>
</svg>
