<?xml version="1.0" encoding="utf-8"?>
<!-- Generator: Adobe Illustrator 17.1.0, SVG Export Plug-In . SVG Version: 6.00 Build 0)  -->
<!DOCTYPE svg PUBLIC "-//W3C//DTD SVG 1.1//EN" "http://www.w3.org/Graphics/SVG/1.1/DTD/svg11.dtd">
<svg version="1.1" id="Layer_1" xmlns="http://www.w3.org/2000/svg" xmlns:xlink="http://www.w3.org/1999/xlink" x="0px" y="0px"
	 viewBox="25.4 0 17.4 68" enable-background="new 25.4 0 17.4 68" xml:space="preserve">
<g>
	<path fill="#D43A3E" d="M34.2,0c1.3,0,2.3,0.3,3.3,0.7c3,1.3,4.5,3.6,5.2,7.2c0.2,0.8,0.1,1.7-0.1,2.5c-0.1,0.6-0.1,1.1-0.2,1.7
		c-0.3,1.6-0.1,3.3-0.4,4.8c-0.1,0.5,0,1-0.1,1.5c-0.1,0.7-0.1,1.4-0.2,2.1c-0.2,2.4-0.5,4.8-0.7,7.2c-0.3,2.9-0.5,5.9-0.8,8.8
		c-0.2,2.3-0.4,4.5-0.6,6.8c-0.2,1-0.1,2-0.3,2.8c-0.3,1.1-0.8,2-1.4,2.8c-0.5,0.7-1.4,1.1-2.3,1.4c-0.3,0-0.7,0.1-1,0.1
		c-0.3,0-0.5,0-0.8-0.1c-1.3-0.2-2-0.6-2.9-1.3c-1-0.8-1.5-2.2-1.8-3.7c-0.1-0.7-0.1-1.4-0.2-2.1c-0.3-3-0.6-5.9-0.9-8.9
		c-0.7-6.5-1.3-12.9-2-19.4c-0.1-1.3-0.3-2.6-0.4-3.9c-0.1-0.6-0.3-1.7-0.2-2.3c0.3-1.9,0.7-3.4,1.5-4.7c1.1-1.7,2.6-2.9,4.7-3.5
		c0.5-0.2,1.1-0.2,1.8-0.3C33.6,0,33.9,0,34.2,0z"/>
	<path fill="#D43A3E" d="M34,54.8c3.4-0.1,5.5,1.7,6.5,4c0.6,1.5,0.7,3.5,0,5c-1,2.3-2.7,3.6-5.5,4c-1.1,0.2-2.2-0.1-2.9-0.4
		c-2.2-0.9-3.6-2.5-4.1-5.1c-0.1-0.5-0.1-1.4,0-2c0.1-0.4,0.2-0.9,0.3-1.3c0.7-1.8,2-3.2,3.7-3.9c0.4-0.2,0.8-0.3,1.3-0.4
		C33.6,54.9,33.8,54.9,34,54.8z"/>
</g>
</svg>
