<?xml version="1.0" encoding="utf-8"?>
<!-- Generator: Adobe Illustrator 18.1.0, SVG Export Plug-In . SVG Version: 6.00 Build 0)  -->
<!DOCTYPE svg PUBLIC "-//W3C//DTD SVG 1.1//EN" "http://www.w3.org/Graphics/SVG/1.1/DTD/svg11.dtd">
<svg version="1.1" id="Layer_1" xmlns="http://www.w3.org/2000/svg" xmlns:xlink="http://www.w3.org/1999/xlink" x="0px" y="0px"
	 viewBox="0 0 13 13" enable-background="new 0 0 13 13" xml:space="preserve">
<path fill="#FFCE1F" d="M11.5,13h-10C0.6,13,0,12.4,0,11.5v-10C0,0.6,0.6,0,1.5,0h10C12.4,0,13,0.6,13,1.5v10
	C13,12.4,12.4,13,11.5,13z"/>
<path fill="#FFFFFF" d="M11.5,13h-10C0.6,13,0,12.4,0,11.5v-10C0,0.6,0.6,0,1.5,0h10C12.4,0,13,0.6,13,1.5v10
	C13,12.4,12.4,13,11.5,13z"/>
<path fill="#8F93AC" d="M9.2,5.3C9.1,5.3,8.9,5.2,8.9,5V4.5L7.3,6.1l0,0C7.3,6.1,7.2,6.2,7.1,6.2C7,6.2,6.8,6,6.8,5.9
	c0-0.1,0.1-0.2,0.1-0.2l0,0l1.5-1.5H8C7.8,4.1,7.7,4,7.7,3.8s0.1-0.3,0.3-0.3h1.2c0.2,0,0.3,0.2,0.3,0.3v1.3
	C9.5,5.2,9.4,5.3,9.2,5.3z M6.1,7.3L4.6,8.9h0.5c0.2,0,0.3,0.1,0.3,0.3c0,0.1-0.2,0.3-0.3,0.3H3.8c-0.1,0-0.3-0.1-0.3-0.3V7.9
	c0-0.2,0.2-0.3,0.3-0.3c0.2,0,0.3,0.2,0.3,0.3v0.5l1.5-1.6l0,0c0.1-0.1,0.2-0.1,0.2-0.1c0.2,0,0.3,0.2,0.3,0.3
	C6.2,7.2,6.2,7.3,6.1,7.3L6.1,7.3z"/>
</svg>
