<?xml version="1.0" encoding="utf-8"?>
<!-- Generator: Adobe Illustrator 18.1.0, SVG Export Plug-In . SVG Version: 6.00 Build 0)  -->
<!DOCTYPE svg PUBLIC "-//W3C//DTD SVG 1.1 Basic//EN" "http://www.w3.org/Graphics/SVG/1.1/DTD/svg11-basic.dtd">
<svg version="1.1" baseProfile="basic" id="Layer_1"
	 xmlns="http://www.w3.org/2000/svg" xmlns:xlink="http://www.w3.org/1999/xlink" x="0px" y="0px" viewBox="0 0 12 12"
	 xml:space="preserve">
<path id="MAGNIFYING_GLASS_1_" fill-rule="evenodd" clip-rule="evenodd" fill="#8F93AC" d="M11.7,10.1c0.2,0.2,0.3,0.5,0.3,0.8
	c0,0.6-0.5,1.1-1.1,1.1c-0.3,0-0.6-0.1-0.8-0.3l0,0L6.8,8.4C6.1,8.8,5.3,9,4.5,9C2,9,0,7,0,4.5C0,2,2,0,4.5,0C7,0,9,2,9,4.5
	c0,0.8-0.2,1.6-0.6,2.3L11.7,10.1L11.7,10.1z M4.5,1.1c-1.9,0-3.4,1.5-3.4,3.4c0,1.9,1.5,3.4,3.4,3.4c1.9,0,3.4-1.5,3.4-3.4
	C7.9,2.6,6.4,1.1,4.5,1.1z"/>
</svg>
