<?xml version="1.0" encoding="utf-8"?>
<!-- Generator: Adobe Illustrator 18.1.0, SVG Export Plug-In . SVG Version: 6.00 Build 0)  -->
<!DOCTYPE svg PUBLIC "-//W3C//DTD SVG 1.1//EN" "http://www.w3.org/Graphics/SVG/1.1/DTD/svg11.dtd">
<svg version="1.1" id="Layer_1" xmlns="http://www.w3.org/2000/svg" xmlns:xlink="http://www.w3.org/1999/xlink" x="0px" y="0px"
	 viewBox="0 0 13 13" enable-background="new 0 0 13 13" xml:space="preserve">
<path fill="#FFCE1F" d="M11.5,13h-10C0.6,13,0,12.4,0,11.5v-10C0,0.6,0.6,0,1.5,0h10C12.4,0,13,0.6,13,1.5v10
	C13,12.4,12.4,13,11.5,13z"/>
<path fill="#FFFFFF" d="M11.5,13h-10C0.6,13,0,12.4,0,11.5v-10C0,0.6,0.6,0,1.5,0h10C12.4,0,13,0.6,13,1.5v10
	C13,12.4,12.4,13,11.5,13z"/>
<g>
	<rect x="6" y="3.5" fill="#8F93AC" width="1" height="6"/>
	<rect x="3.5" y="6" fill="#8F93AC" width="6" height="1"/>
</g>
</svg>
