<?xml version="1.0" encoding="utf-8"?>
<!-- Generator: Adobe Illustrator 18.0.0, SVG Export Plug-In . SVG Version: 6.00 Build 0)  -->
<!DOCTYPE svg PUBLIC "-//W3C//DTD SVG 1.1//EN" "http://www.w3.org/Graphics/SVG/1.1/DTD/svg11.dtd">
<svg version="1.1" id="Layer_1" xmlns="http://www.w3.org/2000/svg" xmlns:xlink="http://www.w3.org/1999/xlink" x="0px" y="0px"
	 viewBox="0 0 64 64" enable-background="new 0 0 64 64" xml:space="preserve">
<g>
	<path fill="none" stroke="#FFFFFF" stroke-width="0.7846" stroke-miterlimit="10" d="M28.8,18.2c0,0,0.1,0,0.1,0"/>
	<rect x="25.5" y="12.1" fill="#FFFFFF" stroke="#FFFFFF" stroke-miterlimit="10" width="13" height="13"/>
	<g>
		<g>
			
				<linearGradient id="SVGID_1_" gradientUnits="userSpaceOnUse" x1="219.0002" y1="-0.4997" x2="180.0008" y2="38.4997" gradientTransform="matrix(0.1604 0 0 -0.1604 0 21.6064)">
				<stop  offset="0" style="stop-color:#1C6A95"/>
				<stop  offset="1" style="stop-color:#3099D5"/>
			</linearGradient>
			<path fill="url(#SVGID_1_)" d="M31.4,21.6l-1.5-4.8h0c0.1,1,0,1.7,0,2v2.8h-1.1v-6.1h1.8l1.4,4.7h0l1.5-4.7h1.7v6.1h-1.1v-2.9
				c0-0.1,0-0.3,0-0.5s0-0.7,0.1-1.5h0l-1.6,4.8L31.4,21.6L31.4,21.6z"/>
		</g>
	</g>
	<g>
		
			<linearGradient id="SVGID_2_" gradientUnits="userSpaceOnUse" x1="174.1329" y1="78.8671" x2="216.75" y2="36.25" gradientTransform="matrix(0.1604 0 0 -0.1604 0 21.6064)">
			<stop  offset="0" style="stop-color:#3099D5"/>
			<stop  offset="0.4077" style="stop-color:#2F97D3"/>
			<stop  offset="0.575" style="stop-color:#2D92CC"/>
			<stop  offset="0.6983" style="stop-color:#2989C0"/>
			<stop  offset="0.8" style="stop-color:#237CAE"/>
			<stop  offset="0.8882" style="stop-color:#1C6B97"/>
			<stop  offset="0.966" style="stop-color:#13567C"/>
			<stop  offset="1" style="stop-color:#0E4B6D"/>
		</linearGradient>
		<path fill="url(#SVGID_2_)" d="M37.6,11.3H26.2c-0.8,0-1.6,0.6-1.6,1.5v0.1h13V11.3z"/>
	</g>
	<g>
		
			<linearGradient id="SVGID_3_" gradientUnits="userSpaceOnUse" x1="-467.1211" y1="-961.8746" x2="-424.5261" y2="-1004.4698" gradientTransform="matrix(0 0.1604 0.1604 0 195.925 89.4602)">
			<stop  offset="0" style="stop-color:#3099D5"/>
			<stop  offset="0.4077" style="stop-color:#2F97D3"/>
			<stop  offset="0.575" style="stop-color:#2D92CC"/>
			<stop  offset="0.6983" style="stop-color:#2989C0"/>
			<stop  offset="0.8" style="stop-color:#237CAE"/>
			<stop  offset="0.8882" style="stop-color:#1C6B97"/>
			<stop  offset="0.966" style="stop-color:#13567C"/>
			<stop  offset="1" style="stop-color:#0E4B6D"/>
		</linearGradient>
		<path fill="url(#SVGID_3_)" d="M39.2,24.2V12.7c0-0.8-0.6-1.4-1.5-1.4h-0.2v12.8H39.2z"/>
	</g>
	<g>
		
			<linearGradient id="SVGID_4_" gradientUnits="userSpaceOnUse" x1="857.0114" y1="-1652.2178" x2="899.9025" y2="-1695.109" gradientTransform="matrix(0 -0.1604 -0.1604 0 -242.7028 160.0984)">
			<stop  offset="0" style="stop-color:#3099D5"/>
			<stop  offset="0.4077" style="stop-color:#2F97D3"/>
			<stop  offset="0.575" style="stop-color:#2D92CC"/>
			<stop  offset="0.6983" style="stop-color:#2989C0"/>
			<stop  offset="0.8" style="stop-color:#237CAE"/>
			<stop  offset="0.8882" style="stop-color:#1C6B97"/>
			<stop  offset="0.966" style="stop-color:#13567C"/>
			<stop  offset="1" style="stop-color:#0E4B6D"/>
		</linearGradient>
		<path fill="url(#SVGID_4_)" d="M24.6,12.9v11.5c0,0.8,0.9,1.5,1.8,1.5h0v-13H24.6z"/>
	</g>
	<g>
		
			<linearGradient id="SVGID_5_" gradientUnits="userSpaceOnUse" x1="-866.8121" y1="-1810.3171" x2="-823.8478" y2="-1853.2815" gradientTransform="matrix(-0.1604 0 0 0.1604 -102.9931 318.6741)">
			<stop  offset="0" style="stop-color:#3099D5"/>
			<stop  offset="0.4077" style="stop-color:#2F97D3"/>
			<stop  offset="0.575" style="stop-color:#2D92CC"/>
			<stop  offset="0.6983" style="stop-color:#2989C0"/>
			<stop  offset="0.8" style="stop-color:#237CAE"/>
			<stop  offset="0.8882" style="stop-color:#1C6B97"/>
			<stop  offset="0.966" style="stop-color:#13567C"/>
			<stop  offset="1" style="stop-color:#0E4B6D"/>
		</linearGradient>
		<path fill="url(#SVGID_5_)" d="M26.4,25.9H38c0.8,0,1.3-0.8,1.3-1.7v-0.1H26.4V25.9z"/>
	</g>
</g>
<g enable-background="new    ">
	<path fill="#1C6A95" d="M4.8,43.4l-2.5-7.1h0c0.1,1.1,0.1,2,0.1,3v4.1H1.1v-8.5h2l2.4,6.8h0l2.4-6.8h2v8.5H8.5v-4.2
		c0-0.4,0-1,0-1.7c0-0.7,0-1.1,0.1-1.2h0L6,43.4H4.8z"/>
	<path fill="#1C6A95" d="M11.9,35.3c0-0.2,0.1-0.4,0.2-0.6c0.1-0.1,0.3-0.2,0.6-0.2c0.2,0,0.4,0.1,0.6,0.2c0.1,0.1,0.2,0.3,0.2,0.6
		c0,0.2-0.1,0.4-0.2,0.5c-0.1,0.1-0.3,0.2-0.6,0.2c-0.2,0-0.4-0.1-0.6-0.2C12,35.7,11.9,35.5,11.9,35.3z M13.4,43.4H12V37h1.4V43.4z
		"/>
	<path fill="#1C6A95" d="M21,43.4h-1.4v-4c0-0.5-0.1-0.9-0.3-1.1c-0.2-0.2-0.5-0.4-1-0.4c-0.6,0-1,0.2-1.3,0.5
		c-0.3,0.3-0.4,0.9-0.4,1.7v3.2h-1.4V37h1.1l0.2,0.8h0.1c0.2-0.3,0.5-0.5,0.8-0.7c0.4-0.2,0.8-0.2,1.2-0.2c1.5,0,2.3,0.8,2.3,2.4
		V43.4z"/>
	<path fill="#1C6A95" d="M25.1,43.5c-0.8,0-1.4-0.3-1.9-0.9c-0.5-0.6-0.7-1.4-0.7-2.5c0-1.1,0.2-1.9,0.7-2.5
		c0.5-0.6,1.1-0.9,1.9-0.9c0.8,0,1.5,0.3,1.9,0.9h0.1C27,37.3,27,37,27,36.7v-2.3h1.4v9.1h-1.1L27,42.6H27
		C26.5,43.2,25.9,43.5,25.1,43.5z M25.4,42.4c0.6,0,1-0.2,1.2-0.5s0.4-0.8,0.4-1.5v-0.2c0-0.8-0.1-1.4-0.4-1.7S26,38,25.4,38
		c-0.5,0-0.9,0.2-1.1,0.6c-0.3,0.4-0.4,0.9-0.4,1.7c0,0.7,0.1,1.3,0.4,1.6C24.5,42.2,24.9,42.4,25.4,42.4z"/>
</g>
<g enable-background="new    ">
	<path fill="#3099D5" d="M33.5,38H32v5.4h-1.4V38h-1.1v-0.6l1.1-0.4v-0.4c0-0.8,0.2-1.3,0.5-1.7c0.4-0.4,0.9-0.5,1.6-0.5
		c0.5,0,1,0.1,1.4,0.2l-0.4,1c-0.3-0.1-0.7-0.2-1-0.2c-0.3,0-0.5,0.1-0.7,0.3S32,36.2,32,36.6V37h1.6V38z"/>
	<path fill="#3099D5" d="M37.9,36.9c0.3,0,0.5,0,0.7,0.1l-0.1,1.3c-0.2,0-0.4-0.1-0.6-0.1c-0.5,0-1,0.2-1.3,0.5
		C36.2,39,36,39.5,36,40v3.4h-1.4V37h1.1l0.2,1.1H36c0.2-0.4,0.5-0.7,0.8-0.9C37.1,37,37.5,36.9,37.9,36.9z"/>
	<path fill="#3099D5" d="M43.8,43.4l-0.3-0.9h0c-0.3,0.4-0.6,0.7-0.9,0.8s-0.7,0.2-1.2,0.2c-0.6,0-1.1-0.2-1.5-0.5
		c-0.4-0.3-0.5-0.8-0.5-1.5c0-0.7,0.2-1.2,0.7-1.5s1.2-0.5,2.3-0.6l1.1,0v-0.3c0-0.4-0.1-0.7-0.3-0.9c-0.2-0.2-0.5-0.3-0.9-0.3
		c-0.3,0-0.6,0-1,0.1c-0.3,0.1-0.6,0.2-0.9,0.3l-0.4-1c0.3-0.2,0.7-0.3,1.1-0.4c0.4-0.1,0.8-0.1,1.2-0.1c0.8,0,1.4,0.2,1.9,0.5
		c0.4,0.4,0.6,0.9,0.6,1.7v4.3H43.8z M41.8,42.5c0.5,0,0.9-0.1,1.2-0.4c0.3-0.3,0.5-0.7,0.5-1.2v-0.6l-0.8,0c-0.6,0-1.1,0.1-1.4,0.3
		s-0.4,0.5-0.4,0.9c0,0.3,0.1,0.5,0.3,0.7S41.4,42.5,41.8,42.5z"/>
	<path fill="#3099D5" d="M52.1,43.4h-1.4v-4c0-0.5-0.1-0.9-0.3-1.1C50.3,38.1,50,38,49.6,38c-0.5,0-0.9,0.2-1.2,0.5
		c-0.2,0.3-0.4,0.9-0.4,1.7v3.2h-1.4V37h1.1l0.2,0.8H48c0.2-0.3,0.4-0.5,0.8-0.7s0.7-0.2,1.1-0.2c1,0,1.6,0.3,2,1H52
		c0.2-0.3,0.5-0.6,0.8-0.7s0.7-0.3,1.2-0.3c0.8,0,1.3,0.2,1.7,0.6c0.4,0.4,0.5,1,0.5,1.8v4.2h-1.4v-4c0-0.5-0.1-0.9-0.3-1.1
		c-0.2-0.2-0.5-0.4-0.9-0.4c-0.5,0-0.9,0.2-1.2,0.5c-0.2,0.3-0.4,0.8-0.4,1.5V43.4z"/>
	<path fill="#3099D5" d="M60.9,43.5c-1,0-1.8-0.3-2.3-0.9c-0.6-0.6-0.8-1.4-0.8-2.4c0-1.1,0.3-1.9,0.8-2.5c0.5-0.6,1.2-0.9,2.2-0.9
		c0.9,0,1.5,0.3,2,0.8s0.7,1.2,0.7,2.1v0.7h-4.3c0,0.6,0.2,1.1,0.5,1.4s0.8,0.5,1.3,0.5c0.4,0,0.7,0,1.1-0.1
		c0.3-0.1,0.7-0.2,1.1-0.4v1.1c-0.3,0.2-0.7,0.3-1,0.3C61.7,43.5,61.4,43.5,60.9,43.5z M60.7,37.9c-0.4,0-0.8,0.1-1,0.4
		c-0.3,0.3-0.4,0.7-0.5,1.2h2.9c0-0.5-0.1-0.9-0.4-1.2C61.4,38,61.1,37.9,60.7,37.9z"/>
</g>
<g enable-background="new    ">
	<path fill="#1C5996" d="M16.9,50.8c0.1,0.1,0.4,0.2,0.6,0.2c0.4,0,0.5-0.2,0.5-0.4c0-0.2-0.1-0.4-0.5-0.5c-0.5-0.2-0.7-0.4-0.7-0.8
		c0-0.4,0.3-0.8,0.9-0.8c0.3,0,0.5,0.1,0.7,0.2l-0.1,0.4c-0.1-0.1-0.3-0.2-0.5-0.2c-0.3,0-0.4,0.2-0.4,0.4c0,0.2,0.2,0.3,0.5,0.5
		c0.5,0.2,0.7,0.4,0.7,0.8c0,0.5-0.4,0.8-1,0.8c-0.3,0-0.6-0.1-0.8-0.2L16.9,50.8z"/>
	<path fill="#1C5996" d="M19.7,47.8c0,0.2-0.1,0.3-0.3,0.3c-0.2,0-0.3-0.1-0.3-0.3c0-0.2,0.1-0.3,0.3-0.3
		C19.5,47.5,19.7,47.7,19.7,47.8z M19.1,51.3v-2.7h0.5v2.7H19.1z"/>
	<path fill="#1C5996" d="M20.4,49.3c0-0.3,0-0.5,0-0.7h0.4l0,0.4h0c0.1-0.3,0.4-0.5,0.8-0.5c0.4,0,0.6,0.2,0.8,0.5h0
		c0.1-0.2,0.2-0.3,0.3-0.3c0.2-0.1,0.3-0.2,0.6-0.2c0.4,0,0.9,0.2,0.9,1.2v1.6h-0.5v-1.5c0-0.5-0.2-0.8-0.6-0.8
		c-0.3,0-0.5,0.2-0.6,0.4c0,0.1,0,0.2,0,0.2v1.7h-0.5v-1.6c0-0.4-0.2-0.7-0.6-0.7c-0.3,0-0.5,0.2-0.6,0.5c0,0.1,0,0.2,0,0.2v1.6
		h-0.5V49.3z"/>
	<path fill="#1C5996" d="M25,49.5c0-0.3,0-0.6,0-0.9h0.4l0,0.5h0c0.2-0.3,0.5-0.5,1-0.5c0.6,0,1.1,0.5,1.1,1.4c0,1-0.6,1.4-1.2,1.4
		c-0.4,0-0.7-0.2-0.8-0.4h0v1.5H25V49.5z M25.5,50.2c0,0.1,0,0.1,0,0.2c0.1,0.3,0.4,0.6,0.7,0.6c0.5,0,0.8-0.4,0.8-1
		c0-0.5-0.3-1-0.8-1c-0.3,0-0.6,0.2-0.7,0.6c0,0.1,0,0.1,0,0.2V50.2z"/>
	<path fill="#1C5996" d="M28.2,47.3h0.5v3.9h-0.5V47.3z"/>
	<path fill="#1C5996" d="M29.7,50c0,0.7,0.4,0.9,0.9,0.9c0.3,0,0.6-0.1,0.7-0.1l0.1,0.3c-0.2,0.1-0.5,0.2-0.9,0.2
		c-0.8,0-1.3-0.5-1.3-1.4s0.5-1.4,1.3-1.4c0.9,0,1.1,0.8,1.1,1.3c0,0.1,0,0.2,0,0.2H29.7z M31.2,49.7c0-0.3-0.1-0.8-0.7-0.8
		c-0.5,0-0.7,0.5-0.7,0.8H31.2z"/>
	<path fill="#1C5996" d="M32.1,51c0-0.2,0.1-0.3,0.3-0.3c0.2,0,0.3,0.1,0.3,0.3c0,0.2-0.1,0.3-0.3,0.3C32.2,51.3,32.1,51.2,32.1,51z
		"/>
	<path fill="#1C5996" d="M34.6,51.3V49h-0.4v-0.4h0.4v-0.1c0-0.4,0.1-0.7,0.3-0.9c0.2-0.2,0.4-0.2,0.7-0.2c0.2,0,0.3,0,0.4,0.1
		l-0.1,0.4c-0.1,0-0.2-0.1-0.3-0.1c-0.4,0-0.5,0.4-0.5,0.8v0.1h0.6V49H35v2.3H34.6z"/>
	<path fill="#1C5996" d="M38.5,49.9c0,1-0.7,1.4-1.3,1.4c-0.7,0-1.3-0.5-1.3-1.4c0-0.9,0.6-1.4,1.3-1.4C38,48.5,38.5,49.1,38.5,49.9
		z M36.3,49.9c0,0.6,0.3,1,0.8,1c0.5,0,0.8-0.4,0.8-1c0-0.5-0.2-1-0.8-1C36.6,48.9,36.3,49.4,36.3,49.9z"/>
	<path fill="#1C5996" d="M41,51.2c-0.1,0.1-0.4,0.2-0.8,0.2c-0.8,0-1.3-0.5-1.3-1.4c0-0.8,0.6-1.4,1.4-1.4c0.3,0,0.5,0.1,0.7,0.1
		l-0.1,0.4c-0.1-0.1-0.3-0.1-0.6-0.1c-0.6,0-0.9,0.5-0.9,1c0,0.6,0.4,1,0.9,1c0.3,0,0.5-0.1,0.6-0.1L41,51.2z"/>
	<path fill="#1C5996" d="M43.8,50.5c0,0.3,0,0.5,0,0.7h-0.4l0-0.4h0c-0.1,0.2-0.4,0.5-0.9,0.5c-0.4,0-0.9-0.2-0.9-1.2v-1.6H42v1.5
		c0,0.5,0.2,0.9,0.6,0.9c0.3,0,0.6-0.2,0.6-0.4c0-0.1,0-0.2,0-0.2v-1.6h0.5V50.5z"/>
	<path fill="#1C5996" d="M44.5,50.8c0.1,0.1,0.4,0.2,0.6,0.2c0.4,0,0.5-0.2,0.5-0.4c0-0.2-0.1-0.4-0.5-0.5c-0.5-0.2-0.7-0.4-0.7-0.8
		c0-0.4,0.3-0.8,0.9-0.8c0.3,0,0.5,0.1,0.7,0.2L46,49.1c-0.1-0.1-0.3-0.2-0.5-0.2c-0.3,0-0.4,0.2-0.4,0.4c0,0.2,0.2,0.3,0.5,0.5
		c0.5,0.2,0.7,0.4,0.7,0.8c0,0.5-0.4,0.8-1,0.8c-0.3,0-0.6-0.1-0.8-0.2L44.5,50.8z"/>
	<path fill="#1C5996" d="M46.6,51c0-0.2,0.1-0.3,0.3-0.3c0.2,0,0.3,0.1,0.3,0.3c0,0.2-0.1,0.3-0.3,0.3C46.8,51.3,46.6,51.2,46.6,51z
		"/>
</g>
</svg>
