<?xml version="1.0" encoding="iso-8859-1"?>
<!-- Generator: Adobe Illustrator 18.0.0, SVG Export Plug-In . SVG Version: 6.00 Build 0)  -->
<!DOCTYPE svg PUBLIC "-//W3C//DTD SVG 1.1//EN" "http://www.w3.org/Graphics/SVG/1.1/DTD/svg11.dtd">
<svg version="1.1" id="Layer_1" xmlns="http://www.w3.org/2000/svg" xmlns:xlink="http://www.w3.org/1999/xlink" x="0px" y="0px"
	 viewBox="0 0 1359.586 261" style="enable-background:new 0 0 1359.586 261;" xml:space="preserve">
<g>
	<g>
		<path style="fill:#1C6A95;" d="M401.223,199.064L361.244,83.936h-0.754c1.068,17.099,1.603,33.128,1.603,48.088v67.04h-20.461
			V61.212h31.776l38.282,109.66h0.566l39.413-109.66h31.87v137.852h-21.687v-68.172c0-6.851,0.172-15.777,0.519-26.778
			c0.345-11,0.644-17.663,0.896-19.989h-0.754l-41.393,114.939H401.223z"/>
		<path style="fill:#1C6A95;" d="M516.162,67.152c0-3.96,1.084-7.008,3.253-9.146c2.169-2.136,5.264-3.206,9.288-3.206
			c3.897,0,6.931,1.07,9.099,3.206c2.169,2.138,3.253,5.186,3.253,9.146c0,3.771-1.084,6.742-3.253,8.91
			c-2.168,2.169-5.202,3.253-9.099,3.253c-4.023,0-7.119-1.084-9.288-3.253C517.247,73.894,516.162,70.924,516.162,67.152z
			 M539.641,199.064h-22.158V94.779h22.158V199.064z"/>
		<path style="fill:#1C6A95;" d="M663.066,199.064h-22.252v-64.117c0-8.045-1.619-14.049-4.856-18.009
			c-3.238-3.96-8.377-5.94-15.417-5.94c-9.367,0-16.218,2.767-20.555,8.297c-4.337,5.532-6.506,14.804-6.506,27.815v51.954h-22.158
			V94.779h17.349l3.112,13.672h1.131c3.143-4.965,7.605-8.8,13.389-11.503c5.783-2.702,12.194-4.054,19.235-4.054
			c25.018,0,37.527,12.729,37.527,38.188V199.064z"/>
		<path style="fill:#1C6A95;" d="M729.069,200.95c-13.012,0-23.164-4.715-30.456-14.144s-10.938-22.66-10.938-39.696
			c0-17.097,3.692-30.408,11.079-39.932c7.386-9.523,17.616-14.285,30.691-14.285c13.703,0,24.139,5.061,31.305,15.181h1.131
			c-1.07-7.48-1.604-13.389-1.604-17.727V52.349h22.254v146.715h-17.35l-3.867-13.672h-1.037
			C753.175,195.764,742.772,200.95,729.069,200.95z M735.01,183.035c9.112,0,15.745-2.561,19.896-7.685
			c4.148-5.123,6.283-13.437,6.41-24.939v-3.112c0-13.137-2.137-22.472-6.41-28.004c-4.275-5.53-10.971-8.297-20.084-8.297
			c-7.796,0-13.799,3.159-18.01,9.476c-4.212,6.317-6.317,15.322-6.317,27.015c0,11.566,2.042,20.383,6.129,26.448
			C720.708,180.002,726.837,183.035,735.01,183.035z"/>
		<path style="fill:#3099D5;" d="M866.544,111.563h-25.459v87.501h-22.252v-87.501h-17.161v-10.372l17.161-6.789v-6.789
			c0-12.32,2.891-21.451,8.675-27.391c5.782-5.94,14.615-8.911,26.495-8.911c7.794,0,15.464,1.289,23.007,3.866l-5.846,16.784
			c-5.469-1.759-10.688-2.64-15.652-2.64c-5.029,0-8.69,1.556-10.984,4.667c-2.296,3.112-3.442,7.779-3.442,14.002v6.789h25.459
			V111.563z"/>
		<path style="fill:#3099D5;" d="M937.167,92.894c4.463,0,8.14,0.315,11.032,0.943l-2.169,20.649
			c-3.144-0.754-6.412-1.131-9.806-1.131c-8.863,0-16.046,2.892-21.546,8.675c-5.501,5.784-8.25,13.294-8.25,22.535v54.5h-22.158
			V94.779h17.35l2.923,18.387h1.131c3.457-6.223,7.968-11.157,13.531-14.804C924.768,94.717,930.755,92.894,937.167,92.894z"/>
		<path style="fill:#3099D5;" d="M1032.777,199.064l-4.432-14.521h-0.755c-5.029,6.35-10.089,10.671-15.181,12.965
			s-11.63,3.441-19.612,3.441c-10.247,0-18.245-2.766-23.997-8.298c-5.751-5.53-8.627-13.356-8.627-23.478
			c0-10.749,3.991-18.858,11.975-24.327c7.982-5.469,20.146-8.453,36.49-8.957l18.01-0.566v-5.563
			c0-6.662-1.557-11.645-4.668-14.945s-7.937-4.95-14.474-4.95c-5.344,0-10.466,0.787-15.369,2.357
			c-4.903,1.572-9.617,3.427-14.144,5.563l-7.166-15.841c5.657-2.954,11.849-5.201,18.575-6.742c6.726-1.54,13.074-2.31,19.047-2.31
			c13.263,0,23.273,2.892,30.031,8.675c6.757,5.784,10.136,14.867,10.136,27.25v70.246H1032.777z M999.775,183.978
			c8.046,0,14.505-2.247,19.377-6.742c4.87-4.493,7.307-10.796,7.307-18.905v-9.052l-13.389,0.565
			c-10.436,0.378-18.025,2.122-22.771,5.233s-7.118,7.873-7.118,14.285c0,4.652,1.382,8.25,4.148,10.796
			C990.095,182.705,994.243,183.978,999.775,183.978z"/>
		<path style="fill:#3099D5;" d="M1167.423,199.064h-22.252v-64.306c0-7.982-1.509-13.939-4.526-17.868
			c-3.018-3.928-7.731-5.893-14.144-5.893c-8.549,0-14.819,2.782-18.811,8.345c-3.992,5.563-5.987,14.82-5.987,27.768v51.954
			h-22.158V94.779h17.35l3.111,13.672h1.132c2.89-4.965,7.086-8.8,12.587-11.503c5.5-2.702,11.551-4.054,18.151-4.054
			c16.029,0,26.651,5.469,31.87,16.406h1.508c3.08-5.153,7.417-9.177,13.013-12.069c5.594-2.891,12.006-4.337,19.235-4.337
			c12.446,0,21.513,3.144,27.202,9.429c5.688,6.287,8.533,15.874,8.533,28.759v67.983h-22.158v-64.306
			c0-7.982-1.524-13.939-4.573-17.868c-3.049-3.928-7.778-5.893-14.19-5.893c-8.612,0-14.914,2.688-18.905,8.062
			c-3.992,5.375-5.987,13.625-5.987,24.751V199.064z"/>
		<path style="fill:#3099D5;" d="M1309.706,200.95c-16.218,0-28.9-4.729-38.046-14.19c-9.146-9.46-13.72-22.488-13.72-39.083
			c0-17.034,4.243-30.423,12.729-40.168c8.486-9.743,20.146-14.615,34.981-14.615c13.767,0,24.641,4.181,32.624,12.541
			c7.982,8.361,11.976,19.864,11.976,34.51v11.976h-69.492c0.314,10.121,3.049,17.9,8.203,23.336
			c5.154,5.438,12.414,8.156,21.781,8.156c6.16,0,11.896-0.58,17.208-1.744c5.312-1.162,11.016-3.096,17.113-5.799v18.01
			c-5.406,2.578-10.875,4.4-16.406,5.469C1323.126,200.415,1316.809,200.95,1309.706,200.95z M1305.651,109.677
			c-7.041,0-12.682,2.232-16.925,6.694c-4.243,4.464-6.774,10.97-7.591,19.519h47.334c-0.127-8.612-2.201-15.134-6.224-19.565
			C1318.223,111.893,1312.69,109.677,1305.651,109.677z"/>
	</g>
	<g>
		<path style="fill-rule:evenodd;clip-rule:evenodd;fill:none;stroke:#FFFFFF;stroke-width:2.2565;stroke-miterlimit:10;" d="
			M71.989,122.931c0.665,0.03,1.332,0.055,1.999,0.074"/>
		<rect x="14.5" y="14.5" style="fill:#FFFFFF;stroke:#FFFFFF;stroke-miterlimit:10;" width="232" height="233"/>
		<g>
			<g>
				<linearGradient id="SVGID_1_" gradientUnits="userSpaceOnUse" x1="186.75" y1="187.25" x2="73.25" y2="73.75">
					<stop  offset="0" style="stop-color:#1C6A95"/>
					<stop  offset="1" style="stop-color:#3099D5"/>
				</linearGradient>
				<path style="fill:url(#SVGID_1_);" d="M118.337,186L92.222,99h-0.668C92.493,116,93,128.361,93,134.249V186H72V75h31.721
					l25.671,85h0.445l27.228-85H188v111h-21v-52.656c0-2.466,0.003-5.381,0.078-8.603c0.074-3.22,0.374-11.741,0.968-25.741h-0.668
					l-27.97,87H118.337z"/>
			</g>
		</g>
		<g>
			<linearGradient id="SVGID_2_" gradientUnits="userSpaceOnUse" x1="58.997" y1="-43.4737" x2="181.7354" y2="79.2646">
				<stop  offset="0" style="stop-color:#3099D5"/>
				<stop  offset="0.4077" style="stop-color:#2F97D3"/>
				<stop  offset="0.575" style="stop-color:#2D92CC"/>
				<stop  offset="0.6983" style="stop-color:#2989C0"/>
				<stop  offset="0.8" style="stop-color:#237CAE"/>
				<stop  offset="0.8882" style="stop-color:#1C6B97"/>
				<stop  offset="0.966" style="stop-color:#13567C"/>
				<stop  offset="1" style="stop-color:#0E4B6D"/>
			</linearGradient>
			<path style="fill:url(#SVGID_2_);" d="M233,0H25.627C11.461,0,0,12.118,0,28.059V28h233V0z"/>
		</g>
		<g>
			
				<linearGradient id="SVGID_3_" gradientUnits="userSpaceOnUse" x1="-766.9895" y1="2286.5999" x2="-644.5733" y2="2409.0161" gradientTransform="matrix(0 1 -1 0 2590.9692 825.5265)">
				<stop  offset="0" style="stop-color:#3099D5"/>
				<stop  offset="0.4077" style="stop-color:#2F97D3"/>
				<stop  offset="0.575" style="stop-color:#2D92CC"/>
				<stop  offset="0.6983" style="stop-color:#2989C0"/>
				<stop  offset="0.8" style="stop-color:#237CAE"/>
				<stop  offset="0.8882" style="stop-color:#1C6B97"/>
				<stop  offset="0.966" style="stop-color:#13567C"/>
				<stop  offset="1" style="stop-color:#0E4B6D"/>
			</linearGradient>
			<path style="fill:url(#SVGID_3_);" d="M261,232V24.874C261,10.708,248.753,0,232.813,0H233v232H261z"/>
		</g>
		<g>
			
				<linearGradient id="SVGID_4_" gradientUnits="userSpaceOnUse" x1="2030.8806" y1="1872.5709" x2="2153.9104" y2="1995.601" gradientTransform="matrix(0 -1 1 0 -1915.601 2232.9104)">
				<stop  offset="0" style="stop-color:#3099D5"/>
				<stop  offset="0.4077" style="stop-color:#2F97D3"/>
				<stop  offset="0.575" style="stop-color:#2D92CC"/>
				<stop  offset="0.6983" style="stop-color:#2989C0"/>
				<stop  offset="0.8" style="stop-color:#237CAE"/>
				<stop  offset="0.8882" style="stop-color:#1C6B97"/>
				<stop  offset="0.966" style="stop-color:#13567C"/>
				<stop  offset="1" style="stop-color:#0E4B6D"/>
			</linearGradient>
			<path style="fill:url(#SVGID_4_);" d="M0,28v207.356C0,249.522,13.023,261,28.963,261H29V28H0z"/>
		</g>
		<g>
			
				<linearGradient id="SVGID_5_" gradientUnits="userSpaceOnUse" x1="122.327" y1="3319.9573" x2="245.1512" y2="3442.7815" gradientTransform="matrix(-1 0 0 -1 324.9012 3624.0315)">
				<stop  offset="0" style="stop-color:#3099D5"/>
				<stop  offset="0.4077" style="stop-color:#2F97D3"/>
				<stop  offset="0.575" style="stop-color:#2D92CC"/>
				<stop  offset="0.6983" style="stop-color:#2989C0"/>
				<stop  offset="0.8" style="stop-color:#237CAE"/>
				<stop  offset="0.8882" style="stop-color:#1C6B97"/>
				<stop  offset="0.966" style="stop-color:#13567C"/>
				<stop  offset="1" style="stop-color:#0E4B6D"/>
			</linearGradient>
			<path style="fill:url(#SVGID_5_);" d="M29,261h207.279C250.446,261,261,248.122,261,232.181V232H29V261z"/>
		</g>
	</g>
</g>
</svg>
